M48
; DRILL file {KiCad 7.0.5} date Fri Jun 30 17:38:20 2023
; FORMAT={-:-/ absolute / inch / decimal}
; #@! TF.CreationDate,2023-06-30T17:38:20-04:00
; #@! TF.GenerationSoftware,Kicad,Pcbnew,7.0.5
; #@! TF.FileFunction,Plated,1,4,PTH
FMAT,2
INCH
; #@! TA.AperFunction,Plated,PTH,ViaDrill
T1C0.0080
; #@! TA.AperFunction,Plated,PTH,ViaDrill
T2C0.0120
; #@! TA.AperFunction,Plated,PTH,ComponentDrill
T3C0.0360
; #@! TA.AperFunction,Plated,PTH,ComponentDrill
T4C0.0394
; #@! TA.AperFunction,Plated,PTH,ComponentDrill
T5C0.1250
%
G90
G05
T1
X2.66Y-3.19
X2.695Y-3.915
X2.7Y-4.245
X2.7Y-4.755
X2.7Y-5.26
X2.7Y-5.43
X2.7646Y-2.2454
X2.82Y-4.8
X2.83Y-4.94
X2.85Y-2.8
X2.86Y-2.17
X2.8894Y-2.06
X2.89Y-3.91
X2.89Y-3.96
X2.89Y-4.01
X2.9125Y-2.2725
X2.93Y-2.17
X2.94Y-5.24
X2.94Y-5.29
X2.94Y-5.34
X2.94Y-5.44
X2.95Y-4.35
X2.9695Y-2.2848
X2.98Y-2.09
X2.99Y-4.52
X3.005Y-3.38
X3.005Y-3.625
X3.005Y-3.815
X3.01Y-5.805
X3.02Y-4.49
X3.0204Y-5.0447
X3.04Y-3.19
X3.05Y-2.34
X3.05Y-4.61
X3.06Y-4.935
X3.06Y-5.09
X3.066Y-2.49
X3.075Y-4.58
X3.09Y-4.9
X3.095Y-2.465
X3.1Y-2.09
X3.12Y-2.16
X3.13Y-3.85
X3.13Y-5.165
X3.135Y-2.45
X3.14Y-5.04
X3.16Y-4.0311
X3.17Y-4.0
X3.17Y-4.07
X3.17Y-4.102
X3.17Y-4.14
X3.17Y-5.7
X3.2Y-5.04
X3.21Y-2.595
X3.21Y-2.8
X3.21Y-2.98
X3.21Y-3.28
X3.21Y-3.475
X3.23Y-4.9
X3.23Y-5.24
X3.25Y-4.935
X3.26Y-5.29
X3.27Y-4.38
X3.273Y-4.228
X3.2733Y-3.9917
X3.275Y-4.065
X3.275Y-4.097
X3.2756Y-4.1615
X3.295Y-4.465
X3.295Y-4.615
X3.3Y-5.06
X3.31Y-5.19
X3.3108Y-4.0062
X3.33Y-3.72
X3.34Y-5.81
X3.3663Y-3.9995
X3.37Y-3.75
X3.37Y-5.06
X3.3756Y-4.275
X3.385Y-3.93
X3.4Y-4.61
X3.4058Y-3.9982
X3.4076Y-4.275
X3.41Y-3.96
X3.44Y-4.26
X3.45Y-4.61
X3.45Y-5.375
X3.45Y-5.405
X3.4627Y-4.3873
X3.47Y-3.9251
X3.47Y-3.64
X3.47Y-4.445
X3.48Y-4.27
X3.48Y-5.705
X3.49Y-3.82
X3.5Y-4.61
X3.5099Y-3.9253
X3.51Y-3.97
X3.5144Y-4.3856
X3.53Y-3.82
X3.54Y-3.43
X3.54Y-4.02
X3.54Y-4.07
X3.54Y-4.15
X3.57Y-3.36
X3.59Y-2.98
X3.59Y-3.15
X3.59Y-3.93
X3.595Y-2.595
X3.6Y-5.81
X3.605Y-4.465
X3.61Y-4.615
X3.6106Y-2.86
X3.62Y-4.07
X3.62Y-4.11
X3.62Y-4.15
X3.625Y-3.9455
X3.625Y-3.9775
X3.625Y-4.2211
X3.625Y-4.2531
X3.65Y-3.645
X3.665Y-4.465
X3.675Y-4.56
X3.675Y-4.615
X3.685Y-4.425
X3.6927Y-3.4027
X3.715Y-4.275
X3.72Y-3.87
X3.7218Y-4.0847
X3.7275Y-3.43
X3.75Y-3.895
X3.755Y-2.8
X3.77Y-3.37
X3.77Y-4.315
X3.775Y-4.41
X3.785Y-4.62
X3.79Y-3.464
X3.8Y-4.44
X3.81Y-4.01
X3.82Y-4.41
X3.83Y-3.65
X3.83Y-3.81
X3.84Y-3.49
X3.855Y-4.01
X3.86Y-4.215
X3.87Y-3.65
X3.87Y-3.81
X3.875Y-4.61
X3.89Y-3.32
X3.89Y-4.1886
X3.8994Y-2.7344
X3.91Y-3.08
X3.91Y-3.12
X3.92Y-3.65
X3.92Y-3.81
X3.92Y-3.9
X3.92Y-4.01
X3.925Y-4.3
X3.925Y-4.615
X3.93Y-4.575
X3.94Y-4.195
X3.945Y-4.689
X3.945Y-4.9
X3.96Y-3.65
X3.96Y-3.81
X3.965Y-3.2203
X3.965Y-5.715
X3.97Y-4.3
X3.975Y-5.12
X3.975Y-5.42
X3.98Y-2.475
X4.02Y-2.825
X4.0231Y-3.78
X4.05Y-4.77
X4.05Y-4.81
X4.05Y-4.86
X4.0569Y-3.78
X4.0591Y-3.384
X4.06Y-4.32
X4.06Y-4.91
X4.0602Y-4.9498
X4.085Y-5.305
X4.09Y-5.56
X4.1Y-2.86
X4.1Y-3.47
X4.1Y-3.65
X4.1Y-5.815
X4.11Y-2.51
X4.11Y-3.9
X4.11Y-4.32
X4.12Y-2.735
X4.135Y-4.65
X4.14Y-3.65
X4.16Y-4.32
X4.2027Y-3.5873
X4.215Y-4.135
X4.2489Y-4.22
X4.25Y-3.79
X4.25Y-3.85
X4.25Y-3.97
X4.25Y-4.1
X4.25Y-4.16
X4.25Y-4.53
X4.25Y-4.59
X4.25Y-4.71
X4.25Y-4.84
X4.25Y-4.9
X4.25Y-4.96
X4.25Y-5.27
X4.255Y-2.67
X4.26Y-5.33
X4.26Y-5.45
X4.26Y-5.58
X4.26Y-5.64
X4.26Y-5.7
X4.27Y-2.735
X4.29Y-2.5175
X4.35Y-3.675
X4.42Y-4.83
X4.43Y-4.1
X4.44Y-5.58
X4.45Y-3.93
X4.45Y-4.67
X4.46Y-3.33
X4.46Y-3.46
X4.46Y-5.41
X4.468Y-4.102
X4.468Y-4.842
X4.47Y-3.675
X4.478Y-5.582
X4.4981Y-3.93
X4.4981Y-4.67
X4.5081Y-5.41
X4.56Y-3.93
X4.56Y-4.67
X4.57Y-5.41
X4.6Y-3.675
X4.6Y-3.7926
X4.6Y-3.83
X4.6Y-4.5326
X4.6Y-4.57
X4.61Y-5.2726
X4.61Y-5.31
X4.64Y-4.57
X4.64Y-4.94
X4.65Y-5.675
X4.6538Y-4.2306
X4.655Y-4.3
X4.665Y-4.48
X4.665Y-4.54
X4.685Y-5.22
X4.685Y-5.28
X4.69Y-4.7272
X4.69Y-4.805
X4.691Y-4.064
X4.6928Y-3.9872
X4.7Y-5.4672
X4.7Y-5.545
X4.72Y-4.17
X4.725Y-5.17
X4.73Y-4.885
X4.74Y-5.625
X4.76Y-3.46
X4.7925Y-4.3
X4.8Y-3.92
X4.8Y-4.08
X4.8Y-4.13
X4.8Y-4.18
X4.8Y-4.66
X4.8Y-4.82
X4.8Y-4.87
X4.8Y-4.92
X4.81Y-5.4
X4.81Y-5.56
X4.81Y-5.61
X4.81Y-5.66
X4.82Y-3.77
X4.82Y-3.81
X4.82Y-3.85
X4.82Y-3.89
X4.82Y-4.51
X4.82Y-4.55
X4.82Y-4.59
X4.82Y-4.63
X4.83Y-4.45
X4.83Y-5.17
X4.83Y-5.25
X4.83Y-5.29
X4.83Y-5.33
X4.83Y-5.37
X4.84Y-3.92
X4.84Y-4.08
X4.84Y-4.66
X4.84Y-4.82
X4.85Y-5.4
X4.85Y-5.56
X4.875Y-4.09
X4.875Y-4.83
X4.885Y-5.57
X4.905Y-4.09
X4.905Y-4.83
X4.915Y-5.57
X4.93Y-3.77
X4.93Y-3.905
X4.93Y-4.51
X4.93Y-4.645
X4.935Y-4.09
X4.935Y-4.83
X4.94Y-5.25
X4.94Y-5.385
X4.945Y-5.57
X4.951Y-3.9871
X4.9592Y-4.7272
X4.96Y-4.02
X4.96Y-4.76
X4.97Y-5.468
X4.97Y-5.5
X5.01Y-4.135
X5.01Y-4.175
X5.01Y-4.875
X5.01Y-4.915
X5.02Y-5.615
X5.02Y-5.655
X5.09Y-3.47
X5.115Y-4.15
X5.115Y-4.89
X5.125Y-5.63
X5.15Y-4.15
X5.15Y-4.89
X5.16Y-5.63
X5.185Y-4.15
X5.185Y-4.89
X5.195Y-5.63
X5.225Y-5.205
X5.245Y-3.76
X5.245Y-4.5
X5.255Y-5.24
X5.3485Y-3.8426
X5.3485Y-4.5826
X5.35Y-3.88
X5.35Y-4.62
X5.3585Y-5.3226
X5.36Y-5.36
X5.38Y-4.14
X5.38Y-4.88
X5.39Y-5.62
X5.4Y-4.3
X5.4Y-5.04
X5.41Y-4.21
X5.41Y-4.95
X5.41Y-5.78
X5.42Y-5.69
X5.45Y-3.31
X5.45Y-3.35
X5.45Y-3.88
X5.45Y-3.9174
X5.45Y-4.62
X5.45Y-4.6574
X5.455Y-2.29
X5.46Y-5.36
X5.46Y-5.3974
X5.49Y-2.29
X5.49Y-5.75
X5.505Y-4.185
X5.505Y-4.925
X5.51Y-4.24
X5.515Y-5.665
X5.525Y-2.29
X5.53Y-2.1885
X5.53Y-5.8
X5.585Y-2.62
X5.585Y-2.66
X5.59Y-4.525
X5.59Y-3.785
X5.6Y-5.26
X5.61Y-3.07
X5.61Y-3.11
X5.61Y-3.21
X5.61Y-3.31
X5.61Y-3.35
X5.63Y-2.28
X5.64Y-2.19
X5.67Y-5.18
X5.675Y-3.7
X5.675Y-4.4403
X5.71Y-3.08
X5.88Y-4.97
X5.885Y-4.23
X5.89Y-2.555
X5.89Y-2.715
X5.895Y-3.16
X5.895Y-3.31
X5.9Y-2.945
T2
X2.89Y-4.13
X2.89Y-4.1895
X2.89Y-4.25
X3.31Y-3.575
X3.5033Y-2.42
X3.8183Y-2.28
X3.8183Y-2.3206
X3.9127Y-2.335
X3.945Y-2.365
X4.15Y-3.2685
X4.15Y-3.3085
X4.165Y-3.14
X4.165Y-3.18
X4.335Y-3.14
X4.335Y-3.18
X4.35Y-3.265
X4.35Y-3.305
X4.42Y-2.505
X4.42Y-2.89
X4.4482Y-2.2794
X4.4482Y-2.32
X4.46Y-2.92
X4.475Y-2.505
X4.5Y-2.89
X4.5112Y-2.2794
X4.5112Y-2.32
X4.54Y-2.92
X4.55Y-3.2685
X4.55Y-3.3085
X4.565Y-3.14
X4.565Y-3.18
X4.58Y-2.89
X4.62Y-2.92
X4.625Y-2.505
X4.66Y-2.89
X4.6687Y-2.2794
X4.6687Y-2.32
X4.675Y-2.505
X4.735Y-3.14
X4.735Y-3.18
X4.745Y-2.685
X4.7539Y-3.2668
X4.7539Y-3.3068
X4.91Y-2.2794
X4.91Y-2.32
X4.95Y-3.2685
X4.95Y-3.3085
X4.96Y-2.2794
X4.96Y-2.32
X4.965Y-3.14
X4.965Y-3.18
X4.98Y-2.54
X5.0151Y-2.2794
X5.0151Y-2.32
X5.135Y-3.14
X5.135Y-3.18
X5.1539Y-3.2668
X5.1539Y-3.3068
X5.18Y-4.2
X5.18Y-4.95
X5.18Y-5.68
X5.23Y-4.2
X5.23Y-4.93
X5.23Y-5.67
X5.26Y-3.9
X5.26Y-3.95
X5.26Y-4.0
X5.26Y-4.05
X5.26Y-4.1
X5.26Y-4.16
X5.26Y-4.64
X5.26Y-4.69
X5.26Y-4.74
X5.26Y-4.79
X5.26Y-4.84
X5.26Y-4.89
X5.27Y-5.38
X5.27Y-5.43
X5.27Y-5.48
X5.27Y-5.53
X5.27Y-5.58
X5.27Y-5.64
X5.29Y-3.5
X5.34Y-3.5
X5.395Y-2.4
X5.395Y-2.44
X5.75Y-2.775
T3
X2.75Y-3.425
X3.775Y-5.8
X5.85Y-3.425
T4
X3.99Y-3.465
X4.25Y-3.46
X4.44Y-4.345
X4.57Y-5.785
X4.59Y-4.345
X4.595Y-5.035
X4.65Y-3.46
X4.81Y-5.035
X4.85Y-5.81
X4.86Y-4.295
X4.9Y-3.46
X4.91Y-3.7
X4.91Y-4.44
X4.92Y-5.19
X5.01Y-4.295
X5.01Y-5.035
X5.02Y-5.81
X5.11Y-3.7
X5.11Y-4.44
X5.12Y-5.19
X5.24Y-4.295
X5.24Y-5.035
X5.25Y-5.81
X5.275Y-3.4
X5.355Y-2.88
X5.45Y-3.46
X5.59Y-3.565
X5.59Y-3.89
X5.59Y-4.05
X5.59Y-4.31
X5.59Y-4.63
X5.59Y-4.79
X5.6Y-5.06
X5.6Y-5.37
X5.6Y-5.53
T5
X2.7Y-5.8
X2.85Y-2.425
X5.75Y-2.425
X5.85Y-5.8
T0
M30
