%TF.GenerationSoftware,KiCad,Pcbnew,7.0.5*%
%TF.CreationDate,2023-06-30T17:38:18-04:00*%
%TF.ProjectId,magnetotorqer-drive-board,6d61676e-6574-46f7-946f-727165722d64,A*%
%TF.SameCoordinates,Original*%
%TF.FileFunction,Paste,Bot*%
%TF.FilePolarity,Positive*%
%FSLAX46Y46*%
G04 Gerber Fmt 4.6, Leading zero omitted, Abs format (unit mm)*
G04 Created by KiCad (PCBNEW 7.0.5) date 2023-06-30 17:38:18*
%MOMM*%
%LPD*%
G01*
G04 APERTURE LIST*
G04 Aperture macros list*
%AMRoundRect*
0 Rectangle with rounded corners*
0 $1 Rounding radius*
0 $2 $3 $4 $5 $6 $7 $8 $9 X,Y pos of 4 corners*
0 Add a 4 corners polygon primitive as box body*
4,1,4,$2,$3,$4,$5,$6,$7,$8,$9,$2,$3,0*
0 Add four circle primitives for the rounded corners*
1,1,$1+$1,$2,$3*
1,1,$1+$1,$4,$5*
1,1,$1+$1,$6,$7*
1,1,$1+$1,$8,$9*
0 Add four rect primitives between the rounded corners*
20,1,$1+$1,$2,$3,$4,$5,0*
20,1,$1+$1,$4,$5,$6,$7,0*
20,1,$1+$1,$6,$7,$8,$9,0*
20,1,$1+$1,$8,$9,$2,$3,0*%
G04 Aperture macros list end*
%ADD10RoundRect,0.225000X0.225000X0.250000X-0.225000X0.250000X-0.225000X-0.250000X0.225000X-0.250000X0*%
%ADD11RoundRect,0.250000X-0.475000X0.250000X-0.475000X-0.250000X0.475000X-0.250000X0.475000X0.250000X0*%
%ADD12RoundRect,0.200000X-0.275000X0.200000X-0.275000X-0.200000X0.275000X-0.200000X0.275000X0.200000X0*%
%ADD13RoundRect,0.200000X0.275000X-0.200000X0.275000X0.200000X-0.275000X0.200000X-0.275000X-0.200000X0*%
%ADD14R,0.400000X0.510000*%
%ADD15RoundRect,0.225000X0.250000X-0.225000X0.250000X0.225000X-0.250000X0.225000X-0.250000X-0.225000X0*%
%ADD16RoundRect,0.250000X-0.250000X-0.475000X0.250000X-0.475000X0.250000X0.475000X-0.250000X0.475000X0*%
%ADD17RoundRect,0.135000X-0.135000X-0.185000X0.135000X-0.185000X0.135000X0.185000X-0.135000X0.185000X0*%
%ADD18R,0.370000X1.000000*%
%ADD19RoundRect,0.250000X0.250000X0.475000X-0.250000X0.475000X-0.250000X-0.475000X0.250000X-0.475000X0*%
%ADD20RoundRect,0.135000X0.135000X0.185000X-0.135000X0.185000X-0.135000X-0.185000X0.135000X-0.185000X0*%
%ADD21RoundRect,0.225000X-0.250000X0.225000X-0.250000X-0.225000X0.250000X-0.225000X0.250000X0.225000X0*%
%ADD22RoundRect,0.225000X-0.225000X-0.250000X0.225000X-0.250000X0.225000X0.250000X-0.225000X0.250000X0*%
%ADD23RoundRect,0.250000X0.475000X-0.250000X0.475000X0.250000X-0.475000X0.250000X-0.475000X-0.250000X0*%
%ADD24RoundRect,0.135000X-0.185000X0.135000X-0.185000X-0.135000X0.185000X-0.135000X0.185000X0.135000X0*%
%ADD25RoundRect,0.135000X0.185000X-0.135000X0.185000X0.135000X-0.185000X0.135000X-0.185000X-0.135000X0*%
%ADD26R,0.650000X0.400000*%
%ADD27RoundRect,0.200000X0.200000X0.275000X-0.200000X0.275000X-0.200000X-0.275000X0.200000X-0.275000X0*%
%ADD28RoundRect,0.147500X-0.147500X-0.172500X0.147500X-0.172500X0.147500X0.172500X-0.147500X0.172500X0*%
%ADD29RoundRect,0.147500X0.147500X0.172500X-0.147500X0.172500X-0.147500X-0.172500X0.147500X-0.172500X0*%
%ADD30RoundRect,0.200000X-0.200000X-0.275000X0.200000X-0.275000X0.200000X0.275000X-0.200000X0.275000X0*%
G04 APERTURE END LIST*
D10*
%TO.C,C27*%
X90437000Y-113284000D03*
X88887000Y-113284000D03*
%TD*%
D11*
%TO.C,C67*%
X114046000Y-133416000D03*
X114046000Y-135316000D03*
%TD*%
D12*
%TO.C,R20*%
X107315000Y-63945000D03*
X107315000Y-65595000D03*
%TD*%
%TO.C,R22*%
X100076000Y-63945000D03*
X100076000Y-65595000D03*
%TD*%
D13*
%TO.C,R43*%
X92964000Y-104965000D03*
X92964000Y-103315000D03*
%TD*%
D10*
%TO.C,C5*%
X94247000Y-71359000D03*
X92697000Y-71359000D03*
%TD*%
D14*
%TO.C,Q9*%
X71874000Y-57033000D03*
X70874000Y-57033000D03*
X71374000Y-55743000D03*
%TD*%
D15*
%TO.C,C36*%
X84074000Y-104407000D03*
X84074000Y-102857000D03*
%TD*%
D10*
%TO.C,C81*%
X138189000Y-104272000D03*
X136639000Y-104272000D03*
%TD*%
D16*
%TO.C,C33*%
X88204000Y-93726000D03*
X90104000Y-93726000D03*
%TD*%
D10*
%TO.C,C66*%
X138189000Y-123068000D03*
X136639000Y-123068000D03*
%TD*%
D12*
%TO.C,R25*%
X105537000Y-63945000D03*
X105537000Y-65595000D03*
%TD*%
D17*
%TO.C,R54*%
X71118000Y-54102000D03*
X72138000Y-54102000D03*
%TD*%
D18*
%TO.C,LED2*%
X79670000Y-52324000D03*
X77810000Y-52324000D03*
%TD*%
D19*
%TO.C,C74*%
X124902000Y-139192000D03*
X123002000Y-139192000D03*
%TD*%
D11*
%TO.C,C71*%
X112522000Y-138496000D03*
X112522000Y-140396000D03*
%TD*%
%TO.C,C43*%
X113792000Y-95824000D03*
X113792000Y-97724000D03*
%TD*%
D19*
%TO.C,C56*%
X116266000Y-121666000D03*
X114366000Y-121666000D03*
%TD*%
%TO.C,C22*%
X129220000Y-83439000D03*
X127320000Y-83439000D03*
%TD*%
%TO.C,C19*%
X108900000Y-80264000D03*
X107000000Y-80264000D03*
%TD*%
D20*
%TO.C,R50*%
X76202000Y-54102000D03*
X75182000Y-54102000D03*
%TD*%
D12*
%TO.C,R87*%
X125222000Y-115380000D03*
X125222000Y-117030000D03*
%TD*%
D21*
%TO.C,C37*%
X92964000Y-106921000D03*
X92964000Y-108471000D03*
%TD*%
D22*
%TO.C,C53*%
X136766000Y-97536000D03*
X138316000Y-97536000D03*
%TD*%
D21*
%TO.C,C51*%
X127000000Y-102095000D03*
X127000000Y-103645000D03*
%TD*%
D19*
%TO.C,C32*%
X90104000Y-95885000D03*
X88204000Y-95885000D03*
%TD*%
D13*
%TO.C,R36*%
X84773000Y-113284000D03*
X84773000Y-111634000D03*
%TD*%
D21*
%TO.C,C44*%
X115824000Y-95999000D03*
X115824000Y-97549000D03*
%TD*%
D23*
%TO.C,C38*%
X85979000Y-104582000D03*
X85979000Y-102682000D03*
%TD*%
D21*
%TO.C,C75*%
X127000000Y-139687000D03*
X127000000Y-141237000D03*
%TD*%
D19*
%TO.C,C23*%
X119060000Y-80264000D03*
X117160000Y-80264000D03*
%TD*%
D21*
%TO.C,C35*%
X92964000Y-99809000D03*
X92964000Y-101359000D03*
%TD*%
D24*
%TO.C,R48*%
X78486000Y-59434000D03*
X78486000Y-60454000D03*
%TD*%
D25*
%TO.C,R49*%
X74930000Y-57152000D03*
X74930000Y-56132000D03*
%TD*%
D26*
%TO.C,Q4*%
X101920000Y-65420000D03*
X101920000Y-64770000D03*
X101920000Y-64120000D03*
X103820000Y-64120000D03*
X103820000Y-64770000D03*
X103820000Y-65420000D03*
%TD*%
D27*
%TO.C,R15*%
X107505000Y-71247000D03*
X105855000Y-71247000D03*
%TD*%
D22*
%TO.C,C34*%
X88125000Y-98679000D03*
X89675000Y-98679000D03*
%TD*%
%TO.C,C64*%
X136766000Y-116332000D03*
X138316000Y-116332000D03*
%TD*%
D18*
%TO.C,LED4*%
X72685000Y-52324000D03*
X70825000Y-52324000D03*
%TD*%
D15*
%TO.C,C10*%
X117221000Y-107455000D03*
X117221000Y-105905000D03*
%TD*%
D21*
%TO.C,C68*%
X116078000Y-133591000D03*
X116078000Y-135141000D03*
%TD*%
D19*
%TO.C,C20*%
X129220000Y-80264000D03*
X127320000Y-80264000D03*
%TD*%
D22*
%TO.C,C6*%
X96507000Y-70739000D03*
X98057000Y-70739000D03*
%TD*%
D10*
%TO.C,C79*%
X138443000Y-141864000D03*
X136893000Y-141864000D03*
%TD*%
D13*
%TO.C,R21*%
X100076000Y-71183000D03*
X100076000Y-69533000D03*
%TD*%
D12*
%TO.C,R68*%
X125222000Y-96584000D03*
X125222000Y-98234000D03*
%TD*%
D11*
%TO.C,C54*%
X113792000Y-114620000D03*
X113792000Y-116520000D03*
%TD*%
D28*
%TO.C,D2*%
X141755000Y-59182000D03*
X142725000Y-59182000D03*
%TD*%
D29*
%TO.C,D1*%
X140439000Y-59182000D03*
X139469000Y-59182000D03*
%TD*%
D26*
%TO.C,Q1*%
X101920000Y-71008000D03*
X101920000Y-70358000D03*
X101920000Y-69708000D03*
X103820000Y-69708000D03*
X103820000Y-70358000D03*
X103820000Y-71008000D03*
%TD*%
D24*
%TO.C,R52*%
X73406000Y-56132000D03*
X73406000Y-57152000D03*
%TD*%
D10*
%TO.C,C57*%
X115837000Y-119634000D03*
X114287000Y-119634000D03*
%TD*%
D26*
%TO.C,Q8*%
X78420000Y-56246000D03*
X78420000Y-56896000D03*
X78420000Y-57546000D03*
X76520000Y-57546000D03*
X76520000Y-56896000D03*
X76520000Y-56246000D03*
%TD*%
D10*
%TO.C,C46*%
X115837000Y-100838000D03*
X114287000Y-100838000D03*
%TD*%
%TO.C,C70*%
X116091000Y-138430000D03*
X114541000Y-138430000D03*
%TD*%
D19*
%TO.C,C50*%
X124394000Y-101600000D03*
X122494000Y-101600000D03*
%TD*%
D16*
%TO.C,C13*%
X101920000Y-67564000D03*
X103820000Y-67564000D03*
%TD*%
D18*
%TO.C,LED3*%
X76495000Y-52324000D03*
X74635000Y-52324000D03*
%TD*%
D21*
%TO.C,C55*%
X115824000Y-114795000D03*
X115824000Y-116345000D03*
%TD*%
D22*
%TO.C,C39*%
X85331000Y-109728000D03*
X86881000Y-109728000D03*
%TD*%
D20*
%TO.C,R32*%
X79250000Y-54102000D03*
X78230000Y-54102000D03*
%TD*%
D12*
%TO.C,R106*%
X125476000Y-134176000D03*
X125476000Y-135826000D03*
%TD*%
D11*
%TO.C,C47*%
X112268000Y-100904000D03*
X112268000Y-102804000D03*
%TD*%
D19*
%TO.C,C45*%
X116266000Y-102870000D03*
X114366000Y-102870000D03*
%TD*%
D22*
%TO.C,C77*%
X137020000Y-135128000D03*
X138570000Y-135128000D03*
%TD*%
D30*
%TO.C,R13*%
X105855000Y-69469000D03*
X107505000Y-69469000D03*
%TD*%
D19*
%TO.C,C61*%
X124648000Y-120142000D03*
X122748000Y-120142000D03*
%TD*%
D11*
%TO.C,C58*%
X112268000Y-119700000D03*
X112268000Y-121600000D03*
%TD*%
D21*
%TO.C,C62*%
X127000000Y-120891000D03*
X127000000Y-122441000D03*
%TD*%
D19*
%TO.C,C25*%
X119060000Y-83439000D03*
X117160000Y-83439000D03*
%TD*%
%TO.C,C21*%
X108900000Y-83439000D03*
X107000000Y-83439000D03*
%TD*%
D23*
%TO.C,C8*%
X120523000Y-109220000D03*
X120523000Y-107320000D03*
%TD*%
D19*
%TO.C,C69*%
X116520000Y-140462000D03*
X114620000Y-140462000D03*
%TD*%
M02*
