%TF.GenerationSoftware,KiCad,Pcbnew,7.0.5*%
%TF.CreationDate,2023-06-30T17:38:18-04:00*%
%TF.ProjectId,magnetotorqer-drive-board,6d61676e-6574-46f7-946f-727165722d64,A*%
%TF.SameCoordinates,Original*%
%TF.FileFunction,Soldermask,Top*%
%TF.FilePolarity,Negative*%
%FSLAX46Y46*%
G04 Gerber Fmt 4.6, Leading zero omitted, Abs format (unit mm)*
G04 Created by KiCad (PCBNEW 7.0.5) date 2023-06-30 17:38:18*
%MOMM*%
%LPD*%
G01*
G04 APERTURE LIST*
G04 Aperture macros list*
%AMRoundRect*
0 Rectangle with rounded corners*
0 $1 Rounding radius*
0 $2 $3 $4 $5 $6 $7 $8 $9 X,Y pos of 4 corners*
0 Add a 4 corners polygon primitive as box body*
4,1,4,$2,$3,$4,$5,$6,$7,$8,$9,$2,$3,0*
0 Add four circle primitives for the rounded corners*
1,1,$1+$1,$2,$3*
1,1,$1+$1,$4,$5*
1,1,$1+$1,$6,$7*
1,1,$1+$1,$8,$9*
0 Add four rect primitives between the rounded corners*
20,1,$1+$1,$2,$3,$4,$5,0*
20,1,$1+$1,$4,$5,$6,$7,0*
20,1,$1+$1,$6,$7,$8,$9,0*
20,1,$1+$1,$8,$9,$2,$3,0*%
%AMFreePoly0*
4,1,12,0.105238,2.379067,0.194454,2.319454,0.254067,2.230238,0.275000,2.125000,0.275000,-1.400000,-0.275000,-1.400000,-0.275000,2.125000,-0.254067,2.230238,-0.194454,2.319454,-0.105238,2.379067,0.000000,2.400000,0.105238,2.379067,0.105238,2.379067,$1*%
%AMFreePoly1*
4,1,9,3.862500,-0.866500,0.737500,-0.866500,0.737500,-0.450000,-0.737500,-0.450000,-0.737500,0.450000,0.737500,0.450000,0.737500,0.866500,3.862500,0.866500,3.862500,-0.866500,3.862500,-0.866500,$1*%
G04 Aperture macros list end*
%ADD10C,0.100000*%
%ADD11RoundRect,0.200000X0.275000X-0.200000X0.275000X0.200000X-0.275000X0.200000X-0.275000X-0.200000X0*%
%ADD12C,1.600000*%
%ADD13RoundRect,0.200000X-0.200000X-0.275000X0.200000X-0.275000X0.200000X0.275000X-0.200000X0.275000X0*%
%ADD14R,2.790000X1.903000*%
%ADD15RoundRect,0.200000X-0.275000X0.200000X-0.275000X-0.200000X0.275000X-0.200000X0.275000X0.200000X0*%
%ADD16RoundRect,0.200000X0.200000X0.275000X-0.200000X0.275000X-0.200000X-0.275000X0.200000X-0.275000X0*%
%ADD17RoundRect,0.225000X-0.250000X0.225000X-0.250000X-0.225000X0.250000X-0.225000X0.250000X0.225000X0*%
%ADD18R,1.550000X0.600000*%
%ADD19R,1.800000X0.800000*%
%ADD20RoundRect,0.225000X-0.225000X-0.250000X0.225000X-0.250000X0.225000X0.250000X-0.225000X0.250000X0*%
%ADD21RoundRect,0.225000X0.250000X-0.225000X0.250000X0.225000X-0.250000X0.225000X-0.250000X-0.225000X0*%
%ADD22RoundRect,0.250000X-0.262500X-0.450000X0.262500X-0.450000X0.262500X0.450000X-0.262500X0.450000X0*%
%ADD23R,2.400000X0.740000*%
%ADD24R,0.850000X1.600000*%
%ADD25RoundRect,0.140000X-0.140000X-0.170000X0.140000X-0.170000X0.140000X0.170000X-0.140000X0.170000X0*%
%ADD26C,2.000000*%
%ADD27RoundRect,0.250000X0.325000X1.100000X-0.325000X1.100000X-0.325000X-1.100000X0.325000X-1.100000X0*%
%ADD28RoundRect,0.150000X0.512500X0.150000X-0.512500X0.150000X-0.512500X-0.150000X0.512500X-0.150000X0*%
%ADD29R,0.340000X0.969500*%
%ADD30C,5.080000*%
%ADD31R,2.510000X1.000000*%
%ADD32R,0.300000X1.400000*%
%ADD33RoundRect,0.225000X-0.375000X0.225000X-0.375000X-0.225000X0.375000X-0.225000X0.375000X0.225000X0*%
%ADD34C,1.524000*%
%ADD35RoundRect,0.317500X-0.317500X1.587500X-0.317500X-1.587500X0.317500X-1.587500X0.317500X1.587500X0*%
%ADD36RoundRect,0.135000X0.185000X-0.135000X0.185000X0.135000X-0.185000X0.135000X-0.185000X-0.135000X0*%
%ADD37R,0.650000X0.400000*%
%ADD38RoundRect,0.250000X-0.250000X-0.475000X0.250000X-0.475000X0.250000X0.475000X-0.250000X0.475000X0*%
%ADD39R,0.700000X0.450000*%
%ADD40RoundRect,0.317500X-1.587500X-0.317500X1.587500X-0.317500X1.587500X0.317500X-1.587500X0.317500X0*%
%ADD41RoundRect,0.250000X0.475000X-0.250000X0.475000X0.250000X-0.475000X0.250000X-0.475000X-0.250000X0*%
%ADD42R,0.400000X0.650000*%
%ADD43RoundRect,0.225000X-0.225000X-0.375000X0.225000X-0.375000X0.225000X0.375000X-0.225000X0.375000X0*%
%ADD44R,1.800000X1.000000*%
%ADD45R,0.250000X0.500000*%
%ADD46R,1.600000X0.900000*%
%ADD47R,0.370000X1.000000*%
%ADD48FreePoly0,0.000000*%
%ADD49RoundRect,0.250000X1.025000X-0.787500X1.025000X0.787500X-1.025000X0.787500X-1.025000X-0.787500X0*%
%ADD50R,1.100000X0.500000*%
%ADD51R,2.000000X2.000000*%
%ADD52RoundRect,0.150000X-0.587500X-0.150000X0.587500X-0.150000X0.587500X0.150000X-0.587500X0.150000X0*%
%ADD53R,3.150000X1.000000*%
%ADD54RoundRect,0.100000X-0.625000X-0.100000X0.625000X-0.100000X0.625000X0.100000X-0.625000X0.100000X0*%
%ADD55R,1.650000X2.850000*%
%ADD56RoundRect,0.250000X0.325000X0.650000X-0.325000X0.650000X-0.325000X-0.650000X0.325000X-0.650000X0*%
%ADD57R,0.900000X1.300000*%
%ADD58FreePoly1,90.000000*%
%ADD59RoundRect,0.225000X0.225000X0.250000X-0.225000X0.250000X-0.225000X-0.250000X0.225000X-0.250000X0*%
%ADD60RoundRect,0.135000X-0.135000X-0.185000X0.135000X-0.185000X0.135000X0.185000X-0.135000X0.185000X0*%
%ADD61RoundRect,0.150000X0.150000X-0.725000X0.150000X0.725000X-0.150000X0.725000X-0.150000X-0.725000X0*%
%ADD62RoundRect,0.250000X-0.375000X-1.075000X0.375000X-1.075000X0.375000X1.075000X-0.375000X1.075000X0*%
%ADD63RoundRect,0.150000X0.150000X-0.587500X0.150000X0.587500X-0.150000X0.587500X-0.150000X-0.587500X0*%
%ADD64RoundRect,0.317500X1.587500X0.317500X-1.587500X0.317500X-1.587500X-0.317500X1.587500X-0.317500X0*%
%ADD65RoundRect,0.050800X0.450000X-0.450000X0.450000X0.450000X-0.450000X0.450000X-0.450000X-0.450000X0*%
%ADD66RoundRect,0.250000X0.250000X0.475000X-0.250000X0.475000X-0.250000X-0.475000X0.250000X-0.475000X0*%
%ADD67RoundRect,0.075000X-0.662500X-0.075000X0.662500X-0.075000X0.662500X0.075000X-0.662500X0.075000X0*%
%ADD68RoundRect,0.075000X-0.075000X-0.662500X0.075000X-0.662500X0.075000X0.662500X-0.075000X0.662500X0*%
G04 APERTURE END LIST*
%TO.C,Q5*%
G36*
X129415000Y-65189000D02*
G01*
X129075000Y-65189000D01*
X129075000Y-64219500D01*
X129413000Y-64219500D01*
X129415000Y-65189000D01*
G37*
G36*
X128767000Y-65189000D02*
G01*
X128427000Y-65189000D01*
X128427000Y-64219500D01*
X128765000Y-64219500D01*
X128767000Y-65189000D01*
G37*
G36*
X128117000Y-65189000D02*
G01*
X127777000Y-65189000D01*
X127777000Y-64219500D01*
X128115000Y-64219500D01*
X128117000Y-65189000D01*
G37*
G36*
X129415000Y-68283500D02*
G01*
X129075000Y-68283500D01*
X129075000Y-67539000D01*
X128765000Y-67539000D01*
X128765000Y-68283500D01*
X128425000Y-68283500D01*
X128425000Y-67539000D01*
X128115000Y-67539000D01*
X128115000Y-68283500D01*
X127775000Y-68283500D01*
X127775000Y-67539000D01*
X127465000Y-67539000D01*
X127465000Y-68283500D01*
X127125000Y-68283500D01*
X127125000Y-65828500D01*
X129415000Y-65828500D01*
X129415000Y-68283500D01*
G37*
%TO.C,P1*%
D10*
X134983811Y-57437160D02*
X82183811Y-57437160D01*
X82183811Y-53237160D01*
X134983811Y-53237160D01*
X134983811Y-57437160D01*
G36*
X134983811Y-57437160D02*
G01*
X82183811Y-57437160D01*
X82183811Y-53237160D01*
X134983811Y-53237160D01*
X134983811Y-57437160D01*
G37*
%TO.C,Q6*%
G36*
X124565000Y-65189000D02*
G01*
X124225000Y-65189000D01*
X124225000Y-64219500D01*
X124563000Y-64219500D01*
X124565000Y-65189000D01*
G37*
G36*
X123917000Y-65189000D02*
G01*
X123577000Y-65189000D01*
X123577000Y-64219500D01*
X123915000Y-64219500D01*
X123917000Y-65189000D01*
G37*
G36*
X123267000Y-65189000D02*
G01*
X122927000Y-65189000D01*
X122927000Y-64219500D01*
X123265000Y-64219500D01*
X123267000Y-65189000D01*
G37*
G36*
X124565000Y-68283500D02*
G01*
X124225000Y-68283500D01*
X124225000Y-67539000D01*
X123915000Y-67539000D01*
X123915000Y-68283500D01*
X123575000Y-68283500D01*
X123575000Y-67539000D01*
X123265000Y-67539000D01*
X123265000Y-68283500D01*
X122925000Y-68283500D01*
X122925000Y-67539000D01*
X122615000Y-67539000D01*
X122615000Y-68283500D01*
X122275000Y-68283500D01*
X122275000Y-65828500D01*
X124565000Y-65828500D01*
X124565000Y-68283500D01*
G37*
%TD*%
D11*
%TO.C,R28*%
X143764000Y-83502000D03*
X143764000Y-81852000D03*
%TD*%
D12*
%TO.C,TP31*%
X142240000Y-140462000D03*
%TD*%
D13*
%TO.C,R4*%
X96583000Y-65024000D03*
X98233000Y-65024000D03*
%TD*%
D14*
%TO.C,L2*%
X130810000Y-104026500D03*
X130810000Y-99173500D03*
%TD*%
D13*
%TO.C,R41*%
X104458000Y-100457000D03*
X106108000Y-100457000D03*
%TD*%
D15*
%TO.C,R90*%
X136144000Y-112713000D03*
X136144000Y-114363000D03*
%TD*%
D16*
%TO.C,R26*%
X146113000Y-53594000D03*
X144463000Y-53594000D03*
%TD*%
D12*
%TO.C,TP27*%
X116713000Y-127889000D03*
%TD*%
D13*
%TO.C,R67*%
X119825000Y-96520000D03*
X121475000Y-96520000D03*
%TD*%
D17*
%TO.C,C42*%
X71882000Y-122923000D03*
X71882000Y-124473000D03*
%TD*%
D18*
%TO.C,J2*%
X145528000Y-101338000D03*
X145528000Y-100338000D03*
D19*
X149353000Y-102638000D03*
X149353000Y-99038000D03*
%TD*%
D15*
%TO.C,R91*%
X137922000Y-112713000D03*
X137922000Y-114363000D03*
%TD*%
D13*
%TO.C,R79*%
X108903000Y-116586000D03*
X110553000Y-116586000D03*
%TD*%
D20*
%TO.C,C73*%
X120129000Y-135636000D03*
X121679000Y-135636000D03*
%TD*%
D21*
%TO.C,C2*%
X146050000Y-69482000D03*
X146050000Y-67932000D03*
%TD*%
D13*
%TO.C,R97*%
X109157000Y-133858000D03*
X110807000Y-133858000D03*
%TD*%
D22*
%TO.C,R74*%
X136755500Y-120904000D03*
X138580500Y-120904000D03*
%TD*%
D23*
%TO.C,P4*%
X76536000Y-133096000D03*
X80436000Y-133096000D03*
X76536000Y-134366000D03*
X80436000Y-134366000D03*
X76536000Y-135636000D03*
X80436000Y-135636000D03*
X76536000Y-136906000D03*
X80436000Y-136906000D03*
X76536000Y-138176000D03*
X80436000Y-138176000D03*
%TD*%
D21*
%TO.C,C30*%
X83820000Y-127521000D03*
X83820000Y-125971000D03*
%TD*%
D13*
%TO.C,R6*%
X96457000Y-72644000D03*
X98107000Y-72644000D03*
%TD*%
D15*
%TO.C,R111*%
X139954000Y-131509000D03*
X139954000Y-133159000D03*
%TD*%
D12*
%TO.C,TP11*%
X118110000Y-87884000D03*
%TD*%
D24*
%TO.C,D5*%
X74817000Y-126718000D03*
X76567000Y-126718000D03*
X76567000Y-123218000D03*
X74817000Y-123218000D03*
%TD*%
D13*
%TO.C,R58*%
X108903000Y-108712000D03*
X110553000Y-108712000D03*
%TD*%
D11*
%TO.C,R12*%
X142240000Y-132905000D03*
X142240000Y-131255000D03*
%TD*%
D15*
%TO.C,R66*%
X117475000Y-103442000D03*
X117475000Y-105092000D03*
%TD*%
D16*
%TO.C,R53*%
X76517000Y-129273000D03*
X74867000Y-129273000D03*
%TD*%
D25*
%TO.C,C28*%
X77752000Y-97790000D03*
X78712000Y-97790000D03*
%TD*%
D26*
%TO.C,REF\u002A\u002A*%
X99568000Y-147193000D03*
%TD*%
D27*
%TO.C,C76*%
X126697000Y-135128000D03*
X123747000Y-135128000D03*
%TD*%
D17*
%TO.C,C14*%
X101092001Y-64248999D03*
X101092001Y-65798999D03*
%TD*%
D15*
%TO.C,R18*%
X103124001Y-64198999D03*
X103124001Y-65848999D03*
%TD*%
D18*
%TO.C,J4*%
X145528000Y-120134000D03*
X145528000Y-119134000D03*
D19*
X149353000Y-121434000D03*
X149353000Y-117834000D03*
%TD*%
D28*
%TO.C,U22*%
X115879500Y-135824000D03*
X115879500Y-134874000D03*
X115879500Y-133924000D03*
X113604500Y-133924000D03*
X113604500Y-134874000D03*
X113604500Y-135824000D03*
%TD*%
D29*
%TO.C,Q5*%
X127295000Y-64704250D03*
%TD*%
D12*
%TO.C,TP22*%
X123444000Y-109093000D03*
%TD*%
D16*
%TO.C,R5*%
X94297000Y-69453999D03*
X92647000Y-69453999D03*
%TD*%
D30*
%TO.C,H4*%
X148590000Y-147320000D03*
%TD*%
D13*
%TO.C,R86*%
X119825000Y-115316000D03*
X121475000Y-115316000D03*
%TD*%
D12*
%TO.C,TP37*%
X130048000Y-131826000D03*
%TD*%
D15*
%TO.C,R85*%
X117856000Y-122873000D03*
X117856000Y-124523000D03*
%TD*%
D31*
%TO.C,P2*%
X89785000Y-136906000D03*
X93095000Y-134366000D03*
X89785000Y-131826000D03*
X93095000Y-129286000D03*
X89785000Y-126746000D03*
X93095000Y-124206000D03*
%TD*%
D12*
%TO.C,TP38*%
X123190000Y-147574000D03*
%TD*%
D21*
%TO.C,C12*%
X140335000Y-56909000D03*
X140335000Y-55359000D03*
%TD*%
D32*
%TO.C,U18*%
X115488000Y-119720000D03*
X114988000Y-119720000D03*
X114488000Y-119720000D03*
X113988000Y-119720000D03*
X113488000Y-119720000D03*
X113488000Y-124120000D03*
X113988000Y-124120000D03*
X114488000Y-124120000D03*
X114988000Y-124120000D03*
X115488000Y-124120000D03*
%TD*%
D18*
%TO.C,J7*%
X145367000Y-132580000D03*
X145367000Y-131580000D03*
D19*
X149192000Y-133880000D03*
X149192000Y-130280000D03*
%TD*%
D33*
%TO.C,D4*%
X113284000Y-80392000D03*
X113284000Y-83692000D03*
%TD*%
D34*
%TO.C,TP2*%
X95885000Y-147320000D03*
D35*
X95885000Y-145872200D03*
%TD*%
D13*
%TO.C,R9*%
X97092000Y-109220000D03*
X98742000Y-109220000D03*
%TD*%
D11*
%TO.C,R70*%
X134366000Y-95567000D03*
X134366000Y-93917000D03*
%TD*%
D36*
%TO.C,R33*%
X76200000Y-58422000D03*
X76200000Y-57402000D03*
%TD*%
D17*
%TO.C,C31*%
X78486000Y-107937000D03*
X78486000Y-109487000D03*
%TD*%
D28*
%TO.C,U5*%
X144393500Y-57084000D03*
X144393500Y-56134000D03*
X144393500Y-55184000D03*
X142118500Y-55184000D03*
X142118500Y-57084000D03*
%TD*%
D13*
%TO.C,R98*%
X109157000Y-135382000D03*
X110807000Y-135382000D03*
%TD*%
D11*
%TO.C,R38*%
X74930000Y-109537000D03*
X74930000Y-107887000D03*
%TD*%
D12*
%TO.C,TP30*%
X122174000Y-127889000D03*
%TD*%
D16*
%TO.C,R16*%
X102933001Y-72644001D03*
X101283001Y-72644001D03*
%TD*%
D15*
%TO.C,R73*%
X139700000Y-93917000D03*
X139700000Y-95567000D03*
%TD*%
D37*
%TO.C,U1*%
X92522000Y-71344000D03*
X92522000Y-71994000D03*
X92522000Y-72644000D03*
X94422000Y-72644000D03*
X94422000Y-71344000D03*
%TD*%
D13*
%TO.C,R56*%
X108903000Y-107188000D03*
X110553000Y-107188000D03*
%TD*%
D12*
%TO.C,TP18*%
X124714000Y-93980000D03*
%TD*%
D13*
%TO.C,R61*%
X108903000Y-99314000D03*
X110553000Y-99314000D03*
%TD*%
D21*
%TO.C,C15*%
X146304000Y-56909000D03*
X146304000Y-55359000D03*
%TD*%
D27*
%TO.C,C52*%
X126443000Y-97409000D03*
X123493000Y-97409000D03*
%TD*%
D12*
%TO.C,TP15*%
X141986000Y-102870000D03*
%TD*%
D38*
%TO.C,C26*%
X139512000Y-84582000D03*
X141412000Y-84582000D03*
%TD*%
D12*
%TO.C,TP4*%
X101346000Y-88011000D03*
%TD*%
D13*
%TO.C,R107*%
X120079000Y-132588000D03*
X121729000Y-132588000D03*
%TD*%
D12*
%TO.C,TP9*%
X136017000Y-73152000D03*
%TD*%
%TO.C,TP20*%
X127254000Y-109093000D03*
%TD*%
D16*
%TO.C,R62*%
X110553000Y-100838000D03*
X108903000Y-100838000D03*
%TD*%
D39*
%TO.C,Q3*%
X107172000Y-71008000D03*
X107172000Y-69708000D03*
X105172000Y-70358000D03*
%TD*%
D13*
%TO.C,R57*%
X108903000Y-105664000D03*
X110553000Y-105664000D03*
%TD*%
D15*
%TO.C,R40*%
X84074000Y-132716000D03*
X84074000Y-134366000D03*
%TD*%
D13*
%TO.C,R95*%
X109157000Y-143256000D03*
X110807000Y-143256000D03*
%TD*%
D25*
%TO.C,C29*%
X77752000Y-103378000D03*
X78712000Y-103378000D03*
%TD*%
D11*
%TO.C,R37*%
X85598000Y-127571000D03*
X85598000Y-125921000D03*
%TD*%
D28*
%TO.C,U13*%
X115625500Y-98232000D03*
X115625500Y-97282000D03*
X115625500Y-96332000D03*
X113350500Y-96332000D03*
X113350500Y-97282000D03*
X113350500Y-98232000D03*
%TD*%
D15*
%TO.C,R64*%
X117856000Y-98363000D03*
X117856000Y-100013000D03*
%TD*%
D34*
%TO.C,TP3*%
X148590000Y-86995000D03*
D40*
X147142200Y-86995000D03*
%TD*%
D41*
%TO.C,C11*%
X138430000Y-57084000D03*
X138430000Y-55184000D03*
%TD*%
D13*
%TO.C,R69*%
X119825000Y-94996000D03*
X121475000Y-94996000D03*
%TD*%
%TO.C,R17*%
X105347001Y-72898000D03*
X106997001Y-72898000D03*
%TD*%
D42*
%TO.C,U27*%
X136764000Y-106106000D03*
X137414000Y-106106000D03*
X138064000Y-106106000D03*
X138064000Y-104206000D03*
X137414000Y-104206000D03*
X136764000Y-104206000D03*
%TD*%
D43*
%TO.C,D3*%
X137161000Y-67056000D03*
X140461000Y-67056000D03*
%TD*%
D13*
%TO.C,R2*%
X96584000Y-67056000D03*
X98234000Y-67056000D03*
%TD*%
D12*
%TO.C,TP12*%
X133985000Y-86360000D03*
%TD*%
D14*
%TO.C,L3*%
X130810000Y-122822500D03*
X130810000Y-117969500D03*
%TD*%
D13*
%TO.C,R76*%
X108903000Y-124460000D03*
X110553000Y-124460000D03*
%TD*%
D12*
%TO.C,TP13*%
X138430000Y-87884000D03*
%TD*%
%TO.C,TP23*%
X141986000Y-121666000D03*
%TD*%
D18*
%TO.C,J6*%
X145367000Y-138930000D03*
X145367000Y-137930000D03*
D19*
X149192000Y-140230000D03*
X149192000Y-136630000D03*
%TD*%
D13*
%TO.C,R59*%
X108903000Y-96266000D03*
X110553000Y-96266000D03*
%TD*%
D11*
%TO.C,R10*%
X141986000Y-95313000D03*
X141986000Y-93663000D03*
%TD*%
D22*
%TO.C,R93*%
X137009500Y-139700000D03*
X138834500Y-139700000D03*
%TD*%
D44*
%TO.C,Y1*%
X78232000Y-99334000D03*
X78232000Y-101834000D03*
%TD*%
D45*
%TO.C,U25*%
X136645000Y-137094000D03*
X137145000Y-137094000D03*
X137645000Y-137094000D03*
X138145000Y-137094000D03*
X138145000Y-135194000D03*
X137645000Y-135194000D03*
X137145000Y-135194000D03*
X136645000Y-135194000D03*
D46*
X137395000Y-136144000D03*
%TD*%
D42*
%TO.C,U3*%
X100061000Y-82865000D03*
X100711000Y-82865000D03*
X101361000Y-82865000D03*
X101361000Y-80965000D03*
X100061000Y-80965000D03*
%TD*%
D37*
%TO.C,Q7*%
X75758000Y-54468000D03*
X75758000Y-55118000D03*
X75758000Y-55768000D03*
X77658000Y-55768000D03*
X77658000Y-55118000D03*
X77658000Y-54468000D03*
%TD*%
D47*
%TO.C,LED1*%
X72222000Y-52324000D03*
X74082000Y-52324000D03*
%TD*%
D11*
%TO.C,R89*%
X134366000Y-114363000D03*
X134366000Y-112713000D03*
%TD*%
D30*
%TO.C,H3*%
X68580000Y-147320000D03*
%TD*%
D13*
%TO.C,R63*%
X108903000Y-104140000D03*
X110553000Y-104140000D03*
%TD*%
D48*
%TO.C,P1*%
X83383811Y-55837160D03*
X84183811Y-55837160D03*
X84983811Y-55837160D03*
X85783811Y-55837160D03*
X86583811Y-55837160D03*
X87383811Y-55837160D03*
X88183811Y-55837160D03*
X88983811Y-55837160D03*
X89783811Y-55837160D03*
X90583811Y-55837160D03*
X91383811Y-55837160D03*
X92183811Y-55837160D03*
X92983811Y-55837160D03*
X93783811Y-55837160D03*
X94583811Y-55837160D03*
X95383811Y-55837160D03*
X96183811Y-55837160D03*
X96983811Y-55837160D03*
X97783811Y-55837160D03*
X98583811Y-55837160D03*
X99383811Y-55837160D03*
X100183811Y-55837160D03*
X100983811Y-55837160D03*
X101783811Y-55837160D03*
X102583811Y-55837160D03*
X103383811Y-55837160D03*
X104183811Y-55837160D03*
X104983811Y-55837160D03*
X105783811Y-55837160D03*
X106583811Y-55837160D03*
X107383811Y-55837160D03*
X108183811Y-55837160D03*
X112183811Y-55837160D03*
X112983811Y-55837160D03*
X113783811Y-55837160D03*
X114583811Y-55837160D03*
X115383811Y-55837160D03*
X116183811Y-55837160D03*
X116983811Y-55837160D03*
X117783811Y-55837160D03*
X118583811Y-55837160D03*
X119383811Y-55837160D03*
X120183811Y-55837160D03*
X120983811Y-55837160D03*
X121783811Y-55837160D03*
X122583811Y-55837160D03*
X123383811Y-55837160D03*
X124183811Y-55837160D03*
X124983811Y-55837160D03*
X125783811Y-55837160D03*
X126583811Y-55837160D03*
X127383811Y-55837160D03*
X128183811Y-55837160D03*
X128983811Y-55837160D03*
X129783811Y-55837160D03*
X130583811Y-55837160D03*
X131383811Y-55837160D03*
X132183811Y-55837160D03*
X132983811Y-55837160D03*
X133783811Y-55837160D03*
%TD*%
D12*
%TO.C,TP5*%
X116586000Y-110363000D03*
%TD*%
D26*
%TO.C,REF\u002A\u002A*%
X67945000Y-94361000D03*
%TD*%
D12*
%TO.C,TP24*%
X141986000Y-117602000D03*
%TD*%
%TO.C,TP19*%
X112776000Y-110363000D03*
%TD*%
D13*
%TO.C,R99*%
X109157000Y-136906000D03*
X110807000Y-136906000D03*
%TD*%
D20*
%TO.C,C65*%
X136639000Y-127000000D03*
X138189000Y-127000000D03*
%TD*%
D12*
%TO.C,TP6*%
X141986000Y-90551000D03*
%TD*%
D15*
%TO.C,JP1*%
X85598000Y-122365000D03*
X85598000Y-124015000D03*
%TD*%
D13*
%TO.C,R82*%
X108903000Y-122936000D03*
X110553000Y-122936000D03*
%TD*%
D41*
%TO.C,C41*%
X97790000Y-95692000D03*
X97790000Y-93792000D03*
%TD*%
D49*
%TO.C,C18*%
X118086000Y-71438500D03*
X118086000Y-65213500D03*
%TD*%
D12*
%TO.C,TP29*%
X129794000Y-112776000D03*
%TD*%
D30*
%TO.C,H2*%
X146050000Y-61595000D03*
%TD*%
D49*
%TO.C,C17*%
X113040500Y-71438500D03*
X113040500Y-65213500D03*
%TD*%
D50*
%TO.C,U11*%
X84730000Y-113411000D03*
X84730000Y-114681000D03*
X84730000Y-115951000D03*
X84730000Y-117221000D03*
X90530000Y-117221000D03*
X90530000Y-115951000D03*
X90530000Y-114681000D03*
X90530000Y-113411000D03*
D51*
X87630000Y-115316000D03*
%TD*%
D20*
%TO.C,C49*%
X119875000Y-98044000D03*
X121425000Y-98044000D03*
%TD*%
D16*
%TO.C,R19*%
X142049000Y-53594000D03*
X140399000Y-53594000D03*
%TD*%
%TO.C,R24*%
X106997001Y-63754000D03*
X105347001Y-63754000D03*
%TD*%
D12*
%TO.C,TP10*%
X107950000Y-87884000D03*
%TD*%
%TO.C,TP26*%
X124714000Y-112776000D03*
%TD*%
D11*
%TO.C,R108*%
X134620000Y-133159000D03*
X134620000Y-131509000D03*
%TD*%
D52*
%TO.C,U9*%
X139524500Y-80584000D03*
X139524500Y-82484000D03*
X141399500Y-81534000D03*
%TD*%
D13*
%TO.C,R75*%
X108903000Y-125984000D03*
X110553000Y-125984000D03*
%TD*%
D53*
%TO.C,P3*%
X74915000Y-81026000D03*
X69865000Y-81026000D03*
X74915000Y-78486000D03*
X69865000Y-78486000D03*
X74915000Y-75946000D03*
X69865000Y-75946000D03*
%TD*%
D12*
%TO.C,TP34*%
X124968000Y-131826000D03*
%TD*%
D54*
%TO.C,U19*%
X120278000Y-118771000D03*
X120278000Y-119421000D03*
X120278000Y-120071000D03*
X120278000Y-120721000D03*
X120278000Y-121371000D03*
X120278000Y-122021000D03*
X124578000Y-122021000D03*
X124578000Y-121371000D03*
X124578000Y-120721000D03*
X124578000Y-120071000D03*
X124578000Y-119421000D03*
X124578000Y-118771000D03*
D55*
X122428000Y-120396000D03*
%TD*%
D26*
%TO.C,REF\u002A\u002A*%
X119761000Y-146939000D03*
%TD*%
D14*
%TO.C,L4*%
X131064000Y-141618500D03*
X131064000Y-136765500D03*
%TD*%
D56*
%TO.C,C16*%
X141302000Y-61468000D03*
X138352000Y-61468000D03*
%TD*%
D16*
%TO.C,R23*%
X106997001Y-65786000D03*
X105347001Y-65786000D03*
%TD*%
D57*
%TO.C,U8*%
X116610000Y-83484000D03*
D58*
X118110000Y-83396500D03*
D57*
X119610000Y-83484000D03*
%TD*%
D13*
%TO.C,R34*%
X101029000Y-100457000D03*
X102679000Y-100457000D03*
%TD*%
D27*
%TO.C,C48*%
X126062000Y-105791000D03*
X123112000Y-105791000D03*
%TD*%
D29*
%TO.C,Q6*%
X122445000Y-64704250D03*
%TD*%
D12*
%TO.C,TP32*%
X142240000Y-136398000D03*
%TD*%
D13*
%TO.C,R46*%
X93663000Y-96393000D03*
X95313000Y-96393000D03*
%TD*%
D57*
%TO.C,U6*%
X106450000Y-83484000D03*
D58*
X107950000Y-83396500D03*
D57*
X109450000Y-83484000D03*
%TD*%
D18*
%TO.C,J5*%
X145528000Y-113784000D03*
X145528000Y-112784000D03*
D19*
X149353000Y-115084000D03*
X149353000Y-111484000D03*
%TD*%
D11*
%TO.C,R44*%
X97917000Y-104330000D03*
X97917000Y-102680000D03*
%TD*%
D16*
%TO.C,R1*%
X96584000Y-67056000D03*
X94934000Y-67056000D03*
%TD*%
D13*
%TO.C,R96*%
X109157000Y-146304000D03*
X110807000Y-146304000D03*
%TD*%
%TO.C,R42*%
X93663000Y-92583000D03*
X95313000Y-92583000D03*
%TD*%
%TO.C,R105*%
X120079000Y-134112000D03*
X121729000Y-134112000D03*
%TD*%
D11*
%TO.C,R84*%
X117856000Y-120459000D03*
X117856000Y-118809000D03*
%TD*%
D36*
%TO.C,R31*%
X77724000Y-58422000D03*
X77724000Y-57402000D03*
%TD*%
D38*
%TO.C,C24*%
X139385000Y-78486000D03*
X141285000Y-78486000D03*
%TD*%
D16*
%TO.C,R81*%
X110553000Y-119634000D03*
X108903000Y-119634000D03*
%TD*%
D15*
%TO.C,R104*%
X118110000Y-141542000D03*
X118110000Y-143192000D03*
%TD*%
D54*
%TO.C,U24*%
X120532000Y-137567000D03*
X120532000Y-138217000D03*
X120532000Y-138867000D03*
X120532000Y-139517000D03*
X120532000Y-140167000D03*
X120532000Y-140817000D03*
X124832000Y-140817000D03*
X124832000Y-140167000D03*
X124832000Y-139517000D03*
X124832000Y-138867000D03*
X124832000Y-138217000D03*
X124832000Y-137567000D03*
D55*
X122682000Y-139192000D03*
%TD*%
D59*
%TO.C,C9*%
X101374000Y-84643000D03*
X99824000Y-84643000D03*
%TD*%
D11*
%TO.C,R7*%
X103139000Y-82674000D03*
X103139000Y-81024000D03*
%TD*%
%TO.C,R65*%
X117856000Y-101663000D03*
X117856000Y-100013000D03*
%TD*%
D37*
%TO.C,U4*%
X118938000Y-106157000D03*
X118938000Y-106807000D03*
X118938000Y-107457000D03*
X120838000Y-107457000D03*
X120838000Y-106157000D03*
%TD*%
D42*
%TO.C,U21*%
X136764000Y-124902000D03*
X137414000Y-124902000D03*
X138064000Y-124902000D03*
X138064000Y-123002000D03*
X137414000Y-123002000D03*
X136764000Y-123002000D03*
%TD*%
D41*
%TO.C,C40*%
X100076000Y-95692000D03*
X100076000Y-93792000D03*
%TD*%
D11*
%TO.C,R35*%
X83820000Y-124015000D03*
X83820000Y-122365000D03*
%TD*%
%TO.C,R11*%
X141986000Y-114109000D03*
X141986000Y-112459000D03*
%TD*%
D60*
%TO.C,R30*%
X72642000Y-54102000D03*
X73662000Y-54102000D03*
%TD*%
D15*
%TO.C,R83*%
X117856000Y-117159000D03*
X117856000Y-118809000D03*
%TD*%
D12*
%TO.C,TP36*%
X127508000Y-147574000D03*
%TD*%
D26*
%TO.C,REF\u002A\u002A*%
X67945000Y-114427000D03*
%TD*%
D13*
%TO.C,R51*%
X74867000Y-120650000D03*
X76517000Y-120650000D03*
%TD*%
D12*
%TO.C,TP33*%
X133350000Y-147574000D03*
%TD*%
D57*
%TO.C,U7*%
X126770000Y-83484000D03*
D58*
X128270000Y-83396500D03*
D57*
X129770000Y-83484000D03*
%TD*%
D13*
%TO.C,R88*%
X119825000Y-113792000D03*
X121475000Y-113792000D03*
%TD*%
D15*
%TO.C,R110*%
X138176000Y-131509000D03*
X138176000Y-133159000D03*
%TD*%
D12*
%TO.C,TP17*%
X133096000Y-109093000D03*
%TD*%
D45*
%TO.C,U20*%
X136391000Y-118298000D03*
X136891000Y-118298000D03*
X137391000Y-118298000D03*
X137891000Y-118298000D03*
X137891000Y-116398000D03*
X137391000Y-116398000D03*
X136891000Y-116398000D03*
X136391000Y-116398000D03*
D46*
X137141000Y-117348000D03*
%TD*%
D13*
%TO.C,R60*%
X108903000Y-97790000D03*
X110553000Y-97790000D03*
%TD*%
%TO.C,R77*%
X108903000Y-127508000D03*
X110553000Y-127508000D03*
%TD*%
D12*
%TO.C,TP21*%
X129794000Y-93980000D03*
%TD*%
D61*
%TO.C,U10*%
X101854000Y-108239000D03*
X103124000Y-108239000D03*
X104394000Y-108239000D03*
X105664000Y-108239000D03*
X105664000Y-103089000D03*
X104394000Y-103089000D03*
X103124000Y-103089000D03*
X101854000Y-103089000D03*
%TD*%
D12*
%TO.C,TP8*%
X142240000Y-128524000D03*
%TD*%
D27*
%TO.C,C72*%
X126316000Y-143510000D03*
X123366000Y-143510000D03*
%TD*%
D28*
%TO.C,U17*%
X115625500Y-117028000D03*
X115625500Y-116078000D03*
X115625500Y-115128000D03*
X113350500Y-115128000D03*
X113350500Y-116078000D03*
X113350500Y-117028000D03*
%TD*%
D42*
%TO.C,U26*%
X137018000Y-143698000D03*
X137668000Y-143698000D03*
X138318000Y-143698000D03*
X138318000Y-141798000D03*
X137668000Y-141798000D03*
X137018000Y-141798000D03*
%TD*%
D18*
%TO.C,J3*%
X145528000Y-94988000D03*
X145528000Y-93988000D03*
D19*
X149353000Y-96288000D03*
X149353000Y-92688000D03*
%TD*%
D27*
%TO.C,C63*%
X126443000Y-116205000D03*
X123493000Y-116205000D03*
%TD*%
D15*
%TO.C,R71*%
X136144000Y-93917000D03*
X136144000Y-95567000D03*
%TD*%
D20*
%TO.C,C60*%
X119875000Y-116840000D03*
X121425000Y-116840000D03*
%TD*%
D13*
%TO.C,R101*%
X109157000Y-141732000D03*
X110807000Y-141732000D03*
%TD*%
D20*
%TO.C,C4*%
X141465000Y-147320000D03*
X143015000Y-147320000D03*
%TD*%
D62*
%TO.C,L1*%
X87246000Y-94742000D03*
X90046000Y-94742000D03*
%TD*%
D54*
%TO.C,U15*%
X120278000Y-99975000D03*
X120278000Y-100625000D03*
X120278000Y-101275000D03*
X120278000Y-101925000D03*
X120278000Y-102575000D03*
X120278000Y-103225000D03*
X124578000Y-103225000D03*
X124578000Y-102575000D03*
X124578000Y-101925000D03*
X124578000Y-101275000D03*
X124578000Y-100625000D03*
X124578000Y-99975000D03*
D55*
X122428000Y-101600000D03*
%TD*%
D16*
%TO.C,R100*%
X110807000Y-138430000D03*
X109157000Y-138430000D03*
%TD*%
D17*
%TO.C,C3*%
X68580000Y-138925000D03*
X68580000Y-140475000D03*
%TD*%
D11*
%TO.C,R45*%
X99568000Y-104330000D03*
X99568000Y-102680000D03*
%TD*%
D20*
%TO.C,C78*%
X136893000Y-145796000D03*
X138443000Y-145796000D03*
%TD*%
D16*
%TO.C,R3*%
X96583000Y-65024000D03*
X94933000Y-65024000D03*
%TD*%
D13*
%TO.C,R8*%
X119063000Y-109220000D03*
X120713000Y-109220000D03*
%TD*%
D12*
%TO.C,TP7*%
X141986000Y-109474000D03*
%TD*%
D32*
%TO.C,U23*%
X115742000Y-138516000D03*
X115242000Y-138516000D03*
X114742000Y-138516000D03*
X114242000Y-138516000D03*
X113742000Y-138516000D03*
X113742000Y-142916000D03*
X114242000Y-142916000D03*
X114742000Y-142916000D03*
X115242000Y-142916000D03*
X115742000Y-142916000D03*
%TD*%
D21*
%TO.C,C1*%
X72390000Y-70117000D03*
X72390000Y-68567000D03*
%TD*%
D37*
%TO.C,U2*%
X98232000Y-70754000D03*
X98232000Y-70104000D03*
X98232000Y-69454000D03*
X96332000Y-69454000D03*
X96332000Y-70754000D03*
%TD*%
D12*
%TO.C,TP25*%
X133096000Y-127889000D03*
%TD*%
%TO.C,TP16*%
X141986000Y-98806000D03*
%TD*%
D11*
%TO.C,R103*%
X118110000Y-139255000D03*
X118110000Y-137605000D03*
%TD*%
D30*
%TO.C,H1*%
X72390000Y-61595000D03*
%TD*%
D32*
%TO.C,U14*%
X115488000Y-100924000D03*
X114988000Y-100924000D03*
X114488000Y-100924000D03*
X113988000Y-100924000D03*
X113488000Y-100924000D03*
X113488000Y-105324000D03*
X113988000Y-105324000D03*
X114488000Y-105324000D03*
X114988000Y-105324000D03*
X115488000Y-105324000D03*
%TD*%
D12*
%TO.C,TP28*%
X127254000Y-127889000D03*
%TD*%
D13*
%TO.C,R80*%
X108903000Y-118110000D03*
X110553000Y-118110000D03*
%TD*%
D15*
%TO.C,R92*%
X139700000Y-112713000D03*
X139700000Y-114363000D03*
%TD*%
D11*
%TO.C,R29*%
X143764000Y-79946000D03*
X143764000Y-78296000D03*
%TD*%
D63*
%TO.C,Q2*%
X101158001Y-70279500D03*
X103058001Y-70279500D03*
X102108001Y-68404500D03*
%TD*%
D13*
%TO.C,R78*%
X108903000Y-115062000D03*
X110553000Y-115062000D03*
%TD*%
D34*
%TO.C,TP1*%
X69850000Y-86995000D03*
D64*
X71297800Y-86995000D03*
%TD*%
D65*
%TO.C,SW1*%
X79718000Y-122918000D03*
X81318000Y-122918000D03*
X79718000Y-127018000D03*
X81318000Y-127018000D03*
%TD*%
D66*
%TO.C,C7*%
X102311000Y-78801000D03*
X100411000Y-78801000D03*
%TD*%
D15*
%TO.C,R72*%
X137922000Y-93917000D03*
X137922000Y-95567000D03*
%TD*%
D45*
%TO.C,U16*%
X136391000Y-99502000D03*
X136891000Y-99502000D03*
X137391000Y-99502000D03*
X137891000Y-99502000D03*
X137891000Y-97602000D03*
X137391000Y-97602000D03*
X136891000Y-97602000D03*
X136391000Y-97602000D03*
D46*
X137141000Y-98552000D03*
%TD*%
D13*
%TO.C,R47*%
X93663000Y-94615000D03*
X95313000Y-94615000D03*
%TD*%
D20*
%TO.C,C80*%
X136639000Y-108204000D03*
X138189000Y-108204000D03*
%TD*%
D15*
%TO.C,R27*%
X137287000Y-80709000D03*
X137287000Y-82359000D03*
%TD*%
%TO.C,R109*%
X136398000Y-131509000D03*
X136398000Y-133159000D03*
%TD*%
%TO.C,R39*%
X76708000Y-107887000D03*
X76708000Y-109537000D03*
%TD*%
D67*
%TO.C,U12*%
X81967500Y-100390000D03*
X81967500Y-100890000D03*
X81967500Y-101390000D03*
X81967500Y-101890000D03*
X81967500Y-102390000D03*
X81967500Y-102890000D03*
X81967500Y-103390000D03*
X81967500Y-103890000D03*
X81967500Y-104390000D03*
X81967500Y-104890000D03*
X81967500Y-105390000D03*
X81967500Y-105890000D03*
X81967500Y-106390000D03*
X81967500Y-106890000D03*
X81967500Y-107390000D03*
X81967500Y-107890000D03*
D68*
X83880000Y-109802500D03*
X84380000Y-109802500D03*
X84880000Y-109802500D03*
X85380000Y-109802500D03*
X85880000Y-109802500D03*
X86380000Y-109802500D03*
X86880000Y-109802500D03*
X87380000Y-109802500D03*
X87880000Y-109802500D03*
X88380000Y-109802500D03*
X88880000Y-109802500D03*
X89380000Y-109802500D03*
X89880000Y-109802500D03*
X90380000Y-109802500D03*
X90880000Y-109802500D03*
X91380000Y-109802500D03*
D67*
X93292500Y-107890000D03*
X93292500Y-107390000D03*
X93292500Y-106890000D03*
X93292500Y-106390000D03*
X93292500Y-105890000D03*
X93292500Y-105390000D03*
X93292500Y-104890000D03*
X93292500Y-104390000D03*
X93292500Y-103890000D03*
X93292500Y-103390000D03*
X93292500Y-102890000D03*
X93292500Y-102390000D03*
X93292500Y-101890000D03*
X93292500Y-101390000D03*
X93292500Y-100890000D03*
X93292500Y-100390000D03*
D68*
X91380000Y-98477500D03*
X90880000Y-98477500D03*
X90380000Y-98477500D03*
X89880000Y-98477500D03*
X89380000Y-98477500D03*
X88880000Y-98477500D03*
X88380000Y-98477500D03*
X87880000Y-98477500D03*
X87380000Y-98477500D03*
X86880000Y-98477500D03*
X86380000Y-98477500D03*
X85880000Y-98477500D03*
X85380000Y-98477500D03*
X84880000Y-98477500D03*
X84380000Y-98477500D03*
X83880000Y-98477500D03*
%TD*%
D12*
%TO.C,TP35*%
X116078000Y-146939000D03*
%TD*%
D15*
%TO.C,R102*%
X118110000Y-135955000D03*
X118110000Y-137605000D03*
%TD*%
D12*
%TO.C,TP14*%
X124460000Y-87884000D03*
%TD*%
D22*
%TO.C,R55*%
X136755500Y-102108000D03*
X138580500Y-102108000D03*
%TD*%
D13*
%TO.C,R94*%
X109157000Y-144780000D03*
X110807000Y-144780000D03*
%TD*%
D27*
%TO.C,C59*%
X126062000Y-124587000D03*
X123112000Y-124587000D03*
%TD*%
D16*
%TO.C,R14*%
X106997001Y-67818000D03*
X105347001Y-67818000D03*
%TD*%
M02*
