%TF.GenerationSoftware,KiCad,Pcbnew,7.0.5*%
%TF.CreationDate,2023-06-28T17:56:54-04:00*%
%TF.ProjectId,magnetotorqer-drive-board,6d61676e-6574-46f7-946f-727165722d64,A*%
%TF.SameCoordinates,Original*%
%TF.FileFunction,Profile,NP*%
%FSLAX46Y46*%
G04 Gerber Fmt 4.6, Leading zero omitted, Abs format (unit mm)*
G04 Created by KiCad (PCBNEW 7.0.5) date 2023-06-28 17:56:54*
%MOMM*%
%LPD*%
G01*
G04 APERTURE LIST*
%TA.AperFunction,Profile*%
%ADD10C,0.127000*%
%TD*%
G04 APERTURE END LIST*
D10*
X145516600Y-51257173D02*
G75*
G03*
X144881601Y-51866800I0J-635527D01*
G01*
X153670000Y-57861200D02*
G75*
G03*
X152552400Y-56743600I-1117700J-100D01*
G01*
X64617600Y-152400000D02*
X98374200Y-152400000D01*
X119888000Y-150672800D02*
G75*
G03*
X118694200Y-149479000I-1193900J-100D01*
G01*
X136093198Y-60020297D02*
G75*
G03*
X136702799Y-59436000I12702J596897D01*
G01*
X108966000Y-58801000D02*
X108966000Y-53441600D01*
X64262000Y-94310200D02*
X64643000Y-94310200D01*
X138658592Y-51841400D02*
G75*
G03*
X139293600Y-52451000I610108J0D01*
G01*
X153670000Y-93548200D02*
X153670000Y-57861200D01*
X64592200Y-56743601D02*
G75*
G03*
X63500001Y-57861200I12700J-1104899D01*
G01*
X151765000Y-113842800D02*
X151765000Y-95072200D01*
X64262000Y-114604800D02*
X64643000Y-114604800D01*
X152527000Y-114604800D02*
X152908000Y-114604800D01*
X63500000Y-93548200D02*
X63500000Y-57861200D01*
X152527000Y-94310200D02*
X152908000Y-94310200D01*
X111379000Y-53441600D02*
X134683500Y-53441600D01*
X148564600Y-56743600D02*
X152552400Y-56743600D01*
X63500000Y-151130000D02*
G75*
G03*
X64617600Y-152400000I1193800J-76200D01*
G01*
X69672200Y-51257200D02*
X80492600Y-51257200D01*
X80492600Y-59385200D02*
X80492600Y-51257200D01*
X82499200Y-58750200D02*
X82499200Y-53441600D01*
X80492520Y-59385195D02*
G75*
G03*
X81051400Y-60020200I596780J-38205D01*
G01*
X134683502Y-58801000D02*
G75*
G03*
X135890000Y-60020199I1212698J-6500D01*
G01*
X119888000Y-151206200D02*
X119888000Y-150672800D01*
X81280000Y-60020200D02*
G75*
G03*
X82499200Y-58750200I-25400J1244600D01*
G01*
X145516600Y-51257200D02*
X147523200Y-51257200D01*
X108966000Y-58801000D02*
G75*
G03*
X111379000Y-58801000I1206500J0D01*
G01*
X153670000Y-151130000D02*
X153670000Y-115366800D01*
X63500000Y-93548200D02*
G75*
G03*
X64262000Y-94310200I762000J0D01*
G01*
X148082000Y-56261000D02*
X148082000Y-51816000D01*
X98374200Y-152400000D02*
G75*
G03*
X99568000Y-151206200I0J1193800D01*
G01*
X151765000Y-113842800D02*
G75*
G03*
X152527000Y-114604800I761900J-100D01*
G01*
X65405000Y-113842800D02*
X65405000Y-95072200D01*
X68580000Y-56743599D02*
G75*
G03*
X69087999Y-56286400I25400J482599D01*
G01*
X82499200Y-53441600D02*
X108966000Y-53441600D01*
X69088000Y-56286400D02*
X69088000Y-51841400D01*
X136702800Y-51257200D02*
X138049000Y-51257200D01*
X121081800Y-152400000D02*
X152476200Y-152400000D01*
X153670000Y-115366800D02*
G75*
G03*
X152908000Y-114604800I-762100J-100D01*
G01*
X119888000Y-151206200D02*
G75*
G03*
X121081800Y-152400000I1193700J-100D01*
G01*
X136702800Y-59436000D02*
X136702800Y-51257200D01*
X64262000Y-114604800D02*
G75*
G03*
X63500000Y-115366800I0J-762000D01*
G01*
X111379000Y-58801000D02*
X111379000Y-53441600D01*
X64592200Y-56743600D02*
X68580000Y-56743600D01*
X134683500Y-58801000D02*
X134683500Y-53441600D01*
X64643000Y-114604800D02*
G75*
G03*
X65405000Y-113842800I0J762000D01*
G01*
X99568000Y-151206200D02*
X99568000Y-150672800D01*
X100761800Y-149479000D02*
X118694200Y-149479000D01*
X69672200Y-51257200D02*
G75*
G03*
X69088000Y-51841400I0J-584200D01*
G01*
X148082000Y-51816000D02*
G75*
G03*
X147523200Y-51257200I-558900J-100D01*
G01*
X138658595Y-51841400D02*
G75*
G03*
X138049000Y-51257201I-596995J-12800D01*
G01*
X100761800Y-149479000D02*
G75*
G03*
X99568000Y-150672800I0J-1193800D01*
G01*
X139293600Y-52451000D02*
X144272000Y-52451000D01*
X135890000Y-60020200D02*
X136093200Y-60020200D01*
X63500000Y-151130000D02*
X63500000Y-115366800D01*
X152908000Y-94310200D02*
G75*
G03*
X153670000Y-93548200I0J762000D01*
G01*
X148082000Y-56261000D02*
G75*
G03*
X148564600Y-56743600I482500J-100D01*
G01*
X65405000Y-95072200D02*
G75*
G03*
X64643000Y-94310200I-762000J0D01*
G01*
X144272000Y-52451000D02*
G75*
G03*
X144881600Y-51866800I12700J596900D01*
G01*
X81051400Y-60020200D02*
X81280000Y-60020200D01*
X152476203Y-152400096D02*
G75*
G03*
X153669999Y-151130000I-38203J1231996D01*
G01*
X152527000Y-94310200D02*
G75*
G03*
X151765000Y-95072200I0J-762000D01*
G01*
M02*
