%TF.GenerationSoftware,KiCad,Pcbnew,7.0.5*%
%TF.CreationDate,2023-06-30T17:38:21-04:00*%
%TF.ProjectId,magnetotorqer-drive-board,6d61676e-6574-46f7-946f-727165722d64,A*%
%TF.SameCoordinates,Original*%
%TF.FileFunction,Drillmap*%
%TF.FilePolarity,Positive*%
%FSLAX45Y45*%
G04 Gerber Fmt 4.5, Leading zero omitted, Abs format (unit mm)*
G04 Created by KiCad (PCBNEW 7.0.5) date 2023-06-30 17:38:21*
%MOMM*%
%LPD*%
G01*
G04 APERTURE LIST*
%ADD10C,0.127000*%
%ADD11C,0.200000*%
G04 APERTURE END LIST*
D10*
X14551660Y-5125717D02*
G75*
G03*
X14488160Y-5186680I0J-63553D01*
G01*
X15367000Y-5786120D02*
G75*
G03*
X15255240Y-5674360I-111770J-10D01*
G01*
X6461760Y-15240000D02*
X9837420Y-15240000D01*
X11988800Y-15067280D02*
G75*
G03*
X11869420Y-14947900I-119390J-10D01*
G01*
X13609320Y-6002030D02*
G75*
G03*
X13670280Y-5943600I1270J59690D01*
G01*
X10896600Y-5880100D02*
X10896600Y-5344160D01*
X6426200Y-9431020D02*
X6464300Y-9431020D01*
X13865859Y-5184140D02*
G75*
G03*
X13929360Y-5245100I61011J0D01*
G01*
X15367000Y-9354820D02*
X15367000Y-5786120D01*
X6459220Y-5674360D02*
G75*
G03*
X6350000Y-5786120I1270J-110490D01*
G01*
X15176500Y-11384280D02*
X15176500Y-9507220D01*
X6426200Y-11460480D02*
X6464300Y-11460480D01*
X15252700Y-11460480D02*
X15290800Y-11460480D01*
X6350000Y-9354820D02*
X6350000Y-5786120D01*
X15252700Y-9431020D02*
X15290800Y-9431020D01*
X11137900Y-5344160D02*
X13468350Y-5344160D01*
X14856460Y-5674360D02*
X15255240Y-5674360D01*
X6350000Y-15113000D02*
G75*
G03*
X6461760Y-15240000I119380J-7620D01*
G01*
X6967220Y-5125720D02*
X8049260Y-5125720D01*
X8049260Y-5938520D02*
X8049260Y-5125720D01*
X8249920Y-5875020D02*
X8249920Y-5344160D01*
X8049252Y-5938519D02*
G75*
G03*
X8105140Y-6002020I59678J-3821D01*
G01*
X13468350Y-5880100D02*
G75*
G03*
X13589000Y-6002020I121270J-650D01*
G01*
X11988800Y-15120620D02*
X11988800Y-15067280D01*
X8128000Y-6002020D02*
G75*
G03*
X8249920Y-5875020I-2540J124460D01*
G01*
X14551660Y-5125720D02*
X14752320Y-5125720D01*
X10896600Y-5880100D02*
G75*
G03*
X11137900Y-5880100I120650J0D01*
G01*
X15367000Y-15113000D02*
X15367000Y-11536680D01*
X6350000Y-9354820D02*
G75*
G03*
X6426200Y-9431020I76200J0D01*
G01*
X14808200Y-5626100D02*
X14808200Y-5181600D01*
X9837420Y-15240000D02*
G75*
G03*
X9956800Y-15120620I0J119380D01*
G01*
X15176500Y-11384280D02*
G75*
G03*
X15252700Y-11460480I76190J-10D01*
G01*
X6540500Y-11384280D02*
X6540500Y-9507220D01*
X6858000Y-5674360D02*
G75*
G03*
X6908800Y-5628640I2540J48260D01*
G01*
X8249920Y-5344160D02*
X10896600Y-5344160D01*
X6908800Y-5628640D02*
X6908800Y-5184140D01*
X13670280Y-5125720D02*
X13804900Y-5125720D01*
X12108180Y-15240000D02*
X15247620Y-15240000D01*
X15367000Y-11536680D02*
G75*
G03*
X15290800Y-11460480I-76210J-10D01*
G01*
X11988800Y-15120620D02*
G75*
G03*
X12108180Y-15240000I119370J-10D01*
G01*
X13670280Y-5943600D02*
X13670280Y-5125720D01*
X6426200Y-11460480D02*
G75*
G03*
X6350000Y-11536680I0J-76200D01*
G01*
X11137900Y-5880100D02*
X11137900Y-5344160D01*
X6459220Y-5674360D02*
X6858000Y-5674360D01*
X13468350Y-5880100D02*
X13468350Y-5344160D01*
X6464300Y-11460480D02*
G75*
G03*
X6540500Y-11384280I0J76200D01*
G01*
X9956800Y-15120620D02*
X9956800Y-15067280D01*
X10076180Y-14947900D02*
X11869420Y-14947900D01*
X6967220Y-5125720D02*
G75*
G03*
X6908800Y-5184140I0J-58420D01*
G01*
X14808200Y-5181600D02*
G75*
G03*
X14752320Y-5125720I-55890J-10D01*
G01*
X13865859Y-5184140D02*
G75*
G03*
X13804900Y-5125720I-59700J-1280D01*
G01*
X10076180Y-14947900D02*
G75*
G03*
X9956800Y-15067280I0J-119380D01*
G01*
X13929360Y-5245100D02*
X14427200Y-5245100D01*
X13589000Y-6002020D02*
X13609320Y-6002020D01*
X6350000Y-15113000D02*
X6350000Y-11536680D01*
X15290800Y-9431020D02*
G75*
G03*
X15367000Y-9354820I0J76200D01*
G01*
X14808200Y-5626100D02*
G75*
G03*
X14856460Y-5674360I48250J-10D01*
G01*
X6540500Y-9507220D02*
G75*
G03*
X6464300Y-9431020I-76200J0D01*
G01*
X14427200Y-5245100D02*
G75*
G03*
X14488160Y-5186680I1270J59690D01*
G01*
X8105140Y-6002020D02*
X8128000Y-6002020D01*
X15247620Y-15240010D02*
G75*
G03*
X15367000Y-15113000I-3820J123200D01*
G01*
X15252700Y-9431020D02*
G75*
G03*
X15176500Y-9507220I0J-76200D01*
G01*
D11*
X6694500Y-9336100D02*
X6894500Y-9536100D01*
X6894500Y-9336100D02*
X6694500Y-9536100D01*
X6694500Y-11342700D02*
X6894500Y-11542700D01*
X6894500Y-11342700D02*
X6694500Y-11542700D01*
X9856800Y-14619300D02*
X10056800Y-14819300D01*
X10056800Y-14619300D02*
X9856800Y-14819300D01*
X11876100Y-14593900D02*
X12076100Y-14793900D01*
X12076100Y-14593900D02*
X11876100Y-14793900D01*
X6604184Y-15557834D02*
X6604184Y-15357834D01*
X6604184Y-15357834D02*
X6651803Y-15357834D01*
X6651803Y-15357834D02*
X6680374Y-15367358D01*
X6680374Y-15367358D02*
X6699422Y-15386405D01*
X6699422Y-15386405D02*
X6708946Y-15405453D01*
X6708946Y-15405453D02*
X6718470Y-15443548D01*
X6718470Y-15443548D02*
X6718470Y-15472119D01*
X6718470Y-15472119D02*
X6708946Y-15510215D01*
X6708946Y-15510215D02*
X6699422Y-15529262D01*
X6699422Y-15529262D02*
X6680374Y-15548310D01*
X6680374Y-15548310D02*
X6651803Y-15557834D01*
X6651803Y-15557834D02*
X6604184Y-15557834D01*
X6804184Y-15557834D02*
X6804184Y-15424500D01*
X6804184Y-15462596D02*
X6813708Y-15443548D01*
X6813708Y-15443548D02*
X6823231Y-15434024D01*
X6823231Y-15434024D02*
X6842279Y-15424500D01*
X6842279Y-15424500D02*
X6861327Y-15424500D01*
X6927993Y-15557834D02*
X6927993Y-15424500D01*
X6927993Y-15357834D02*
X6918470Y-15367358D01*
X6918470Y-15367358D02*
X6927993Y-15376881D01*
X6927993Y-15376881D02*
X6937517Y-15367358D01*
X6937517Y-15367358D02*
X6927993Y-15357834D01*
X6927993Y-15357834D02*
X6927993Y-15376881D01*
X7051803Y-15557834D02*
X7032755Y-15548310D01*
X7032755Y-15548310D02*
X7023231Y-15529262D01*
X7023231Y-15529262D02*
X7023231Y-15357834D01*
X7156565Y-15557834D02*
X7137517Y-15548310D01*
X7137517Y-15548310D02*
X7127993Y-15529262D01*
X7127993Y-15529262D02*
X7127993Y-15357834D01*
X7385136Y-15557834D02*
X7385136Y-15357834D01*
X7385136Y-15357834D02*
X7451803Y-15500691D01*
X7451803Y-15500691D02*
X7518470Y-15357834D01*
X7518470Y-15357834D02*
X7518470Y-15557834D01*
X7699422Y-15557834D02*
X7699422Y-15453072D01*
X7699422Y-15453072D02*
X7689898Y-15434024D01*
X7689898Y-15434024D02*
X7670851Y-15424500D01*
X7670851Y-15424500D02*
X7632755Y-15424500D01*
X7632755Y-15424500D02*
X7613708Y-15434024D01*
X7699422Y-15548310D02*
X7680374Y-15557834D01*
X7680374Y-15557834D02*
X7632755Y-15557834D01*
X7632755Y-15557834D02*
X7613708Y-15548310D01*
X7613708Y-15548310D02*
X7604184Y-15529262D01*
X7604184Y-15529262D02*
X7604184Y-15510215D01*
X7604184Y-15510215D02*
X7613708Y-15491167D01*
X7613708Y-15491167D02*
X7632755Y-15481643D01*
X7632755Y-15481643D02*
X7680374Y-15481643D01*
X7680374Y-15481643D02*
X7699422Y-15472119D01*
X7794660Y-15424500D02*
X7794660Y-15624500D01*
X7794660Y-15434024D02*
X7813708Y-15424500D01*
X7813708Y-15424500D02*
X7851803Y-15424500D01*
X7851803Y-15424500D02*
X7870851Y-15434024D01*
X7870851Y-15434024D02*
X7880374Y-15443548D01*
X7880374Y-15443548D02*
X7889898Y-15462596D01*
X7889898Y-15462596D02*
X7889898Y-15519738D01*
X7889898Y-15519738D02*
X7880374Y-15538786D01*
X7880374Y-15538786D02*
X7870851Y-15548310D01*
X7870851Y-15548310D02*
X7851803Y-15557834D01*
X7851803Y-15557834D02*
X7813708Y-15557834D01*
X7813708Y-15557834D02*
X7794660Y-15548310D01*
X7975612Y-15538786D02*
X7985136Y-15548310D01*
X7985136Y-15548310D02*
X7975612Y-15557834D01*
X7975612Y-15557834D02*
X7966089Y-15548310D01*
X7966089Y-15548310D02*
X7975612Y-15538786D01*
X7975612Y-15538786D02*
X7975612Y-15557834D01*
X7975612Y-15434024D02*
X7985136Y-15443548D01*
X7985136Y-15443548D02*
X7975612Y-15453072D01*
X7975612Y-15453072D02*
X7966089Y-15443548D01*
X7966089Y-15443548D02*
X7975612Y-15434024D01*
X7975612Y-15434024D02*
X7975612Y-15453072D01*
X6143407Y-15786350D02*
X6343407Y-15986350D01*
X6343407Y-15786350D02*
X6143407Y-15986350D01*
X6594660Y-15796881D02*
X6604184Y-15787358D01*
X6604184Y-15787358D02*
X6623231Y-15777834D01*
X6623231Y-15777834D02*
X6670851Y-15777834D01*
X6670851Y-15777834D02*
X6689898Y-15787358D01*
X6689898Y-15787358D02*
X6699422Y-15796881D01*
X6699422Y-15796881D02*
X6708946Y-15815929D01*
X6708946Y-15815929D02*
X6708946Y-15834977D01*
X6708946Y-15834977D02*
X6699422Y-15863548D01*
X6699422Y-15863548D02*
X6585136Y-15977834D01*
X6585136Y-15977834D02*
X6708946Y-15977834D01*
X6794660Y-15958786D02*
X6804184Y-15968310D01*
X6804184Y-15968310D02*
X6794660Y-15977834D01*
X6794660Y-15977834D02*
X6785136Y-15968310D01*
X6785136Y-15968310D02*
X6794660Y-15958786D01*
X6794660Y-15958786D02*
X6794660Y-15977834D01*
X6927993Y-15777834D02*
X6947041Y-15777834D01*
X6947041Y-15777834D02*
X6966089Y-15787358D01*
X6966089Y-15787358D02*
X6975612Y-15796881D01*
X6975612Y-15796881D02*
X6985136Y-15815929D01*
X6985136Y-15815929D02*
X6994660Y-15854024D01*
X6994660Y-15854024D02*
X6994660Y-15901643D01*
X6994660Y-15901643D02*
X6985136Y-15939738D01*
X6985136Y-15939738D02*
X6975612Y-15958786D01*
X6975612Y-15958786D02*
X6966089Y-15968310D01*
X6966089Y-15968310D02*
X6947041Y-15977834D01*
X6947041Y-15977834D02*
X6927993Y-15977834D01*
X6927993Y-15977834D02*
X6908946Y-15968310D01*
X6908946Y-15968310D02*
X6899422Y-15958786D01*
X6899422Y-15958786D02*
X6889898Y-15939738D01*
X6889898Y-15939738D02*
X6880374Y-15901643D01*
X6880374Y-15901643D02*
X6880374Y-15854024D01*
X6880374Y-15854024D02*
X6889898Y-15815929D01*
X6889898Y-15815929D02*
X6899422Y-15796881D01*
X6899422Y-15796881D02*
X6908946Y-15787358D01*
X6908946Y-15787358D02*
X6927993Y-15777834D01*
X7118470Y-15777834D02*
X7137517Y-15777834D01*
X7137517Y-15777834D02*
X7156565Y-15787358D01*
X7156565Y-15787358D02*
X7166089Y-15796881D01*
X7166089Y-15796881D02*
X7175612Y-15815929D01*
X7175612Y-15815929D02*
X7185136Y-15854024D01*
X7185136Y-15854024D02*
X7185136Y-15901643D01*
X7185136Y-15901643D02*
X7175612Y-15939738D01*
X7175612Y-15939738D02*
X7166089Y-15958786D01*
X7166089Y-15958786D02*
X7156565Y-15968310D01*
X7156565Y-15968310D02*
X7137517Y-15977834D01*
X7137517Y-15977834D02*
X7118470Y-15977834D01*
X7118470Y-15977834D02*
X7099422Y-15968310D01*
X7099422Y-15968310D02*
X7089898Y-15958786D01*
X7089898Y-15958786D02*
X7080374Y-15939738D01*
X7080374Y-15939738D02*
X7070851Y-15901643D01*
X7070851Y-15901643D02*
X7070851Y-15854024D01*
X7070851Y-15854024D02*
X7080374Y-15815929D01*
X7080374Y-15815929D02*
X7089898Y-15796881D01*
X7089898Y-15796881D02*
X7099422Y-15787358D01*
X7099422Y-15787358D02*
X7118470Y-15777834D01*
X7308946Y-15777834D02*
X7327993Y-15777834D01*
X7327993Y-15777834D02*
X7347041Y-15787358D01*
X7347041Y-15787358D02*
X7356565Y-15796881D01*
X7356565Y-15796881D02*
X7366089Y-15815929D01*
X7366089Y-15815929D02*
X7375612Y-15854024D01*
X7375612Y-15854024D02*
X7375612Y-15901643D01*
X7375612Y-15901643D02*
X7366089Y-15939738D01*
X7366089Y-15939738D02*
X7356565Y-15958786D01*
X7356565Y-15958786D02*
X7347041Y-15968310D01*
X7347041Y-15968310D02*
X7327993Y-15977834D01*
X7327993Y-15977834D02*
X7308946Y-15977834D01*
X7308946Y-15977834D02*
X7289898Y-15968310D01*
X7289898Y-15968310D02*
X7280374Y-15958786D01*
X7280374Y-15958786D02*
X7270851Y-15939738D01*
X7270851Y-15939738D02*
X7261327Y-15901643D01*
X7261327Y-15901643D02*
X7261327Y-15854024D01*
X7261327Y-15854024D02*
X7270851Y-15815929D01*
X7270851Y-15815929D02*
X7280374Y-15796881D01*
X7280374Y-15796881D02*
X7289898Y-15787358D01*
X7289898Y-15787358D02*
X7308946Y-15777834D01*
X7461327Y-15977834D02*
X7461327Y-15844500D01*
X7461327Y-15863548D02*
X7470851Y-15854024D01*
X7470851Y-15854024D02*
X7489898Y-15844500D01*
X7489898Y-15844500D02*
X7518470Y-15844500D01*
X7518470Y-15844500D02*
X7537517Y-15854024D01*
X7537517Y-15854024D02*
X7547041Y-15873072D01*
X7547041Y-15873072D02*
X7547041Y-15977834D01*
X7547041Y-15873072D02*
X7556565Y-15854024D01*
X7556565Y-15854024D02*
X7575612Y-15844500D01*
X7575612Y-15844500D02*
X7604184Y-15844500D01*
X7604184Y-15844500D02*
X7623232Y-15854024D01*
X7623232Y-15854024D02*
X7632755Y-15873072D01*
X7632755Y-15873072D02*
X7632755Y-15977834D01*
X7727993Y-15977834D02*
X7727993Y-15844500D01*
X7727993Y-15863548D02*
X7737517Y-15854024D01*
X7737517Y-15854024D02*
X7756565Y-15844500D01*
X7756565Y-15844500D02*
X7785136Y-15844500D01*
X7785136Y-15844500D02*
X7804184Y-15854024D01*
X7804184Y-15854024D02*
X7813708Y-15873072D01*
X7813708Y-15873072D02*
X7813708Y-15977834D01*
X7813708Y-15873072D02*
X7823232Y-15854024D01*
X7823232Y-15854024D02*
X7842279Y-15844500D01*
X7842279Y-15844500D02*
X7870851Y-15844500D01*
X7870851Y-15844500D02*
X7889898Y-15854024D01*
X7889898Y-15854024D02*
X7899422Y-15873072D01*
X7899422Y-15873072D02*
X7899422Y-15977834D01*
X8289898Y-15768310D02*
X8118470Y-16025453D01*
X8547041Y-15777834D02*
X8566089Y-15777834D01*
X8566089Y-15777834D02*
X8585137Y-15787358D01*
X8585137Y-15787358D02*
X8594660Y-15796881D01*
X8594660Y-15796881D02*
X8604184Y-15815929D01*
X8604184Y-15815929D02*
X8613708Y-15854024D01*
X8613708Y-15854024D02*
X8613708Y-15901643D01*
X8613708Y-15901643D02*
X8604184Y-15939738D01*
X8604184Y-15939738D02*
X8594660Y-15958786D01*
X8594660Y-15958786D02*
X8585137Y-15968310D01*
X8585137Y-15968310D02*
X8566089Y-15977834D01*
X8566089Y-15977834D02*
X8547041Y-15977834D01*
X8547041Y-15977834D02*
X8527994Y-15968310D01*
X8527994Y-15968310D02*
X8518470Y-15958786D01*
X8518470Y-15958786D02*
X8508946Y-15939738D01*
X8508946Y-15939738D02*
X8499422Y-15901643D01*
X8499422Y-15901643D02*
X8499422Y-15854024D01*
X8499422Y-15854024D02*
X8508946Y-15815929D01*
X8508946Y-15815929D02*
X8518470Y-15796881D01*
X8518470Y-15796881D02*
X8527994Y-15787358D01*
X8527994Y-15787358D02*
X8547041Y-15777834D01*
X8699422Y-15958786D02*
X8708946Y-15968310D01*
X8708946Y-15968310D02*
X8699422Y-15977834D01*
X8699422Y-15977834D02*
X8689898Y-15968310D01*
X8689898Y-15968310D02*
X8699422Y-15958786D01*
X8699422Y-15958786D02*
X8699422Y-15977834D01*
X8832756Y-15777834D02*
X8851803Y-15777834D01*
X8851803Y-15777834D02*
X8870851Y-15787358D01*
X8870851Y-15787358D02*
X8880375Y-15796881D01*
X8880375Y-15796881D02*
X8889898Y-15815929D01*
X8889898Y-15815929D02*
X8899422Y-15854024D01*
X8899422Y-15854024D02*
X8899422Y-15901643D01*
X8899422Y-15901643D02*
X8889898Y-15939738D01*
X8889898Y-15939738D02*
X8880375Y-15958786D01*
X8880375Y-15958786D02*
X8870851Y-15968310D01*
X8870851Y-15968310D02*
X8851803Y-15977834D01*
X8851803Y-15977834D02*
X8832756Y-15977834D01*
X8832756Y-15977834D02*
X8813708Y-15968310D01*
X8813708Y-15968310D02*
X8804184Y-15958786D01*
X8804184Y-15958786D02*
X8794660Y-15939738D01*
X8794660Y-15939738D02*
X8785137Y-15901643D01*
X8785137Y-15901643D02*
X8785137Y-15854024D01*
X8785137Y-15854024D02*
X8794660Y-15815929D01*
X8794660Y-15815929D02*
X8804184Y-15796881D01*
X8804184Y-15796881D02*
X8813708Y-15787358D01*
X8813708Y-15787358D02*
X8832756Y-15777834D01*
X8966089Y-15777834D02*
X9099422Y-15777834D01*
X9099422Y-15777834D02*
X9013708Y-15977834D01*
X9204184Y-15863548D02*
X9185137Y-15854024D01*
X9185137Y-15854024D02*
X9175613Y-15844500D01*
X9175613Y-15844500D02*
X9166089Y-15825453D01*
X9166089Y-15825453D02*
X9166089Y-15815929D01*
X9166089Y-15815929D02*
X9175613Y-15796881D01*
X9175613Y-15796881D02*
X9185137Y-15787358D01*
X9185137Y-15787358D02*
X9204184Y-15777834D01*
X9204184Y-15777834D02*
X9242279Y-15777834D01*
X9242279Y-15777834D02*
X9261327Y-15787358D01*
X9261327Y-15787358D02*
X9270851Y-15796881D01*
X9270851Y-15796881D02*
X9280375Y-15815929D01*
X9280375Y-15815929D02*
X9280375Y-15825453D01*
X9280375Y-15825453D02*
X9270851Y-15844500D01*
X9270851Y-15844500D02*
X9261327Y-15854024D01*
X9261327Y-15854024D02*
X9242279Y-15863548D01*
X9242279Y-15863548D02*
X9204184Y-15863548D01*
X9204184Y-15863548D02*
X9185137Y-15873072D01*
X9185137Y-15873072D02*
X9175613Y-15882596D01*
X9175613Y-15882596D02*
X9166089Y-15901643D01*
X9166089Y-15901643D02*
X9166089Y-15939738D01*
X9166089Y-15939738D02*
X9175613Y-15958786D01*
X9175613Y-15958786D02*
X9185137Y-15968310D01*
X9185137Y-15968310D02*
X9204184Y-15977834D01*
X9204184Y-15977834D02*
X9242279Y-15977834D01*
X9242279Y-15977834D02*
X9261327Y-15968310D01*
X9261327Y-15968310D02*
X9270851Y-15958786D01*
X9270851Y-15958786D02*
X9280375Y-15939738D01*
X9280375Y-15939738D02*
X9280375Y-15901643D01*
X9280375Y-15901643D02*
X9270851Y-15882596D01*
X9270851Y-15882596D02*
X9261327Y-15873072D01*
X9261327Y-15873072D02*
X9242279Y-15863548D01*
X9347041Y-15777834D02*
X9480375Y-15777834D01*
X9480375Y-15777834D02*
X9394660Y-15977834D01*
X9547041Y-15777834D02*
X9547041Y-15815929D01*
X9623232Y-15777834D02*
X9623232Y-15815929D01*
X9918470Y-16054024D02*
X9908946Y-16044500D01*
X9908946Y-16044500D02*
X9889899Y-16015929D01*
X9889899Y-16015929D02*
X9880375Y-15996881D01*
X9880375Y-15996881D02*
X9870851Y-15968310D01*
X9870851Y-15968310D02*
X9861327Y-15920691D01*
X9861327Y-15920691D02*
X9861327Y-15882596D01*
X9861327Y-15882596D02*
X9870851Y-15834977D01*
X9870851Y-15834977D02*
X9880375Y-15806405D01*
X9880375Y-15806405D02*
X9889899Y-15787358D01*
X9889899Y-15787358D02*
X9908946Y-15758786D01*
X9908946Y-15758786D02*
X9918470Y-15749262D01*
X10080375Y-15844500D02*
X10080375Y-15977834D01*
X10032756Y-15768310D02*
X9985137Y-15911167D01*
X9985137Y-15911167D02*
X10108946Y-15911167D01*
X10337518Y-15977834D02*
X10337518Y-15777834D01*
X10423232Y-15977834D02*
X10423232Y-15873072D01*
X10423232Y-15873072D02*
X10413708Y-15854024D01*
X10413708Y-15854024D02*
X10394661Y-15844500D01*
X10394661Y-15844500D02*
X10366089Y-15844500D01*
X10366089Y-15844500D02*
X10347041Y-15854024D01*
X10347041Y-15854024D02*
X10337518Y-15863548D01*
X10547041Y-15977834D02*
X10527994Y-15968310D01*
X10527994Y-15968310D02*
X10518470Y-15958786D01*
X10518470Y-15958786D02*
X10508946Y-15939738D01*
X10508946Y-15939738D02*
X10508946Y-15882596D01*
X10508946Y-15882596D02*
X10518470Y-15863548D01*
X10518470Y-15863548D02*
X10527994Y-15854024D01*
X10527994Y-15854024D02*
X10547041Y-15844500D01*
X10547041Y-15844500D02*
X10575613Y-15844500D01*
X10575613Y-15844500D02*
X10594661Y-15854024D01*
X10594661Y-15854024D02*
X10604184Y-15863548D01*
X10604184Y-15863548D02*
X10613708Y-15882596D01*
X10613708Y-15882596D02*
X10613708Y-15939738D01*
X10613708Y-15939738D02*
X10604184Y-15958786D01*
X10604184Y-15958786D02*
X10594661Y-15968310D01*
X10594661Y-15968310D02*
X10575613Y-15977834D01*
X10575613Y-15977834D02*
X10547041Y-15977834D01*
X10727994Y-15977834D02*
X10708946Y-15968310D01*
X10708946Y-15968310D02*
X10699422Y-15949262D01*
X10699422Y-15949262D02*
X10699422Y-15777834D01*
X10880375Y-15968310D02*
X10861327Y-15977834D01*
X10861327Y-15977834D02*
X10823232Y-15977834D01*
X10823232Y-15977834D02*
X10804184Y-15968310D01*
X10804184Y-15968310D02*
X10794661Y-15949262D01*
X10794661Y-15949262D02*
X10794661Y-15873072D01*
X10794661Y-15873072D02*
X10804184Y-15854024D01*
X10804184Y-15854024D02*
X10823232Y-15844500D01*
X10823232Y-15844500D02*
X10861327Y-15844500D01*
X10861327Y-15844500D02*
X10880375Y-15854024D01*
X10880375Y-15854024D02*
X10889899Y-15873072D01*
X10889899Y-15873072D02*
X10889899Y-15892119D01*
X10889899Y-15892119D02*
X10794661Y-15911167D01*
X10966089Y-15968310D02*
X10985137Y-15977834D01*
X10985137Y-15977834D02*
X11023232Y-15977834D01*
X11023232Y-15977834D02*
X11042280Y-15968310D01*
X11042280Y-15968310D02*
X11051803Y-15949262D01*
X11051803Y-15949262D02*
X11051803Y-15939738D01*
X11051803Y-15939738D02*
X11042280Y-15920691D01*
X11042280Y-15920691D02*
X11023232Y-15911167D01*
X11023232Y-15911167D02*
X10994661Y-15911167D01*
X10994661Y-15911167D02*
X10975613Y-15901643D01*
X10975613Y-15901643D02*
X10966089Y-15882596D01*
X10966089Y-15882596D02*
X10966089Y-15873072D01*
X10966089Y-15873072D02*
X10975613Y-15854024D01*
X10975613Y-15854024D02*
X10994661Y-15844500D01*
X10994661Y-15844500D02*
X11023232Y-15844500D01*
X11023232Y-15844500D02*
X11042280Y-15854024D01*
X11118470Y-16054024D02*
X11127994Y-16044500D01*
X11127994Y-16044500D02*
X11147042Y-16015929D01*
X11147042Y-16015929D02*
X11156565Y-15996881D01*
X11156565Y-15996881D02*
X11166089Y-15968310D01*
X11166089Y-15968310D02*
X11175613Y-15920691D01*
X11175613Y-15920691D02*
X11175613Y-15882596D01*
X11175613Y-15882596D02*
X11166089Y-15834977D01*
X11166089Y-15834977D02*
X11156565Y-15806405D01*
X11156565Y-15806405D02*
X11147042Y-15787358D01*
X11147042Y-15787358D02*
X11127994Y-15758786D01*
X11127994Y-15758786D02*
X11118470Y-15749262D01*
X11480375Y-16054024D02*
X11470851Y-16044500D01*
X11470851Y-16044500D02*
X11451803Y-16015929D01*
X11451803Y-16015929D02*
X11442280Y-15996881D01*
X11442280Y-15996881D02*
X11432756Y-15968310D01*
X11432756Y-15968310D02*
X11423232Y-15920691D01*
X11423232Y-15920691D02*
X11423232Y-15882596D01*
X11423232Y-15882596D02*
X11432756Y-15834977D01*
X11432756Y-15834977D02*
X11442280Y-15806405D01*
X11442280Y-15806405D02*
X11451803Y-15787358D01*
X11451803Y-15787358D02*
X11470851Y-15758786D01*
X11470851Y-15758786D02*
X11480375Y-15749262D01*
X11556565Y-15844500D02*
X11556565Y-15977834D01*
X11556565Y-15863548D02*
X11566089Y-15854024D01*
X11566089Y-15854024D02*
X11585137Y-15844500D01*
X11585137Y-15844500D02*
X11613708Y-15844500D01*
X11613708Y-15844500D02*
X11632756Y-15854024D01*
X11632756Y-15854024D02*
X11642280Y-15873072D01*
X11642280Y-15873072D02*
X11642280Y-15977834D01*
X11766089Y-15977834D02*
X11747041Y-15968310D01*
X11747041Y-15968310D02*
X11737518Y-15958786D01*
X11737518Y-15958786D02*
X11727994Y-15939738D01*
X11727994Y-15939738D02*
X11727994Y-15882596D01*
X11727994Y-15882596D02*
X11737518Y-15863548D01*
X11737518Y-15863548D02*
X11747041Y-15854024D01*
X11747041Y-15854024D02*
X11766089Y-15844500D01*
X11766089Y-15844500D02*
X11794661Y-15844500D01*
X11794661Y-15844500D02*
X11813708Y-15854024D01*
X11813708Y-15854024D02*
X11823232Y-15863548D01*
X11823232Y-15863548D02*
X11832756Y-15882596D01*
X11832756Y-15882596D02*
X11832756Y-15939738D01*
X11832756Y-15939738D02*
X11823232Y-15958786D01*
X11823232Y-15958786D02*
X11813708Y-15968310D01*
X11813708Y-15968310D02*
X11794661Y-15977834D01*
X11794661Y-15977834D02*
X11766089Y-15977834D01*
X11889899Y-15844500D02*
X11966089Y-15844500D01*
X11918470Y-15777834D02*
X11918470Y-15949262D01*
X11918470Y-15949262D02*
X11927994Y-15968310D01*
X11927994Y-15968310D02*
X11947041Y-15977834D01*
X11947041Y-15977834D02*
X11966089Y-15977834D01*
X12185137Y-15844500D02*
X12185137Y-16044500D01*
X12185137Y-15854024D02*
X12204184Y-15844500D01*
X12204184Y-15844500D02*
X12242280Y-15844500D01*
X12242280Y-15844500D02*
X12261327Y-15854024D01*
X12261327Y-15854024D02*
X12270851Y-15863548D01*
X12270851Y-15863548D02*
X12280375Y-15882596D01*
X12280375Y-15882596D02*
X12280375Y-15939738D01*
X12280375Y-15939738D02*
X12270851Y-15958786D01*
X12270851Y-15958786D02*
X12261327Y-15968310D01*
X12261327Y-15968310D02*
X12242280Y-15977834D01*
X12242280Y-15977834D02*
X12204184Y-15977834D01*
X12204184Y-15977834D02*
X12185137Y-15968310D01*
X12394661Y-15977834D02*
X12375613Y-15968310D01*
X12375613Y-15968310D02*
X12366089Y-15949262D01*
X12366089Y-15949262D02*
X12366089Y-15777834D01*
X12556565Y-15977834D02*
X12556565Y-15873072D01*
X12556565Y-15873072D02*
X12547042Y-15854024D01*
X12547042Y-15854024D02*
X12527994Y-15844500D01*
X12527994Y-15844500D02*
X12489899Y-15844500D01*
X12489899Y-15844500D02*
X12470851Y-15854024D01*
X12556565Y-15968310D02*
X12537518Y-15977834D01*
X12537518Y-15977834D02*
X12489899Y-15977834D01*
X12489899Y-15977834D02*
X12470851Y-15968310D01*
X12470851Y-15968310D02*
X12461327Y-15949262D01*
X12461327Y-15949262D02*
X12461327Y-15930215D01*
X12461327Y-15930215D02*
X12470851Y-15911167D01*
X12470851Y-15911167D02*
X12489899Y-15901643D01*
X12489899Y-15901643D02*
X12537518Y-15901643D01*
X12537518Y-15901643D02*
X12556565Y-15892119D01*
X12623232Y-15844500D02*
X12699422Y-15844500D01*
X12651803Y-15777834D02*
X12651803Y-15949262D01*
X12651803Y-15949262D02*
X12661327Y-15968310D01*
X12661327Y-15968310D02*
X12680375Y-15977834D01*
X12680375Y-15977834D02*
X12699422Y-15977834D01*
X12842280Y-15968310D02*
X12823232Y-15977834D01*
X12823232Y-15977834D02*
X12785137Y-15977834D01*
X12785137Y-15977834D02*
X12766089Y-15968310D01*
X12766089Y-15968310D02*
X12756565Y-15949262D01*
X12756565Y-15949262D02*
X12756565Y-15873072D01*
X12756565Y-15873072D02*
X12766089Y-15854024D01*
X12766089Y-15854024D02*
X12785137Y-15844500D01*
X12785137Y-15844500D02*
X12823232Y-15844500D01*
X12823232Y-15844500D02*
X12842280Y-15854024D01*
X12842280Y-15854024D02*
X12851803Y-15873072D01*
X12851803Y-15873072D02*
X12851803Y-15892119D01*
X12851803Y-15892119D02*
X12756565Y-15911167D01*
X13023232Y-15977834D02*
X13023232Y-15777834D01*
X13023232Y-15968310D02*
X13004184Y-15977834D01*
X13004184Y-15977834D02*
X12966089Y-15977834D01*
X12966089Y-15977834D02*
X12947042Y-15968310D01*
X12947042Y-15968310D02*
X12937518Y-15958786D01*
X12937518Y-15958786D02*
X12927994Y-15939738D01*
X12927994Y-15939738D02*
X12927994Y-15882596D01*
X12927994Y-15882596D02*
X12937518Y-15863548D01*
X12937518Y-15863548D02*
X12947042Y-15854024D01*
X12947042Y-15854024D02*
X12966089Y-15844500D01*
X12966089Y-15844500D02*
X13004184Y-15844500D01*
X13004184Y-15844500D02*
X13023232Y-15854024D01*
X13099423Y-16054024D02*
X13108946Y-16044500D01*
X13108946Y-16044500D02*
X13127994Y-16015929D01*
X13127994Y-16015929D02*
X13137518Y-15996881D01*
X13137518Y-15996881D02*
X13147042Y-15968310D01*
X13147042Y-15968310D02*
X13156565Y-15920691D01*
X13156565Y-15920691D02*
X13156565Y-15882596D01*
X13156565Y-15882596D02*
X13147042Y-15834977D01*
X13147042Y-15834977D02*
X13137518Y-15806405D01*
X13137518Y-15806405D02*
X13127994Y-15787358D01*
X13127994Y-15787358D02*
X13108946Y-15758786D01*
X13108946Y-15758786D02*
X13099423Y-15749262D01*
M02*
