%TF.GenerationSoftware,KiCad,Pcbnew,7.0.5*%
%TF.CreationDate,2023-06-30T17:38:21-04:00*%
%TF.ProjectId,magnetotorqer-drive-board,6d61676e-6574-46f7-946f-727165722d64,A*%
%TF.SameCoordinates,Original*%
%TF.FileFunction,Drillmap*%
%TF.FilePolarity,Positive*%
%FSLAX45Y45*%
G04 Gerber Fmt 4.5, Leading zero omitted, Abs format (unit mm)*
G04 Created by KiCad (PCBNEW 7.0.5) date 2023-06-30 17:38:21*
%MOMM*%
%LPD*%
G01*
G04 APERTURE LIST*
%ADD10C,0.127000*%
%ADD11C,0.200000*%
%ADD12C,0.020320*%
%ADD13C,0.030480*%
%ADD14C,0.091440*%
%ADD15C,0.100000*%
%ADD16C,0.317500*%
G04 APERTURE END LIST*
D10*
X14551660Y-5125717D02*
G75*
G03*
X14488160Y-5186680I0J-63553D01*
G01*
X15367000Y-5786120D02*
G75*
G03*
X15255240Y-5674360I-111770J-10D01*
G01*
X6461760Y-15240000D02*
X9837420Y-15240000D01*
X11988800Y-15067280D02*
G75*
G03*
X11869420Y-14947900I-119390J-10D01*
G01*
X13609320Y-6002030D02*
G75*
G03*
X13670280Y-5943600I1270J59690D01*
G01*
X10896600Y-5880100D02*
X10896600Y-5344160D01*
X6426200Y-9431020D02*
X6464300Y-9431020D01*
X13865859Y-5184140D02*
G75*
G03*
X13929360Y-5245100I61011J0D01*
G01*
X15367000Y-9354820D02*
X15367000Y-5786120D01*
X6459220Y-5674360D02*
G75*
G03*
X6350000Y-5786120I1270J-110490D01*
G01*
X15176500Y-11384280D02*
X15176500Y-9507220D01*
X6426200Y-11460480D02*
X6464300Y-11460480D01*
X15252700Y-11460480D02*
X15290800Y-11460480D01*
X6350000Y-9354820D02*
X6350000Y-5786120D01*
X15252700Y-9431020D02*
X15290800Y-9431020D01*
X11137900Y-5344160D02*
X13468350Y-5344160D01*
X14856460Y-5674360D02*
X15255240Y-5674360D01*
X6350000Y-15113000D02*
G75*
G03*
X6461760Y-15240000I119380J-7620D01*
G01*
X6967220Y-5125720D02*
X8049260Y-5125720D01*
X8049260Y-5938520D02*
X8049260Y-5125720D01*
X8249920Y-5875020D02*
X8249920Y-5344160D01*
X8049252Y-5938519D02*
G75*
G03*
X8105140Y-6002020I59678J-3821D01*
G01*
X13468350Y-5880100D02*
G75*
G03*
X13589000Y-6002020I121270J-650D01*
G01*
X11988800Y-15120620D02*
X11988800Y-15067280D01*
X8128000Y-6002020D02*
G75*
G03*
X8249920Y-5875020I-2540J124460D01*
G01*
X14551660Y-5125720D02*
X14752320Y-5125720D01*
X10896600Y-5880100D02*
G75*
G03*
X11137900Y-5880100I120650J0D01*
G01*
X15367000Y-15113000D02*
X15367000Y-11536680D01*
X6350000Y-9354820D02*
G75*
G03*
X6426200Y-9431020I76200J0D01*
G01*
X14808200Y-5626100D02*
X14808200Y-5181600D01*
X9837420Y-15240000D02*
G75*
G03*
X9956800Y-15120620I0J119380D01*
G01*
X15176500Y-11384280D02*
G75*
G03*
X15252700Y-11460480I76190J-10D01*
G01*
X6540500Y-11384280D02*
X6540500Y-9507220D01*
X6858000Y-5674360D02*
G75*
G03*
X6908800Y-5628640I2540J48260D01*
G01*
X8249920Y-5344160D02*
X10896600Y-5344160D01*
X6908800Y-5628640D02*
X6908800Y-5184140D01*
X13670280Y-5125720D02*
X13804900Y-5125720D01*
X12108180Y-15240000D02*
X15247620Y-15240000D01*
X15367000Y-11536680D02*
G75*
G03*
X15290800Y-11460480I-76210J-10D01*
G01*
X11988800Y-15120620D02*
G75*
G03*
X12108180Y-15240000I119370J-10D01*
G01*
X13670280Y-5943600D02*
X13670280Y-5125720D01*
X6426200Y-11460480D02*
G75*
G03*
X6350000Y-11536680I0J-76200D01*
G01*
X11137900Y-5880100D02*
X11137900Y-5344160D01*
X6459220Y-5674360D02*
X6858000Y-5674360D01*
X13468350Y-5880100D02*
X13468350Y-5344160D01*
X6464300Y-11460480D02*
G75*
G03*
X6540500Y-11384280I0J76200D01*
G01*
X9956800Y-15120620D02*
X9956800Y-15067280D01*
X10076180Y-14947900D02*
X11869420Y-14947900D01*
X6967220Y-5125720D02*
G75*
G03*
X6908800Y-5184140I0J-58420D01*
G01*
X14808200Y-5181600D02*
G75*
G03*
X14752320Y-5125720I-55890J-10D01*
G01*
X13865859Y-5184140D02*
G75*
G03*
X13804900Y-5125720I-59700J-1280D01*
G01*
X10076180Y-14947900D02*
G75*
G03*
X9956800Y-15067280I0J-119380D01*
G01*
X13929360Y-5245100D02*
X14427200Y-5245100D01*
X13589000Y-6002020D02*
X13609320Y-6002020D01*
X6350000Y-15113000D02*
X6350000Y-11536680D01*
X15290800Y-9431020D02*
G75*
G03*
X15367000Y-9354820I0J76200D01*
G01*
X14808200Y-5626100D02*
G75*
G03*
X14856460Y-5674360I48250J-10D01*
G01*
X6540500Y-9507220D02*
G75*
G03*
X6464300Y-9431020I-76200J0D01*
G01*
X14427200Y-5245100D02*
G75*
G03*
X14488160Y-5186680I1270J59690D01*
G01*
X8105140Y-6002020D02*
X8128000Y-6002020D01*
X15247620Y-15240010D02*
G75*
G03*
X15367000Y-15113000I-3820J123200D01*
G01*
X15252700Y-9431020D02*
G75*
G03*
X15176500Y-9507220I0J-76200D01*
G01*
D11*
D12*
X6746240Y-8092440D02*
X6766560Y-8112760D01*
X6766560Y-8092440D02*
X6746240Y-8112760D01*
X6835140Y-9933940D02*
X6855460Y-9954260D01*
X6855460Y-9933940D02*
X6835140Y-9954260D01*
X6847840Y-10772140D02*
X6868160Y-10792460D01*
X6868160Y-10772140D02*
X6847840Y-10792460D01*
X6847840Y-12067540D02*
X6868160Y-12087860D01*
X6868160Y-12067540D02*
X6847840Y-12087860D01*
X6847840Y-13350240D02*
X6868160Y-13370560D01*
X6868160Y-13350240D02*
X6847840Y-13370560D01*
X6847840Y-13782040D02*
X6868160Y-13802360D01*
X6868160Y-13782040D02*
X6847840Y-13802360D01*
X7011940Y-5693140D02*
X7032260Y-5713460D01*
X7032260Y-5693140D02*
X7011940Y-5713460D01*
X7152640Y-12181840D02*
X7172960Y-12202160D01*
X7172960Y-12181840D02*
X7152640Y-12202160D01*
X7178040Y-12537440D02*
X7198360Y-12557760D01*
X7198360Y-12537440D02*
X7178040Y-12557760D01*
X7228840Y-7101840D02*
X7249160Y-7122160D01*
X7249160Y-7101840D02*
X7228840Y-7122160D01*
X7254240Y-5501640D02*
X7274560Y-5521960D01*
X7274560Y-5501640D02*
X7254240Y-5521960D01*
X7328790Y-5222240D02*
X7349110Y-5242560D01*
X7349110Y-5222240D02*
X7328790Y-5242560D01*
X7330440Y-9921240D02*
X7350760Y-9941560D01*
X7350760Y-9921240D02*
X7330440Y-9941560D01*
X7330440Y-10048240D02*
X7350760Y-10068560D01*
X7350760Y-10048240D02*
X7330440Y-10068560D01*
X7330440Y-10175240D02*
X7350760Y-10195560D01*
X7350760Y-10175240D02*
X7330440Y-10195560D01*
X7387490Y-5762090D02*
X7407810Y-5782410D01*
X7407810Y-5762090D02*
X7387490Y-5782410D01*
X7432040Y-5501640D02*
X7452360Y-5521960D01*
X7452360Y-5501640D02*
X7432040Y-5521960D01*
X7457440Y-13299440D02*
X7477760Y-13319760D01*
X7477760Y-13299440D02*
X7457440Y-13319760D01*
X7457440Y-13426440D02*
X7477760Y-13446760D01*
X7477760Y-13426440D02*
X7457440Y-13446760D01*
X7457440Y-13553440D02*
X7477760Y-13573760D01*
X7477760Y-13553440D02*
X7457440Y-13573760D01*
X7457440Y-13807440D02*
X7477760Y-13827760D01*
X7477760Y-13807440D02*
X7457440Y-13827760D01*
X7482840Y-11038840D02*
X7503160Y-11059160D01*
X7503160Y-11038840D02*
X7482840Y-11059160D01*
X7532311Y-5793169D02*
X7552631Y-5813489D01*
X7552631Y-5793169D02*
X7532311Y-5813489D01*
X7559040Y-5298440D02*
X7579360Y-5318760D01*
X7579360Y-5298440D02*
X7559040Y-5318760D01*
X7584440Y-11470640D02*
X7604760Y-11490960D01*
X7604760Y-11470640D02*
X7584440Y-11490960D01*
X7622540Y-8575040D02*
X7642860Y-8595360D01*
X7642860Y-8575040D02*
X7622540Y-8595360D01*
X7622540Y-9197340D02*
X7642860Y-9217660D01*
X7642860Y-9197340D02*
X7622540Y-9217660D01*
X7622540Y-9679940D02*
X7642860Y-9700260D01*
X7642860Y-9679940D02*
X7622540Y-9700260D01*
X7635240Y-14734540D02*
X7655560Y-14754860D01*
X7655560Y-14734540D02*
X7635240Y-14754860D01*
X7660640Y-11394440D02*
X7680960Y-11414760D01*
X7680960Y-11394440D02*
X7660640Y-11414760D01*
X7661544Y-12803277D02*
X7681864Y-12823597D01*
X7681864Y-12803277D02*
X7661544Y-12823597D01*
X7711440Y-8092440D02*
X7731760Y-8112760D01*
X7731760Y-8092440D02*
X7711440Y-8112760D01*
X7736840Y-5933440D02*
X7757160Y-5953760D01*
X7757160Y-5933440D02*
X7736840Y-5953760D01*
X7736840Y-11699240D02*
X7757160Y-11719560D01*
X7757160Y-11699240D02*
X7736840Y-11719560D01*
X7762240Y-12524740D02*
X7782560Y-12545060D01*
X7782560Y-12524740D02*
X7762240Y-12545060D01*
X7762240Y-12918440D02*
X7782560Y-12938760D01*
X7782560Y-12918440D02*
X7762240Y-12938760D01*
X7777430Y-6314440D02*
X7797750Y-6334760D01*
X7797750Y-6314440D02*
X7777430Y-6334760D01*
X7800390Y-11623040D02*
X7820710Y-11643360D01*
X7820710Y-11623040D02*
X7800390Y-11643360D01*
X7838440Y-12435840D02*
X7858760Y-12456160D01*
X7858760Y-12435840D02*
X7838440Y-12456160D01*
X7851140Y-6250940D02*
X7871460Y-6271260D01*
X7871460Y-6250940D02*
X7851140Y-6271260D01*
X7863840Y-5298440D02*
X7884160Y-5318760D01*
X7884160Y-5298440D02*
X7863840Y-5318760D01*
X7914640Y-5476240D02*
X7934960Y-5496560D01*
X7934960Y-5476240D02*
X7914640Y-5496560D01*
X7940040Y-9768840D02*
X7960360Y-9789160D01*
X7960360Y-9768840D02*
X7940040Y-9789160D01*
X7940040Y-13108940D02*
X7960360Y-13129260D01*
X7960360Y-13108940D02*
X7940040Y-13129260D01*
X7952740Y-6212840D02*
X7973060Y-6233160D01*
X7973060Y-6212840D02*
X7952740Y-6233160D01*
X7965440Y-12791440D02*
X7985760Y-12811760D01*
X7985760Y-12791440D02*
X7965440Y-12811760D01*
X8016240Y-10228840D02*
X8036560Y-10249160D01*
X8036560Y-10228840D02*
X8016240Y-10249160D01*
X8041640Y-10149840D02*
X8061960Y-10170160D01*
X8061960Y-10149840D02*
X8041640Y-10170160D01*
X8041640Y-10327640D02*
X8061960Y-10347960D01*
X8061960Y-10327640D02*
X8041640Y-10347960D01*
X8041640Y-10408870D02*
X8061960Y-10429190D01*
X8061960Y-10408870D02*
X8041640Y-10429190D01*
X8041640Y-10505440D02*
X8061960Y-10525760D01*
X8061960Y-10505440D02*
X8041640Y-10525760D01*
X8041640Y-14467840D02*
X8061960Y-14488160D01*
X8061960Y-14467840D02*
X8041640Y-14488160D01*
X8117840Y-12791440D02*
X8138160Y-12811760D01*
X8138160Y-12791440D02*
X8117840Y-12811760D01*
X8143240Y-6581140D02*
X8163560Y-6601460D01*
X8163560Y-6581140D02*
X8143240Y-6601460D01*
X8143240Y-7101840D02*
X8163560Y-7122160D01*
X8163560Y-7101840D02*
X8143240Y-7122160D01*
X8143240Y-7559040D02*
X8163560Y-7579360D01*
X8163560Y-7559040D02*
X8143240Y-7579360D01*
X8143240Y-8321040D02*
X8163560Y-8341360D01*
X8163560Y-8321040D02*
X8143240Y-8341360D01*
X8143240Y-8816340D02*
X8163560Y-8836660D01*
X8163560Y-8816340D02*
X8143240Y-8836660D01*
X8194040Y-12435840D02*
X8214360Y-12456160D01*
X8214360Y-12435840D02*
X8194040Y-12456160D01*
X8194040Y-13299440D02*
X8214360Y-13319760D01*
X8214360Y-13299440D02*
X8194040Y-13319760D01*
X8244840Y-12524740D02*
X8265160Y-12545060D01*
X8265160Y-12524740D02*
X8244840Y-12545060D01*
X8270240Y-13426440D02*
X8290560Y-13446760D01*
X8290560Y-13426440D02*
X8270240Y-13446760D01*
X8295640Y-11115040D02*
X8315960Y-11135360D01*
X8315960Y-11115040D02*
X8295640Y-11135360D01*
X8303140Y-10728840D02*
X8323460Y-10749160D01*
X8323460Y-10728840D02*
X8303140Y-10749160D01*
X8303940Y-10128840D02*
X8324260Y-10149160D01*
X8324260Y-10128840D02*
X8303940Y-10149160D01*
X8308340Y-10314940D02*
X8328660Y-10335260D01*
X8328660Y-10314940D02*
X8308340Y-10335260D01*
X8308340Y-10396170D02*
X8328660Y-10416490D01*
X8328660Y-10396170D02*
X8308340Y-10416490D01*
X8309984Y-10560044D02*
X8330304Y-10580364D01*
X8330304Y-10560044D02*
X8309984Y-10580364D01*
X8359090Y-11330940D02*
X8379410Y-11351260D01*
X8379410Y-11330940D02*
X8359090Y-11351260D01*
X8359140Y-11711940D02*
X8379460Y-11732260D01*
X8379460Y-11711940D02*
X8359140Y-11732260D01*
X8371840Y-12842240D02*
X8392160Y-12862560D01*
X8392160Y-12842240D02*
X8371840Y-12862560D01*
X8397240Y-13172440D02*
X8417560Y-13192760D01*
X8417560Y-13172440D02*
X8397240Y-13192760D01*
X8399315Y-10165593D02*
X8419635Y-10185913D01*
X8419635Y-10165593D02*
X8399315Y-10185913D01*
X8448040Y-9438640D02*
X8468360Y-9458960D01*
X8468360Y-9438640D02*
X8448040Y-9458960D01*
X8473440Y-14747240D02*
X8493760Y-14767560D01*
X8493760Y-14747240D02*
X8473440Y-14767560D01*
X8540211Y-10148515D02*
X8560531Y-10168835D01*
X8560531Y-10148515D02*
X8540211Y-10168835D01*
X8549640Y-9514840D02*
X8569960Y-9535160D01*
X8569960Y-9514840D02*
X8549640Y-9535160D01*
X8549640Y-12842240D02*
X8569960Y-12862560D01*
X8569960Y-12842240D02*
X8549640Y-12862560D01*
X8563940Y-10848340D02*
X8584260Y-10868660D01*
X8584260Y-10848340D02*
X8563940Y-10868660D01*
X8587740Y-9972040D02*
X8608060Y-9992360D01*
X8608060Y-9972040D02*
X8587740Y-9992360D01*
X8625840Y-11699240D02*
X8646160Y-11719560D01*
X8646160Y-11699240D02*
X8625840Y-11719560D01*
X8640546Y-10145313D02*
X8660866Y-10165633D01*
X8660866Y-10145313D02*
X8640546Y-10165633D01*
X8645170Y-10848340D02*
X8665490Y-10868660D01*
X8665490Y-10848340D02*
X8645170Y-10868660D01*
X8651240Y-10048240D02*
X8671560Y-10068560D01*
X8671560Y-10048240D02*
X8651240Y-10068560D01*
X8727440Y-10810240D02*
X8747760Y-10830560D01*
X8747760Y-10810240D02*
X8727440Y-10830560D01*
X8752840Y-11699240D02*
X8773160Y-11719560D01*
X8773160Y-11699240D02*
X8752840Y-11719560D01*
X8752840Y-13642340D02*
X8773160Y-13662660D01*
X8773160Y-13642340D02*
X8752840Y-13662660D01*
X8752840Y-13718540D02*
X8773160Y-13738860D01*
X8773160Y-13718540D02*
X8752840Y-13738860D01*
X8785006Y-11133674D02*
X8805326Y-11153994D01*
X8805326Y-11133674D02*
X8785006Y-11153994D01*
X8803556Y-9959620D02*
X8823876Y-9979940D01*
X8823876Y-9959620D02*
X8803556Y-9979940D01*
X8803640Y-9235440D02*
X8823960Y-9255760D01*
X8823960Y-9235440D02*
X8803640Y-9255760D01*
X8803640Y-11280140D02*
X8823960Y-11300460D01*
X8823960Y-11280140D02*
X8803640Y-11300460D01*
X8829040Y-10835640D02*
X8849360Y-10855960D01*
X8849360Y-10835640D02*
X8829040Y-10855960D01*
X8829040Y-14480540D02*
X8849360Y-14500860D01*
X8849360Y-14480540D02*
X8829040Y-14500860D01*
X8854440Y-9692640D02*
X8874760Y-9712960D01*
X8874760Y-9692640D02*
X8854440Y-9712960D01*
X8879840Y-11699240D02*
X8900160Y-11719560D01*
X8900160Y-11699240D02*
X8879840Y-11719560D01*
X8905048Y-9960047D02*
X8925368Y-9980367D01*
X8925368Y-9960047D02*
X8905048Y-9980367D01*
X8905240Y-10073640D02*
X8925560Y-10093960D01*
X8925560Y-10073640D02*
X8905240Y-10093960D01*
X8916322Y-11129358D02*
X8936642Y-11149678D01*
X8936642Y-11129358D02*
X8916322Y-11149678D01*
X8956040Y-9692640D02*
X8976360Y-9712960D01*
X8976360Y-9692640D02*
X8956040Y-9712960D01*
X8981440Y-8702040D02*
X9001760Y-8722360D01*
X9001760Y-8702040D02*
X8981440Y-8722360D01*
X8981440Y-10200640D02*
X9001760Y-10220960D01*
X9001760Y-10200640D02*
X8981440Y-10220960D01*
X8981440Y-10327640D02*
X9001760Y-10347960D01*
X9001760Y-10327640D02*
X8981440Y-10347960D01*
X8981440Y-10530840D02*
X9001760Y-10551160D01*
X9001760Y-10530840D02*
X8981440Y-10551160D01*
X9057640Y-8524240D02*
X9077960Y-8544560D01*
X9077960Y-8524240D02*
X9057640Y-8544560D01*
X9108440Y-7559040D02*
X9128760Y-7579360D01*
X9128760Y-7559040D02*
X9108440Y-7579360D01*
X9108440Y-7990840D02*
X9128760Y-8011160D01*
X9128760Y-7990840D02*
X9108440Y-8011160D01*
X9108440Y-9972040D02*
X9128760Y-9992360D01*
X9128760Y-9972040D02*
X9108440Y-9992360D01*
X9121140Y-6581140D02*
X9141460Y-6601460D01*
X9141460Y-6581140D02*
X9121140Y-6601460D01*
X9133840Y-14747240D02*
X9154160Y-14767560D01*
X9154160Y-14747240D02*
X9133840Y-14767560D01*
X9146540Y-11330940D02*
X9166860Y-11351260D01*
X9166860Y-11330940D02*
X9146540Y-11351260D01*
X9159240Y-11711940D02*
X9179560Y-11732260D01*
X9179560Y-11711940D02*
X9159240Y-11732260D01*
X9160740Y-7254240D02*
X9181060Y-7274560D01*
X9181060Y-7254240D02*
X9160740Y-7274560D01*
X9184640Y-10327640D02*
X9204960Y-10347960D01*
X9204960Y-10327640D02*
X9184640Y-10347960D01*
X9184640Y-10429240D02*
X9204960Y-10449560D01*
X9204960Y-10429240D02*
X9184640Y-10449560D01*
X9184640Y-10530840D02*
X9204960Y-10551160D01*
X9204960Y-10530840D02*
X9184640Y-10551160D01*
X9197340Y-10011510D02*
X9217660Y-10031830D01*
X9217660Y-10011510D02*
X9197340Y-10031830D01*
X9197340Y-10092740D02*
X9217660Y-10113060D01*
X9217660Y-10092740D02*
X9197340Y-10113060D01*
X9197340Y-10711510D02*
X9217660Y-10731830D01*
X9217660Y-10711510D02*
X9197340Y-10731830D01*
X9197340Y-10792740D02*
X9217660Y-10813060D01*
X9217660Y-10792740D02*
X9197340Y-10813060D01*
X9260840Y-9248140D02*
X9281160Y-9268460D01*
X9281160Y-9248140D02*
X9260840Y-9268460D01*
X9298940Y-11330940D02*
X9319260Y-11351260D01*
X9319260Y-11330940D02*
X9298940Y-11351260D01*
X9324340Y-11572240D02*
X9344660Y-11592560D01*
X9344660Y-11572240D02*
X9324340Y-11592560D01*
X9324340Y-11711940D02*
X9344660Y-11732260D01*
X9344660Y-11711940D02*
X9324340Y-11732260D01*
X9349740Y-11229340D02*
X9370060Y-11249660D01*
X9370060Y-11229340D02*
X9349740Y-11249660D01*
X9369206Y-8632606D02*
X9389526Y-8652926D01*
X9389526Y-8632606D02*
X9369206Y-8652926D01*
X9425940Y-10848340D02*
X9446260Y-10868660D01*
X9446260Y-10848340D02*
X9425940Y-10868660D01*
X9438640Y-9819640D02*
X9458960Y-9839960D01*
X9458960Y-9819640D02*
X9438640Y-9839960D01*
X9443231Y-10364878D02*
X9463551Y-10385198D01*
X9463551Y-10364878D02*
X9443231Y-10385198D01*
X9457740Y-8702040D02*
X9478060Y-8722360D01*
X9478060Y-8702040D02*
X9457740Y-8722360D01*
X9514840Y-9883140D02*
X9535160Y-9903460D01*
X9535160Y-9883140D02*
X9514840Y-9903460D01*
X9527540Y-7101840D02*
X9547860Y-7122160D01*
X9547860Y-7101840D02*
X9527540Y-7122160D01*
X9565640Y-8549640D02*
X9585960Y-8569960D01*
X9585960Y-8549640D02*
X9565640Y-8569960D01*
X9565640Y-10949940D02*
X9585960Y-10970260D01*
X9585960Y-10949940D02*
X9565640Y-10970260D01*
X9578340Y-11191240D02*
X9598660Y-11211560D01*
X9598660Y-11191240D02*
X9578340Y-11211560D01*
X9603740Y-11724640D02*
X9624060Y-11744960D01*
X9624060Y-11724640D02*
X9603740Y-11744960D01*
X9616440Y-8788450D02*
X9636760Y-8808770D01*
X9636760Y-8788450D02*
X9616440Y-8808770D01*
X9641840Y-11267440D02*
X9662160Y-11287760D01*
X9662160Y-11267440D02*
X9641840Y-11287760D01*
X9667240Y-10175240D02*
X9687560Y-10195560D01*
X9687560Y-10175240D02*
X9667240Y-10195560D01*
X9692640Y-11191240D02*
X9712960Y-11211560D01*
X9712960Y-11191240D02*
X9692640Y-11211560D01*
X9718040Y-9260840D02*
X9738360Y-9281160D01*
X9738360Y-9260840D02*
X9718040Y-9281160D01*
X9718040Y-9667240D02*
X9738360Y-9687560D01*
X9738360Y-9667240D02*
X9718040Y-9687560D01*
X9743440Y-8854440D02*
X9763760Y-8874760D01*
X9763760Y-8854440D02*
X9743440Y-8874760D01*
X9781540Y-10175240D02*
X9801860Y-10195560D01*
X9801860Y-10175240D02*
X9781540Y-10195560D01*
X9794240Y-10695940D02*
X9814560Y-10716260D01*
X9814560Y-10695940D02*
X9794240Y-10716260D01*
X9819640Y-9260840D02*
X9839960Y-9281160D01*
X9839960Y-9260840D02*
X9819640Y-9281160D01*
X9819640Y-9667240D02*
X9839960Y-9687560D01*
X9839960Y-9667240D02*
X9819640Y-9687560D01*
X9832340Y-11699240D02*
X9852660Y-11719560D01*
X9852660Y-11699240D02*
X9832340Y-11719560D01*
X9870440Y-8422640D02*
X9890760Y-8442960D01*
X9890760Y-8422640D02*
X9870440Y-8442960D01*
X9870440Y-10628840D02*
X9890760Y-10649160D01*
X9890760Y-10628840D02*
X9870440Y-10649160D01*
X9894340Y-6935240D02*
X9914660Y-6955560D01*
X9914660Y-6935240D02*
X9894340Y-6955560D01*
X9921240Y-7813040D02*
X9941560Y-7833360D01*
X9941560Y-7813040D02*
X9921240Y-7833360D01*
X9921240Y-7914640D02*
X9941560Y-7934960D01*
X9941560Y-7914640D02*
X9921240Y-7934960D01*
X9946640Y-9260840D02*
X9966960Y-9281160D01*
X9966960Y-9260840D02*
X9946640Y-9281160D01*
X9946640Y-9667240D02*
X9966960Y-9687560D01*
X9966960Y-9667240D02*
X9946640Y-9687560D01*
X9946640Y-9895840D02*
X9966960Y-9916160D01*
X9966960Y-9895840D02*
X9946640Y-9916160D01*
X9946640Y-10175240D02*
X9966960Y-10195560D01*
X9966960Y-10175240D02*
X9946640Y-10195560D01*
X9959340Y-10911840D02*
X9979660Y-10932160D01*
X9979660Y-10911840D02*
X9959340Y-10932160D01*
X9959340Y-11711940D02*
X9979660Y-11732260D01*
X9979660Y-11711940D02*
X9959340Y-11732260D01*
X9972040Y-11610340D02*
X9992360Y-11630660D01*
X9992360Y-11610340D02*
X9972040Y-11630660D01*
X9997440Y-10645140D02*
X10017760Y-10665460D01*
X10017760Y-10645140D02*
X9997440Y-10665460D01*
X10010140Y-11899950D02*
X10030460Y-11920270D01*
X10030460Y-11899950D02*
X10010140Y-11920270D01*
X10010140Y-12435840D02*
X10030460Y-12456160D01*
X10030460Y-12435840D02*
X10010140Y-12456160D01*
X10048240Y-9260840D02*
X10068560Y-9281160D01*
X10068560Y-9260840D02*
X10048240Y-9281160D01*
X10048240Y-9667240D02*
X10068560Y-9687560D01*
X10068560Y-9667240D02*
X10048240Y-9687560D01*
X10060831Y-8169371D02*
X10081151Y-8189691D01*
X10081151Y-8169371D02*
X10060831Y-8189691D01*
X10060940Y-14505940D02*
X10081260Y-14526260D01*
X10081260Y-14505940D02*
X10060940Y-14526260D01*
X10073640Y-10911840D02*
X10093960Y-10932160D01*
X10093960Y-10911840D02*
X10073640Y-10932160D01*
X10086340Y-12994640D02*
X10106660Y-13014960D01*
X10106660Y-12994640D02*
X10086340Y-13014960D01*
X10086340Y-13756640D02*
X10106660Y-13776960D01*
X10106660Y-13756640D02*
X10086340Y-13776960D01*
X10099040Y-6276340D02*
X10119360Y-6296660D01*
X10119360Y-6276340D02*
X10099040Y-6296660D01*
X10200640Y-7165340D02*
X10220960Y-7185660D01*
X10220960Y-7165340D02*
X10200640Y-7185660D01*
X10208460Y-9591040D02*
X10228780Y-9611360D01*
X10228780Y-9591040D02*
X10208460Y-9611360D01*
X10276840Y-12105640D02*
X10297160Y-12125960D01*
X10297160Y-12105640D02*
X10276840Y-12125960D01*
X10276840Y-12207240D02*
X10297160Y-12227560D01*
X10297160Y-12207240D02*
X10276840Y-12227560D01*
X10276840Y-12334240D02*
X10297160Y-12354560D01*
X10297160Y-12334240D02*
X10276840Y-12354560D01*
X10294420Y-9591040D02*
X10314740Y-9611360D01*
X10314740Y-9591040D02*
X10294420Y-9611360D01*
X10299925Y-8585250D02*
X10320245Y-8605570D01*
X10320245Y-8585250D02*
X10299925Y-8605570D01*
X10302240Y-10962640D02*
X10322560Y-10982960D01*
X10322560Y-10962640D02*
X10302240Y-10982960D01*
X10302240Y-12461240D02*
X10322560Y-12481560D01*
X10322560Y-12461240D02*
X10302240Y-12481560D01*
X10302656Y-12562424D02*
X10322976Y-12582744D01*
X10322976Y-12562424D02*
X10302656Y-12582744D01*
X10365740Y-13464540D02*
X10386060Y-13484860D01*
X10386060Y-13464540D02*
X10365740Y-13484860D01*
X10378440Y-14112240D02*
X10398760Y-14132560D01*
X10398760Y-14112240D02*
X10378440Y-14132560D01*
X10403840Y-7254240D02*
X10424160Y-7274560D01*
X10424160Y-7254240D02*
X10403840Y-7274560D01*
X10403840Y-8803640D02*
X10424160Y-8823960D01*
X10424160Y-8803640D02*
X10403840Y-8823960D01*
X10403840Y-9260840D02*
X10424160Y-9281160D01*
X10424160Y-9260840D02*
X10403840Y-9281160D01*
X10403840Y-14759940D02*
X10424160Y-14780260D01*
X10424160Y-14759940D02*
X10403840Y-14780260D01*
X10429240Y-6365240D02*
X10449560Y-6385560D01*
X10449560Y-6365240D02*
X10429240Y-6385560D01*
X10429240Y-9895840D02*
X10449560Y-9916160D01*
X10449560Y-9895840D02*
X10429240Y-9916160D01*
X10429240Y-10962640D02*
X10449560Y-10982960D01*
X10449560Y-10962640D02*
X10429240Y-10982960D01*
X10454640Y-6936740D02*
X10474960Y-6957060D01*
X10474960Y-6936740D02*
X10454640Y-6957060D01*
X10492740Y-11800840D02*
X10513060Y-11821160D01*
X10513060Y-11800840D02*
X10492740Y-11821160D01*
X10505440Y-9260840D02*
X10525760Y-9281160D01*
X10525760Y-9260840D02*
X10505440Y-9281160D01*
X10556240Y-10962640D02*
X10576560Y-10982960D01*
X10576560Y-10962640D02*
X10556240Y-10982960D01*
X10664606Y-9101674D02*
X10684926Y-9121994D01*
X10684926Y-9101674D02*
X10664606Y-9121994D01*
X10695940Y-10492740D02*
X10716260Y-10513060D01*
X10716260Y-10492740D02*
X10695940Y-10513060D01*
X10782056Y-10708640D02*
X10802376Y-10728960D01*
X10802376Y-10708640D02*
X10782056Y-10728960D01*
X10784840Y-9616440D02*
X10805160Y-9636760D01*
X10805160Y-9616440D02*
X10784840Y-9636760D01*
X10784840Y-9768840D02*
X10805160Y-9789160D01*
X10805160Y-9768840D02*
X10784840Y-9789160D01*
X10784840Y-10073640D02*
X10805160Y-10093960D01*
X10805160Y-10073640D02*
X10784840Y-10093960D01*
X10784840Y-10403840D02*
X10805160Y-10424160D01*
X10805160Y-10403840D02*
X10784840Y-10424160D01*
X10784840Y-10556240D02*
X10805160Y-10576560D01*
X10805160Y-10556240D02*
X10784840Y-10576560D01*
X10784840Y-11496040D02*
X10805160Y-11516360D01*
X10805160Y-11496040D02*
X10784840Y-11516360D01*
X10784840Y-11648440D02*
X10805160Y-11668760D01*
X10805160Y-11648440D02*
X10784840Y-11668760D01*
X10784840Y-11953240D02*
X10805160Y-11973560D01*
X10805160Y-11953240D02*
X10784840Y-11973560D01*
X10784840Y-12283440D02*
X10805160Y-12303760D01*
X10805160Y-12283440D02*
X10784840Y-12303760D01*
X10784840Y-12435840D02*
X10805160Y-12456160D01*
X10805160Y-12435840D02*
X10784840Y-12456160D01*
X10784840Y-12588240D02*
X10805160Y-12608560D01*
X10805160Y-12588240D02*
X10784840Y-12608560D01*
X10784840Y-13375640D02*
X10805160Y-13395960D01*
X10805160Y-13375640D02*
X10784840Y-13395960D01*
X10797540Y-6771640D02*
X10817860Y-6791960D01*
X10817860Y-6771640D02*
X10797540Y-6791960D01*
X10810240Y-13528040D02*
X10830560Y-13548360D01*
X10830560Y-13528040D02*
X10810240Y-13548360D01*
X10810240Y-13832840D02*
X10830560Y-13853160D01*
X10830560Y-13832840D02*
X10810240Y-13853160D01*
X10810240Y-14163040D02*
X10830560Y-14183360D01*
X10830560Y-14163040D02*
X10810240Y-14183360D01*
X10810240Y-14315440D02*
X10830560Y-14335760D01*
X10830560Y-14315440D02*
X10810240Y-14335760D01*
X10810240Y-14467840D02*
X10830560Y-14488160D01*
X10830560Y-14467840D02*
X10810240Y-14488160D01*
X10835640Y-6936740D02*
X10855960Y-6957060D01*
X10855960Y-6936740D02*
X10835640Y-6957060D01*
X10886440Y-6384340D02*
X10906760Y-6404660D01*
X10906760Y-6384340D02*
X10886440Y-6404660D01*
X11038840Y-9324340D02*
X11059160Y-9344660D01*
X11059160Y-9324340D02*
X11038840Y-9344660D01*
X11216640Y-12258040D02*
X11236960Y-12278360D01*
X11236960Y-12258040D02*
X11216640Y-12278360D01*
X11242040Y-10403840D02*
X11262360Y-10424160D01*
X11262360Y-10403840D02*
X11242040Y-10424160D01*
X11267440Y-14163040D02*
X11287760Y-14183360D01*
X11287760Y-14163040D02*
X11267440Y-14183360D01*
X11292840Y-9972040D02*
X11313160Y-9992360D01*
X11313160Y-9972040D02*
X11292840Y-9992360D01*
X11292840Y-11851640D02*
X11313160Y-11871960D01*
X11313160Y-11851640D02*
X11292840Y-11871960D01*
X11318240Y-8448040D02*
X11338560Y-8468360D01*
X11338560Y-8448040D02*
X11318240Y-8468360D01*
X11318240Y-8778240D02*
X11338560Y-8798560D01*
X11338560Y-8778240D02*
X11318240Y-8798560D01*
X11318240Y-13731240D02*
X11338560Y-13751560D01*
X11338560Y-13731240D02*
X11318240Y-13751560D01*
X11338640Y-10408840D02*
X11358960Y-10429160D01*
X11358960Y-10408840D02*
X11338640Y-10429160D01*
X11338640Y-12288440D02*
X11358960Y-12308760D01*
X11358960Y-12288440D02*
X11338640Y-12308760D01*
X11343640Y-9324340D02*
X11363960Y-9344660D01*
X11363960Y-9324340D02*
X11343640Y-9344660D01*
X11364040Y-14168040D02*
X11384360Y-14188360D01*
X11384360Y-14168040D02*
X11364040Y-14188360D01*
X11415056Y-9972040D02*
X11435376Y-9992360D01*
X11435376Y-9972040D02*
X11415056Y-9992360D01*
X11415056Y-11851640D02*
X11435376Y-11871960D01*
X11435376Y-11851640D02*
X11415056Y-11871960D01*
X11440456Y-13731240D02*
X11460776Y-13751560D01*
X11460776Y-13731240D02*
X11440456Y-13751560D01*
X11572240Y-9972040D02*
X11592560Y-9992360D01*
X11592560Y-9972040D02*
X11572240Y-9992360D01*
X11572240Y-11851640D02*
X11592560Y-11871960D01*
X11592560Y-11851640D02*
X11572240Y-11871960D01*
X11597640Y-13731240D02*
X11617960Y-13751560D01*
X11617960Y-13731240D02*
X11597640Y-13751560D01*
X11673840Y-9324340D02*
X11694160Y-9344660D01*
X11694160Y-9324340D02*
X11673840Y-9344660D01*
X11673840Y-9623040D02*
X11694160Y-9643360D01*
X11694160Y-9623040D02*
X11673840Y-9643360D01*
X11673840Y-9718040D02*
X11694160Y-9738360D01*
X11694160Y-9718040D02*
X11673840Y-9738360D01*
X11673840Y-11502640D02*
X11694160Y-11522960D01*
X11694160Y-11502640D02*
X11673840Y-11522960D01*
X11673840Y-11597640D02*
X11694160Y-11617960D01*
X11694160Y-11597640D02*
X11673840Y-11617960D01*
X11699240Y-13382240D02*
X11719560Y-13402560D01*
X11719560Y-13382240D02*
X11699240Y-13402560D01*
X11699240Y-13477240D02*
X11719560Y-13497560D01*
X11719560Y-13477240D02*
X11699240Y-13497560D01*
X11775440Y-11597640D02*
X11795760Y-11617960D01*
X11795760Y-11597640D02*
X11775440Y-11617960D01*
X11775440Y-12537440D02*
X11795760Y-12557760D01*
X11795760Y-12537440D02*
X11775440Y-12557760D01*
X11800840Y-14404340D02*
X11821160Y-14424660D01*
X11821160Y-14404340D02*
X11800840Y-14424660D01*
X11810540Y-10735540D02*
X11830860Y-10755860D01*
X11830860Y-10735540D02*
X11810540Y-10755860D01*
X11813540Y-10911840D02*
X11833860Y-10932160D01*
X11833860Y-10911840D02*
X11813540Y-10932160D01*
X11838940Y-11369040D02*
X11859260Y-11389360D01*
X11859260Y-11369040D02*
X11838940Y-11389360D01*
X11838940Y-11521440D02*
X11859260Y-11541760D01*
X11859260Y-11521440D02*
X11838940Y-11541760D01*
X11889740Y-13248640D02*
X11910060Y-13268960D01*
X11910060Y-13248640D02*
X11889740Y-13268960D01*
X11889740Y-13401040D02*
X11910060Y-13421360D01*
X11910060Y-13401040D02*
X11889740Y-13421360D01*
X11902440Y-11996940D02*
X11922760Y-12017260D01*
X11922760Y-11996940D02*
X11902440Y-12017260D01*
X11902440Y-12194540D02*
X11922760Y-12214860D01*
X11922760Y-12194540D02*
X11902440Y-12214860D01*
X11905040Y-10312340D02*
X11925360Y-10332660D01*
X11925360Y-10312340D02*
X11905040Y-10332660D01*
X11909540Y-10117340D02*
X11929860Y-10137660D01*
X11929860Y-10117340D02*
X11909540Y-10137660D01*
X11927840Y-13876540D02*
X11948160Y-13896860D01*
X11948160Y-13876540D02*
X11927840Y-13896860D01*
X11927840Y-14074140D02*
X11948160Y-14094460D01*
X11948160Y-14074140D02*
X11927840Y-14094460D01*
X11978640Y-10581640D02*
X11998960Y-10601960D01*
X11998960Y-10581640D02*
X11978640Y-10601960D01*
X11991340Y-13121640D02*
X12011660Y-13141960D01*
X12011660Y-13121640D02*
X11991340Y-13141960D01*
X12004040Y-12397740D02*
X12024360Y-12418060D01*
X12024360Y-12397740D02*
X12004040Y-12418060D01*
X12029440Y-14277340D02*
X12049760Y-14297660D01*
X12049760Y-14277340D02*
X12029440Y-14297660D01*
X12080240Y-8778240D02*
X12100560Y-8798560D01*
X12100560Y-8778240D02*
X12080240Y-8798560D01*
X12162740Y-10911840D02*
X12183060Y-10932160D01*
X12183060Y-10911840D02*
X12162740Y-10932160D01*
X12181840Y-9946640D02*
X12202160Y-9966960D01*
X12202160Y-9946640D02*
X12181840Y-9966960D01*
X12181840Y-10353040D02*
X12202160Y-10373360D01*
X12202160Y-10353040D02*
X12181840Y-10373360D01*
X12181840Y-10480040D02*
X12202160Y-10500360D01*
X12202160Y-10480040D02*
X12181840Y-10500360D01*
X12181840Y-10607040D02*
X12202160Y-10627360D01*
X12202160Y-10607040D02*
X12181840Y-10627360D01*
X12181840Y-11826240D02*
X12202160Y-11846560D01*
X12202160Y-11826240D02*
X12181840Y-11846560D01*
X12181840Y-12232640D02*
X12202160Y-12252960D01*
X12202160Y-12232640D02*
X12181840Y-12252960D01*
X12181840Y-12359640D02*
X12202160Y-12379960D01*
X12202160Y-12359640D02*
X12181840Y-12379960D01*
X12181840Y-12486640D02*
X12202160Y-12506960D01*
X12202160Y-12486640D02*
X12181840Y-12506960D01*
X12207240Y-13705840D02*
X12227560Y-13726160D01*
X12227560Y-13705840D02*
X12207240Y-13726160D01*
X12207240Y-14112240D02*
X12227560Y-14132560D01*
X12227560Y-14112240D02*
X12207240Y-14132560D01*
X12207240Y-14239240D02*
X12227560Y-14259560D01*
X12227560Y-14239240D02*
X12207240Y-14259560D01*
X12207240Y-14366240D02*
X12227560Y-14386560D01*
X12227560Y-14366240D02*
X12207240Y-14386560D01*
X12232640Y-9565640D02*
X12252960Y-9585960D01*
X12252960Y-9565640D02*
X12232640Y-9585960D01*
X12232640Y-9667240D02*
X12252960Y-9687560D01*
X12252960Y-9667240D02*
X12232640Y-9687560D01*
X12232640Y-9768840D02*
X12252960Y-9789160D01*
X12252960Y-9768840D02*
X12232640Y-9789160D01*
X12232640Y-9870440D02*
X12252960Y-9890760D01*
X12252960Y-9870440D02*
X12232640Y-9890760D01*
X12232640Y-11445240D02*
X12252960Y-11465560D01*
X12252960Y-11445240D02*
X12232640Y-11465560D01*
X12232640Y-11546840D02*
X12252960Y-11567160D01*
X12252960Y-11546840D02*
X12232640Y-11567160D01*
X12232640Y-11648440D02*
X12252960Y-11668760D01*
X12252960Y-11648440D02*
X12232640Y-11668760D01*
X12232640Y-11750040D02*
X12252960Y-11770360D01*
X12252960Y-11750040D02*
X12232640Y-11770360D01*
X12258040Y-11292840D02*
X12278360Y-11313160D01*
X12278360Y-11292840D02*
X12258040Y-11313160D01*
X12258040Y-13121640D02*
X12278360Y-13141960D01*
X12278360Y-13121640D02*
X12258040Y-13141960D01*
X12258040Y-13324840D02*
X12278360Y-13345160D01*
X12278360Y-13324840D02*
X12258040Y-13345160D01*
X12258040Y-13426440D02*
X12278360Y-13446760D01*
X12278360Y-13426440D02*
X12258040Y-13446760D01*
X12258040Y-13528040D02*
X12278360Y-13548360D01*
X12278360Y-13528040D02*
X12258040Y-13548360D01*
X12258040Y-13629640D02*
X12278360Y-13649960D01*
X12278360Y-13629640D02*
X12258040Y-13649960D01*
X12283440Y-9946640D02*
X12303760Y-9966960D01*
X12303760Y-9946640D02*
X12283440Y-9966960D01*
X12283440Y-10353040D02*
X12303760Y-10373360D01*
X12303760Y-10353040D02*
X12283440Y-10373360D01*
X12283440Y-11826240D02*
X12303760Y-11846560D01*
X12303760Y-11826240D02*
X12283440Y-11846560D01*
X12283440Y-12232640D02*
X12303760Y-12252960D01*
X12303760Y-12232640D02*
X12283440Y-12252960D01*
X12308840Y-13705840D02*
X12329160Y-13726160D01*
X12329160Y-13705840D02*
X12308840Y-13726160D01*
X12308840Y-14112240D02*
X12329160Y-14132560D01*
X12329160Y-14112240D02*
X12308840Y-14132560D01*
X12372340Y-10378440D02*
X12392660Y-10398760D01*
X12392660Y-10378440D02*
X12372340Y-10398760D01*
X12372340Y-12258040D02*
X12392660Y-12278360D01*
X12392660Y-12258040D02*
X12372340Y-12278360D01*
X12397740Y-14137640D02*
X12418060Y-14157960D01*
X12418060Y-14137640D02*
X12397740Y-14157960D01*
X12448540Y-10378440D02*
X12468860Y-10398760D01*
X12468860Y-10378440D02*
X12448540Y-10398760D01*
X12448540Y-12258040D02*
X12468860Y-12278360D01*
X12468860Y-12258040D02*
X12448540Y-12278360D01*
X12473940Y-14137640D02*
X12494260Y-14157960D01*
X12494260Y-14137640D02*
X12473940Y-14157960D01*
X12512040Y-9565640D02*
X12532360Y-9585960D01*
X12532360Y-9565640D02*
X12512040Y-9585960D01*
X12512040Y-9908540D02*
X12532360Y-9928860D01*
X12532360Y-9908540D02*
X12512040Y-9928860D01*
X12512040Y-11445240D02*
X12532360Y-11465560D01*
X12532360Y-11445240D02*
X12512040Y-11465560D01*
X12512040Y-11788140D02*
X12532360Y-11808460D01*
X12532360Y-11788140D02*
X12512040Y-11808460D01*
X12524740Y-10378440D02*
X12545060Y-10398760D01*
X12545060Y-10378440D02*
X12524740Y-10398760D01*
X12524740Y-12258040D02*
X12545060Y-12278360D01*
X12545060Y-12258040D02*
X12524740Y-12278360D01*
X12537440Y-13324840D02*
X12557760Y-13345160D01*
X12557760Y-13324840D02*
X12537440Y-13345160D01*
X12537440Y-13667740D02*
X12557760Y-13688060D01*
X12557760Y-13667740D02*
X12537440Y-13688060D01*
X12550140Y-14137640D02*
X12570460Y-14157960D01*
X12570460Y-14137640D02*
X12550140Y-14157960D01*
X12565448Y-10117173D02*
X12585768Y-10137493D01*
X12585768Y-10117173D02*
X12565448Y-10137493D01*
X12586170Y-11996940D02*
X12606490Y-12017260D01*
X12606490Y-11996940D02*
X12586170Y-12017260D01*
X12588240Y-10200640D02*
X12608560Y-10220960D01*
X12608560Y-10200640D02*
X12588240Y-10220960D01*
X12588240Y-12080240D02*
X12608560Y-12100560D01*
X12608560Y-12080240D02*
X12588240Y-12100560D01*
X12613640Y-13878610D02*
X12633960Y-13898930D01*
X12633960Y-13878610D02*
X12613640Y-13898930D01*
X12613640Y-13959840D02*
X12633960Y-13980160D01*
X12633960Y-13959840D02*
X12613640Y-13980160D01*
X12715240Y-10492740D02*
X12735560Y-10513060D01*
X12735560Y-10492740D02*
X12715240Y-10513060D01*
X12715240Y-10594340D02*
X12735560Y-10614660D01*
X12735560Y-10594340D02*
X12715240Y-10614660D01*
X12715240Y-12372340D02*
X12735560Y-12392660D01*
X12735560Y-12372340D02*
X12715240Y-12392660D01*
X12715240Y-12473940D02*
X12735560Y-12494260D01*
X12735560Y-12473940D02*
X12715240Y-12494260D01*
X12740640Y-14251940D02*
X12760960Y-14272260D01*
X12760960Y-14251940D02*
X12740640Y-14272260D01*
X12740640Y-14353540D02*
X12760960Y-14373860D01*
X12760960Y-14353540D02*
X12740640Y-14373860D01*
X12918440Y-8803640D02*
X12938760Y-8823960D01*
X12938760Y-8803640D02*
X12918440Y-8823960D01*
X12981940Y-10530840D02*
X13002260Y-10551160D01*
X13002260Y-10530840D02*
X12981940Y-10551160D01*
X12981940Y-12410440D02*
X13002260Y-12430760D01*
X13002260Y-12410440D02*
X12981940Y-12430760D01*
X13007340Y-14290040D02*
X13027660Y-14310360D01*
X13027660Y-14290040D02*
X13007340Y-14310360D01*
X13070840Y-10530840D02*
X13091160Y-10551160D01*
X13091160Y-10530840D02*
X13070840Y-10551160D01*
X13070840Y-12410440D02*
X13091160Y-12430760D01*
X13091160Y-12410440D02*
X13070840Y-12430760D01*
X13096240Y-14290040D02*
X13116560Y-14310360D01*
X13116560Y-14290040D02*
X13096240Y-14310360D01*
X13159740Y-10530840D02*
X13180060Y-10551160D01*
X13180060Y-10530840D02*
X13159740Y-10551160D01*
X13159740Y-12410440D02*
X13180060Y-12430760D01*
X13180060Y-12410440D02*
X13159740Y-12430760D01*
X13185140Y-14290040D02*
X13205460Y-14310360D01*
X13205460Y-14290040D02*
X13185140Y-14310360D01*
X13261340Y-13210540D02*
X13281660Y-13230860D01*
X13281660Y-13210540D02*
X13261340Y-13230860D01*
X13312140Y-9540240D02*
X13332460Y-9560560D01*
X13332460Y-9540240D02*
X13312140Y-9560560D01*
X13312140Y-11419840D02*
X13332460Y-11440160D01*
X13332460Y-11419840D02*
X13312140Y-11440160D01*
X13337540Y-13299440D02*
X13357860Y-13319760D01*
X13357860Y-13299440D02*
X13337540Y-13319760D01*
X13575040Y-9750040D02*
X13595360Y-9770360D01*
X13595360Y-9750040D02*
X13575040Y-9770360D01*
X13575040Y-11629640D02*
X13595360Y-11649960D01*
X13595360Y-11629640D02*
X13575040Y-11649960D01*
X13578840Y-9845040D02*
X13599160Y-9865360D01*
X13599160Y-9845040D02*
X13578840Y-9865360D01*
X13578840Y-11724640D02*
X13599160Y-11744960D01*
X13599160Y-11724640D02*
X13578840Y-11744960D01*
X13600440Y-13509240D02*
X13620760Y-13529560D01*
X13620760Y-13509240D02*
X13600440Y-13529560D01*
X13604240Y-13604240D02*
X13624560Y-13624560D01*
X13624560Y-13604240D02*
X13604240Y-13624560D01*
X13655040Y-10505440D02*
X13675360Y-10525760D01*
X13675360Y-10505440D02*
X13655040Y-10525760D01*
X13655040Y-12385040D02*
X13675360Y-12405360D01*
X13675360Y-12385040D02*
X13655040Y-12405360D01*
X13680440Y-14264640D02*
X13700760Y-14284960D01*
X13700760Y-14264640D02*
X13680440Y-14284960D01*
X13705840Y-10911840D02*
X13726160Y-10932160D01*
X13726160Y-10911840D02*
X13705840Y-10932160D01*
X13705840Y-12791440D02*
X13726160Y-12811760D01*
X13726160Y-12791440D02*
X13705840Y-12811760D01*
X13731240Y-10683240D02*
X13751560Y-10703560D01*
X13751560Y-10683240D02*
X13731240Y-10703560D01*
X13731240Y-12562840D02*
X13751560Y-12583160D01*
X13751560Y-12562840D02*
X13731240Y-12583160D01*
X13731240Y-14671040D02*
X13751560Y-14691360D01*
X13751560Y-14671040D02*
X13731240Y-14691360D01*
X13756640Y-14442440D02*
X13776960Y-14462760D01*
X13776960Y-14442440D02*
X13756640Y-14462760D01*
X13832840Y-8397240D02*
X13853160Y-8417560D01*
X13853160Y-8397240D02*
X13832840Y-8417560D01*
X13832840Y-8498840D02*
X13853160Y-8519160D01*
X13853160Y-8498840D02*
X13832840Y-8519160D01*
X13832840Y-9845040D02*
X13853160Y-9865360D01*
X13853160Y-9845040D02*
X13832840Y-9865360D01*
X13832840Y-9940040D02*
X13853160Y-9960360D01*
X13853160Y-9940040D02*
X13832840Y-9960360D01*
X13832840Y-11724640D02*
X13853160Y-11744960D01*
X13853160Y-11724640D02*
X13832840Y-11744960D01*
X13832840Y-11819640D02*
X13853160Y-11839960D01*
X13853160Y-11819640D02*
X13832840Y-11839960D01*
X13845540Y-5806440D02*
X13865860Y-5826760D01*
X13865860Y-5806440D02*
X13845540Y-5826760D01*
X13858240Y-13604240D02*
X13878560Y-13624560D01*
X13878560Y-13604240D02*
X13858240Y-13624560D01*
X13858240Y-13699240D02*
X13878560Y-13719560D01*
X13878560Y-13699240D02*
X13858240Y-13719560D01*
X13934440Y-5806440D02*
X13954760Y-5826760D01*
X13954760Y-5806440D02*
X13934440Y-5826760D01*
X13934440Y-14594840D02*
X13954760Y-14615160D01*
X13954760Y-14594840D02*
X13934440Y-14615160D01*
X13972540Y-10619740D02*
X13992860Y-10640060D01*
X13992860Y-10619740D02*
X13972540Y-10640060D01*
X13972540Y-12499340D02*
X13992860Y-12519660D01*
X13992860Y-12499340D02*
X13972540Y-12519660D01*
X13985240Y-10759440D02*
X14005560Y-10779760D01*
X14005560Y-10759440D02*
X13985240Y-10779760D01*
X13997940Y-14378940D02*
X14018260Y-14399260D01*
X14018260Y-14378940D02*
X13997940Y-14399260D01*
X14023340Y-5806440D02*
X14043660Y-5826760D01*
X14043660Y-5806440D02*
X14023340Y-5826760D01*
X14036040Y-5548690D02*
X14056360Y-5569010D01*
X14056360Y-5548690D02*
X14036040Y-5569010D01*
X14036040Y-14721840D02*
X14056360Y-14742160D01*
X14056360Y-14721840D02*
X14036040Y-14742160D01*
X14175740Y-6644640D02*
X14196060Y-6664960D01*
X14196060Y-6644640D02*
X14175740Y-6664960D01*
X14175740Y-6746240D02*
X14196060Y-6766560D01*
X14196060Y-6746240D02*
X14175740Y-6766560D01*
X14188440Y-11483340D02*
X14208760Y-11503660D01*
X14208760Y-11483340D02*
X14188440Y-11503660D01*
X14188540Y-9603740D02*
X14208860Y-9624060D01*
X14208860Y-9603740D02*
X14188540Y-9624060D01*
X14213840Y-13350240D02*
X14234160Y-13370560D01*
X14234160Y-13350240D02*
X14213840Y-13370560D01*
X14239240Y-7787640D02*
X14259560Y-7807960D01*
X14259560Y-7787640D02*
X14239240Y-7807960D01*
X14239240Y-7889240D02*
X14259560Y-7909560D01*
X14259560Y-7889240D02*
X14239240Y-7909560D01*
X14239240Y-8143240D02*
X14259560Y-8163560D01*
X14259560Y-8143240D02*
X14239240Y-8163560D01*
X14239240Y-8397240D02*
X14259560Y-8417560D01*
X14259560Y-8397240D02*
X14239240Y-8417560D01*
X14239240Y-8498840D02*
X14259560Y-8519160D01*
X14259560Y-8498840D02*
X14239240Y-8519160D01*
X14290040Y-5781040D02*
X14310360Y-5801360D01*
X14310360Y-5781040D02*
X14290040Y-5801360D01*
X14315440Y-5552440D02*
X14335760Y-5572760D01*
X14335760Y-5552440D02*
X14315440Y-5572760D01*
X14391640Y-13147040D02*
X14411960Y-13167360D01*
X14411960Y-13147040D02*
X14391640Y-13167360D01*
X14404340Y-9387840D02*
X14424660Y-9408160D01*
X14424660Y-9387840D02*
X14404340Y-9408160D01*
X14404340Y-11268240D02*
X14424660Y-11288560D01*
X14424660Y-11268240D02*
X14404340Y-11288560D01*
X14493240Y-7813040D02*
X14513560Y-7833360D01*
X14513560Y-7813040D02*
X14493240Y-7833360D01*
X14925040Y-12613640D02*
X14945360Y-12633960D01*
X14945360Y-12613640D02*
X14925040Y-12633960D01*
X14937740Y-10734040D02*
X14958060Y-10754360D01*
X14958060Y-10734040D02*
X14937740Y-10754360D01*
X14950440Y-6479540D02*
X14970760Y-6499860D01*
X14970760Y-6479540D02*
X14950440Y-6499860D01*
X14950440Y-6885940D02*
X14970760Y-6906260D01*
X14970760Y-6885940D02*
X14950440Y-6906260D01*
X14963140Y-8016240D02*
X14983460Y-8036560D01*
X14983460Y-8016240D02*
X14963140Y-8036560D01*
X14963140Y-8397240D02*
X14983460Y-8417560D01*
X14983460Y-8397240D02*
X14963140Y-8417560D01*
X14975840Y-7470140D02*
X14996160Y-7490460D01*
X14996160Y-7470140D02*
X14975840Y-7490460D01*
D13*
X7355840Y-10490200D02*
G75*
G03*
X7355840Y-10490200I-15240J0D01*
G01*
X7355840Y-10641350D02*
G75*
G03*
X7355840Y-10641350I-15240J0D01*
G01*
X7355840Y-10795000D02*
G75*
G03*
X7355840Y-10795000I-15240J0D01*
G01*
X8422640Y-9080500D02*
G75*
G03*
X8422640Y-9080500I-15240J0D01*
G01*
X8913621Y-6146800D02*
G75*
G03*
X8913621Y-6146800I-15240J0D01*
G01*
X9713621Y-5791200D02*
G75*
G03*
X9713621Y-5791200I-15240J0D01*
G01*
X9713621Y-5894381D02*
G75*
G03*
X9713621Y-5894381I-15240J0D01*
G01*
X9953621Y-5930900D02*
G75*
G03*
X9953621Y-5930900I-15240J0D01*
G01*
X10035540Y-6007100D02*
G75*
G03*
X10035540Y-6007100I-15240J0D01*
G01*
X10556240Y-8302100D02*
G75*
G03*
X10556240Y-8302100I-15240J0D01*
G01*
X10556240Y-8403700D02*
G75*
G03*
X10556240Y-8403700I-15240J0D01*
G01*
X10594340Y-7975600D02*
G75*
G03*
X10594340Y-7975600I-15240J0D01*
G01*
X10594340Y-8077200D02*
G75*
G03*
X10594340Y-8077200I-15240J0D01*
G01*
X11026140Y-7975600D02*
G75*
G03*
X11026140Y-7975600I-15240J0D01*
G01*
X11026140Y-8077200D02*
G75*
G03*
X11026140Y-8077200I-15240J0D01*
G01*
X11064240Y-8293100D02*
G75*
G03*
X11064240Y-8293100I-15240J0D01*
G01*
X11064240Y-8394700D02*
G75*
G03*
X11064240Y-8394700I-15240J0D01*
G01*
X11242040Y-6362700D02*
G75*
G03*
X11242040Y-6362700I-15240J0D01*
G01*
X11242040Y-7340600D02*
G75*
G03*
X11242040Y-7340600I-15240J0D01*
G01*
X11313621Y-5789619D02*
G75*
G03*
X11313621Y-5789619I-15240J0D01*
G01*
X11313621Y-5892800D02*
G75*
G03*
X11313621Y-5892800I-15240J0D01*
G01*
X11343640Y-7416800D02*
G75*
G03*
X11343640Y-7416800I-15240J0D01*
G01*
X11381740Y-6362700D02*
G75*
G03*
X11381740Y-6362700I-15240J0D01*
G01*
X11445240Y-7340600D02*
G75*
G03*
X11445240Y-7340600I-15240J0D01*
G01*
X11473621Y-5789619D02*
G75*
G03*
X11473621Y-5789619I-15240J0D01*
G01*
X11473621Y-5892800D02*
G75*
G03*
X11473621Y-5892800I-15240J0D01*
G01*
X11546840Y-7416800D02*
G75*
G03*
X11546840Y-7416800I-15240J0D01*
G01*
X11572240Y-8302100D02*
G75*
G03*
X11572240Y-8302100I-15240J0D01*
G01*
X11572240Y-8403700D02*
G75*
G03*
X11572240Y-8403700I-15240J0D01*
G01*
X11610340Y-7975600D02*
G75*
G03*
X11610340Y-7975600I-15240J0D01*
G01*
X11610340Y-8077200D02*
G75*
G03*
X11610340Y-8077200I-15240J0D01*
G01*
X11648440Y-7340600D02*
G75*
G03*
X11648440Y-7340600I-15240J0D01*
G01*
X11750040Y-7416800D02*
G75*
G03*
X11750040Y-7416800I-15240J0D01*
G01*
X11762740Y-6362700D02*
G75*
G03*
X11762740Y-6362700I-15240J0D01*
G01*
X11851640Y-7340600D02*
G75*
G03*
X11851640Y-7340600I-15240J0D01*
G01*
X11873621Y-5789619D02*
G75*
G03*
X11873621Y-5789619I-15240J0D01*
G01*
X11873621Y-5892800D02*
G75*
G03*
X11873621Y-5892800I-15240J0D01*
G01*
X11889740Y-6362700D02*
G75*
G03*
X11889740Y-6362700I-15240J0D01*
G01*
X12042140Y-7975600D02*
G75*
G03*
X12042140Y-7975600I-15240J0D01*
G01*
X12042140Y-8077200D02*
G75*
G03*
X12042140Y-8077200I-15240J0D01*
G01*
X12067540Y-6819900D02*
G75*
G03*
X12067540Y-6819900I-15240J0D01*
G01*
X12090240Y-8297600D02*
G75*
G03*
X12090240Y-8297600I-15240J0D01*
G01*
X12090240Y-8399200D02*
G75*
G03*
X12090240Y-8399200I-15240J0D01*
G01*
X12486640Y-5789619D02*
G75*
G03*
X12486640Y-5789619I-15240J0D01*
G01*
X12486640Y-5892800D02*
G75*
G03*
X12486640Y-5892800I-15240J0D01*
G01*
X12588240Y-8302100D02*
G75*
G03*
X12588240Y-8302100I-15240J0D01*
G01*
X12588240Y-8403700D02*
G75*
G03*
X12588240Y-8403700I-15240J0D01*
G01*
X12613640Y-5789619D02*
G75*
G03*
X12613640Y-5789619I-15240J0D01*
G01*
X12613640Y-5892800D02*
G75*
G03*
X12613640Y-5892800I-15240J0D01*
G01*
X12626340Y-7975600D02*
G75*
G03*
X12626340Y-7975600I-15240J0D01*
G01*
X12626340Y-8077200D02*
G75*
G03*
X12626340Y-8077200I-15240J0D01*
G01*
X12664440Y-6451600D02*
G75*
G03*
X12664440Y-6451600I-15240J0D01*
G01*
X12753621Y-5789619D02*
G75*
G03*
X12753621Y-5789619I-15240J0D01*
G01*
X12753621Y-5892800D02*
G75*
G03*
X12753621Y-5892800I-15240J0D01*
G01*
X13058140Y-7975600D02*
G75*
G03*
X13058140Y-7975600I-15240J0D01*
G01*
X13058140Y-8077200D02*
G75*
G03*
X13058140Y-8077200I-15240J0D01*
G01*
X13106240Y-8297600D02*
G75*
G03*
X13106240Y-8297600I-15240J0D01*
G01*
X13106240Y-8399200D02*
G75*
G03*
X13106240Y-8399200I-15240J0D01*
G01*
X13172440Y-10668000D02*
G75*
G03*
X13172440Y-10668000I-15240J0D01*
G01*
X13172440Y-12573000D02*
G75*
G03*
X13172440Y-12573000I-15240J0D01*
G01*
X13172440Y-14427200D02*
G75*
G03*
X13172440Y-14427200I-15240J0D01*
G01*
X13299440Y-10668000D02*
G75*
G03*
X13299440Y-10668000I-15240J0D01*
G01*
X13299440Y-12522200D02*
G75*
G03*
X13299440Y-12522200I-15240J0D01*
G01*
X13299440Y-14401800D02*
G75*
G03*
X13299440Y-14401800I-15240J0D01*
G01*
X13375640Y-9906000D02*
G75*
G03*
X13375640Y-9906000I-15240J0D01*
G01*
X13375640Y-10033000D02*
G75*
G03*
X13375640Y-10033000I-15240J0D01*
G01*
X13375640Y-10160000D02*
G75*
G03*
X13375640Y-10160000I-15240J0D01*
G01*
X13375640Y-10287000D02*
G75*
G03*
X13375640Y-10287000I-15240J0D01*
G01*
X13375640Y-10414000D02*
G75*
G03*
X13375640Y-10414000I-15240J0D01*
G01*
X13375640Y-10566400D02*
G75*
G03*
X13375640Y-10566400I-15240J0D01*
G01*
X13375640Y-11785600D02*
G75*
G03*
X13375640Y-11785600I-15240J0D01*
G01*
X13375640Y-11912600D02*
G75*
G03*
X13375640Y-11912600I-15240J0D01*
G01*
X13375640Y-12039600D02*
G75*
G03*
X13375640Y-12039600I-15240J0D01*
G01*
X13375640Y-12166600D02*
G75*
G03*
X13375640Y-12166600I-15240J0D01*
G01*
X13375640Y-12293600D02*
G75*
G03*
X13375640Y-12293600I-15240J0D01*
G01*
X13375640Y-12420600D02*
G75*
G03*
X13375640Y-12420600I-15240J0D01*
G01*
X13401040Y-13665200D02*
G75*
G03*
X13401040Y-13665200I-15240J0D01*
G01*
X13401040Y-13792200D02*
G75*
G03*
X13401040Y-13792200I-15240J0D01*
G01*
X13401040Y-13919200D02*
G75*
G03*
X13401040Y-13919200I-15240J0D01*
G01*
X13401040Y-14046200D02*
G75*
G03*
X13401040Y-14046200I-15240J0D01*
G01*
X13401040Y-14173200D02*
G75*
G03*
X13401040Y-14173200I-15240J0D01*
G01*
X13401040Y-14325600D02*
G75*
G03*
X13401040Y-14325600I-15240J0D01*
G01*
X13451840Y-8890000D02*
G75*
G03*
X13451840Y-8890000I-15240J0D01*
G01*
X13578840Y-8890000D02*
G75*
G03*
X13578840Y-8890000I-15240J0D01*
G01*
X13718540Y-6096000D02*
G75*
G03*
X13718540Y-6096000I-15240J0D01*
G01*
X13718540Y-6197600D02*
G75*
G03*
X13718540Y-6197600I-15240J0D01*
G01*
X14620240Y-7048500D02*
G75*
G03*
X14620240Y-7048500I-15240J0D01*
G01*
D14*
X6985000Y-8653780D02*
X6985000Y-8745220D01*
X6939280Y-8699500D02*
X7030720Y-8699500D01*
X9588500Y-14686280D02*
X9588500Y-14777720D01*
X9542780Y-14732000D02*
X9634220Y-14732000D01*
X14859000Y-8653780D02*
X14859000Y-8745220D01*
X14813280Y-8699500D02*
X14904720Y-8699500D01*
D15*
X10169956Y-8836456D02*
X10169956Y-8765744D01*
X10099244Y-8765744D01*
X10099244Y-8836456D01*
X10169956Y-8836456D01*
X10830356Y-8823756D02*
X10830356Y-8753044D01*
X10759644Y-8753044D01*
X10759644Y-8823756D01*
X10830356Y-8823756D01*
X11312956Y-11071656D02*
X11312956Y-11000944D01*
X11242244Y-11000944D01*
X11242244Y-11071656D01*
X11312956Y-11071656D01*
X11643156Y-14729256D02*
X11643156Y-14658544D01*
X11572444Y-14658544D01*
X11572444Y-14729256D01*
X11643156Y-14729256D01*
X11693956Y-11071656D02*
X11693956Y-11000944D01*
X11623244Y-11000944D01*
X11623244Y-11071656D01*
X11693956Y-11071656D01*
X11706656Y-12824256D02*
X11706656Y-12753544D01*
X11635944Y-12753544D01*
X11635944Y-12824256D01*
X11706656Y-12824256D01*
X11846356Y-8823756D02*
X11846356Y-8753044D01*
X11775644Y-8753044D01*
X11775644Y-8823756D01*
X11846356Y-8823756D01*
X12252756Y-12824256D02*
X12252756Y-12753544D01*
X12182044Y-12753544D01*
X12182044Y-12824256D01*
X12252756Y-12824256D01*
X12354356Y-14792756D02*
X12354356Y-14722044D01*
X12283644Y-14722044D01*
X12283644Y-14792756D01*
X12354356Y-14792756D01*
X12379756Y-10944656D02*
X12379756Y-10873944D01*
X12309044Y-10873944D01*
X12309044Y-10944656D01*
X12379756Y-10944656D01*
X12481356Y-8823756D02*
X12481356Y-8753044D01*
X12410644Y-8753044D01*
X12410644Y-8823756D01*
X12481356Y-8823756D01*
X12506756Y-9433356D02*
X12506756Y-9362644D01*
X12436044Y-9362644D01*
X12436044Y-9433356D01*
X12506756Y-9433356D01*
X12506756Y-11312956D02*
X12506756Y-11242244D01*
X12436044Y-11242244D01*
X12436044Y-11312956D01*
X12506756Y-11312956D01*
X12532156Y-13217956D02*
X12532156Y-13147244D01*
X12461444Y-13147244D01*
X12461444Y-13217956D01*
X12532156Y-13217956D01*
X12760756Y-10944656D02*
X12760756Y-10873944D01*
X12690044Y-10873944D01*
X12690044Y-10944656D01*
X12760756Y-10944656D01*
X12760756Y-12824256D02*
X12760756Y-12753544D01*
X12690044Y-12753544D01*
X12690044Y-12824256D01*
X12760756Y-12824256D01*
X12786156Y-14792756D02*
X12786156Y-14722044D01*
X12715444Y-14722044D01*
X12715444Y-14792756D01*
X12786156Y-14792756D01*
X13014756Y-9433356D02*
X13014756Y-9362644D01*
X12944044Y-9362644D01*
X12944044Y-9433356D01*
X13014756Y-9433356D01*
X13014756Y-11312956D02*
X13014756Y-11242244D01*
X12944044Y-11242244D01*
X12944044Y-11312956D01*
X13014756Y-11312956D01*
X13040156Y-13217956D02*
X13040156Y-13147244D01*
X12969444Y-13147244D01*
X12969444Y-13217956D01*
X13040156Y-13217956D01*
X13344956Y-10944656D02*
X13344956Y-10873944D01*
X13274244Y-10873944D01*
X13274244Y-10944656D01*
X13344956Y-10944656D01*
X13344956Y-12824256D02*
X13344956Y-12753544D01*
X13274244Y-12753544D01*
X13274244Y-12824256D01*
X13344956Y-12824256D01*
X13370356Y-14792756D02*
X13370356Y-14722044D01*
X13299644Y-14722044D01*
X13299644Y-14792756D01*
X13370356Y-14792756D01*
X13433856Y-8671356D02*
X13433856Y-8600644D01*
X13363144Y-8600644D01*
X13363144Y-8671356D01*
X13433856Y-8671356D01*
X13637056Y-7350556D02*
X13637056Y-7279844D01*
X13566344Y-7279844D01*
X13566344Y-7350556D01*
X13637056Y-7350556D01*
X13878356Y-8823756D02*
X13878356Y-8753044D01*
X13807644Y-8753044D01*
X13807644Y-8823756D01*
X13878356Y-8823756D01*
X14233956Y-9090456D02*
X14233956Y-9019744D01*
X14163244Y-9019744D01*
X14163244Y-9090456D01*
X14233956Y-9090456D01*
X14233956Y-9915956D02*
X14233956Y-9845244D01*
X14163244Y-9845244D01*
X14163244Y-9915956D01*
X14233956Y-9915956D01*
X14233956Y-10322356D02*
X14233956Y-10251644D01*
X14163244Y-10251644D01*
X14163244Y-10322356D01*
X14233956Y-10322356D01*
X14233956Y-10982756D02*
X14233956Y-10912044D01*
X14163244Y-10912044D01*
X14163244Y-10982756D01*
X14233956Y-10982756D01*
X14233956Y-11795556D02*
X14233956Y-11724844D01*
X14163244Y-11724844D01*
X14163244Y-11795556D01*
X14233956Y-11795556D01*
X14233956Y-12201956D02*
X14233956Y-12131244D01*
X14163244Y-12131244D01*
X14163244Y-12201956D01*
X14233956Y-12201956D01*
X14259356Y-12887756D02*
X14259356Y-12817044D01*
X14188644Y-12817044D01*
X14188644Y-12887756D01*
X14259356Y-12887756D01*
X14259356Y-13675156D02*
X14259356Y-13604444D01*
X14188644Y-13604444D01*
X14188644Y-13675156D01*
X14259356Y-13675156D01*
X14259356Y-14081556D02*
X14259356Y-14010844D01*
X14188644Y-14010844D01*
X14188644Y-14081556D01*
X14259356Y-14081556D01*
D16*
X6858000Y-14890750D02*
X7016750Y-14732000D01*
X6858000Y-14573250D01*
X6699250Y-14732000D01*
X6858000Y-14890750D01*
X7239000Y-6318250D02*
X7397750Y-6159500D01*
X7239000Y-6000750D01*
X7080250Y-6159500D01*
X7239000Y-6318250D01*
X14605000Y-6318250D02*
X14763750Y-6159500D01*
X14605000Y-6000750D01*
X14446250Y-6159500D01*
X14605000Y-6318250D01*
X14859000Y-14890750D02*
X15017750Y-14732000D01*
X14859000Y-14573250D01*
X14700250Y-14732000D01*
X14859000Y-14890750D01*
D11*
X6604184Y-15557834D02*
X6604184Y-15357834D01*
X6604184Y-15357834D02*
X6651803Y-15357834D01*
X6651803Y-15357834D02*
X6680374Y-15367358D01*
X6680374Y-15367358D02*
X6699422Y-15386405D01*
X6699422Y-15386405D02*
X6708946Y-15405453D01*
X6708946Y-15405453D02*
X6718470Y-15443548D01*
X6718470Y-15443548D02*
X6718470Y-15472119D01*
X6718470Y-15472119D02*
X6708946Y-15510215D01*
X6708946Y-15510215D02*
X6699422Y-15529262D01*
X6699422Y-15529262D02*
X6680374Y-15548310D01*
X6680374Y-15548310D02*
X6651803Y-15557834D01*
X6651803Y-15557834D02*
X6604184Y-15557834D01*
X6804184Y-15557834D02*
X6804184Y-15424500D01*
X6804184Y-15462596D02*
X6813708Y-15443548D01*
X6813708Y-15443548D02*
X6823231Y-15434024D01*
X6823231Y-15434024D02*
X6842279Y-15424500D01*
X6842279Y-15424500D02*
X6861327Y-15424500D01*
X6927993Y-15557834D02*
X6927993Y-15424500D01*
X6927993Y-15357834D02*
X6918470Y-15367358D01*
X6918470Y-15367358D02*
X6927993Y-15376881D01*
X6927993Y-15376881D02*
X6937517Y-15367358D01*
X6937517Y-15367358D02*
X6927993Y-15357834D01*
X6927993Y-15357834D02*
X6927993Y-15376881D01*
X7051803Y-15557834D02*
X7032755Y-15548310D01*
X7032755Y-15548310D02*
X7023231Y-15529262D01*
X7023231Y-15529262D02*
X7023231Y-15357834D01*
X7156565Y-15557834D02*
X7137517Y-15548310D01*
X7137517Y-15548310D02*
X7127993Y-15529262D01*
X7127993Y-15529262D02*
X7127993Y-15357834D01*
X7385136Y-15557834D02*
X7385136Y-15357834D01*
X7385136Y-15357834D02*
X7451803Y-15500691D01*
X7451803Y-15500691D02*
X7518470Y-15357834D01*
X7518470Y-15357834D02*
X7518470Y-15557834D01*
X7699422Y-15557834D02*
X7699422Y-15453072D01*
X7699422Y-15453072D02*
X7689898Y-15434024D01*
X7689898Y-15434024D02*
X7670851Y-15424500D01*
X7670851Y-15424500D02*
X7632755Y-15424500D01*
X7632755Y-15424500D02*
X7613708Y-15434024D01*
X7699422Y-15548310D02*
X7680374Y-15557834D01*
X7680374Y-15557834D02*
X7632755Y-15557834D01*
X7632755Y-15557834D02*
X7613708Y-15548310D01*
X7613708Y-15548310D02*
X7604184Y-15529262D01*
X7604184Y-15529262D02*
X7604184Y-15510215D01*
X7604184Y-15510215D02*
X7613708Y-15491167D01*
X7613708Y-15491167D02*
X7632755Y-15481643D01*
X7632755Y-15481643D02*
X7680374Y-15481643D01*
X7680374Y-15481643D02*
X7699422Y-15472119D01*
X7794660Y-15424500D02*
X7794660Y-15624500D01*
X7794660Y-15434024D02*
X7813708Y-15424500D01*
X7813708Y-15424500D02*
X7851803Y-15424500D01*
X7851803Y-15424500D02*
X7870851Y-15434024D01*
X7870851Y-15434024D02*
X7880374Y-15443548D01*
X7880374Y-15443548D02*
X7889898Y-15462596D01*
X7889898Y-15462596D02*
X7889898Y-15519738D01*
X7889898Y-15519738D02*
X7880374Y-15538786D01*
X7880374Y-15538786D02*
X7870851Y-15548310D01*
X7870851Y-15548310D02*
X7851803Y-15557834D01*
X7851803Y-15557834D02*
X7813708Y-15557834D01*
X7813708Y-15557834D02*
X7794660Y-15548310D01*
X7975612Y-15538786D02*
X7985136Y-15548310D01*
X7985136Y-15548310D02*
X7975612Y-15557834D01*
X7975612Y-15557834D02*
X7966089Y-15548310D01*
X7966089Y-15548310D02*
X7975612Y-15538786D01*
X7975612Y-15538786D02*
X7975612Y-15557834D01*
X7975612Y-15434024D02*
X7985136Y-15443548D01*
X7985136Y-15443548D02*
X7975612Y-15453072D01*
X7975612Y-15453072D02*
X7966089Y-15443548D01*
X7966089Y-15443548D02*
X7975612Y-15434024D01*
X7975612Y-15434024D02*
X7975612Y-15453072D01*
D12*
X6323087Y-15876190D02*
X6343407Y-15896510D01*
X6343407Y-15876190D02*
X6323087Y-15896510D01*
D11*
X6642279Y-15777834D02*
X6661327Y-15777834D01*
X6661327Y-15777834D02*
X6680374Y-15787358D01*
X6680374Y-15787358D02*
X6689898Y-15796881D01*
X6689898Y-15796881D02*
X6699422Y-15815929D01*
X6699422Y-15815929D02*
X6708946Y-15854024D01*
X6708946Y-15854024D02*
X6708946Y-15901643D01*
X6708946Y-15901643D02*
X6699422Y-15939738D01*
X6699422Y-15939738D02*
X6689898Y-15958786D01*
X6689898Y-15958786D02*
X6680374Y-15968310D01*
X6680374Y-15968310D02*
X6661327Y-15977834D01*
X6661327Y-15977834D02*
X6642279Y-15977834D01*
X6642279Y-15977834D02*
X6623231Y-15968310D01*
X6623231Y-15968310D02*
X6613708Y-15958786D01*
X6613708Y-15958786D02*
X6604184Y-15939738D01*
X6604184Y-15939738D02*
X6594660Y-15901643D01*
X6594660Y-15901643D02*
X6594660Y-15854024D01*
X6594660Y-15854024D02*
X6604184Y-15815929D01*
X6604184Y-15815929D02*
X6613708Y-15796881D01*
X6613708Y-15796881D02*
X6623231Y-15787358D01*
X6623231Y-15787358D02*
X6642279Y-15777834D01*
X6794660Y-15958786D02*
X6804184Y-15968310D01*
X6804184Y-15968310D02*
X6794660Y-15977834D01*
X6794660Y-15977834D02*
X6785136Y-15968310D01*
X6785136Y-15968310D02*
X6794660Y-15958786D01*
X6794660Y-15958786D02*
X6794660Y-15977834D01*
X6880374Y-15796881D02*
X6889898Y-15787358D01*
X6889898Y-15787358D02*
X6908946Y-15777834D01*
X6908946Y-15777834D02*
X6956565Y-15777834D01*
X6956565Y-15777834D02*
X6975612Y-15787358D01*
X6975612Y-15787358D02*
X6985136Y-15796881D01*
X6985136Y-15796881D02*
X6994660Y-15815929D01*
X6994660Y-15815929D02*
X6994660Y-15834977D01*
X6994660Y-15834977D02*
X6985136Y-15863548D01*
X6985136Y-15863548D02*
X6870851Y-15977834D01*
X6870851Y-15977834D02*
X6994660Y-15977834D01*
X7118470Y-15777834D02*
X7137517Y-15777834D01*
X7137517Y-15777834D02*
X7156565Y-15787358D01*
X7156565Y-15787358D02*
X7166089Y-15796881D01*
X7166089Y-15796881D02*
X7175612Y-15815929D01*
X7175612Y-15815929D02*
X7185136Y-15854024D01*
X7185136Y-15854024D02*
X7185136Y-15901643D01*
X7185136Y-15901643D02*
X7175612Y-15939738D01*
X7175612Y-15939738D02*
X7166089Y-15958786D01*
X7166089Y-15958786D02*
X7156565Y-15968310D01*
X7156565Y-15968310D02*
X7137517Y-15977834D01*
X7137517Y-15977834D02*
X7118470Y-15977834D01*
X7118470Y-15977834D02*
X7099422Y-15968310D01*
X7099422Y-15968310D02*
X7089898Y-15958786D01*
X7089898Y-15958786D02*
X7080374Y-15939738D01*
X7080374Y-15939738D02*
X7070851Y-15901643D01*
X7070851Y-15901643D02*
X7070851Y-15854024D01*
X7070851Y-15854024D02*
X7080374Y-15815929D01*
X7080374Y-15815929D02*
X7089898Y-15796881D01*
X7089898Y-15796881D02*
X7099422Y-15787358D01*
X7099422Y-15787358D02*
X7118470Y-15777834D01*
X7251803Y-15777834D02*
X7375612Y-15777834D01*
X7375612Y-15777834D02*
X7308946Y-15854024D01*
X7308946Y-15854024D02*
X7337517Y-15854024D01*
X7337517Y-15854024D02*
X7356565Y-15863548D01*
X7356565Y-15863548D02*
X7366089Y-15873072D01*
X7366089Y-15873072D02*
X7375612Y-15892119D01*
X7375612Y-15892119D02*
X7375612Y-15939738D01*
X7375612Y-15939738D02*
X7366089Y-15958786D01*
X7366089Y-15958786D02*
X7356565Y-15968310D01*
X7356565Y-15968310D02*
X7337517Y-15977834D01*
X7337517Y-15977834D02*
X7280374Y-15977834D01*
X7280374Y-15977834D02*
X7261327Y-15968310D01*
X7261327Y-15968310D02*
X7251803Y-15958786D01*
X7461327Y-15977834D02*
X7461327Y-15844500D01*
X7461327Y-15863548D02*
X7470851Y-15854024D01*
X7470851Y-15854024D02*
X7489898Y-15844500D01*
X7489898Y-15844500D02*
X7518470Y-15844500D01*
X7518470Y-15844500D02*
X7537517Y-15854024D01*
X7537517Y-15854024D02*
X7547041Y-15873072D01*
X7547041Y-15873072D02*
X7547041Y-15977834D01*
X7547041Y-15873072D02*
X7556565Y-15854024D01*
X7556565Y-15854024D02*
X7575612Y-15844500D01*
X7575612Y-15844500D02*
X7604184Y-15844500D01*
X7604184Y-15844500D02*
X7623232Y-15854024D01*
X7623232Y-15854024D02*
X7632755Y-15873072D01*
X7632755Y-15873072D02*
X7632755Y-15977834D01*
X7727993Y-15977834D02*
X7727993Y-15844500D01*
X7727993Y-15863548D02*
X7737517Y-15854024D01*
X7737517Y-15854024D02*
X7756565Y-15844500D01*
X7756565Y-15844500D02*
X7785136Y-15844500D01*
X7785136Y-15844500D02*
X7804184Y-15854024D01*
X7804184Y-15854024D02*
X7813708Y-15873072D01*
X7813708Y-15873072D02*
X7813708Y-15977834D01*
X7813708Y-15873072D02*
X7823232Y-15854024D01*
X7823232Y-15854024D02*
X7842279Y-15844500D01*
X7842279Y-15844500D02*
X7870851Y-15844500D01*
X7870851Y-15844500D02*
X7889898Y-15854024D01*
X7889898Y-15854024D02*
X7899422Y-15873072D01*
X7899422Y-15873072D02*
X7899422Y-15977834D01*
X8289898Y-15768310D02*
X8118470Y-16025453D01*
X8547041Y-15777834D02*
X8566089Y-15777834D01*
X8566089Y-15777834D02*
X8585137Y-15787358D01*
X8585137Y-15787358D02*
X8594660Y-15796881D01*
X8594660Y-15796881D02*
X8604184Y-15815929D01*
X8604184Y-15815929D02*
X8613708Y-15854024D01*
X8613708Y-15854024D02*
X8613708Y-15901643D01*
X8613708Y-15901643D02*
X8604184Y-15939738D01*
X8604184Y-15939738D02*
X8594660Y-15958786D01*
X8594660Y-15958786D02*
X8585137Y-15968310D01*
X8585137Y-15968310D02*
X8566089Y-15977834D01*
X8566089Y-15977834D02*
X8547041Y-15977834D01*
X8547041Y-15977834D02*
X8527994Y-15968310D01*
X8527994Y-15968310D02*
X8518470Y-15958786D01*
X8518470Y-15958786D02*
X8508946Y-15939738D01*
X8508946Y-15939738D02*
X8499422Y-15901643D01*
X8499422Y-15901643D02*
X8499422Y-15854024D01*
X8499422Y-15854024D02*
X8508946Y-15815929D01*
X8508946Y-15815929D02*
X8518470Y-15796881D01*
X8518470Y-15796881D02*
X8527994Y-15787358D01*
X8527994Y-15787358D02*
X8547041Y-15777834D01*
X8699422Y-15958786D02*
X8708946Y-15968310D01*
X8708946Y-15968310D02*
X8699422Y-15977834D01*
X8699422Y-15977834D02*
X8689898Y-15968310D01*
X8689898Y-15968310D02*
X8699422Y-15958786D01*
X8699422Y-15958786D02*
X8699422Y-15977834D01*
X8832756Y-15777834D02*
X8851803Y-15777834D01*
X8851803Y-15777834D02*
X8870851Y-15787358D01*
X8870851Y-15787358D02*
X8880375Y-15796881D01*
X8880375Y-15796881D02*
X8889898Y-15815929D01*
X8889898Y-15815929D02*
X8899422Y-15854024D01*
X8899422Y-15854024D02*
X8899422Y-15901643D01*
X8899422Y-15901643D02*
X8889898Y-15939738D01*
X8889898Y-15939738D02*
X8880375Y-15958786D01*
X8880375Y-15958786D02*
X8870851Y-15968310D01*
X8870851Y-15968310D02*
X8851803Y-15977834D01*
X8851803Y-15977834D02*
X8832756Y-15977834D01*
X8832756Y-15977834D02*
X8813708Y-15968310D01*
X8813708Y-15968310D02*
X8804184Y-15958786D01*
X8804184Y-15958786D02*
X8794660Y-15939738D01*
X8794660Y-15939738D02*
X8785137Y-15901643D01*
X8785137Y-15901643D02*
X8785137Y-15854024D01*
X8785137Y-15854024D02*
X8794660Y-15815929D01*
X8794660Y-15815929D02*
X8804184Y-15796881D01*
X8804184Y-15796881D02*
X8813708Y-15787358D01*
X8813708Y-15787358D02*
X8832756Y-15777834D01*
X9023232Y-15777834D02*
X9042279Y-15777834D01*
X9042279Y-15777834D02*
X9061327Y-15787358D01*
X9061327Y-15787358D02*
X9070851Y-15796881D01*
X9070851Y-15796881D02*
X9080375Y-15815929D01*
X9080375Y-15815929D02*
X9089898Y-15854024D01*
X9089898Y-15854024D02*
X9089898Y-15901643D01*
X9089898Y-15901643D02*
X9080375Y-15939738D01*
X9080375Y-15939738D02*
X9070851Y-15958786D01*
X9070851Y-15958786D02*
X9061327Y-15968310D01*
X9061327Y-15968310D02*
X9042279Y-15977834D01*
X9042279Y-15977834D02*
X9023232Y-15977834D01*
X9023232Y-15977834D02*
X9004184Y-15968310D01*
X9004184Y-15968310D02*
X8994660Y-15958786D01*
X8994660Y-15958786D02*
X8985137Y-15939738D01*
X8985137Y-15939738D02*
X8975613Y-15901643D01*
X8975613Y-15901643D02*
X8975613Y-15854024D01*
X8975613Y-15854024D02*
X8985137Y-15815929D01*
X8985137Y-15815929D02*
X8994660Y-15796881D01*
X8994660Y-15796881D02*
X9004184Y-15787358D01*
X9004184Y-15787358D02*
X9023232Y-15777834D01*
X9204184Y-15863548D02*
X9185137Y-15854024D01*
X9185137Y-15854024D02*
X9175613Y-15844500D01*
X9175613Y-15844500D02*
X9166089Y-15825453D01*
X9166089Y-15825453D02*
X9166089Y-15815929D01*
X9166089Y-15815929D02*
X9175613Y-15796881D01*
X9175613Y-15796881D02*
X9185137Y-15787358D01*
X9185137Y-15787358D02*
X9204184Y-15777834D01*
X9204184Y-15777834D02*
X9242279Y-15777834D01*
X9242279Y-15777834D02*
X9261327Y-15787358D01*
X9261327Y-15787358D02*
X9270851Y-15796881D01*
X9270851Y-15796881D02*
X9280375Y-15815929D01*
X9280375Y-15815929D02*
X9280375Y-15825453D01*
X9280375Y-15825453D02*
X9270851Y-15844500D01*
X9270851Y-15844500D02*
X9261327Y-15854024D01*
X9261327Y-15854024D02*
X9242279Y-15863548D01*
X9242279Y-15863548D02*
X9204184Y-15863548D01*
X9204184Y-15863548D02*
X9185137Y-15873072D01*
X9185137Y-15873072D02*
X9175613Y-15882596D01*
X9175613Y-15882596D02*
X9166089Y-15901643D01*
X9166089Y-15901643D02*
X9166089Y-15939738D01*
X9166089Y-15939738D02*
X9175613Y-15958786D01*
X9175613Y-15958786D02*
X9185137Y-15968310D01*
X9185137Y-15968310D02*
X9204184Y-15977834D01*
X9204184Y-15977834D02*
X9242279Y-15977834D01*
X9242279Y-15977834D02*
X9261327Y-15968310D01*
X9261327Y-15968310D02*
X9270851Y-15958786D01*
X9270851Y-15958786D02*
X9280375Y-15939738D01*
X9280375Y-15939738D02*
X9280375Y-15901643D01*
X9280375Y-15901643D02*
X9270851Y-15882596D01*
X9270851Y-15882596D02*
X9261327Y-15873072D01*
X9261327Y-15873072D02*
X9242279Y-15863548D01*
X9404184Y-15777834D02*
X9423232Y-15777834D01*
X9423232Y-15777834D02*
X9442279Y-15787358D01*
X9442279Y-15787358D02*
X9451803Y-15796881D01*
X9451803Y-15796881D02*
X9461327Y-15815929D01*
X9461327Y-15815929D02*
X9470851Y-15854024D01*
X9470851Y-15854024D02*
X9470851Y-15901643D01*
X9470851Y-15901643D02*
X9461327Y-15939738D01*
X9461327Y-15939738D02*
X9451803Y-15958786D01*
X9451803Y-15958786D02*
X9442279Y-15968310D01*
X9442279Y-15968310D02*
X9423232Y-15977834D01*
X9423232Y-15977834D02*
X9404184Y-15977834D01*
X9404184Y-15977834D02*
X9385137Y-15968310D01*
X9385137Y-15968310D02*
X9375613Y-15958786D01*
X9375613Y-15958786D02*
X9366089Y-15939738D01*
X9366089Y-15939738D02*
X9356565Y-15901643D01*
X9356565Y-15901643D02*
X9356565Y-15854024D01*
X9356565Y-15854024D02*
X9366089Y-15815929D01*
X9366089Y-15815929D02*
X9375613Y-15796881D01*
X9375613Y-15796881D02*
X9385137Y-15787358D01*
X9385137Y-15787358D02*
X9404184Y-15777834D01*
X9547041Y-15777834D02*
X9547041Y-15815929D01*
X9623232Y-15777834D02*
X9623232Y-15815929D01*
X9918470Y-16054024D02*
X9908946Y-16044500D01*
X9908946Y-16044500D02*
X9889899Y-16015929D01*
X9889899Y-16015929D02*
X9880375Y-15996881D01*
X9880375Y-15996881D02*
X9870851Y-15968310D01*
X9870851Y-15968310D02*
X9861327Y-15920691D01*
X9861327Y-15920691D02*
X9861327Y-15882596D01*
X9861327Y-15882596D02*
X9870851Y-15834977D01*
X9870851Y-15834977D02*
X9880375Y-15806405D01*
X9880375Y-15806405D02*
X9889899Y-15787358D01*
X9889899Y-15787358D02*
X9908946Y-15758786D01*
X9908946Y-15758786D02*
X9918470Y-15749262D01*
X9975613Y-15777834D02*
X10099422Y-15777834D01*
X10099422Y-15777834D02*
X10032756Y-15854024D01*
X10032756Y-15854024D02*
X10061327Y-15854024D01*
X10061327Y-15854024D02*
X10080375Y-15863548D01*
X10080375Y-15863548D02*
X10089899Y-15873072D01*
X10089899Y-15873072D02*
X10099422Y-15892119D01*
X10099422Y-15892119D02*
X10099422Y-15939738D01*
X10099422Y-15939738D02*
X10089899Y-15958786D01*
X10089899Y-15958786D02*
X10080375Y-15968310D01*
X10080375Y-15968310D02*
X10061327Y-15977834D01*
X10061327Y-15977834D02*
X10004184Y-15977834D01*
X10004184Y-15977834D02*
X9985137Y-15968310D01*
X9985137Y-15968310D02*
X9975613Y-15958786D01*
X10194660Y-15977834D02*
X10232756Y-15977834D01*
X10232756Y-15977834D02*
X10251803Y-15968310D01*
X10251803Y-15968310D02*
X10261327Y-15958786D01*
X10261327Y-15958786D02*
X10280375Y-15930215D01*
X10280375Y-15930215D02*
X10289899Y-15892119D01*
X10289899Y-15892119D02*
X10289899Y-15815929D01*
X10289899Y-15815929D02*
X10280375Y-15796881D01*
X10280375Y-15796881D02*
X10270851Y-15787358D01*
X10270851Y-15787358D02*
X10251803Y-15777834D01*
X10251803Y-15777834D02*
X10213708Y-15777834D01*
X10213708Y-15777834D02*
X10194660Y-15787358D01*
X10194660Y-15787358D02*
X10185137Y-15796881D01*
X10185137Y-15796881D02*
X10175613Y-15815929D01*
X10175613Y-15815929D02*
X10175613Y-15863548D01*
X10175613Y-15863548D02*
X10185137Y-15882596D01*
X10185137Y-15882596D02*
X10194660Y-15892119D01*
X10194660Y-15892119D02*
X10213708Y-15901643D01*
X10213708Y-15901643D02*
X10251803Y-15901643D01*
X10251803Y-15901643D02*
X10270851Y-15892119D01*
X10270851Y-15892119D02*
X10280375Y-15882596D01*
X10280375Y-15882596D02*
X10289899Y-15863548D01*
X10356565Y-15777834D02*
X10480375Y-15777834D01*
X10480375Y-15777834D02*
X10413708Y-15854024D01*
X10413708Y-15854024D02*
X10442280Y-15854024D01*
X10442280Y-15854024D02*
X10461327Y-15863548D01*
X10461327Y-15863548D02*
X10470851Y-15873072D01*
X10470851Y-15873072D02*
X10480375Y-15892119D01*
X10480375Y-15892119D02*
X10480375Y-15939738D01*
X10480375Y-15939738D02*
X10470851Y-15958786D01*
X10470851Y-15958786D02*
X10461327Y-15968310D01*
X10461327Y-15968310D02*
X10442280Y-15977834D01*
X10442280Y-15977834D02*
X10385137Y-15977834D01*
X10385137Y-15977834D02*
X10366089Y-15968310D01*
X10366089Y-15968310D02*
X10356565Y-15958786D01*
X10718470Y-15977834D02*
X10718470Y-15777834D01*
X10804184Y-15977834D02*
X10804184Y-15873072D01*
X10804184Y-15873072D02*
X10794661Y-15854024D01*
X10794661Y-15854024D02*
X10775613Y-15844500D01*
X10775613Y-15844500D02*
X10747041Y-15844500D01*
X10747041Y-15844500D02*
X10727994Y-15854024D01*
X10727994Y-15854024D02*
X10718470Y-15863548D01*
X10927994Y-15977834D02*
X10908946Y-15968310D01*
X10908946Y-15968310D02*
X10899422Y-15958786D01*
X10899422Y-15958786D02*
X10889899Y-15939738D01*
X10889899Y-15939738D02*
X10889899Y-15882596D01*
X10889899Y-15882596D02*
X10899422Y-15863548D01*
X10899422Y-15863548D02*
X10908946Y-15854024D01*
X10908946Y-15854024D02*
X10927994Y-15844500D01*
X10927994Y-15844500D02*
X10956565Y-15844500D01*
X10956565Y-15844500D02*
X10975613Y-15854024D01*
X10975613Y-15854024D02*
X10985137Y-15863548D01*
X10985137Y-15863548D02*
X10994661Y-15882596D01*
X10994661Y-15882596D02*
X10994661Y-15939738D01*
X10994661Y-15939738D02*
X10985137Y-15958786D01*
X10985137Y-15958786D02*
X10975613Y-15968310D01*
X10975613Y-15968310D02*
X10956565Y-15977834D01*
X10956565Y-15977834D02*
X10927994Y-15977834D01*
X11108946Y-15977834D02*
X11089899Y-15968310D01*
X11089899Y-15968310D02*
X11080375Y-15949262D01*
X11080375Y-15949262D02*
X11080375Y-15777834D01*
X11261327Y-15968310D02*
X11242280Y-15977834D01*
X11242280Y-15977834D02*
X11204184Y-15977834D01*
X11204184Y-15977834D02*
X11185137Y-15968310D01*
X11185137Y-15968310D02*
X11175613Y-15949262D01*
X11175613Y-15949262D02*
X11175613Y-15873072D01*
X11175613Y-15873072D02*
X11185137Y-15854024D01*
X11185137Y-15854024D02*
X11204184Y-15844500D01*
X11204184Y-15844500D02*
X11242280Y-15844500D01*
X11242280Y-15844500D02*
X11261327Y-15854024D01*
X11261327Y-15854024D02*
X11270851Y-15873072D01*
X11270851Y-15873072D02*
X11270851Y-15892119D01*
X11270851Y-15892119D02*
X11175613Y-15911167D01*
X11347041Y-15968310D02*
X11366089Y-15977834D01*
X11366089Y-15977834D02*
X11404184Y-15977834D01*
X11404184Y-15977834D02*
X11423232Y-15968310D01*
X11423232Y-15968310D02*
X11432756Y-15949262D01*
X11432756Y-15949262D02*
X11432756Y-15939738D01*
X11432756Y-15939738D02*
X11423232Y-15920691D01*
X11423232Y-15920691D02*
X11404184Y-15911167D01*
X11404184Y-15911167D02*
X11375613Y-15911167D01*
X11375613Y-15911167D02*
X11356565Y-15901643D01*
X11356565Y-15901643D02*
X11347041Y-15882596D01*
X11347041Y-15882596D02*
X11347041Y-15873072D01*
X11347041Y-15873072D02*
X11356565Y-15854024D01*
X11356565Y-15854024D02*
X11375613Y-15844500D01*
X11375613Y-15844500D02*
X11404184Y-15844500D01*
X11404184Y-15844500D02*
X11423232Y-15854024D01*
X11499422Y-16054024D02*
X11508946Y-16044500D01*
X11508946Y-16044500D02*
X11527994Y-16015929D01*
X11527994Y-16015929D02*
X11537518Y-15996881D01*
X11537518Y-15996881D02*
X11547041Y-15968310D01*
X11547041Y-15968310D02*
X11556565Y-15920691D01*
X11556565Y-15920691D02*
X11556565Y-15882596D01*
X11556565Y-15882596D02*
X11547041Y-15834977D01*
X11547041Y-15834977D02*
X11537518Y-15806405D01*
X11537518Y-15806405D02*
X11527994Y-15787358D01*
X11527994Y-15787358D02*
X11508946Y-15758786D01*
X11508946Y-15758786D02*
X11499422Y-15749262D01*
D13*
X6343407Y-16150350D02*
G75*
G03*
X6343407Y-16150350I-15240J0D01*
G01*
D11*
X6642279Y-16041834D02*
X6661327Y-16041834D01*
X6661327Y-16041834D02*
X6680374Y-16051358D01*
X6680374Y-16051358D02*
X6689898Y-16060881D01*
X6689898Y-16060881D02*
X6699422Y-16079929D01*
X6699422Y-16079929D02*
X6708946Y-16118024D01*
X6708946Y-16118024D02*
X6708946Y-16165643D01*
X6708946Y-16165643D02*
X6699422Y-16203738D01*
X6699422Y-16203738D02*
X6689898Y-16222786D01*
X6689898Y-16222786D02*
X6680374Y-16232310D01*
X6680374Y-16232310D02*
X6661327Y-16241834D01*
X6661327Y-16241834D02*
X6642279Y-16241834D01*
X6642279Y-16241834D02*
X6623231Y-16232310D01*
X6623231Y-16232310D02*
X6613708Y-16222786D01*
X6613708Y-16222786D02*
X6604184Y-16203738D01*
X6604184Y-16203738D02*
X6594660Y-16165643D01*
X6594660Y-16165643D02*
X6594660Y-16118024D01*
X6594660Y-16118024D02*
X6604184Y-16079929D01*
X6604184Y-16079929D02*
X6613708Y-16060881D01*
X6613708Y-16060881D02*
X6623231Y-16051358D01*
X6623231Y-16051358D02*
X6642279Y-16041834D01*
X6794660Y-16222786D02*
X6804184Y-16232310D01*
X6804184Y-16232310D02*
X6794660Y-16241834D01*
X6794660Y-16241834D02*
X6785136Y-16232310D01*
X6785136Y-16232310D02*
X6794660Y-16222786D01*
X6794660Y-16222786D02*
X6794660Y-16241834D01*
X6870851Y-16041834D02*
X6994660Y-16041834D01*
X6994660Y-16041834D02*
X6927993Y-16118024D01*
X6927993Y-16118024D02*
X6956565Y-16118024D01*
X6956565Y-16118024D02*
X6975612Y-16127548D01*
X6975612Y-16127548D02*
X6985136Y-16137072D01*
X6985136Y-16137072D02*
X6994660Y-16156119D01*
X6994660Y-16156119D02*
X6994660Y-16203738D01*
X6994660Y-16203738D02*
X6985136Y-16222786D01*
X6985136Y-16222786D02*
X6975612Y-16232310D01*
X6975612Y-16232310D02*
X6956565Y-16241834D01*
X6956565Y-16241834D02*
X6899422Y-16241834D01*
X6899422Y-16241834D02*
X6880374Y-16232310D01*
X6880374Y-16232310D02*
X6870851Y-16222786D01*
X7118470Y-16041834D02*
X7137517Y-16041834D01*
X7137517Y-16041834D02*
X7156565Y-16051358D01*
X7156565Y-16051358D02*
X7166089Y-16060881D01*
X7166089Y-16060881D02*
X7175612Y-16079929D01*
X7175612Y-16079929D02*
X7185136Y-16118024D01*
X7185136Y-16118024D02*
X7185136Y-16165643D01*
X7185136Y-16165643D02*
X7175612Y-16203738D01*
X7175612Y-16203738D02*
X7166089Y-16222786D01*
X7166089Y-16222786D02*
X7156565Y-16232310D01*
X7156565Y-16232310D02*
X7137517Y-16241834D01*
X7137517Y-16241834D02*
X7118470Y-16241834D01*
X7118470Y-16241834D02*
X7099422Y-16232310D01*
X7099422Y-16232310D02*
X7089898Y-16222786D01*
X7089898Y-16222786D02*
X7080374Y-16203738D01*
X7080374Y-16203738D02*
X7070851Y-16165643D01*
X7070851Y-16165643D02*
X7070851Y-16118024D01*
X7070851Y-16118024D02*
X7080374Y-16079929D01*
X7080374Y-16079929D02*
X7089898Y-16060881D01*
X7089898Y-16060881D02*
X7099422Y-16051358D01*
X7099422Y-16051358D02*
X7118470Y-16041834D01*
X7366089Y-16041834D02*
X7270851Y-16041834D01*
X7270851Y-16041834D02*
X7261327Y-16137072D01*
X7261327Y-16137072D02*
X7270851Y-16127548D01*
X7270851Y-16127548D02*
X7289898Y-16118024D01*
X7289898Y-16118024D02*
X7337517Y-16118024D01*
X7337517Y-16118024D02*
X7356565Y-16127548D01*
X7356565Y-16127548D02*
X7366089Y-16137072D01*
X7366089Y-16137072D02*
X7375612Y-16156119D01*
X7375612Y-16156119D02*
X7375612Y-16203738D01*
X7375612Y-16203738D02*
X7366089Y-16222786D01*
X7366089Y-16222786D02*
X7356565Y-16232310D01*
X7356565Y-16232310D02*
X7337517Y-16241834D01*
X7337517Y-16241834D02*
X7289898Y-16241834D01*
X7289898Y-16241834D02*
X7270851Y-16232310D01*
X7270851Y-16232310D02*
X7261327Y-16222786D01*
X7461327Y-16241834D02*
X7461327Y-16108500D01*
X7461327Y-16127548D02*
X7470851Y-16118024D01*
X7470851Y-16118024D02*
X7489898Y-16108500D01*
X7489898Y-16108500D02*
X7518470Y-16108500D01*
X7518470Y-16108500D02*
X7537517Y-16118024D01*
X7537517Y-16118024D02*
X7547041Y-16137072D01*
X7547041Y-16137072D02*
X7547041Y-16241834D01*
X7547041Y-16137072D02*
X7556565Y-16118024D01*
X7556565Y-16118024D02*
X7575612Y-16108500D01*
X7575612Y-16108500D02*
X7604184Y-16108500D01*
X7604184Y-16108500D02*
X7623232Y-16118024D01*
X7623232Y-16118024D02*
X7632755Y-16137072D01*
X7632755Y-16137072D02*
X7632755Y-16241834D01*
X7727993Y-16241834D02*
X7727993Y-16108500D01*
X7727993Y-16127548D02*
X7737517Y-16118024D01*
X7737517Y-16118024D02*
X7756565Y-16108500D01*
X7756565Y-16108500D02*
X7785136Y-16108500D01*
X7785136Y-16108500D02*
X7804184Y-16118024D01*
X7804184Y-16118024D02*
X7813708Y-16137072D01*
X7813708Y-16137072D02*
X7813708Y-16241834D01*
X7813708Y-16137072D02*
X7823232Y-16118024D01*
X7823232Y-16118024D02*
X7842279Y-16108500D01*
X7842279Y-16108500D02*
X7870851Y-16108500D01*
X7870851Y-16108500D02*
X7889898Y-16118024D01*
X7889898Y-16118024D02*
X7899422Y-16137072D01*
X7899422Y-16137072D02*
X7899422Y-16241834D01*
X8289898Y-16032310D02*
X8118470Y-16289453D01*
X8547041Y-16041834D02*
X8566089Y-16041834D01*
X8566089Y-16041834D02*
X8585137Y-16051358D01*
X8585137Y-16051358D02*
X8594660Y-16060881D01*
X8594660Y-16060881D02*
X8604184Y-16079929D01*
X8604184Y-16079929D02*
X8613708Y-16118024D01*
X8613708Y-16118024D02*
X8613708Y-16165643D01*
X8613708Y-16165643D02*
X8604184Y-16203738D01*
X8604184Y-16203738D02*
X8594660Y-16222786D01*
X8594660Y-16222786D02*
X8585137Y-16232310D01*
X8585137Y-16232310D02*
X8566089Y-16241834D01*
X8566089Y-16241834D02*
X8547041Y-16241834D01*
X8547041Y-16241834D02*
X8527994Y-16232310D01*
X8527994Y-16232310D02*
X8518470Y-16222786D01*
X8518470Y-16222786D02*
X8508946Y-16203738D01*
X8508946Y-16203738D02*
X8499422Y-16165643D01*
X8499422Y-16165643D02*
X8499422Y-16118024D01*
X8499422Y-16118024D02*
X8508946Y-16079929D01*
X8508946Y-16079929D02*
X8518470Y-16060881D01*
X8518470Y-16060881D02*
X8527994Y-16051358D01*
X8527994Y-16051358D02*
X8547041Y-16041834D01*
X8699422Y-16222786D02*
X8708946Y-16232310D01*
X8708946Y-16232310D02*
X8699422Y-16241834D01*
X8699422Y-16241834D02*
X8689898Y-16232310D01*
X8689898Y-16232310D02*
X8699422Y-16222786D01*
X8699422Y-16222786D02*
X8699422Y-16241834D01*
X8832756Y-16041834D02*
X8851803Y-16041834D01*
X8851803Y-16041834D02*
X8870851Y-16051358D01*
X8870851Y-16051358D02*
X8880375Y-16060881D01*
X8880375Y-16060881D02*
X8889898Y-16079929D01*
X8889898Y-16079929D02*
X8899422Y-16118024D01*
X8899422Y-16118024D02*
X8899422Y-16165643D01*
X8899422Y-16165643D02*
X8889898Y-16203738D01*
X8889898Y-16203738D02*
X8880375Y-16222786D01*
X8880375Y-16222786D02*
X8870851Y-16232310D01*
X8870851Y-16232310D02*
X8851803Y-16241834D01*
X8851803Y-16241834D02*
X8832756Y-16241834D01*
X8832756Y-16241834D02*
X8813708Y-16232310D01*
X8813708Y-16232310D02*
X8804184Y-16222786D01*
X8804184Y-16222786D02*
X8794660Y-16203738D01*
X8794660Y-16203738D02*
X8785137Y-16165643D01*
X8785137Y-16165643D02*
X8785137Y-16118024D01*
X8785137Y-16118024D02*
X8794660Y-16079929D01*
X8794660Y-16079929D02*
X8804184Y-16060881D01*
X8804184Y-16060881D02*
X8813708Y-16051358D01*
X8813708Y-16051358D02*
X8832756Y-16041834D01*
X9089898Y-16241834D02*
X8975613Y-16241834D01*
X9032756Y-16241834D02*
X9032756Y-16041834D01*
X9032756Y-16041834D02*
X9013708Y-16070405D01*
X9013708Y-16070405D02*
X8994660Y-16089453D01*
X8994660Y-16089453D02*
X8975613Y-16098977D01*
X9166089Y-16060881D02*
X9175613Y-16051358D01*
X9175613Y-16051358D02*
X9194660Y-16041834D01*
X9194660Y-16041834D02*
X9242279Y-16041834D01*
X9242279Y-16041834D02*
X9261327Y-16051358D01*
X9261327Y-16051358D02*
X9270851Y-16060881D01*
X9270851Y-16060881D02*
X9280375Y-16079929D01*
X9280375Y-16079929D02*
X9280375Y-16098977D01*
X9280375Y-16098977D02*
X9270851Y-16127548D01*
X9270851Y-16127548D02*
X9156565Y-16241834D01*
X9156565Y-16241834D02*
X9280375Y-16241834D01*
X9404184Y-16041834D02*
X9423232Y-16041834D01*
X9423232Y-16041834D02*
X9442279Y-16051358D01*
X9442279Y-16051358D02*
X9451803Y-16060881D01*
X9451803Y-16060881D02*
X9461327Y-16079929D01*
X9461327Y-16079929D02*
X9470851Y-16118024D01*
X9470851Y-16118024D02*
X9470851Y-16165643D01*
X9470851Y-16165643D02*
X9461327Y-16203738D01*
X9461327Y-16203738D02*
X9451803Y-16222786D01*
X9451803Y-16222786D02*
X9442279Y-16232310D01*
X9442279Y-16232310D02*
X9423232Y-16241834D01*
X9423232Y-16241834D02*
X9404184Y-16241834D01*
X9404184Y-16241834D02*
X9385137Y-16232310D01*
X9385137Y-16232310D02*
X9375613Y-16222786D01*
X9375613Y-16222786D02*
X9366089Y-16203738D01*
X9366089Y-16203738D02*
X9356565Y-16165643D01*
X9356565Y-16165643D02*
X9356565Y-16118024D01*
X9356565Y-16118024D02*
X9366089Y-16079929D01*
X9366089Y-16079929D02*
X9375613Y-16060881D01*
X9375613Y-16060881D02*
X9385137Y-16051358D01*
X9385137Y-16051358D02*
X9404184Y-16041834D01*
X9547041Y-16041834D02*
X9547041Y-16079929D01*
X9623232Y-16041834D02*
X9623232Y-16079929D01*
X9918470Y-16318024D02*
X9908946Y-16308500D01*
X9908946Y-16308500D02*
X9889899Y-16279929D01*
X9889899Y-16279929D02*
X9880375Y-16260881D01*
X9880375Y-16260881D02*
X9870851Y-16232310D01*
X9870851Y-16232310D02*
X9861327Y-16184691D01*
X9861327Y-16184691D02*
X9861327Y-16146596D01*
X9861327Y-16146596D02*
X9870851Y-16098977D01*
X9870851Y-16098977D02*
X9880375Y-16070405D01*
X9880375Y-16070405D02*
X9889899Y-16051358D01*
X9889899Y-16051358D02*
X9908946Y-16022786D01*
X9908946Y-16022786D02*
X9918470Y-16013262D01*
X10023232Y-16127548D02*
X10004184Y-16118024D01*
X10004184Y-16118024D02*
X9994660Y-16108500D01*
X9994660Y-16108500D02*
X9985137Y-16089453D01*
X9985137Y-16089453D02*
X9985137Y-16079929D01*
X9985137Y-16079929D02*
X9994660Y-16060881D01*
X9994660Y-16060881D02*
X10004184Y-16051358D01*
X10004184Y-16051358D02*
X10023232Y-16041834D01*
X10023232Y-16041834D02*
X10061327Y-16041834D01*
X10061327Y-16041834D02*
X10080375Y-16051358D01*
X10080375Y-16051358D02*
X10089899Y-16060881D01*
X10089899Y-16060881D02*
X10099422Y-16079929D01*
X10099422Y-16079929D02*
X10099422Y-16089453D01*
X10099422Y-16089453D02*
X10089899Y-16108500D01*
X10089899Y-16108500D02*
X10080375Y-16118024D01*
X10080375Y-16118024D02*
X10061327Y-16127548D01*
X10061327Y-16127548D02*
X10023232Y-16127548D01*
X10023232Y-16127548D02*
X10004184Y-16137072D01*
X10004184Y-16137072D02*
X9994660Y-16146596D01*
X9994660Y-16146596D02*
X9985137Y-16165643D01*
X9985137Y-16165643D02*
X9985137Y-16203738D01*
X9985137Y-16203738D02*
X9994660Y-16222786D01*
X9994660Y-16222786D02*
X10004184Y-16232310D01*
X10004184Y-16232310D02*
X10023232Y-16241834D01*
X10023232Y-16241834D02*
X10061327Y-16241834D01*
X10061327Y-16241834D02*
X10080375Y-16232310D01*
X10080375Y-16232310D02*
X10089899Y-16222786D01*
X10089899Y-16222786D02*
X10099422Y-16203738D01*
X10099422Y-16203738D02*
X10099422Y-16165643D01*
X10099422Y-16165643D02*
X10089899Y-16146596D01*
X10089899Y-16146596D02*
X10080375Y-16137072D01*
X10080375Y-16137072D02*
X10061327Y-16127548D01*
X10166089Y-16041834D02*
X10299422Y-16041834D01*
X10299422Y-16041834D02*
X10213708Y-16241834D01*
X10527994Y-16241834D02*
X10527994Y-16041834D01*
X10613708Y-16241834D02*
X10613708Y-16137072D01*
X10613708Y-16137072D02*
X10604184Y-16118024D01*
X10604184Y-16118024D02*
X10585137Y-16108500D01*
X10585137Y-16108500D02*
X10556565Y-16108500D01*
X10556565Y-16108500D02*
X10537518Y-16118024D01*
X10537518Y-16118024D02*
X10527994Y-16127548D01*
X10737518Y-16241834D02*
X10718470Y-16232310D01*
X10718470Y-16232310D02*
X10708946Y-16222786D01*
X10708946Y-16222786D02*
X10699422Y-16203738D01*
X10699422Y-16203738D02*
X10699422Y-16146596D01*
X10699422Y-16146596D02*
X10708946Y-16127548D01*
X10708946Y-16127548D02*
X10718470Y-16118024D01*
X10718470Y-16118024D02*
X10737518Y-16108500D01*
X10737518Y-16108500D02*
X10766089Y-16108500D01*
X10766089Y-16108500D02*
X10785137Y-16118024D01*
X10785137Y-16118024D02*
X10794661Y-16127548D01*
X10794661Y-16127548D02*
X10804184Y-16146596D01*
X10804184Y-16146596D02*
X10804184Y-16203738D01*
X10804184Y-16203738D02*
X10794661Y-16222786D01*
X10794661Y-16222786D02*
X10785137Y-16232310D01*
X10785137Y-16232310D02*
X10766089Y-16241834D01*
X10766089Y-16241834D02*
X10737518Y-16241834D01*
X10918470Y-16241834D02*
X10899422Y-16232310D01*
X10899422Y-16232310D02*
X10889899Y-16213262D01*
X10889899Y-16213262D02*
X10889899Y-16041834D01*
X11070851Y-16232310D02*
X11051803Y-16241834D01*
X11051803Y-16241834D02*
X11013708Y-16241834D01*
X11013708Y-16241834D02*
X10994661Y-16232310D01*
X10994661Y-16232310D02*
X10985137Y-16213262D01*
X10985137Y-16213262D02*
X10985137Y-16137072D01*
X10985137Y-16137072D02*
X10994661Y-16118024D01*
X10994661Y-16118024D02*
X11013708Y-16108500D01*
X11013708Y-16108500D02*
X11051803Y-16108500D01*
X11051803Y-16108500D02*
X11070851Y-16118024D01*
X11070851Y-16118024D02*
X11080375Y-16137072D01*
X11080375Y-16137072D02*
X11080375Y-16156119D01*
X11080375Y-16156119D02*
X10985137Y-16175167D01*
X11156565Y-16232310D02*
X11175613Y-16241834D01*
X11175613Y-16241834D02*
X11213708Y-16241834D01*
X11213708Y-16241834D02*
X11232756Y-16232310D01*
X11232756Y-16232310D02*
X11242280Y-16213262D01*
X11242280Y-16213262D02*
X11242280Y-16203738D01*
X11242280Y-16203738D02*
X11232756Y-16184691D01*
X11232756Y-16184691D02*
X11213708Y-16175167D01*
X11213708Y-16175167D02*
X11185137Y-16175167D01*
X11185137Y-16175167D02*
X11166089Y-16165643D01*
X11166089Y-16165643D02*
X11156565Y-16146596D01*
X11156565Y-16146596D02*
X11156565Y-16137072D01*
X11156565Y-16137072D02*
X11166089Y-16118024D01*
X11166089Y-16118024D02*
X11185137Y-16108500D01*
X11185137Y-16108500D02*
X11213708Y-16108500D01*
X11213708Y-16108500D02*
X11232756Y-16118024D01*
X11308946Y-16318024D02*
X11318470Y-16308500D01*
X11318470Y-16308500D02*
X11337518Y-16279929D01*
X11337518Y-16279929D02*
X11347041Y-16260881D01*
X11347041Y-16260881D02*
X11356565Y-16232310D01*
X11356565Y-16232310D02*
X11366089Y-16184691D01*
X11366089Y-16184691D02*
X11366089Y-16146596D01*
X11366089Y-16146596D02*
X11356565Y-16098977D01*
X11356565Y-16098977D02*
X11347041Y-16070405D01*
X11347041Y-16070405D02*
X11337518Y-16051358D01*
X11337518Y-16051358D02*
X11318470Y-16022786D01*
X11318470Y-16022786D02*
X11308946Y-16013262D01*
D14*
X6297687Y-16368630D02*
X6297687Y-16460070D01*
X6251967Y-16414350D02*
X6343407Y-16414350D01*
D11*
X6642279Y-16305834D02*
X6661327Y-16305834D01*
X6661327Y-16305834D02*
X6680374Y-16315358D01*
X6680374Y-16315358D02*
X6689898Y-16324881D01*
X6689898Y-16324881D02*
X6699422Y-16343929D01*
X6699422Y-16343929D02*
X6708946Y-16382024D01*
X6708946Y-16382024D02*
X6708946Y-16429643D01*
X6708946Y-16429643D02*
X6699422Y-16467738D01*
X6699422Y-16467738D02*
X6689898Y-16486786D01*
X6689898Y-16486786D02*
X6680374Y-16496310D01*
X6680374Y-16496310D02*
X6661327Y-16505834D01*
X6661327Y-16505834D02*
X6642279Y-16505834D01*
X6642279Y-16505834D02*
X6623231Y-16496310D01*
X6623231Y-16496310D02*
X6613708Y-16486786D01*
X6613708Y-16486786D02*
X6604184Y-16467738D01*
X6604184Y-16467738D02*
X6594660Y-16429643D01*
X6594660Y-16429643D02*
X6594660Y-16382024D01*
X6594660Y-16382024D02*
X6604184Y-16343929D01*
X6604184Y-16343929D02*
X6613708Y-16324881D01*
X6613708Y-16324881D02*
X6623231Y-16315358D01*
X6623231Y-16315358D02*
X6642279Y-16305834D01*
X6794660Y-16486786D02*
X6804184Y-16496310D01*
X6804184Y-16496310D02*
X6794660Y-16505834D01*
X6794660Y-16505834D02*
X6785136Y-16496310D01*
X6785136Y-16496310D02*
X6794660Y-16486786D01*
X6794660Y-16486786D02*
X6794660Y-16505834D01*
X6899422Y-16505834D02*
X6937517Y-16505834D01*
X6937517Y-16505834D02*
X6956565Y-16496310D01*
X6956565Y-16496310D02*
X6966089Y-16486786D01*
X6966089Y-16486786D02*
X6985136Y-16458215D01*
X6985136Y-16458215D02*
X6994660Y-16420119D01*
X6994660Y-16420119D02*
X6994660Y-16343929D01*
X6994660Y-16343929D02*
X6985136Y-16324881D01*
X6985136Y-16324881D02*
X6975612Y-16315358D01*
X6975612Y-16315358D02*
X6956565Y-16305834D01*
X6956565Y-16305834D02*
X6918470Y-16305834D01*
X6918470Y-16305834D02*
X6899422Y-16315358D01*
X6899422Y-16315358D02*
X6889898Y-16324881D01*
X6889898Y-16324881D02*
X6880374Y-16343929D01*
X6880374Y-16343929D02*
X6880374Y-16391548D01*
X6880374Y-16391548D02*
X6889898Y-16410596D01*
X6889898Y-16410596D02*
X6899422Y-16420119D01*
X6899422Y-16420119D02*
X6918470Y-16429643D01*
X6918470Y-16429643D02*
X6956565Y-16429643D01*
X6956565Y-16429643D02*
X6975612Y-16420119D01*
X6975612Y-16420119D02*
X6985136Y-16410596D01*
X6985136Y-16410596D02*
X6994660Y-16391548D01*
X7185136Y-16505834D02*
X7070851Y-16505834D01*
X7127993Y-16505834D02*
X7127993Y-16305834D01*
X7127993Y-16305834D02*
X7108946Y-16334405D01*
X7108946Y-16334405D02*
X7089898Y-16353453D01*
X7089898Y-16353453D02*
X7070851Y-16362977D01*
X7356565Y-16372500D02*
X7356565Y-16505834D01*
X7308946Y-16296310D02*
X7261327Y-16439167D01*
X7261327Y-16439167D02*
X7385136Y-16439167D01*
X7461327Y-16505834D02*
X7461327Y-16372500D01*
X7461327Y-16391548D02*
X7470851Y-16382024D01*
X7470851Y-16382024D02*
X7489898Y-16372500D01*
X7489898Y-16372500D02*
X7518470Y-16372500D01*
X7518470Y-16372500D02*
X7537517Y-16382024D01*
X7537517Y-16382024D02*
X7547041Y-16401072D01*
X7547041Y-16401072D02*
X7547041Y-16505834D01*
X7547041Y-16401072D02*
X7556565Y-16382024D01*
X7556565Y-16382024D02*
X7575612Y-16372500D01*
X7575612Y-16372500D02*
X7604184Y-16372500D01*
X7604184Y-16372500D02*
X7623232Y-16382024D01*
X7623232Y-16382024D02*
X7632755Y-16401072D01*
X7632755Y-16401072D02*
X7632755Y-16505834D01*
X7727993Y-16505834D02*
X7727993Y-16372500D01*
X7727993Y-16391548D02*
X7737517Y-16382024D01*
X7737517Y-16382024D02*
X7756565Y-16372500D01*
X7756565Y-16372500D02*
X7785136Y-16372500D01*
X7785136Y-16372500D02*
X7804184Y-16382024D01*
X7804184Y-16382024D02*
X7813708Y-16401072D01*
X7813708Y-16401072D02*
X7813708Y-16505834D01*
X7813708Y-16401072D02*
X7823232Y-16382024D01*
X7823232Y-16382024D02*
X7842279Y-16372500D01*
X7842279Y-16372500D02*
X7870851Y-16372500D01*
X7870851Y-16372500D02*
X7889898Y-16382024D01*
X7889898Y-16382024D02*
X7899422Y-16401072D01*
X7899422Y-16401072D02*
X7899422Y-16505834D01*
X8289898Y-16296310D02*
X8118470Y-16553453D01*
X8547041Y-16305834D02*
X8566089Y-16305834D01*
X8566089Y-16305834D02*
X8585137Y-16315358D01*
X8585137Y-16315358D02*
X8594660Y-16324881D01*
X8594660Y-16324881D02*
X8604184Y-16343929D01*
X8604184Y-16343929D02*
X8613708Y-16382024D01*
X8613708Y-16382024D02*
X8613708Y-16429643D01*
X8613708Y-16429643D02*
X8604184Y-16467738D01*
X8604184Y-16467738D02*
X8594660Y-16486786D01*
X8594660Y-16486786D02*
X8585137Y-16496310D01*
X8585137Y-16496310D02*
X8566089Y-16505834D01*
X8566089Y-16505834D02*
X8547041Y-16505834D01*
X8547041Y-16505834D02*
X8527994Y-16496310D01*
X8527994Y-16496310D02*
X8518470Y-16486786D01*
X8518470Y-16486786D02*
X8508946Y-16467738D01*
X8508946Y-16467738D02*
X8499422Y-16429643D01*
X8499422Y-16429643D02*
X8499422Y-16382024D01*
X8499422Y-16382024D02*
X8508946Y-16343929D01*
X8508946Y-16343929D02*
X8518470Y-16324881D01*
X8518470Y-16324881D02*
X8527994Y-16315358D01*
X8527994Y-16315358D02*
X8547041Y-16305834D01*
X8699422Y-16486786D02*
X8708946Y-16496310D01*
X8708946Y-16496310D02*
X8699422Y-16505834D01*
X8699422Y-16505834D02*
X8689898Y-16496310D01*
X8689898Y-16496310D02*
X8699422Y-16486786D01*
X8699422Y-16486786D02*
X8699422Y-16505834D01*
X8832756Y-16305834D02*
X8851803Y-16305834D01*
X8851803Y-16305834D02*
X8870851Y-16315358D01*
X8870851Y-16315358D02*
X8880375Y-16324881D01*
X8880375Y-16324881D02*
X8889898Y-16343929D01*
X8889898Y-16343929D02*
X8899422Y-16382024D01*
X8899422Y-16382024D02*
X8899422Y-16429643D01*
X8899422Y-16429643D02*
X8889898Y-16467738D01*
X8889898Y-16467738D02*
X8880375Y-16486786D01*
X8880375Y-16486786D02*
X8870851Y-16496310D01*
X8870851Y-16496310D02*
X8851803Y-16505834D01*
X8851803Y-16505834D02*
X8832756Y-16505834D01*
X8832756Y-16505834D02*
X8813708Y-16496310D01*
X8813708Y-16496310D02*
X8804184Y-16486786D01*
X8804184Y-16486786D02*
X8794660Y-16467738D01*
X8794660Y-16467738D02*
X8785137Y-16429643D01*
X8785137Y-16429643D02*
X8785137Y-16382024D01*
X8785137Y-16382024D02*
X8794660Y-16343929D01*
X8794660Y-16343929D02*
X8804184Y-16324881D01*
X8804184Y-16324881D02*
X8813708Y-16315358D01*
X8813708Y-16315358D02*
X8832756Y-16305834D01*
X8966089Y-16305834D02*
X9089898Y-16305834D01*
X9089898Y-16305834D02*
X9023232Y-16382024D01*
X9023232Y-16382024D02*
X9051803Y-16382024D01*
X9051803Y-16382024D02*
X9070851Y-16391548D01*
X9070851Y-16391548D02*
X9080375Y-16401072D01*
X9080375Y-16401072D02*
X9089898Y-16420119D01*
X9089898Y-16420119D02*
X9089898Y-16467738D01*
X9089898Y-16467738D02*
X9080375Y-16486786D01*
X9080375Y-16486786D02*
X9070851Y-16496310D01*
X9070851Y-16496310D02*
X9051803Y-16505834D01*
X9051803Y-16505834D02*
X8994660Y-16505834D01*
X8994660Y-16505834D02*
X8975613Y-16496310D01*
X8975613Y-16496310D02*
X8966089Y-16486786D01*
X9261327Y-16305834D02*
X9223232Y-16305834D01*
X9223232Y-16305834D02*
X9204184Y-16315358D01*
X9204184Y-16315358D02*
X9194660Y-16324881D01*
X9194660Y-16324881D02*
X9175613Y-16353453D01*
X9175613Y-16353453D02*
X9166089Y-16391548D01*
X9166089Y-16391548D02*
X9166089Y-16467738D01*
X9166089Y-16467738D02*
X9175613Y-16486786D01*
X9175613Y-16486786D02*
X9185137Y-16496310D01*
X9185137Y-16496310D02*
X9204184Y-16505834D01*
X9204184Y-16505834D02*
X9242279Y-16505834D01*
X9242279Y-16505834D02*
X9261327Y-16496310D01*
X9261327Y-16496310D02*
X9270851Y-16486786D01*
X9270851Y-16486786D02*
X9280375Y-16467738D01*
X9280375Y-16467738D02*
X9280375Y-16420119D01*
X9280375Y-16420119D02*
X9270851Y-16401072D01*
X9270851Y-16401072D02*
X9261327Y-16391548D01*
X9261327Y-16391548D02*
X9242279Y-16382024D01*
X9242279Y-16382024D02*
X9204184Y-16382024D01*
X9204184Y-16382024D02*
X9185137Y-16391548D01*
X9185137Y-16391548D02*
X9175613Y-16401072D01*
X9175613Y-16401072D02*
X9166089Y-16420119D01*
X9404184Y-16305834D02*
X9423232Y-16305834D01*
X9423232Y-16305834D02*
X9442279Y-16315358D01*
X9442279Y-16315358D02*
X9451803Y-16324881D01*
X9451803Y-16324881D02*
X9461327Y-16343929D01*
X9461327Y-16343929D02*
X9470851Y-16382024D01*
X9470851Y-16382024D02*
X9470851Y-16429643D01*
X9470851Y-16429643D02*
X9461327Y-16467738D01*
X9461327Y-16467738D02*
X9451803Y-16486786D01*
X9451803Y-16486786D02*
X9442279Y-16496310D01*
X9442279Y-16496310D02*
X9423232Y-16505834D01*
X9423232Y-16505834D02*
X9404184Y-16505834D01*
X9404184Y-16505834D02*
X9385137Y-16496310D01*
X9385137Y-16496310D02*
X9375613Y-16486786D01*
X9375613Y-16486786D02*
X9366089Y-16467738D01*
X9366089Y-16467738D02*
X9356565Y-16429643D01*
X9356565Y-16429643D02*
X9356565Y-16382024D01*
X9356565Y-16382024D02*
X9366089Y-16343929D01*
X9366089Y-16343929D02*
X9375613Y-16324881D01*
X9375613Y-16324881D02*
X9385137Y-16315358D01*
X9385137Y-16315358D02*
X9404184Y-16305834D01*
X9547041Y-16305834D02*
X9547041Y-16343929D01*
X9623232Y-16305834D02*
X9623232Y-16343929D01*
X9918470Y-16582024D02*
X9908946Y-16572500D01*
X9908946Y-16572500D02*
X9889899Y-16543929D01*
X9889899Y-16543929D02*
X9880375Y-16524881D01*
X9880375Y-16524881D02*
X9870851Y-16496310D01*
X9870851Y-16496310D02*
X9861327Y-16448691D01*
X9861327Y-16448691D02*
X9861327Y-16410596D01*
X9861327Y-16410596D02*
X9870851Y-16362977D01*
X9870851Y-16362977D02*
X9880375Y-16334405D01*
X9880375Y-16334405D02*
X9889899Y-16315358D01*
X9889899Y-16315358D02*
X9908946Y-16286786D01*
X9908946Y-16286786D02*
X9918470Y-16277262D01*
X9975613Y-16305834D02*
X10099422Y-16305834D01*
X10099422Y-16305834D02*
X10032756Y-16382024D01*
X10032756Y-16382024D02*
X10061327Y-16382024D01*
X10061327Y-16382024D02*
X10080375Y-16391548D01*
X10080375Y-16391548D02*
X10089899Y-16401072D01*
X10089899Y-16401072D02*
X10099422Y-16420119D01*
X10099422Y-16420119D02*
X10099422Y-16467738D01*
X10099422Y-16467738D02*
X10089899Y-16486786D01*
X10089899Y-16486786D02*
X10080375Y-16496310D01*
X10080375Y-16496310D02*
X10061327Y-16505834D01*
X10061327Y-16505834D02*
X10004184Y-16505834D01*
X10004184Y-16505834D02*
X9985137Y-16496310D01*
X9985137Y-16496310D02*
X9975613Y-16486786D01*
X10337518Y-16505834D02*
X10337518Y-16305834D01*
X10423232Y-16505834D02*
X10423232Y-16401072D01*
X10423232Y-16401072D02*
X10413708Y-16382024D01*
X10413708Y-16382024D02*
X10394661Y-16372500D01*
X10394661Y-16372500D02*
X10366089Y-16372500D01*
X10366089Y-16372500D02*
X10347041Y-16382024D01*
X10347041Y-16382024D02*
X10337518Y-16391548D01*
X10547041Y-16505834D02*
X10527994Y-16496310D01*
X10527994Y-16496310D02*
X10518470Y-16486786D01*
X10518470Y-16486786D02*
X10508946Y-16467738D01*
X10508946Y-16467738D02*
X10508946Y-16410596D01*
X10508946Y-16410596D02*
X10518470Y-16391548D01*
X10518470Y-16391548D02*
X10527994Y-16382024D01*
X10527994Y-16382024D02*
X10547041Y-16372500D01*
X10547041Y-16372500D02*
X10575613Y-16372500D01*
X10575613Y-16372500D02*
X10594661Y-16382024D01*
X10594661Y-16382024D02*
X10604184Y-16391548D01*
X10604184Y-16391548D02*
X10613708Y-16410596D01*
X10613708Y-16410596D02*
X10613708Y-16467738D01*
X10613708Y-16467738D02*
X10604184Y-16486786D01*
X10604184Y-16486786D02*
X10594661Y-16496310D01*
X10594661Y-16496310D02*
X10575613Y-16505834D01*
X10575613Y-16505834D02*
X10547041Y-16505834D01*
X10727994Y-16505834D02*
X10708946Y-16496310D01*
X10708946Y-16496310D02*
X10699422Y-16477262D01*
X10699422Y-16477262D02*
X10699422Y-16305834D01*
X10880375Y-16496310D02*
X10861327Y-16505834D01*
X10861327Y-16505834D02*
X10823232Y-16505834D01*
X10823232Y-16505834D02*
X10804184Y-16496310D01*
X10804184Y-16496310D02*
X10794661Y-16477262D01*
X10794661Y-16477262D02*
X10794661Y-16401072D01*
X10794661Y-16401072D02*
X10804184Y-16382024D01*
X10804184Y-16382024D02*
X10823232Y-16372500D01*
X10823232Y-16372500D02*
X10861327Y-16372500D01*
X10861327Y-16372500D02*
X10880375Y-16382024D01*
X10880375Y-16382024D02*
X10889899Y-16401072D01*
X10889899Y-16401072D02*
X10889899Y-16420119D01*
X10889899Y-16420119D02*
X10794661Y-16439167D01*
X10966089Y-16496310D02*
X10985137Y-16505834D01*
X10985137Y-16505834D02*
X11023232Y-16505834D01*
X11023232Y-16505834D02*
X11042280Y-16496310D01*
X11042280Y-16496310D02*
X11051803Y-16477262D01*
X11051803Y-16477262D02*
X11051803Y-16467738D01*
X11051803Y-16467738D02*
X11042280Y-16448691D01*
X11042280Y-16448691D02*
X11023232Y-16439167D01*
X11023232Y-16439167D02*
X10994661Y-16439167D01*
X10994661Y-16439167D02*
X10975613Y-16429643D01*
X10975613Y-16429643D02*
X10966089Y-16410596D01*
X10966089Y-16410596D02*
X10966089Y-16401072D01*
X10966089Y-16401072D02*
X10975613Y-16382024D01*
X10975613Y-16382024D02*
X10994661Y-16372500D01*
X10994661Y-16372500D02*
X11023232Y-16372500D01*
X11023232Y-16372500D02*
X11042280Y-16382024D01*
X11118470Y-16582024D02*
X11127994Y-16572500D01*
X11127994Y-16572500D02*
X11147042Y-16543929D01*
X11147042Y-16543929D02*
X11156565Y-16524881D01*
X11156565Y-16524881D02*
X11166089Y-16496310D01*
X11166089Y-16496310D02*
X11175613Y-16448691D01*
X11175613Y-16448691D02*
X11175613Y-16410596D01*
X11175613Y-16410596D02*
X11166089Y-16362977D01*
X11166089Y-16362977D02*
X11156565Y-16334405D01*
X11156565Y-16334405D02*
X11147042Y-16315358D01*
X11147042Y-16315358D02*
X11127994Y-16286786D01*
X11127994Y-16286786D02*
X11118470Y-16277262D01*
D15*
X6328763Y-16713706D02*
X6328763Y-16642994D01*
X6258051Y-16642994D01*
X6258051Y-16713706D01*
X6328763Y-16713706D01*
D11*
X6708946Y-16769834D02*
X6594660Y-16769834D01*
X6651803Y-16769834D02*
X6651803Y-16569834D01*
X6651803Y-16569834D02*
X6632755Y-16598405D01*
X6632755Y-16598405D02*
X6613708Y-16617453D01*
X6613708Y-16617453D02*
X6594660Y-16626977D01*
X6794660Y-16750786D02*
X6804184Y-16760310D01*
X6804184Y-16760310D02*
X6794660Y-16769834D01*
X6794660Y-16769834D02*
X6785136Y-16760310D01*
X6785136Y-16760310D02*
X6794660Y-16750786D01*
X6794660Y-16750786D02*
X6794660Y-16769834D01*
X6927993Y-16569834D02*
X6947041Y-16569834D01*
X6947041Y-16569834D02*
X6966089Y-16579358D01*
X6966089Y-16579358D02*
X6975612Y-16588881D01*
X6975612Y-16588881D02*
X6985136Y-16607929D01*
X6985136Y-16607929D02*
X6994660Y-16646024D01*
X6994660Y-16646024D02*
X6994660Y-16693643D01*
X6994660Y-16693643D02*
X6985136Y-16731738D01*
X6985136Y-16731738D02*
X6975612Y-16750786D01*
X6975612Y-16750786D02*
X6966089Y-16760310D01*
X6966089Y-16760310D02*
X6947041Y-16769834D01*
X6947041Y-16769834D02*
X6927993Y-16769834D01*
X6927993Y-16769834D02*
X6908946Y-16760310D01*
X6908946Y-16760310D02*
X6899422Y-16750786D01*
X6899422Y-16750786D02*
X6889898Y-16731738D01*
X6889898Y-16731738D02*
X6880374Y-16693643D01*
X6880374Y-16693643D02*
X6880374Y-16646024D01*
X6880374Y-16646024D02*
X6889898Y-16607929D01*
X6889898Y-16607929D02*
X6899422Y-16588881D01*
X6899422Y-16588881D02*
X6908946Y-16579358D01*
X6908946Y-16579358D02*
X6927993Y-16569834D01*
X7118470Y-16569834D02*
X7137517Y-16569834D01*
X7137517Y-16569834D02*
X7156565Y-16579358D01*
X7156565Y-16579358D02*
X7166089Y-16588881D01*
X7166089Y-16588881D02*
X7175612Y-16607929D01*
X7175612Y-16607929D02*
X7185136Y-16646024D01*
X7185136Y-16646024D02*
X7185136Y-16693643D01*
X7185136Y-16693643D02*
X7175612Y-16731738D01*
X7175612Y-16731738D02*
X7166089Y-16750786D01*
X7166089Y-16750786D02*
X7156565Y-16760310D01*
X7156565Y-16760310D02*
X7137517Y-16769834D01*
X7137517Y-16769834D02*
X7118470Y-16769834D01*
X7118470Y-16769834D02*
X7099422Y-16760310D01*
X7099422Y-16760310D02*
X7089898Y-16750786D01*
X7089898Y-16750786D02*
X7080374Y-16731738D01*
X7080374Y-16731738D02*
X7070851Y-16693643D01*
X7070851Y-16693643D02*
X7070851Y-16646024D01*
X7070851Y-16646024D02*
X7080374Y-16607929D01*
X7080374Y-16607929D02*
X7089898Y-16588881D01*
X7089898Y-16588881D02*
X7099422Y-16579358D01*
X7099422Y-16579358D02*
X7118470Y-16569834D01*
X7308946Y-16569834D02*
X7327993Y-16569834D01*
X7327993Y-16569834D02*
X7347041Y-16579358D01*
X7347041Y-16579358D02*
X7356565Y-16588881D01*
X7356565Y-16588881D02*
X7366089Y-16607929D01*
X7366089Y-16607929D02*
X7375612Y-16646024D01*
X7375612Y-16646024D02*
X7375612Y-16693643D01*
X7375612Y-16693643D02*
X7366089Y-16731738D01*
X7366089Y-16731738D02*
X7356565Y-16750786D01*
X7356565Y-16750786D02*
X7347041Y-16760310D01*
X7347041Y-16760310D02*
X7327993Y-16769834D01*
X7327993Y-16769834D02*
X7308946Y-16769834D01*
X7308946Y-16769834D02*
X7289898Y-16760310D01*
X7289898Y-16760310D02*
X7280374Y-16750786D01*
X7280374Y-16750786D02*
X7270851Y-16731738D01*
X7270851Y-16731738D02*
X7261327Y-16693643D01*
X7261327Y-16693643D02*
X7261327Y-16646024D01*
X7261327Y-16646024D02*
X7270851Y-16607929D01*
X7270851Y-16607929D02*
X7280374Y-16588881D01*
X7280374Y-16588881D02*
X7289898Y-16579358D01*
X7289898Y-16579358D02*
X7308946Y-16569834D01*
X7461327Y-16769834D02*
X7461327Y-16636500D01*
X7461327Y-16655548D02*
X7470851Y-16646024D01*
X7470851Y-16646024D02*
X7489898Y-16636500D01*
X7489898Y-16636500D02*
X7518470Y-16636500D01*
X7518470Y-16636500D02*
X7537517Y-16646024D01*
X7537517Y-16646024D02*
X7547041Y-16665072D01*
X7547041Y-16665072D02*
X7547041Y-16769834D01*
X7547041Y-16665072D02*
X7556565Y-16646024D01*
X7556565Y-16646024D02*
X7575612Y-16636500D01*
X7575612Y-16636500D02*
X7604184Y-16636500D01*
X7604184Y-16636500D02*
X7623232Y-16646024D01*
X7623232Y-16646024D02*
X7632755Y-16665072D01*
X7632755Y-16665072D02*
X7632755Y-16769834D01*
X7727993Y-16769834D02*
X7727993Y-16636500D01*
X7727993Y-16655548D02*
X7737517Y-16646024D01*
X7737517Y-16646024D02*
X7756565Y-16636500D01*
X7756565Y-16636500D02*
X7785136Y-16636500D01*
X7785136Y-16636500D02*
X7804184Y-16646024D01*
X7804184Y-16646024D02*
X7813708Y-16665072D01*
X7813708Y-16665072D02*
X7813708Y-16769834D01*
X7813708Y-16665072D02*
X7823232Y-16646024D01*
X7823232Y-16646024D02*
X7842279Y-16636500D01*
X7842279Y-16636500D02*
X7870851Y-16636500D01*
X7870851Y-16636500D02*
X7889898Y-16646024D01*
X7889898Y-16646024D02*
X7899422Y-16665072D01*
X7899422Y-16665072D02*
X7899422Y-16769834D01*
X8289898Y-16560310D02*
X8118470Y-16817453D01*
X8547041Y-16569834D02*
X8566089Y-16569834D01*
X8566089Y-16569834D02*
X8585137Y-16579358D01*
X8585137Y-16579358D02*
X8594660Y-16588881D01*
X8594660Y-16588881D02*
X8604184Y-16607929D01*
X8604184Y-16607929D02*
X8613708Y-16646024D01*
X8613708Y-16646024D02*
X8613708Y-16693643D01*
X8613708Y-16693643D02*
X8604184Y-16731738D01*
X8604184Y-16731738D02*
X8594660Y-16750786D01*
X8594660Y-16750786D02*
X8585137Y-16760310D01*
X8585137Y-16760310D02*
X8566089Y-16769834D01*
X8566089Y-16769834D02*
X8547041Y-16769834D01*
X8547041Y-16769834D02*
X8527994Y-16760310D01*
X8527994Y-16760310D02*
X8518470Y-16750786D01*
X8518470Y-16750786D02*
X8508946Y-16731738D01*
X8508946Y-16731738D02*
X8499422Y-16693643D01*
X8499422Y-16693643D02*
X8499422Y-16646024D01*
X8499422Y-16646024D02*
X8508946Y-16607929D01*
X8508946Y-16607929D02*
X8518470Y-16588881D01*
X8518470Y-16588881D02*
X8527994Y-16579358D01*
X8527994Y-16579358D02*
X8547041Y-16569834D01*
X8699422Y-16750786D02*
X8708946Y-16760310D01*
X8708946Y-16760310D02*
X8699422Y-16769834D01*
X8699422Y-16769834D02*
X8689898Y-16760310D01*
X8689898Y-16760310D02*
X8699422Y-16750786D01*
X8699422Y-16750786D02*
X8699422Y-16769834D01*
X8832756Y-16569834D02*
X8851803Y-16569834D01*
X8851803Y-16569834D02*
X8870851Y-16579358D01*
X8870851Y-16579358D02*
X8880375Y-16588881D01*
X8880375Y-16588881D02*
X8889898Y-16607929D01*
X8889898Y-16607929D02*
X8899422Y-16646024D01*
X8899422Y-16646024D02*
X8899422Y-16693643D01*
X8899422Y-16693643D02*
X8889898Y-16731738D01*
X8889898Y-16731738D02*
X8880375Y-16750786D01*
X8880375Y-16750786D02*
X8870851Y-16760310D01*
X8870851Y-16760310D02*
X8851803Y-16769834D01*
X8851803Y-16769834D02*
X8832756Y-16769834D01*
X8832756Y-16769834D02*
X8813708Y-16760310D01*
X8813708Y-16760310D02*
X8804184Y-16750786D01*
X8804184Y-16750786D02*
X8794660Y-16731738D01*
X8794660Y-16731738D02*
X8785137Y-16693643D01*
X8785137Y-16693643D02*
X8785137Y-16646024D01*
X8785137Y-16646024D02*
X8794660Y-16607929D01*
X8794660Y-16607929D02*
X8804184Y-16588881D01*
X8804184Y-16588881D02*
X8813708Y-16579358D01*
X8813708Y-16579358D02*
X8832756Y-16569834D01*
X8966089Y-16569834D02*
X9089898Y-16569834D01*
X9089898Y-16569834D02*
X9023232Y-16646024D01*
X9023232Y-16646024D02*
X9051803Y-16646024D01*
X9051803Y-16646024D02*
X9070851Y-16655548D01*
X9070851Y-16655548D02*
X9080375Y-16665072D01*
X9080375Y-16665072D02*
X9089898Y-16684119D01*
X9089898Y-16684119D02*
X9089898Y-16731738D01*
X9089898Y-16731738D02*
X9080375Y-16750786D01*
X9080375Y-16750786D02*
X9070851Y-16760310D01*
X9070851Y-16760310D02*
X9051803Y-16769834D01*
X9051803Y-16769834D02*
X8994660Y-16769834D01*
X8994660Y-16769834D02*
X8975613Y-16760310D01*
X8975613Y-16760310D02*
X8966089Y-16750786D01*
X9185137Y-16769834D02*
X9223232Y-16769834D01*
X9223232Y-16769834D02*
X9242279Y-16760310D01*
X9242279Y-16760310D02*
X9251803Y-16750786D01*
X9251803Y-16750786D02*
X9270851Y-16722215D01*
X9270851Y-16722215D02*
X9280375Y-16684119D01*
X9280375Y-16684119D02*
X9280375Y-16607929D01*
X9280375Y-16607929D02*
X9270851Y-16588881D01*
X9270851Y-16588881D02*
X9261327Y-16579358D01*
X9261327Y-16579358D02*
X9242279Y-16569834D01*
X9242279Y-16569834D02*
X9204184Y-16569834D01*
X9204184Y-16569834D02*
X9185137Y-16579358D01*
X9185137Y-16579358D02*
X9175613Y-16588881D01*
X9175613Y-16588881D02*
X9166089Y-16607929D01*
X9166089Y-16607929D02*
X9166089Y-16655548D01*
X9166089Y-16655548D02*
X9175613Y-16674596D01*
X9175613Y-16674596D02*
X9185137Y-16684119D01*
X9185137Y-16684119D02*
X9204184Y-16693643D01*
X9204184Y-16693643D02*
X9242279Y-16693643D01*
X9242279Y-16693643D02*
X9261327Y-16684119D01*
X9261327Y-16684119D02*
X9270851Y-16674596D01*
X9270851Y-16674596D02*
X9280375Y-16655548D01*
X9451803Y-16636500D02*
X9451803Y-16769834D01*
X9404184Y-16560310D02*
X9356565Y-16703167D01*
X9356565Y-16703167D02*
X9480375Y-16703167D01*
X9547041Y-16569834D02*
X9547041Y-16607929D01*
X9623232Y-16569834D02*
X9623232Y-16607929D01*
X9918470Y-16846024D02*
X9908946Y-16836500D01*
X9908946Y-16836500D02*
X9889899Y-16807929D01*
X9889899Y-16807929D02*
X9880375Y-16788881D01*
X9880375Y-16788881D02*
X9870851Y-16760310D01*
X9870851Y-16760310D02*
X9861327Y-16712691D01*
X9861327Y-16712691D02*
X9861327Y-16674596D01*
X9861327Y-16674596D02*
X9870851Y-16626977D01*
X9870851Y-16626977D02*
X9880375Y-16598405D01*
X9880375Y-16598405D02*
X9889899Y-16579358D01*
X9889899Y-16579358D02*
X9908946Y-16550786D01*
X9908946Y-16550786D02*
X9918470Y-16541262D01*
X9975613Y-16569834D02*
X10099422Y-16569834D01*
X10099422Y-16569834D02*
X10032756Y-16646024D01*
X10032756Y-16646024D02*
X10061327Y-16646024D01*
X10061327Y-16646024D02*
X10080375Y-16655548D01*
X10080375Y-16655548D02*
X10089899Y-16665072D01*
X10089899Y-16665072D02*
X10099422Y-16684119D01*
X10099422Y-16684119D02*
X10099422Y-16731738D01*
X10099422Y-16731738D02*
X10089899Y-16750786D01*
X10089899Y-16750786D02*
X10080375Y-16760310D01*
X10080375Y-16760310D02*
X10061327Y-16769834D01*
X10061327Y-16769834D02*
X10004184Y-16769834D01*
X10004184Y-16769834D02*
X9985137Y-16760310D01*
X9985137Y-16760310D02*
X9975613Y-16750786D01*
X10280375Y-16569834D02*
X10185137Y-16569834D01*
X10185137Y-16569834D02*
X10175613Y-16665072D01*
X10175613Y-16665072D02*
X10185137Y-16655548D01*
X10185137Y-16655548D02*
X10204184Y-16646024D01*
X10204184Y-16646024D02*
X10251803Y-16646024D01*
X10251803Y-16646024D02*
X10270851Y-16655548D01*
X10270851Y-16655548D02*
X10280375Y-16665072D01*
X10280375Y-16665072D02*
X10289899Y-16684119D01*
X10289899Y-16684119D02*
X10289899Y-16731738D01*
X10289899Y-16731738D02*
X10280375Y-16750786D01*
X10280375Y-16750786D02*
X10270851Y-16760310D01*
X10270851Y-16760310D02*
X10251803Y-16769834D01*
X10251803Y-16769834D02*
X10204184Y-16769834D01*
X10204184Y-16769834D02*
X10185137Y-16760310D01*
X10185137Y-16760310D02*
X10175613Y-16750786D01*
X10527994Y-16769834D02*
X10527994Y-16569834D01*
X10613708Y-16769834D02*
X10613708Y-16665072D01*
X10613708Y-16665072D02*
X10604184Y-16646024D01*
X10604184Y-16646024D02*
X10585137Y-16636500D01*
X10585137Y-16636500D02*
X10556565Y-16636500D01*
X10556565Y-16636500D02*
X10537518Y-16646024D01*
X10537518Y-16646024D02*
X10527994Y-16655548D01*
X10737518Y-16769834D02*
X10718470Y-16760310D01*
X10718470Y-16760310D02*
X10708946Y-16750786D01*
X10708946Y-16750786D02*
X10699422Y-16731738D01*
X10699422Y-16731738D02*
X10699422Y-16674596D01*
X10699422Y-16674596D02*
X10708946Y-16655548D01*
X10708946Y-16655548D02*
X10718470Y-16646024D01*
X10718470Y-16646024D02*
X10737518Y-16636500D01*
X10737518Y-16636500D02*
X10766089Y-16636500D01*
X10766089Y-16636500D02*
X10785137Y-16646024D01*
X10785137Y-16646024D02*
X10794661Y-16655548D01*
X10794661Y-16655548D02*
X10804184Y-16674596D01*
X10804184Y-16674596D02*
X10804184Y-16731738D01*
X10804184Y-16731738D02*
X10794661Y-16750786D01*
X10794661Y-16750786D02*
X10785137Y-16760310D01*
X10785137Y-16760310D02*
X10766089Y-16769834D01*
X10766089Y-16769834D02*
X10737518Y-16769834D01*
X10918470Y-16769834D02*
X10899422Y-16760310D01*
X10899422Y-16760310D02*
X10889899Y-16741262D01*
X10889899Y-16741262D02*
X10889899Y-16569834D01*
X11070851Y-16760310D02*
X11051803Y-16769834D01*
X11051803Y-16769834D02*
X11013708Y-16769834D01*
X11013708Y-16769834D02*
X10994661Y-16760310D01*
X10994661Y-16760310D02*
X10985137Y-16741262D01*
X10985137Y-16741262D02*
X10985137Y-16665072D01*
X10985137Y-16665072D02*
X10994661Y-16646024D01*
X10994661Y-16646024D02*
X11013708Y-16636500D01*
X11013708Y-16636500D02*
X11051803Y-16636500D01*
X11051803Y-16636500D02*
X11070851Y-16646024D01*
X11070851Y-16646024D02*
X11080375Y-16665072D01*
X11080375Y-16665072D02*
X11080375Y-16684119D01*
X11080375Y-16684119D02*
X10985137Y-16703167D01*
X11156565Y-16760310D02*
X11175613Y-16769834D01*
X11175613Y-16769834D02*
X11213708Y-16769834D01*
X11213708Y-16769834D02*
X11232756Y-16760310D01*
X11232756Y-16760310D02*
X11242280Y-16741262D01*
X11242280Y-16741262D02*
X11242280Y-16731738D01*
X11242280Y-16731738D02*
X11232756Y-16712691D01*
X11232756Y-16712691D02*
X11213708Y-16703167D01*
X11213708Y-16703167D02*
X11185137Y-16703167D01*
X11185137Y-16703167D02*
X11166089Y-16693643D01*
X11166089Y-16693643D02*
X11156565Y-16674596D01*
X11156565Y-16674596D02*
X11156565Y-16665072D01*
X11156565Y-16665072D02*
X11166089Y-16646024D01*
X11166089Y-16646024D02*
X11185137Y-16636500D01*
X11185137Y-16636500D02*
X11213708Y-16636500D01*
X11213708Y-16636500D02*
X11232756Y-16646024D01*
X11308946Y-16846024D02*
X11318470Y-16836500D01*
X11318470Y-16836500D02*
X11337518Y-16807929D01*
X11337518Y-16807929D02*
X11347041Y-16788881D01*
X11347041Y-16788881D02*
X11356565Y-16760310D01*
X11356565Y-16760310D02*
X11366089Y-16712691D01*
X11366089Y-16712691D02*
X11366089Y-16674596D01*
X11366089Y-16674596D02*
X11356565Y-16626977D01*
X11356565Y-16626977D02*
X11347041Y-16598405D01*
X11347041Y-16598405D02*
X11337518Y-16579358D01*
X11337518Y-16579358D02*
X11318470Y-16550786D01*
X11318470Y-16550786D02*
X11308946Y-16541262D01*
X6243407Y-17042350D02*
X6343407Y-16942350D01*
X6243407Y-16842350D01*
X6143407Y-16942350D01*
X6243407Y-17042350D01*
X6585136Y-16833834D02*
X6708946Y-16833834D01*
X6708946Y-16833834D02*
X6642279Y-16910024D01*
X6642279Y-16910024D02*
X6670851Y-16910024D01*
X6670851Y-16910024D02*
X6689898Y-16919548D01*
X6689898Y-16919548D02*
X6699422Y-16929072D01*
X6699422Y-16929072D02*
X6708946Y-16948120D01*
X6708946Y-16948120D02*
X6708946Y-16995739D01*
X6708946Y-16995739D02*
X6699422Y-17014786D01*
X6699422Y-17014786D02*
X6689898Y-17024310D01*
X6689898Y-17024310D02*
X6670851Y-17033834D01*
X6670851Y-17033834D02*
X6613708Y-17033834D01*
X6613708Y-17033834D02*
X6594660Y-17024310D01*
X6594660Y-17024310D02*
X6585136Y-17014786D01*
X6794660Y-17014786D02*
X6804184Y-17024310D01*
X6804184Y-17024310D02*
X6794660Y-17033834D01*
X6794660Y-17033834D02*
X6785136Y-17024310D01*
X6785136Y-17024310D02*
X6794660Y-17014786D01*
X6794660Y-17014786D02*
X6794660Y-17033834D01*
X6994660Y-17033834D02*
X6880374Y-17033834D01*
X6937517Y-17033834D02*
X6937517Y-16833834D01*
X6937517Y-16833834D02*
X6918470Y-16862405D01*
X6918470Y-16862405D02*
X6899422Y-16881453D01*
X6899422Y-16881453D02*
X6880374Y-16890977D01*
X7061327Y-16833834D02*
X7194660Y-16833834D01*
X7194660Y-16833834D02*
X7108946Y-17033834D01*
X7366089Y-16833834D02*
X7270851Y-16833834D01*
X7270851Y-16833834D02*
X7261327Y-16929072D01*
X7261327Y-16929072D02*
X7270851Y-16919548D01*
X7270851Y-16919548D02*
X7289898Y-16910024D01*
X7289898Y-16910024D02*
X7337517Y-16910024D01*
X7337517Y-16910024D02*
X7356565Y-16919548D01*
X7356565Y-16919548D02*
X7366089Y-16929072D01*
X7366089Y-16929072D02*
X7375612Y-16948120D01*
X7375612Y-16948120D02*
X7375612Y-16995739D01*
X7375612Y-16995739D02*
X7366089Y-17014786D01*
X7366089Y-17014786D02*
X7356565Y-17024310D01*
X7356565Y-17024310D02*
X7337517Y-17033834D01*
X7337517Y-17033834D02*
X7289898Y-17033834D01*
X7289898Y-17033834D02*
X7270851Y-17024310D01*
X7270851Y-17024310D02*
X7261327Y-17014786D01*
X7461327Y-17033834D02*
X7461327Y-16900500D01*
X7461327Y-16919548D02*
X7470851Y-16910024D01*
X7470851Y-16910024D02*
X7489898Y-16900500D01*
X7489898Y-16900500D02*
X7518470Y-16900500D01*
X7518470Y-16900500D02*
X7537517Y-16910024D01*
X7537517Y-16910024D02*
X7547041Y-16929072D01*
X7547041Y-16929072D02*
X7547041Y-17033834D01*
X7547041Y-16929072D02*
X7556565Y-16910024D01*
X7556565Y-16910024D02*
X7575612Y-16900500D01*
X7575612Y-16900500D02*
X7604184Y-16900500D01*
X7604184Y-16900500D02*
X7623232Y-16910024D01*
X7623232Y-16910024D02*
X7632755Y-16929072D01*
X7632755Y-16929072D02*
X7632755Y-17033834D01*
X7727993Y-17033834D02*
X7727993Y-16900500D01*
X7727993Y-16919548D02*
X7737517Y-16910024D01*
X7737517Y-16910024D02*
X7756565Y-16900500D01*
X7756565Y-16900500D02*
X7785136Y-16900500D01*
X7785136Y-16900500D02*
X7804184Y-16910024D01*
X7804184Y-16910024D02*
X7813708Y-16929072D01*
X7813708Y-16929072D02*
X7813708Y-17033834D01*
X7813708Y-16929072D02*
X7823232Y-16910024D01*
X7823232Y-16910024D02*
X7842279Y-16900500D01*
X7842279Y-16900500D02*
X7870851Y-16900500D01*
X7870851Y-16900500D02*
X7889898Y-16910024D01*
X7889898Y-16910024D02*
X7899422Y-16929072D01*
X7899422Y-16929072D02*
X7899422Y-17033834D01*
X8289898Y-16824310D02*
X8118470Y-17081453D01*
X8547041Y-16833834D02*
X8566089Y-16833834D01*
X8566089Y-16833834D02*
X8585137Y-16843358D01*
X8585137Y-16843358D02*
X8594660Y-16852881D01*
X8594660Y-16852881D02*
X8604184Y-16871929D01*
X8604184Y-16871929D02*
X8613708Y-16910024D01*
X8613708Y-16910024D02*
X8613708Y-16957643D01*
X8613708Y-16957643D02*
X8604184Y-16995739D01*
X8604184Y-16995739D02*
X8594660Y-17014786D01*
X8594660Y-17014786D02*
X8585137Y-17024310D01*
X8585137Y-17024310D02*
X8566089Y-17033834D01*
X8566089Y-17033834D02*
X8547041Y-17033834D01*
X8547041Y-17033834D02*
X8527994Y-17024310D01*
X8527994Y-17024310D02*
X8518470Y-17014786D01*
X8518470Y-17014786D02*
X8508946Y-16995739D01*
X8508946Y-16995739D02*
X8499422Y-16957643D01*
X8499422Y-16957643D02*
X8499422Y-16910024D01*
X8499422Y-16910024D02*
X8508946Y-16871929D01*
X8508946Y-16871929D02*
X8518470Y-16852881D01*
X8518470Y-16852881D02*
X8527994Y-16843358D01*
X8527994Y-16843358D02*
X8547041Y-16833834D01*
X8699422Y-17014786D02*
X8708946Y-17024310D01*
X8708946Y-17024310D02*
X8699422Y-17033834D01*
X8699422Y-17033834D02*
X8689898Y-17024310D01*
X8689898Y-17024310D02*
X8699422Y-17014786D01*
X8699422Y-17014786D02*
X8699422Y-17033834D01*
X8899422Y-17033834D02*
X8785137Y-17033834D01*
X8842279Y-17033834D02*
X8842279Y-16833834D01*
X8842279Y-16833834D02*
X8823232Y-16862405D01*
X8823232Y-16862405D02*
X8804184Y-16881453D01*
X8804184Y-16881453D02*
X8785137Y-16890977D01*
X8975613Y-16852881D02*
X8985137Y-16843358D01*
X8985137Y-16843358D02*
X9004184Y-16833834D01*
X9004184Y-16833834D02*
X9051803Y-16833834D01*
X9051803Y-16833834D02*
X9070851Y-16843358D01*
X9070851Y-16843358D02*
X9080375Y-16852881D01*
X9080375Y-16852881D02*
X9089898Y-16871929D01*
X9089898Y-16871929D02*
X9089898Y-16890977D01*
X9089898Y-16890977D02*
X9080375Y-16919548D01*
X9080375Y-16919548D02*
X8966089Y-17033834D01*
X8966089Y-17033834D02*
X9089898Y-17033834D01*
X9270851Y-16833834D02*
X9175613Y-16833834D01*
X9175613Y-16833834D02*
X9166089Y-16929072D01*
X9166089Y-16929072D02*
X9175613Y-16919548D01*
X9175613Y-16919548D02*
X9194660Y-16910024D01*
X9194660Y-16910024D02*
X9242279Y-16910024D01*
X9242279Y-16910024D02*
X9261327Y-16919548D01*
X9261327Y-16919548D02*
X9270851Y-16929072D01*
X9270851Y-16929072D02*
X9280375Y-16948120D01*
X9280375Y-16948120D02*
X9280375Y-16995739D01*
X9280375Y-16995739D02*
X9270851Y-17014786D01*
X9270851Y-17014786D02*
X9261327Y-17024310D01*
X9261327Y-17024310D02*
X9242279Y-17033834D01*
X9242279Y-17033834D02*
X9194660Y-17033834D01*
X9194660Y-17033834D02*
X9175613Y-17024310D01*
X9175613Y-17024310D02*
X9166089Y-17014786D01*
X9404184Y-16833834D02*
X9423232Y-16833834D01*
X9423232Y-16833834D02*
X9442279Y-16843358D01*
X9442279Y-16843358D02*
X9451803Y-16852881D01*
X9451803Y-16852881D02*
X9461327Y-16871929D01*
X9461327Y-16871929D02*
X9470851Y-16910024D01*
X9470851Y-16910024D02*
X9470851Y-16957643D01*
X9470851Y-16957643D02*
X9461327Y-16995739D01*
X9461327Y-16995739D02*
X9451803Y-17014786D01*
X9451803Y-17014786D02*
X9442279Y-17024310D01*
X9442279Y-17024310D02*
X9423232Y-17033834D01*
X9423232Y-17033834D02*
X9404184Y-17033834D01*
X9404184Y-17033834D02*
X9385137Y-17024310D01*
X9385137Y-17024310D02*
X9375613Y-17014786D01*
X9375613Y-17014786D02*
X9366089Y-16995739D01*
X9366089Y-16995739D02*
X9356565Y-16957643D01*
X9356565Y-16957643D02*
X9356565Y-16910024D01*
X9356565Y-16910024D02*
X9366089Y-16871929D01*
X9366089Y-16871929D02*
X9375613Y-16852881D01*
X9375613Y-16852881D02*
X9385137Y-16843358D01*
X9385137Y-16843358D02*
X9404184Y-16833834D01*
X9547041Y-16833834D02*
X9547041Y-16871929D01*
X9623232Y-16833834D02*
X9623232Y-16871929D01*
X9918470Y-17110024D02*
X9908946Y-17100500D01*
X9908946Y-17100500D02*
X9889899Y-17071929D01*
X9889899Y-17071929D02*
X9880375Y-17052881D01*
X9880375Y-17052881D02*
X9870851Y-17024310D01*
X9870851Y-17024310D02*
X9861327Y-16976691D01*
X9861327Y-16976691D02*
X9861327Y-16938596D01*
X9861327Y-16938596D02*
X9870851Y-16890977D01*
X9870851Y-16890977D02*
X9880375Y-16862405D01*
X9880375Y-16862405D02*
X9889899Y-16843358D01*
X9889899Y-16843358D02*
X9908946Y-16814786D01*
X9908946Y-16814786D02*
X9918470Y-16805262D01*
X10080375Y-16900500D02*
X10080375Y-17033834D01*
X10032756Y-16824310D02*
X9985137Y-16967167D01*
X9985137Y-16967167D02*
X10108946Y-16967167D01*
X10337518Y-17033834D02*
X10337518Y-16833834D01*
X10423232Y-17033834D02*
X10423232Y-16929072D01*
X10423232Y-16929072D02*
X10413708Y-16910024D01*
X10413708Y-16910024D02*
X10394661Y-16900500D01*
X10394661Y-16900500D02*
X10366089Y-16900500D01*
X10366089Y-16900500D02*
X10347041Y-16910024D01*
X10347041Y-16910024D02*
X10337518Y-16919548D01*
X10547041Y-17033834D02*
X10527994Y-17024310D01*
X10527994Y-17024310D02*
X10518470Y-17014786D01*
X10518470Y-17014786D02*
X10508946Y-16995739D01*
X10508946Y-16995739D02*
X10508946Y-16938596D01*
X10508946Y-16938596D02*
X10518470Y-16919548D01*
X10518470Y-16919548D02*
X10527994Y-16910024D01*
X10527994Y-16910024D02*
X10547041Y-16900500D01*
X10547041Y-16900500D02*
X10575613Y-16900500D01*
X10575613Y-16900500D02*
X10594661Y-16910024D01*
X10594661Y-16910024D02*
X10604184Y-16919548D01*
X10604184Y-16919548D02*
X10613708Y-16938596D01*
X10613708Y-16938596D02*
X10613708Y-16995739D01*
X10613708Y-16995739D02*
X10604184Y-17014786D01*
X10604184Y-17014786D02*
X10594661Y-17024310D01*
X10594661Y-17024310D02*
X10575613Y-17033834D01*
X10575613Y-17033834D02*
X10547041Y-17033834D01*
X10727994Y-17033834D02*
X10708946Y-17024310D01*
X10708946Y-17024310D02*
X10699422Y-17005262D01*
X10699422Y-17005262D02*
X10699422Y-16833834D01*
X10880375Y-17024310D02*
X10861327Y-17033834D01*
X10861327Y-17033834D02*
X10823232Y-17033834D01*
X10823232Y-17033834D02*
X10804184Y-17024310D01*
X10804184Y-17024310D02*
X10794661Y-17005262D01*
X10794661Y-17005262D02*
X10794661Y-16929072D01*
X10794661Y-16929072D02*
X10804184Y-16910024D01*
X10804184Y-16910024D02*
X10823232Y-16900500D01*
X10823232Y-16900500D02*
X10861327Y-16900500D01*
X10861327Y-16900500D02*
X10880375Y-16910024D01*
X10880375Y-16910024D02*
X10889899Y-16929072D01*
X10889899Y-16929072D02*
X10889899Y-16948120D01*
X10889899Y-16948120D02*
X10794661Y-16967167D01*
X10966089Y-17024310D02*
X10985137Y-17033834D01*
X10985137Y-17033834D02*
X11023232Y-17033834D01*
X11023232Y-17033834D02*
X11042280Y-17024310D01*
X11042280Y-17024310D02*
X11051803Y-17005262D01*
X11051803Y-17005262D02*
X11051803Y-16995739D01*
X11051803Y-16995739D02*
X11042280Y-16976691D01*
X11042280Y-16976691D02*
X11023232Y-16967167D01*
X11023232Y-16967167D02*
X10994661Y-16967167D01*
X10994661Y-16967167D02*
X10975613Y-16957643D01*
X10975613Y-16957643D02*
X10966089Y-16938596D01*
X10966089Y-16938596D02*
X10966089Y-16929072D01*
X10966089Y-16929072D02*
X10975613Y-16910024D01*
X10975613Y-16910024D02*
X10994661Y-16900500D01*
X10994661Y-16900500D02*
X11023232Y-16900500D01*
X11023232Y-16900500D02*
X11042280Y-16910024D01*
X11118470Y-17110024D02*
X11127994Y-17100500D01*
X11127994Y-17100500D02*
X11147042Y-17071929D01*
X11147042Y-17071929D02*
X11156565Y-17052881D01*
X11156565Y-17052881D02*
X11166089Y-17024310D01*
X11166089Y-17024310D02*
X11175613Y-16976691D01*
X11175613Y-16976691D02*
X11175613Y-16938596D01*
X11175613Y-16938596D02*
X11166089Y-16890977D01*
X11166089Y-16890977D02*
X11156565Y-16862405D01*
X11156565Y-16862405D02*
X11147042Y-16843358D01*
X11147042Y-16843358D02*
X11127994Y-16814786D01*
X11127994Y-16814786D02*
X11118470Y-16805262D01*
M02*
