%TF.GenerationSoftware,KiCad,Pcbnew,7.0.5*%
%TF.CreationDate,2023-06-28T17:59:47-04:00*%
%TF.ProjectId,magnetotorqer-drive-board,6d61676e-6574-46f7-946f-727165722d64,A*%
%TF.SameCoordinates,Original*%
%TF.FileFunction,Drillmap*%
%TF.FilePolarity,Positive*%
%FSLAX45Y45*%
G04 Gerber Fmt 4.5, Leading zero omitted, Abs format (unit mm)*
G04 Created by KiCad (PCBNEW 7.0.5) date 2023-06-28 17:59:47*
%MOMM*%
%LPD*%
G01*
G04 APERTURE LIST*
%ADD10C,0.127000*%
%ADD11C,0.200000*%
G04 APERTURE END LIST*
D10*
X14551660Y-5125717D02*
G75*
G03*
X14488160Y-5186680I0J-63553D01*
G01*
X15367000Y-5786120D02*
G75*
G03*
X15255240Y-5674360I-111770J-10D01*
G01*
X6461760Y-15240000D02*
X9837420Y-15240000D01*
X11988800Y-15067280D02*
G75*
G03*
X11869420Y-14947900I-119390J-10D01*
G01*
X13609320Y-6002030D02*
G75*
G03*
X13670280Y-5943600I1270J59690D01*
G01*
X10896600Y-5880100D02*
X10896600Y-5344160D01*
X6426200Y-9431020D02*
X6464300Y-9431020D01*
X13865859Y-5184140D02*
G75*
G03*
X13929360Y-5245100I61011J0D01*
G01*
X15367000Y-9354820D02*
X15367000Y-5786120D01*
X6459220Y-5674360D02*
G75*
G03*
X6350000Y-5786120I1270J-110490D01*
G01*
X15176500Y-11384280D02*
X15176500Y-9507220D01*
X6426200Y-11460480D02*
X6464300Y-11460480D01*
X15252700Y-11460480D02*
X15290800Y-11460480D01*
X6350000Y-9354820D02*
X6350000Y-5786120D01*
X15252700Y-9431020D02*
X15290800Y-9431020D01*
X11137900Y-5344160D02*
X13468350Y-5344160D01*
X14856460Y-5674360D02*
X15255240Y-5674360D01*
X6350000Y-15113000D02*
G75*
G03*
X6461760Y-15240000I119380J-7620D01*
G01*
X6967220Y-5125720D02*
X8049260Y-5125720D01*
X8049260Y-5938520D02*
X8049260Y-5125720D01*
X8249920Y-5875020D02*
X8249920Y-5344160D01*
X8049252Y-5938519D02*
G75*
G03*
X8105140Y-6002020I59678J-3821D01*
G01*
X13468350Y-5880100D02*
G75*
G03*
X13589000Y-6002020I121270J-650D01*
G01*
X11988800Y-15120620D02*
X11988800Y-15067280D01*
X8128000Y-6002020D02*
G75*
G03*
X8249920Y-5875020I-2540J124460D01*
G01*
X14551660Y-5125720D02*
X14752320Y-5125720D01*
X10896600Y-5880100D02*
G75*
G03*
X11137900Y-5880100I120650J0D01*
G01*
X15367000Y-15113000D02*
X15367000Y-11536680D01*
X6350000Y-9354820D02*
G75*
G03*
X6426200Y-9431020I76200J0D01*
G01*
X14808200Y-5626100D02*
X14808200Y-5181600D01*
X9837420Y-15240000D02*
G75*
G03*
X9956800Y-15120620I0J119380D01*
G01*
X15176500Y-11384280D02*
G75*
G03*
X15252700Y-11460480I76190J-10D01*
G01*
X6540500Y-11384280D02*
X6540500Y-9507220D01*
X6858000Y-5674360D02*
G75*
G03*
X6908800Y-5628640I2540J48260D01*
G01*
X8249920Y-5344160D02*
X10896600Y-5344160D01*
X6908800Y-5628640D02*
X6908800Y-5184140D01*
X13670280Y-5125720D02*
X13804900Y-5125720D01*
X12108180Y-15240000D02*
X15247620Y-15240000D01*
X15367000Y-11536680D02*
G75*
G03*
X15290800Y-11460480I-76210J-10D01*
G01*
X11988800Y-15120620D02*
G75*
G03*
X12108180Y-15240000I119370J-10D01*
G01*
X13670280Y-5943600D02*
X13670280Y-5125720D01*
X6426200Y-11460480D02*
G75*
G03*
X6350000Y-11536680I0J-76200D01*
G01*
X11137900Y-5880100D02*
X11137900Y-5344160D01*
X6459220Y-5674360D02*
X6858000Y-5674360D01*
X13468350Y-5880100D02*
X13468350Y-5344160D01*
X6464300Y-11460480D02*
G75*
G03*
X6540500Y-11384280I0J76200D01*
G01*
X9956800Y-15120620D02*
X9956800Y-15067280D01*
X10076180Y-14947900D02*
X11869420Y-14947900D01*
X6967220Y-5125720D02*
G75*
G03*
X6908800Y-5184140I0J-58420D01*
G01*
X14808200Y-5181600D02*
G75*
G03*
X14752320Y-5125720I-55890J-10D01*
G01*
X13865859Y-5184140D02*
G75*
G03*
X13804900Y-5125720I-59700J-1280D01*
G01*
X10076180Y-14947900D02*
G75*
G03*
X9956800Y-15067280I0J-119380D01*
G01*
X13929360Y-5245100D02*
X14427200Y-5245100D01*
X13589000Y-6002020D02*
X13609320Y-6002020D01*
X6350000Y-15113000D02*
X6350000Y-11536680D01*
X15290800Y-9431020D02*
G75*
G03*
X15367000Y-9354820I0J76200D01*
G01*
X14808200Y-5626100D02*
G75*
G03*
X14856460Y-5674360I48250J-10D01*
G01*
X6540500Y-9507220D02*
G75*
G03*
X6464300Y-9431020I-76200J0D01*
G01*
X14427200Y-5245100D02*
G75*
G03*
X14488160Y-5186680I1270J59690D01*
G01*
X8105140Y-6002020D02*
X8128000Y-6002020D01*
X15247620Y-15240010D02*
G75*
G03*
X15367000Y-15113000I-3820J123200D01*
G01*
X15252700Y-9431020D02*
G75*
G03*
X15176500Y-9507220I0J-76200D01*
G01*
D11*
X6604184Y-15557834D02*
X6604184Y-15357834D01*
X6604184Y-15357834D02*
X6651803Y-15357834D01*
X6651803Y-15357834D02*
X6680374Y-15367358D01*
X6680374Y-15367358D02*
X6699422Y-15386405D01*
X6699422Y-15386405D02*
X6708946Y-15405453D01*
X6708946Y-15405453D02*
X6718470Y-15443548D01*
X6718470Y-15443548D02*
X6718470Y-15472119D01*
X6718470Y-15472119D02*
X6708946Y-15510215D01*
X6708946Y-15510215D02*
X6699422Y-15529262D01*
X6699422Y-15529262D02*
X6680374Y-15548310D01*
X6680374Y-15548310D02*
X6651803Y-15557834D01*
X6651803Y-15557834D02*
X6604184Y-15557834D01*
X6804184Y-15557834D02*
X6804184Y-15424500D01*
X6804184Y-15462596D02*
X6813708Y-15443548D01*
X6813708Y-15443548D02*
X6823231Y-15434024D01*
X6823231Y-15434024D02*
X6842279Y-15424500D01*
X6842279Y-15424500D02*
X6861327Y-15424500D01*
X6927993Y-15557834D02*
X6927993Y-15424500D01*
X6927993Y-15357834D02*
X6918470Y-15367358D01*
X6918470Y-15367358D02*
X6927993Y-15376881D01*
X6927993Y-15376881D02*
X6937517Y-15367358D01*
X6937517Y-15367358D02*
X6927993Y-15357834D01*
X6927993Y-15357834D02*
X6927993Y-15376881D01*
X7051803Y-15557834D02*
X7032755Y-15548310D01*
X7032755Y-15548310D02*
X7023231Y-15529262D01*
X7023231Y-15529262D02*
X7023231Y-15357834D01*
X7156565Y-15557834D02*
X7137517Y-15548310D01*
X7137517Y-15548310D02*
X7127993Y-15529262D01*
X7127993Y-15529262D02*
X7127993Y-15357834D01*
X7385136Y-15557834D02*
X7385136Y-15357834D01*
X7385136Y-15357834D02*
X7451803Y-15500691D01*
X7451803Y-15500691D02*
X7518470Y-15357834D01*
X7518470Y-15357834D02*
X7518470Y-15557834D01*
X7699422Y-15557834D02*
X7699422Y-15453072D01*
X7699422Y-15453072D02*
X7689898Y-15434024D01*
X7689898Y-15434024D02*
X7670851Y-15424500D01*
X7670851Y-15424500D02*
X7632755Y-15424500D01*
X7632755Y-15424500D02*
X7613708Y-15434024D01*
X7699422Y-15548310D02*
X7680374Y-15557834D01*
X7680374Y-15557834D02*
X7632755Y-15557834D01*
X7632755Y-15557834D02*
X7613708Y-15548310D01*
X7613708Y-15548310D02*
X7604184Y-15529262D01*
X7604184Y-15529262D02*
X7604184Y-15510215D01*
X7604184Y-15510215D02*
X7613708Y-15491167D01*
X7613708Y-15491167D02*
X7632755Y-15481643D01*
X7632755Y-15481643D02*
X7680374Y-15481643D01*
X7680374Y-15481643D02*
X7699422Y-15472119D01*
X7794660Y-15424500D02*
X7794660Y-15624500D01*
X7794660Y-15434024D02*
X7813708Y-15424500D01*
X7813708Y-15424500D02*
X7851803Y-15424500D01*
X7851803Y-15424500D02*
X7870851Y-15434024D01*
X7870851Y-15434024D02*
X7880374Y-15443548D01*
X7880374Y-15443548D02*
X7889898Y-15462596D01*
X7889898Y-15462596D02*
X7889898Y-15519738D01*
X7889898Y-15519738D02*
X7880374Y-15538786D01*
X7880374Y-15538786D02*
X7870851Y-15548310D01*
X7870851Y-15548310D02*
X7851803Y-15557834D01*
X7851803Y-15557834D02*
X7813708Y-15557834D01*
X7813708Y-15557834D02*
X7794660Y-15548310D01*
X7975612Y-15538786D02*
X7985136Y-15548310D01*
X7985136Y-15548310D02*
X7975612Y-15557834D01*
X7975612Y-15557834D02*
X7966089Y-15548310D01*
X7966089Y-15548310D02*
X7975612Y-15538786D01*
X7975612Y-15538786D02*
X7975612Y-15557834D01*
X7975612Y-15434024D02*
X7985136Y-15443548D01*
X7985136Y-15443548D02*
X7975612Y-15453072D01*
X7975612Y-15453072D02*
X7966089Y-15443548D01*
X7966089Y-15443548D02*
X7975612Y-15434024D01*
X7975612Y-15434024D02*
X7975612Y-15453072D01*
M02*
