%TF.GenerationSoftware,KiCad,Pcbnew,7.0.5*%
%TF.CreationDate,2023-06-28T17:56:54-04:00*%
%TF.ProjectId,magnetotorqer-drive-board,6d61676e-6574-46f7-946f-727165722d64,A*%
%TF.SameCoordinates,Original*%
%TF.FileFunction,Paste,Top*%
%TF.FilePolarity,Positive*%
%FSLAX46Y46*%
G04 Gerber Fmt 4.6, Leading zero omitted, Abs format (unit mm)*
G04 Created by KiCad (PCBNEW 7.0.5) date 2023-06-28 17:56:54*
%MOMM*%
%LPD*%
G01*
G04 APERTURE LIST*
G04 Aperture macros list*
%AMRoundRect*
0 Rectangle with rounded corners*
0 $1 Rounding radius*
0 $2 $3 $4 $5 $6 $7 $8 $9 X,Y pos of 4 corners*
0 Add a 4 corners polygon primitive as box body*
4,1,4,$2,$3,$4,$5,$6,$7,$8,$9,$2,$3,0*
0 Add four circle primitives for the rounded corners*
1,1,$1+$1,$2,$3*
1,1,$1+$1,$4,$5*
1,1,$1+$1,$6,$7*
1,1,$1+$1,$8,$9*
0 Add four rect primitives between the rounded corners*
20,1,$1+$1,$2,$3,$4,$5,0*
20,1,$1+$1,$4,$5,$6,$7,0*
20,1,$1+$1,$6,$7,$8,$9,0*
20,1,$1+$1,$8,$9,$2,$3,0*%
%AMFreePoly0*
4,1,9,3.862500,-0.866500,0.737500,-0.866500,0.737500,-0.450000,-0.737500,-0.450000,-0.737500,0.450000,0.737500,0.450000,0.737500,0.866500,3.862500,0.866500,3.862500,-0.866500,3.862500,-0.866500,$1*%
G04 Aperture macros list end*
%ADD10RoundRect,0.200000X0.275000X-0.200000X0.275000X0.200000X-0.275000X0.200000X-0.275000X-0.200000X0*%
%ADD11R,2.790000X1.903000*%
%ADD12RoundRect,0.200000X-0.200000X-0.275000X0.200000X-0.275000X0.200000X0.275000X-0.200000X0.275000X0*%
%ADD13RoundRect,0.200000X-0.275000X0.200000X-0.275000X-0.200000X0.275000X-0.200000X0.275000X0.200000X0*%
%ADD14RoundRect,0.225000X-0.250000X0.225000X-0.250000X-0.225000X0.250000X-0.225000X0.250000X0.225000X0*%
%ADD15R,1.550000X0.600000*%
%ADD16R,1.800000X0.800000*%
%ADD17RoundRect,0.225000X-0.225000X-0.250000X0.225000X-0.250000X0.225000X0.250000X-0.225000X0.250000X0*%
%ADD18RoundRect,0.250000X-0.262500X-0.450000X0.262500X-0.450000X0.262500X0.450000X-0.262500X0.450000X0*%
%ADD19R,2.400000X0.740000*%
%ADD20RoundRect,0.225000X0.250000X-0.225000X0.250000X0.225000X-0.250000X0.225000X-0.250000X-0.225000X0*%
%ADD21R,0.850000X1.600000*%
%ADD22RoundRect,0.200000X0.200000X0.275000X-0.200000X0.275000X-0.200000X-0.275000X0.200000X-0.275000X0*%
%ADD23RoundRect,0.225000X0.225000X0.250000X-0.225000X0.250000X-0.225000X-0.250000X0.225000X-0.250000X0*%
%ADD24RoundRect,0.250000X0.325000X0.650000X-0.325000X0.650000X-0.325000X-0.650000X0.325000X-0.650000X0*%
%ADD25RoundRect,0.150000X0.512500X0.150000X-0.512500X0.150000X-0.512500X-0.150000X0.512500X-0.150000X0*%
%ADD26R,0.340000X0.969500*%
%ADD27R,2.510000X1.000000*%
%ADD28R,0.300000X1.400000*%
%ADD29RoundRect,0.225000X-0.375000X0.225000X-0.375000X-0.225000X0.375000X-0.225000X0.375000X0.225000X0*%
%ADD30RoundRect,0.317500X-0.317500X1.587500X-0.317500X-1.587500X0.317500X-1.587500X0.317500X1.587500X0*%
%ADD31RoundRect,0.135000X0.185000X-0.135000X0.185000X0.135000X-0.185000X0.135000X-0.185000X-0.135000X0*%
%ADD32R,0.650000X0.400000*%
%ADD33RoundRect,0.250000X-0.250000X-0.475000X0.250000X-0.475000X0.250000X0.475000X-0.250000X0.475000X0*%
%ADD34R,0.700000X0.450000*%
%ADD35RoundRect,0.317500X-1.587500X-0.317500X1.587500X-0.317500X1.587500X0.317500X-1.587500X0.317500X0*%
%ADD36R,0.400000X0.650000*%
%ADD37RoundRect,0.225000X-0.225000X-0.375000X0.225000X-0.375000X0.225000X0.375000X-0.225000X0.375000X0*%
%ADD38R,1.800000X1.000000*%
%ADD39R,0.650000X0.750000*%
%ADD40R,0.250000X0.500000*%
%ADD41R,0.370000X1.000000*%
%ADD42RoundRect,0.250000X0.475000X-0.250000X0.475000X0.250000X-0.475000X0.250000X-0.475000X-0.250000X0*%
%ADD43RoundRect,0.250000X1.025000X-0.787500X1.025000X0.787500X-1.025000X0.787500X-1.025000X-0.787500X0*%
%ADD44R,0.800000X0.800000*%
%ADD45R,1.100000X0.500000*%
%ADD46RoundRect,0.150000X-0.587500X-0.150000X0.587500X-0.150000X0.587500X0.150000X-0.587500X0.150000X0*%
%ADD47R,3.150000X1.000000*%
%ADD48RoundRect,0.167500X-0.167500X-0.407500X0.167500X-0.407500X0.167500X0.407500X-0.167500X0.407500X0*%
%ADD49RoundRect,0.100000X-0.625000X-0.100000X0.625000X-0.100000X0.625000X0.100000X-0.625000X0.100000X0*%
%ADD50R,0.900000X1.300000*%
%ADD51FreePoly0,90.000000*%
%ADD52RoundRect,0.147500X0.147500X0.172500X-0.147500X0.172500X-0.147500X-0.172500X0.147500X-0.172500X0*%
%ADD53RoundRect,0.147500X-0.147500X-0.172500X0.147500X-0.172500X0.147500X0.172500X-0.147500X0.172500X0*%
%ADD54RoundRect,0.135000X-0.135000X-0.185000X0.135000X-0.185000X0.135000X0.185000X-0.135000X0.185000X0*%
%ADD55RoundRect,0.150000X0.150000X-0.725000X0.150000X0.725000X-0.150000X0.725000X-0.150000X-0.725000X0*%
%ADD56RoundRect,0.250000X-0.375000X-1.075000X0.375000X-1.075000X0.375000X1.075000X-0.375000X1.075000X0*%
%ADD57RoundRect,0.150000X0.150000X-0.587500X0.150000X0.587500X-0.150000X0.587500X-0.150000X-0.587500X0*%
%ADD58RoundRect,0.317500X1.587500X0.317500X-1.587500X0.317500X-1.587500X-0.317500X1.587500X-0.317500X0*%
%ADD59R,0.900000X0.900000*%
%ADD60RoundRect,0.250000X0.250000X0.475000X-0.250000X0.475000X-0.250000X-0.475000X0.250000X-0.475000X0*%
%ADD61RoundRect,0.075000X-0.662500X-0.075000X0.662500X-0.075000X0.662500X0.075000X-0.662500X0.075000X0*%
%ADD62RoundRect,0.075000X-0.075000X-0.662500X0.075000X-0.662500X0.075000X0.662500X-0.075000X0.662500X0*%
G04 APERTURE END LIST*
%TO.C,Q4*%
G36*
X129415000Y-68283500D02*
G01*
X129075000Y-68283500D01*
X129075000Y-67542600D01*
X129413000Y-67542600D01*
X129415000Y-68283500D01*
G37*
G36*
X129415000Y-65189000D02*
G01*
X129075000Y-65189000D01*
X129075000Y-64219500D01*
X129413000Y-64219500D01*
X129415000Y-65189000D01*
G37*
G36*
X129032000Y-67267500D02*
G01*
X127508000Y-67267500D01*
X127508000Y-66759500D01*
X129032000Y-66759500D01*
X129032000Y-67267500D01*
G37*
G36*
X129032000Y-66505500D02*
G01*
X127508000Y-66505500D01*
X127508000Y-65997500D01*
X129032000Y-65997500D01*
X129032000Y-66505500D01*
G37*
G36*
X128767000Y-65189000D02*
G01*
X128427000Y-65189000D01*
X128427000Y-64219500D01*
X128765000Y-64219500D01*
X128767000Y-65189000D01*
G37*
G36*
X128765000Y-68283500D02*
G01*
X128425000Y-68283500D01*
X128425000Y-67542600D01*
X128763000Y-67542600D01*
X128765000Y-68283500D01*
G37*
G36*
X128117000Y-65189000D02*
G01*
X127777000Y-65189000D01*
X127777000Y-64219500D01*
X128115000Y-64219500D01*
X128117000Y-65189000D01*
G37*
G36*
X128115000Y-68283500D02*
G01*
X127775000Y-68283500D01*
X127775000Y-67542600D01*
X128113000Y-67542600D01*
X128115000Y-68283500D01*
G37*
G36*
X127465000Y-68283500D02*
G01*
X127125000Y-68283500D01*
X127125000Y-67542600D01*
X127463000Y-67542600D01*
X127465000Y-68283500D01*
G37*
%TO.C,Q3*%
G36*
X124565000Y-68283500D02*
G01*
X124225000Y-68283500D01*
X124225000Y-67542600D01*
X124563000Y-67542600D01*
X124565000Y-68283500D01*
G37*
G36*
X124565000Y-65189000D02*
G01*
X124225000Y-65189000D01*
X124225000Y-64219500D01*
X124563000Y-64219500D01*
X124565000Y-65189000D01*
G37*
G36*
X124182000Y-67267500D02*
G01*
X122658000Y-67267500D01*
X122658000Y-66759500D01*
X124182000Y-66759500D01*
X124182000Y-67267500D01*
G37*
G36*
X124182000Y-66505500D02*
G01*
X122658000Y-66505500D01*
X122658000Y-65997500D01*
X124182000Y-65997500D01*
X124182000Y-66505500D01*
G37*
G36*
X123917000Y-65189000D02*
G01*
X123577000Y-65189000D01*
X123577000Y-64219500D01*
X123915000Y-64219500D01*
X123917000Y-65189000D01*
G37*
G36*
X123915000Y-68283500D02*
G01*
X123575000Y-68283500D01*
X123575000Y-67542600D01*
X123913000Y-67542600D01*
X123915000Y-68283500D01*
G37*
G36*
X123267000Y-65189000D02*
G01*
X122927000Y-65189000D01*
X122927000Y-64219500D01*
X123265000Y-64219500D01*
X123267000Y-65189000D01*
G37*
G36*
X123265000Y-68283500D02*
G01*
X122925000Y-68283500D01*
X122925000Y-67542600D01*
X123263000Y-67542600D01*
X123265000Y-68283500D01*
G37*
G36*
X122615000Y-68283500D02*
G01*
X122275000Y-68283500D01*
X122275000Y-67542600D01*
X122613000Y-67542600D01*
X122615000Y-68283500D01*
G37*
%TD*%
D10*
%TO.C,R80*%
X143764000Y-83502000D03*
X143764000Y-81852000D03*
%TD*%
D11*
%TO.C,L3*%
X130810000Y-104026500D03*
X130810000Y-99173500D03*
%TD*%
D12*
%TO.C,R32*%
X104458000Y-100457000D03*
X106108000Y-100457000D03*
%TD*%
D13*
%TO.C,R11*%
X136144000Y-112713000D03*
X136144000Y-114363000D03*
%TD*%
D12*
%TO.C,R55*%
X119825000Y-96520000D03*
X121475000Y-96520000D03*
%TD*%
D14*
%TO.C,C21*%
X71882000Y-122923000D03*
X71882000Y-124473000D03*
%TD*%
D15*
%TO.C,J1*%
X145528000Y-101338000D03*
X145528000Y-100338000D03*
D16*
X149353000Y-102638000D03*
X149353000Y-99038000D03*
%TD*%
D13*
%TO.C,R12*%
X137922000Y-112713000D03*
X137922000Y-114363000D03*
%TD*%
D12*
%TO.C,R41*%
X108903000Y-116586000D03*
X110553000Y-116586000D03*
%TD*%
D17*
%TO.C,C81*%
X120129000Y-135636000D03*
X121679000Y-135636000D03*
%TD*%
%TO.C,C8*%
X139433000Y-64262000D03*
X140983000Y-64262000D03*
%TD*%
D12*
%TO.C,R97*%
X109157000Y-133858000D03*
X110807000Y-133858000D03*
%TD*%
D18*
%TO.C,R10*%
X136755500Y-120904000D03*
X138580500Y-120904000D03*
%TD*%
D19*
%TO.C,P3*%
X76536000Y-133096000D03*
X80436000Y-133096000D03*
X76536000Y-134366000D03*
X80436000Y-134366000D03*
X76536000Y-135636000D03*
X80436000Y-135636000D03*
X76536000Y-136906000D03*
X80436000Y-136906000D03*
X76536000Y-138176000D03*
X80436000Y-138176000D03*
%TD*%
D20*
%TO.C,C27*%
X83820000Y-127521000D03*
X83820000Y-125971000D03*
%TD*%
D12*
%TO.C,R3*%
X94679000Y-68580000D03*
X96329000Y-68580000D03*
%TD*%
D13*
%TO.C,R72*%
X139954000Y-131509000D03*
X139954000Y-133159000D03*
%TD*%
D21*
%TO.C,D3*%
X74817000Y-126718000D03*
X76567000Y-126718000D03*
X76567000Y-123218000D03*
X74817000Y-123218000D03*
%TD*%
D12*
%TO.C,R64*%
X108903000Y-108712000D03*
X110553000Y-108712000D03*
%TD*%
D10*
%TO.C,R7*%
X142240000Y-132905000D03*
X142240000Y-131255000D03*
%TD*%
D13*
%TO.C,R51*%
X117475000Y-103442000D03*
X117475000Y-105092000D03*
%TD*%
D22*
%TO.C,R17*%
X76517000Y-129273000D03*
X74867000Y-129273000D03*
%TD*%
D23*
%TO.C,C12*%
X75959000Y-99314000D03*
X74409000Y-99314000D03*
%TD*%
D24*
%TO.C,C76*%
X126697000Y-135128000D03*
X123747000Y-135128000D03*
%TD*%
D14*
%TO.C,C61*%
X101092001Y-64248999D03*
X101092001Y-65798999D03*
%TD*%
D13*
%TO.C,R73*%
X103124001Y-64198999D03*
X103124001Y-65848999D03*
%TD*%
D15*
%TO.C,J3*%
X145528000Y-120134000D03*
X145528000Y-119134000D03*
D16*
X149353000Y-121434000D03*
X149353000Y-117834000D03*
%TD*%
D25*
%TO.C,U26*%
X115879500Y-135824000D03*
X115879500Y-134874000D03*
X115879500Y-133924000D03*
X113604500Y-133924000D03*
X113604500Y-134874000D03*
X113604500Y-135824000D03*
%TD*%
D26*
%TO.C,Q4*%
X127295000Y-64704250D03*
%TD*%
D22*
%TO.C,R2*%
X92011000Y-65531999D03*
X90361000Y-65531999D03*
%TD*%
D12*
%TO.C,R40*%
X119825000Y-115316000D03*
X121475000Y-115316000D03*
%TD*%
D13*
%TO.C,R36*%
X117856000Y-122873000D03*
X117856000Y-124523000D03*
%TD*%
D27*
%TO.C,P2*%
X89785000Y-136906000D03*
X93095000Y-134366000D03*
X89785000Y-131826000D03*
X93095000Y-129286000D03*
X89785000Y-126746000D03*
X93095000Y-124206000D03*
%TD*%
D28*
%TO.C,U13*%
X115488000Y-119720000D03*
X114988000Y-119720000D03*
X114488000Y-119720000D03*
X113988000Y-119720000D03*
X113488000Y-119720000D03*
X113488000Y-124120000D03*
X113988000Y-124120000D03*
X114488000Y-124120000D03*
X114988000Y-124120000D03*
X115488000Y-124120000D03*
%TD*%
D15*
%TO.C,J6*%
X145367000Y-132580000D03*
X145367000Y-131580000D03*
D16*
X149192000Y-133880000D03*
X149192000Y-130280000D03*
%TD*%
D29*
%TO.C,D5*%
X113284000Y-80392000D03*
X113284000Y-83692000D03*
%TD*%
D30*
%TO.C,TP4*%
X95885000Y-145872200D03*
%TD*%
D12*
%TO.C,R1*%
X97092000Y-109220000D03*
X98742000Y-109220000D03*
%TD*%
D10*
%TO.C,R67*%
X134366000Y-95567000D03*
X134366000Y-93917000D03*
%TD*%
D31*
%TO.C,R91*%
X76200000Y-58422000D03*
X76200000Y-57402000D03*
%TD*%
D14*
%TO.C,C26*%
X78486000Y-107937000D03*
X78486000Y-109487000D03*
%TD*%
D12*
%TO.C,R99*%
X109157000Y-135382000D03*
X110807000Y-135382000D03*
%TD*%
D10*
%TO.C,R18*%
X74930000Y-109537000D03*
X74930000Y-107887000D03*
%TD*%
D22*
%TO.C,R76*%
X102933001Y-72644001D03*
X101283001Y-72644001D03*
%TD*%
D13*
%TO.C,R68*%
X139700000Y-93917000D03*
X139700000Y-95567000D03*
%TD*%
D32*
%TO.C,U1*%
X90236000Y-67422000D03*
X90236000Y-68072000D03*
X90236000Y-68722000D03*
X92136000Y-68722000D03*
X92136000Y-67422000D03*
%TD*%
D12*
%TO.C,R61*%
X108903000Y-107188000D03*
X110553000Y-107188000D03*
%TD*%
%TO.C,R57*%
X108903000Y-99314000D03*
X110553000Y-99314000D03*
%TD*%
D24*
%TO.C,C45*%
X126443000Y-97536000D03*
X123493000Y-97536000D03*
%TD*%
D33*
%TO.C,C69*%
X139512000Y-84582000D03*
X141412000Y-84582000D03*
%TD*%
D12*
%TO.C,R101*%
X120079000Y-132588000D03*
X121729000Y-132588000D03*
%TD*%
D22*
%TO.C,R59*%
X110553000Y-100838000D03*
X108903000Y-100838000D03*
%TD*%
D34*
%TO.C,Q6*%
X107172000Y-71008000D03*
X107172000Y-69708000D03*
X105172000Y-70358000D03*
%TD*%
D12*
%TO.C,R63*%
X108903000Y-105664000D03*
X110553000Y-105664000D03*
%TD*%
D13*
%TO.C,R30*%
X84074000Y-132716000D03*
X84074000Y-134366000D03*
%TD*%
D12*
%TO.C,R106*%
X109157000Y-143256000D03*
X110807000Y-143256000D03*
%TD*%
D23*
%TO.C,C13*%
X75959000Y-101854000D03*
X74409000Y-101854000D03*
%TD*%
D10*
%TO.C,R28*%
X85598000Y-127571000D03*
X85598000Y-125921000D03*
%TD*%
D25*
%TO.C,U15*%
X115625500Y-98232000D03*
X115625500Y-97282000D03*
X115625500Y-96332000D03*
X113350500Y-96332000D03*
X113350500Y-97282000D03*
X113350500Y-98232000D03*
%TD*%
D13*
%TO.C,R53*%
X117856000Y-98363000D03*
X117856000Y-100013000D03*
%TD*%
D35*
%TO.C,TP6*%
X147142200Y-86995000D03*
%TD*%
D12*
%TO.C,R58*%
X119825000Y-94996000D03*
X121475000Y-94996000D03*
%TD*%
%TO.C,R77*%
X105347001Y-72898000D03*
X106997001Y-72898000D03*
%TD*%
D36*
%TO.C,U9*%
X136764000Y-106106000D03*
X137414000Y-106106000D03*
X138064000Y-106106000D03*
X138064000Y-104206000D03*
X137414000Y-104206000D03*
X136764000Y-104206000D03*
%TD*%
D37*
%TO.C,D4*%
X137161000Y-67056000D03*
X140461000Y-67056000D03*
%TD*%
D11*
%TO.C,L2*%
X130810000Y-122822500D03*
X130810000Y-117969500D03*
%TD*%
D12*
%TO.C,R48*%
X108903000Y-124460000D03*
X110553000Y-124460000D03*
%TD*%
D15*
%TO.C,J5*%
X145367000Y-138930000D03*
X145367000Y-137930000D03*
D16*
X149192000Y-140230000D03*
X149192000Y-136630000D03*
%TD*%
D12*
%TO.C,R54*%
X108903000Y-96266000D03*
X110553000Y-96266000D03*
%TD*%
D10*
%TO.C,R5*%
X141986000Y-95313000D03*
X141986000Y-93663000D03*
%TD*%
D18*
%TO.C,R50*%
X137009500Y-139700000D03*
X138834500Y-139700000D03*
%TD*%
D38*
%TO.C,Y1*%
X78232000Y-99334000D03*
X78232000Y-101834000D03*
%TD*%
D39*
%TO.C,U19*%
X136995000Y-136144000D03*
X137795000Y-136144000D03*
D40*
X136645000Y-137094000D03*
X137145000Y-137094000D03*
X137645000Y-137094000D03*
X138145000Y-137094000D03*
X138145000Y-135194000D03*
X137645000Y-135194000D03*
X137145000Y-135194000D03*
X136645000Y-135194000D03*
%TD*%
D36*
%TO.C,U3*%
X100061000Y-82865000D03*
X100711000Y-82865000D03*
X101361000Y-82865000D03*
X101361000Y-80965000D03*
X100061000Y-80965000D03*
%TD*%
D32*
%TO.C,Q8*%
X75758000Y-54468000D03*
X75758000Y-55118000D03*
X75758000Y-55768000D03*
X77658000Y-55768000D03*
X77658000Y-55118000D03*
X77658000Y-54468000D03*
%TD*%
D41*
%TO.C,LED3*%
X72222000Y-52324000D03*
X74082000Y-52324000D03*
%TD*%
D10*
%TO.C,R13*%
X134366000Y-114363000D03*
X134366000Y-112713000D03*
%TD*%
D12*
%TO.C,R60*%
X108903000Y-104140000D03*
X110553000Y-104140000D03*
%TD*%
%TO.C,R100*%
X109157000Y-136906000D03*
X110807000Y-136906000D03*
%TD*%
D17*
%TO.C,C33*%
X136639000Y-127000000D03*
X138189000Y-127000000D03*
%TD*%
D13*
%TO.C,JP1*%
X85598000Y-122365000D03*
X85598000Y-124015000D03*
%TD*%
D12*
%TO.C,R45*%
X108903000Y-122936000D03*
X110553000Y-122936000D03*
%TD*%
D42*
%TO.C,C20*%
X97790000Y-95692000D03*
X97790000Y-93792000D03*
%TD*%
D43*
%TO.C,C60*%
X118086000Y-71438500D03*
X118086000Y-65213500D03*
%TD*%
%TO.C,C59*%
X113040500Y-71438500D03*
X113040500Y-65213500D03*
%TD*%
D44*
%TO.C,U6*%
X87130000Y-114816000D03*
X87130000Y-115816000D03*
X88130000Y-114816000D03*
X88130000Y-115816000D03*
D45*
X84730000Y-113411000D03*
X84730000Y-114681000D03*
X84730000Y-115951000D03*
X84730000Y-117221000D03*
X90530000Y-117221000D03*
X90530000Y-115951000D03*
X90530000Y-114681000D03*
X90530000Y-113411000D03*
%TD*%
D17*
%TO.C,C50*%
X119875000Y-98044000D03*
X121425000Y-98044000D03*
%TD*%
D22*
%TO.C,R75*%
X106997001Y-63754000D03*
X105347001Y-63754000D03*
%TD*%
D10*
%TO.C,R71*%
X134620000Y-133159000D03*
X134620000Y-131509000D03*
%TD*%
D46*
%TO.C,U23*%
X139524500Y-80584000D03*
X139524500Y-82484000D03*
X141399500Y-81534000D03*
%TD*%
D12*
%TO.C,R46*%
X108903000Y-125984000D03*
X110553000Y-125984000D03*
%TD*%
D47*
%TO.C,P4*%
X74915000Y-81026000D03*
X69865000Y-81026000D03*
X74915000Y-78486000D03*
X69865000Y-78486000D03*
X74915000Y-75946000D03*
X69865000Y-75946000D03*
%TD*%
D48*
%TO.C,U11*%
X122018000Y-119686000D03*
X122018000Y-121106000D03*
X122838000Y-119686000D03*
X122838000Y-121106000D03*
D49*
X120278000Y-118771000D03*
X120278000Y-119421000D03*
X120278000Y-120071000D03*
X120278000Y-120721000D03*
X120278000Y-121371000D03*
X120278000Y-122021000D03*
X124578000Y-122021000D03*
X124578000Y-121371000D03*
X124578000Y-120721000D03*
X124578000Y-120071000D03*
X124578000Y-119421000D03*
X124578000Y-118771000D03*
%TD*%
D11*
%TO.C,L4*%
X131064000Y-141618500D03*
X131064000Y-136765500D03*
%TD*%
D22*
%TO.C,R74*%
X106997001Y-65786000D03*
X105347001Y-65786000D03*
%TD*%
D50*
%TO.C,U21*%
X116610000Y-83484000D03*
D51*
X118110000Y-83396500D03*
D50*
X119610000Y-83484000D03*
%TD*%
D12*
%TO.C,R35*%
X101029000Y-100457000D03*
X102679000Y-100457000D03*
%TD*%
D24*
%TO.C,C44*%
X126062000Y-105537000D03*
X123112000Y-105537000D03*
%TD*%
D26*
%TO.C,Q3*%
X122445000Y-64704250D03*
%TD*%
D12*
%TO.C,R25*%
X93663000Y-96393000D03*
X95313000Y-96393000D03*
%TD*%
D50*
%TO.C,U20*%
X106450000Y-83484000D03*
D51*
X107950000Y-83396500D03*
D50*
X109450000Y-83484000D03*
%TD*%
D15*
%TO.C,J4*%
X145528000Y-113784000D03*
X145528000Y-112784000D03*
D16*
X149353000Y-115084000D03*
X149353000Y-111484000D03*
%TD*%
D10*
%TO.C,R22*%
X97917000Y-104330000D03*
X97917000Y-102680000D03*
%TD*%
D12*
%TO.C,R107*%
X109157000Y-146304000D03*
X110807000Y-146304000D03*
%TD*%
%TO.C,R33*%
X93663000Y-92583000D03*
X95313000Y-92583000D03*
%TD*%
%TO.C,R98*%
X120079000Y-134112000D03*
X121729000Y-134112000D03*
%TD*%
D10*
%TO.C,R47*%
X117856000Y-120459000D03*
X117856000Y-118809000D03*
%TD*%
D31*
%TO.C,R87*%
X77724000Y-58422000D03*
X77724000Y-57402000D03*
%TD*%
D33*
%TO.C,C68*%
X139385000Y-78486000D03*
X141285000Y-78486000D03*
%TD*%
D22*
%TO.C,R44*%
X110553000Y-119634000D03*
X108903000Y-119634000D03*
%TD*%
D13*
%TO.C,R94*%
X118110000Y-141542000D03*
X118110000Y-143192000D03*
%TD*%
D48*
%TO.C,U25*%
X122272000Y-138482000D03*
X122272000Y-139902000D03*
X123092000Y-138482000D03*
X123092000Y-139902000D03*
D49*
X120532000Y-137567000D03*
X120532000Y-138217000D03*
X120532000Y-138867000D03*
X120532000Y-139517000D03*
X120532000Y-140167000D03*
X120532000Y-140817000D03*
X124832000Y-140817000D03*
X124832000Y-140167000D03*
X124832000Y-139517000D03*
X124832000Y-138867000D03*
X124832000Y-138217000D03*
X124832000Y-137567000D03*
%TD*%
D23*
%TO.C,C4*%
X101374000Y-84643000D03*
X99824000Y-84643000D03*
%TD*%
D52*
%TO.C,D2*%
X139042000Y-61087000D03*
X138072000Y-61087000D03*
%TD*%
D10*
%TO.C,R4*%
X103139000Y-82674000D03*
X103139000Y-81024000D03*
%TD*%
%TO.C,R62*%
X117856000Y-101663000D03*
X117856000Y-100013000D03*
%TD*%
D32*
%TO.C,U4*%
X118938000Y-106157000D03*
X118938000Y-106807000D03*
X118938000Y-107457000D03*
X120838000Y-107457000D03*
X120838000Y-106157000D03*
%TD*%
D53*
%TO.C,D1*%
X140358000Y-61087000D03*
X141328000Y-61087000D03*
%TD*%
D36*
%TO.C,U10*%
X136764000Y-124902000D03*
X137414000Y-124902000D03*
X138064000Y-124902000D03*
X138064000Y-123002000D03*
X137414000Y-123002000D03*
X136764000Y-123002000D03*
%TD*%
D42*
%TO.C,C19*%
X100076000Y-95692000D03*
X100076000Y-93792000D03*
%TD*%
D10*
%TO.C,R29*%
X83820000Y-124015000D03*
X83820000Y-122365000D03*
%TD*%
%TO.C,R6*%
X141986000Y-114109000D03*
X141986000Y-112459000D03*
%TD*%
D54*
%TO.C,R83*%
X72642000Y-54102000D03*
X73662000Y-54102000D03*
%TD*%
D13*
%TO.C,R38*%
X117856000Y-117159000D03*
X117856000Y-118809000D03*
%TD*%
D12*
%TO.C,R16*%
X74867000Y-120650000D03*
X76517000Y-120650000D03*
%TD*%
D50*
%TO.C,U22*%
X126770000Y-83484000D03*
D51*
X128270000Y-83396500D03*
D50*
X129770000Y-83484000D03*
%TD*%
D12*
%TO.C,R43*%
X119825000Y-113792000D03*
X121475000Y-113792000D03*
%TD*%
D13*
%TO.C,R70*%
X138176000Y-131509000D03*
X138176000Y-133159000D03*
%TD*%
D39*
%TO.C,U5*%
X136741000Y-117348000D03*
X137541000Y-117348000D03*
D40*
X136391000Y-118298000D03*
X136891000Y-118298000D03*
X137391000Y-118298000D03*
X137891000Y-118298000D03*
X137891000Y-116398000D03*
X137391000Y-116398000D03*
X136891000Y-116398000D03*
X136391000Y-116398000D03*
%TD*%
D12*
%TO.C,R56*%
X108903000Y-97790000D03*
X110553000Y-97790000D03*
%TD*%
%TO.C,R49*%
X108903000Y-127508000D03*
X110553000Y-127508000D03*
%TD*%
D55*
%TO.C,U8*%
X101854000Y-108239000D03*
X103124000Y-108239000D03*
X104394000Y-108239000D03*
X105664000Y-108239000D03*
X105664000Y-103089000D03*
X104394000Y-103089000D03*
X103124000Y-103089000D03*
X101854000Y-103089000D03*
%TD*%
D24*
%TO.C,C75*%
X126316000Y-143129000D03*
X123366000Y-143129000D03*
%TD*%
D25*
%TO.C,U12*%
X115625500Y-117028000D03*
X115625500Y-116078000D03*
X115625500Y-115128000D03*
X113350500Y-115128000D03*
X113350500Y-116078000D03*
X113350500Y-117028000D03*
%TD*%
D36*
%TO.C,U17*%
X137018000Y-143698000D03*
X137668000Y-143698000D03*
X138318000Y-143698000D03*
X138318000Y-141798000D03*
X137668000Y-141798000D03*
X137018000Y-141798000D03*
%TD*%
D15*
%TO.C,J2*%
X145528000Y-94988000D03*
X145528000Y-93988000D03*
D16*
X149353000Y-96288000D03*
X149353000Y-92688000D03*
%TD*%
D24*
%TO.C,C35*%
X126443000Y-116332000D03*
X123493000Y-116332000D03*
%TD*%
D13*
%TO.C,R65*%
X136144000Y-93917000D03*
X136144000Y-95567000D03*
%TD*%
D17*
%TO.C,C40*%
X119875000Y-116840000D03*
X121425000Y-116840000D03*
%TD*%
D12*
%TO.C,R103*%
X109157000Y-141732000D03*
X110807000Y-141732000D03*
%TD*%
D17*
%TO.C,C10*%
X141465000Y-147320000D03*
X143015000Y-147320000D03*
%TD*%
D56*
%TO.C,L1*%
X87246000Y-94742000D03*
X90046000Y-94742000D03*
%TD*%
D48*
%TO.C,U14*%
X122018000Y-100890000D03*
X122018000Y-102310000D03*
X122838000Y-100890000D03*
X122838000Y-102310000D03*
D49*
X120278000Y-99975000D03*
X120278000Y-100625000D03*
X120278000Y-101275000D03*
X120278000Y-101925000D03*
X120278000Y-102575000D03*
X120278000Y-103225000D03*
X124578000Y-103225000D03*
X124578000Y-102575000D03*
X124578000Y-101925000D03*
X124578000Y-101275000D03*
X124578000Y-100625000D03*
X124578000Y-99975000D03*
%TD*%
D22*
%TO.C,R102*%
X110807000Y-138430000D03*
X109157000Y-138430000D03*
%TD*%
D14*
%TO.C,C9*%
X68580000Y-138925000D03*
X68580000Y-140475000D03*
%TD*%
D10*
%TO.C,R23*%
X99568000Y-104330000D03*
X99568000Y-102680000D03*
%TD*%
D17*
%TO.C,C56*%
X136893000Y-145796000D03*
X138443000Y-145796000D03*
%TD*%
D12*
%TO.C,R8*%
X119063000Y-109220000D03*
X120713000Y-109220000D03*
%TD*%
D28*
%TO.C,U27*%
X115742000Y-138516000D03*
X115242000Y-138516000D03*
X114742000Y-138516000D03*
X114242000Y-138516000D03*
X113742000Y-138516000D03*
X113742000Y-142916000D03*
X114242000Y-142916000D03*
X114742000Y-142916000D03*
X115242000Y-142916000D03*
X115742000Y-142916000D03*
%TD*%
D20*
%TO.C,C6*%
X72390000Y-70117000D03*
X72390000Y-68567000D03*
%TD*%
D32*
%TO.C,U2*%
X96454000Y-66690000D03*
X96454000Y-66040000D03*
X96454000Y-65390000D03*
X94554000Y-65390000D03*
X94554000Y-66690000D03*
%TD*%
D10*
%TO.C,R105*%
X118110000Y-139255000D03*
X118110000Y-137605000D03*
%TD*%
D28*
%TO.C,U16*%
X115488000Y-100924000D03*
X114988000Y-100924000D03*
X114488000Y-100924000D03*
X113988000Y-100924000D03*
X113488000Y-100924000D03*
X113488000Y-105324000D03*
X113988000Y-105324000D03*
X114488000Y-105324000D03*
X114988000Y-105324000D03*
X115488000Y-105324000D03*
%TD*%
D12*
%TO.C,R42*%
X108903000Y-118110000D03*
X110553000Y-118110000D03*
%TD*%
D13*
%TO.C,R14*%
X139700000Y-112713000D03*
X139700000Y-114363000D03*
%TD*%
D10*
%TO.C,R81*%
X143764000Y-79946000D03*
X143764000Y-78296000D03*
%TD*%
D57*
%TO.C,Q5*%
X101158001Y-70279500D03*
X103058001Y-70279500D03*
X102108001Y-68404500D03*
%TD*%
D12*
%TO.C,R39*%
X108903000Y-115062000D03*
X110553000Y-115062000D03*
%TD*%
D58*
%TO.C,TP2*%
X71297800Y-86995000D03*
%TD*%
D59*
%TO.C,SW1*%
X79718000Y-122918000D03*
X81318000Y-122918000D03*
X79718000Y-127018000D03*
X81318000Y-127018000D03*
%TD*%
D60*
%TO.C,C3*%
X102311000Y-78801000D03*
X100411000Y-78801000D03*
%TD*%
D13*
%TO.C,R66*%
X137922000Y-93917000D03*
X137922000Y-95567000D03*
%TD*%
D39*
%TO.C,U18*%
X136741000Y-98552000D03*
X137541000Y-98552000D03*
D40*
X136391000Y-99502000D03*
X136891000Y-99502000D03*
X137391000Y-99502000D03*
X137891000Y-99502000D03*
X137891000Y-97602000D03*
X137391000Y-97602000D03*
X136891000Y-97602000D03*
X136391000Y-97602000D03*
%TD*%
D12*
%TO.C,R26*%
X93663000Y-94615000D03*
X95313000Y-94615000D03*
%TD*%
D17*
%TO.C,C30*%
X136639000Y-108204000D03*
X138189000Y-108204000D03*
%TD*%
D13*
%TO.C,R79*%
X137287000Y-80709000D03*
X137287000Y-82359000D03*
%TD*%
%TO.C,R69*%
X136398000Y-131509000D03*
X136398000Y-133159000D03*
%TD*%
%TO.C,R19*%
X76708000Y-107887000D03*
X76708000Y-109537000D03*
%TD*%
D61*
%TO.C,U7*%
X81967500Y-100390000D03*
X81967500Y-100890000D03*
X81967500Y-101390000D03*
X81967500Y-101890000D03*
X81967500Y-102390000D03*
X81967500Y-102890000D03*
X81967500Y-103390000D03*
X81967500Y-103890000D03*
X81967500Y-104390000D03*
X81967500Y-104890000D03*
X81967500Y-105390000D03*
X81967500Y-105890000D03*
X81967500Y-106390000D03*
X81967500Y-106890000D03*
X81967500Y-107390000D03*
X81967500Y-107890000D03*
D62*
X83880000Y-109802500D03*
X84380000Y-109802500D03*
X84880000Y-109802500D03*
X85380000Y-109802500D03*
X85880000Y-109802500D03*
X86380000Y-109802500D03*
X86880000Y-109802500D03*
X87380000Y-109802500D03*
X87880000Y-109802500D03*
X88380000Y-109802500D03*
X88880000Y-109802500D03*
X89380000Y-109802500D03*
X89880000Y-109802500D03*
X90380000Y-109802500D03*
X90880000Y-109802500D03*
X91380000Y-109802500D03*
D61*
X93292500Y-107890000D03*
X93292500Y-107390000D03*
X93292500Y-106890000D03*
X93292500Y-106390000D03*
X93292500Y-105890000D03*
X93292500Y-105390000D03*
X93292500Y-104890000D03*
X93292500Y-104390000D03*
X93292500Y-103890000D03*
X93292500Y-103390000D03*
X93292500Y-102890000D03*
X93292500Y-102390000D03*
X93292500Y-101890000D03*
X93292500Y-101390000D03*
X93292500Y-100890000D03*
X93292500Y-100390000D03*
D62*
X91380000Y-98477500D03*
X90880000Y-98477500D03*
X90380000Y-98477500D03*
X89880000Y-98477500D03*
X89380000Y-98477500D03*
X88880000Y-98477500D03*
X88380000Y-98477500D03*
X87880000Y-98477500D03*
X87380000Y-98477500D03*
X86880000Y-98477500D03*
X86380000Y-98477500D03*
X85880000Y-98477500D03*
X85380000Y-98477500D03*
X84880000Y-98477500D03*
X84380000Y-98477500D03*
X83880000Y-98477500D03*
%TD*%
D13*
%TO.C,R96*%
X118110000Y-135955000D03*
X118110000Y-137605000D03*
%TD*%
D18*
%TO.C,R9*%
X136755500Y-102108000D03*
X138580500Y-102108000D03*
%TD*%
D12*
%TO.C,R104*%
X109157000Y-144780000D03*
X110807000Y-144780000D03*
%TD*%
D24*
%TO.C,C34*%
X126062000Y-124333000D03*
X123112000Y-124333000D03*
%TD*%
D22*
%TO.C,R78*%
X106997001Y-67818000D03*
X105347001Y-67818000D03*
%TD*%
M02*
