%TF.GenerationSoftware,KiCad,Pcbnew,7.0.5*%
%TF.CreationDate,2023-06-28T17:56:54-04:00*%
%TF.ProjectId,magnetotorqer-drive-board,6d61676e-6574-46f7-946f-727165722d64,A*%
%TF.SameCoordinates,Original*%
%TF.FileFunction,Legend,Bot*%
%TF.FilePolarity,Positive*%
%FSLAX46Y46*%
G04 Gerber Fmt 4.6, Leading zero omitted, Abs format (unit mm)*
G04 Created by KiCad (PCBNEW 7.0.5) date 2023-06-28 17:56:54*
%MOMM*%
%LPD*%
G01*
G04 APERTURE LIST*
%ADD10C,0.127000*%
%ADD11C,0.120000*%
%ADD12C,0.060000*%
G04 APERTURE END LIST*
D10*
%TO.C,C14*%
X90151856Y-112127340D02*
X90188142Y-112163626D01*
X90188142Y-112163626D02*
X90296999Y-112199911D01*
X90296999Y-112199911D02*
X90369571Y-112199911D01*
X90369571Y-112199911D02*
X90478428Y-112163626D01*
X90478428Y-112163626D02*
X90550999Y-112091054D01*
X90550999Y-112091054D02*
X90587285Y-112018483D01*
X90587285Y-112018483D02*
X90623571Y-111873340D01*
X90623571Y-111873340D02*
X90623571Y-111764483D01*
X90623571Y-111764483D02*
X90587285Y-111619340D01*
X90587285Y-111619340D02*
X90550999Y-111546768D01*
X90550999Y-111546768D02*
X90478428Y-111474197D01*
X90478428Y-111474197D02*
X90369571Y-111437911D01*
X90369571Y-111437911D02*
X90296999Y-111437911D01*
X90296999Y-111437911D02*
X90188142Y-111474197D01*
X90188142Y-111474197D02*
X90151856Y-111510483D01*
X89426142Y-112199911D02*
X89861571Y-112199911D01*
X89643856Y-112199911D02*
X89643856Y-111437911D01*
X89643856Y-111437911D02*
X89716428Y-111546768D01*
X89716428Y-111546768D02*
X89788999Y-111619340D01*
X89788999Y-111619340D02*
X89861571Y-111655626D01*
X88773000Y-111691911D02*
X88773000Y-112199911D01*
X88954428Y-111401626D02*
X89135857Y-111945911D01*
X89135857Y-111945911D02*
X88664142Y-111945911D01*
%TO.C,C79*%
X114319340Y-130955143D02*
X114355626Y-130918857D01*
X114355626Y-130918857D02*
X114391911Y-130810000D01*
X114391911Y-130810000D02*
X114391911Y-130737428D01*
X114391911Y-130737428D02*
X114355626Y-130628571D01*
X114355626Y-130628571D02*
X114283054Y-130556000D01*
X114283054Y-130556000D02*
X114210483Y-130519714D01*
X114210483Y-130519714D02*
X114065340Y-130483428D01*
X114065340Y-130483428D02*
X113956483Y-130483428D01*
X113956483Y-130483428D02*
X113811340Y-130519714D01*
X113811340Y-130519714D02*
X113738768Y-130556000D01*
X113738768Y-130556000D02*
X113666197Y-130628571D01*
X113666197Y-130628571D02*
X113629911Y-130737428D01*
X113629911Y-130737428D02*
X113629911Y-130810000D01*
X113629911Y-130810000D02*
X113666197Y-130918857D01*
X113666197Y-130918857D02*
X113702483Y-130955143D01*
X113629911Y-131209143D02*
X113629911Y-131717143D01*
X113629911Y-131717143D02*
X114391911Y-131390571D01*
X114391911Y-132043714D02*
X114391911Y-132188857D01*
X114391911Y-132188857D02*
X114355626Y-132261428D01*
X114355626Y-132261428D02*
X114319340Y-132297714D01*
X114319340Y-132297714D02*
X114210483Y-132370285D01*
X114210483Y-132370285D02*
X114065340Y-132406571D01*
X114065340Y-132406571D02*
X113775054Y-132406571D01*
X113775054Y-132406571D02*
X113702483Y-132370285D01*
X113702483Y-132370285D02*
X113666197Y-132334000D01*
X113666197Y-132334000D02*
X113629911Y-132261428D01*
X113629911Y-132261428D02*
X113629911Y-132116285D01*
X113629911Y-132116285D02*
X113666197Y-132043714D01*
X113666197Y-132043714D02*
X113702483Y-132007428D01*
X113702483Y-132007428D02*
X113775054Y-131971142D01*
X113775054Y-131971142D02*
X113956483Y-131971142D01*
X113956483Y-131971142D02*
X114029054Y-132007428D01*
X114029054Y-132007428D02*
X114065340Y-132043714D01*
X114065340Y-132043714D02*
X114101626Y-132116285D01*
X114101626Y-132116285D02*
X114101626Y-132261428D01*
X114101626Y-132261428D02*
X114065340Y-132334000D01*
X114065340Y-132334000D02*
X114029054Y-132370285D01*
X114029054Y-132370285D02*
X113956483Y-132406571D01*
%TO.C,R92*%
X138792856Y-60416911D02*
X139046856Y-60054054D01*
X139228285Y-60416911D02*
X139228285Y-59654911D01*
X139228285Y-59654911D02*
X138937999Y-59654911D01*
X138937999Y-59654911D02*
X138865428Y-59691197D01*
X138865428Y-59691197D02*
X138829142Y-59727483D01*
X138829142Y-59727483D02*
X138792856Y-59800054D01*
X138792856Y-59800054D02*
X138792856Y-59908911D01*
X138792856Y-59908911D02*
X138829142Y-59981483D01*
X138829142Y-59981483D02*
X138865428Y-60017768D01*
X138865428Y-60017768D02*
X138937999Y-60054054D01*
X138937999Y-60054054D02*
X139228285Y-60054054D01*
X138429999Y-60416911D02*
X138284856Y-60416911D01*
X138284856Y-60416911D02*
X138212285Y-60380626D01*
X138212285Y-60380626D02*
X138175999Y-60344340D01*
X138175999Y-60344340D02*
X138103428Y-60235483D01*
X138103428Y-60235483D02*
X138067142Y-60090340D01*
X138067142Y-60090340D02*
X138067142Y-59800054D01*
X138067142Y-59800054D02*
X138103428Y-59727483D01*
X138103428Y-59727483D02*
X138139714Y-59691197D01*
X138139714Y-59691197D02*
X138212285Y-59654911D01*
X138212285Y-59654911D02*
X138357428Y-59654911D01*
X138357428Y-59654911D02*
X138429999Y-59691197D01*
X138429999Y-59691197D02*
X138466285Y-59727483D01*
X138466285Y-59727483D02*
X138502571Y-59800054D01*
X138502571Y-59800054D02*
X138502571Y-59981483D01*
X138502571Y-59981483D02*
X138466285Y-60054054D01*
X138466285Y-60054054D02*
X138429999Y-60090340D01*
X138429999Y-60090340D02*
X138357428Y-60126626D01*
X138357428Y-60126626D02*
X138212285Y-60126626D01*
X138212285Y-60126626D02*
X138139714Y-60090340D01*
X138139714Y-60090340D02*
X138103428Y-60054054D01*
X138103428Y-60054054D02*
X138067142Y-59981483D01*
X137776857Y-59727483D02*
X137740571Y-59691197D01*
X137740571Y-59691197D02*
X137668000Y-59654911D01*
X137668000Y-59654911D02*
X137486571Y-59654911D01*
X137486571Y-59654911D02*
X137414000Y-59691197D01*
X137414000Y-59691197D02*
X137377714Y-59727483D01*
X137377714Y-59727483D02*
X137341428Y-59800054D01*
X137341428Y-59800054D02*
X137341428Y-59872626D01*
X137341428Y-59872626D02*
X137377714Y-59981483D01*
X137377714Y-59981483D02*
X137813142Y-60416911D01*
X137813142Y-60416911D02*
X137341428Y-60416911D01*
%TO.C,R85*%
X107660911Y-61359143D02*
X107298054Y-61105143D01*
X107660911Y-60923714D02*
X106898911Y-60923714D01*
X106898911Y-60923714D02*
X106898911Y-61214000D01*
X106898911Y-61214000D02*
X106935197Y-61286571D01*
X106935197Y-61286571D02*
X106971483Y-61322857D01*
X106971483Y-61322857D02*
X107044054Y-61359143D01*
X107044054Y-61359143D02*
X107152911Y-61359143D01*
X107152911Y-61359143D02*
X107225483Y-61322857D01*
X107225483Y-61322857D02*
X107261768Y-61286571D01*
X107261768Y-61286571D02*
X107298054Y-61214000D01*
X107298054Y-61214000D02*
X107298054Y-60923714D01*
X107225483Y-61794571D02*
X107189197Y-61722000D01*
X107189197Y-61722000D02*
X107152911Y-61685714D01*
X107152911Y-61685714D02*
X107080340Y-61649428D01*
X107080340Y-61649428D02*
X107044054Y-61649428D01*
X107044054Y-61649428D02*
X106971483Y-61685714D01*
X106971483Y-61685714D02*
X106935197Y-61722000D01*
X106935197Y-61722000D02*
X106898911Y-61794571D01*
X106898911Y-61794571D02*
X106898911Y-61939714D01*
X106898911Y-61939714D02*
X106935197Y-62012286D01*
X106935197Y-62012286D02*
X106971483Y-62048571D01*
X106971483Y-62048571D02*
X107044054Y-62084857D01*
X107044054Y-62084857D02*
X107080340Y-62084857D01*
X107080340Y-62084857D02*
X107152911Y-62048571D01*
X107152911Y-62048571D02*
X107189197Y-62012286D01*
X107189197Y-62012286D02*
X107225483Y-61939714D01*
X107225483Y-61939714D02*
X107225483Y-61794571D01*
X107225483Y-61794571D02*
X107261768Y-61722000D01*
X107261768Y-61722000D02*
X107298054Y-61685714D01*
X107298054Y-61685714D02*
X107370626Y-61649428D01*
X107370626Y-61649428D02*
X107515768Y-61649428D01*
X107515768Y-61649428D02*
X107588340Y-61685714D01*
X107588340Y-61685714D02*
X107624626Y-61722000D01*
X107624626Y-61722000D02*
X107660911Y-61794571D01*
X107660911Y-61794571D02*
X107660911Y-61939714D01*
X107660911Y-61939714D02*
X107624626Y-62012286D01*
X107624626Y-62012286D02*
X107588340Y-62048571D01*
X107588340Y-62048571D02*
X107515768Y-62084857D01*
X107515768Y-62084857D02*
X107370626Y-62084857D01*
X107370626Y-62084857D02*
X107298054Y-62048571D01*
X107298054Y-62048571D02*
X107261768Y-62012286D01*
X107261768Y-62012286D02*
X107225483Y-61939714D01*
X106898911Y-62774285D02*
X106898911Y-62411428D01*
X106898911Y-62411428D02*
X107261768Y-62375142D01*
X107261768Y-62375142D02*
X107225483Y-62411428D01*
X107225483Y-62411428D02*
X107189197Y-62484000D01*
X107189197Y-62484000D02*
X107189197Y-62665428D01*
X107189197Y-62665428D02*
X107225483Y-62738000D01*
X107225483Y-62738000D02*
X107261768Y-62774285D01*
X107261768Y-62774285D02*
X107334340Y-62810571D01*
X107334340Y-62810571D02*
X107515768Y-62810571D01*
X107515768Y-62810571D02*
X107588340Y-62774285D01*
X107588340Y-62774285D02*
X107624626Y-62738000D01*
X107624626Y-62738000D02*
X107660911Y-62665428D01*
X107660911Y-62665428D02*
X107660911Y-62484000D01*
X107660911Y-62484000D02*
X107624626Y-62411428D01*
X107624626Y-62411428D02*
X107588340Y-62375142D01*
%TO.C,R82*%
X98991911Y-64280143D02*
X98629054Y-64026143D01*
X98991911Y-63844714D02*
X98229911Y-63844714D01*
X98229911Y-63844714D02*
X98229911Y-64135000D01*
X98229911Y-64135000D02*
X98266197Y-64207571D01*
X98266197Y-64207571D02*
X98302483Y-64243857D01*
X98302483Y-64243857D02*
X98375054Y-64280143D01*
X98375054Y-64280143D02*
X98483911Y-64280143D01*
X98483911Y-64280143D02*
X98556483Y-64243857D01*
X98556483Y-64243857D02*
X98592768Y-64207571D01*
X98592768Y-64207571D02*
X98629054Y-64135000D01*
X98629054Y-64135000D02*
X98629054Y-63844714D01*
X98556483Y-64715571D02*
X98520197Y-64643000D01*
X98520197Y-64643000D02*
X98483911Y-64606714D01*
X98483911Y-64606714D02*
X98411340Y-64570428D01*
X98411340Y-64570428D02*
X98375054Y-64570428D01*
X98375054Y-64570428D02*
X98302483Y-64606714D01*
X98302483Y-64606714D02*
X98266197Y-64643000D01*
X98266197Y-64643000D02*
X98229911Y-64715571D01*
X98229911Y-64715571D02*
X98229911Y-64860714D01*
X98229911Y-64860714D02*
X98266197Y-64933286D01*
X98266197Y-64933286D02*
X98302483Y-64969571D01*
X98302483Y-64969571D02*
X98375054Y-65005857D01*
X98375054Y-65005857D02*
X98411340Y-65005857D01*
X98411340Y-65005857D02*
X98483911Y-64969571D01*
X98483911Y-64969571D02*
X98520197Y-64933286D01*
X98520197Y-64933286D02*
X98556483Y-64860714D01*
X98556483Y-64860714D02*
X98556483Y-64715571D01*
X98556483Y-64715571D02*
X98592768Y-64643000D01*
X98592768Y-64643000D02*
X98629054Y-64606714D01*
X98629054Y-64606714D02*
X98701626Y-64570428D01*
X98701626Y-64570428D02*
X98846768Y-64570428D01*
X98846768Y-64570428D02*
X98919340Y-64606714D01*
X98919340Y-64606714D02*
X98955626Y-64643000D01*
X98955626Y-64643000D02*
X98991911Y-64715571D01*
X98991911Y-64715571D02*
X98991911Y-64860714D01*
X98991911Y-64860714D02*
X98955626Y-64933286D01*
X98955626Y-64933286D02*
X98919340Y-64969571D01*
X98919340Y-64969571D02*
X98846768Y-65005857D01*
X98846768Y-65005857D02*
X98701626Y-65005857D01*
X98701626Y-65005857D02*
X98629054Y-64969571D01*
X98629054Y-64969571D02*
X98592768Y-64933286D01*
X98592768Y-64933286D02*
X98556483Y-64860714D01*
X98302483Y-65296142D02*
X98266197Y-65332428D01*
X98266197Y-65332428D02*
X98229911Y-65405000D01*
X98229911Y-65405000D02*
X98229911Y-65586428D01*
X98229911Y-65586428D02*
X98266197Y-65659000D01*
X98266197Y-65659000D02*
X98302483Y-65695285D01*
X98302483Y-65695285D02*
X98375054Y-65731571D01*
X98375054Y-65731571D02*
X98447626Y-65731571D01*
X98447626Y-65731571D02*
X98556483Y-65695285D01*
X98556483Y-65695285D02*
X98991911Y-65259857D01*
X98991911Y-65259857D02*
X98991911Y-65731571D01*
%TO.C,R34*%
X91912911Y-103650143D02*
X91550054Y-103396143D01*
X91912911Y-103214714D02*
X91150911Y-103214714D01*
X91150911Y-103214714D02*
X91150911Y-103505000D01*
X91150911Y-103505000D02*
X91187197Y-103577571D01*
X91187197Y-103577571D02*
X91223483Y-103613857D01*
X91223483Y-103613857D02*
X91296054Y-103650143D01*
X91296054Y-103650143D02*
X91404911Y-103650143D01*
X91404911Y-103650143D02*
X91477483Y-103613857D01*
X91477483Y-103613857D02*
X91513768Y-103577571D01*
X91513768Y-103577571D02*
X91550054Y-103505000D01*
X91550054Y-103505000D02*
X91550054Y-103214714D01*
X91150911Y-103904143D02*
X91150911Y-104375857D01*
X91150911Y-104375857D02*
X91441197Y-104121857D01*
X91441197Y-104121857D02*
X91441197Y-104230714D01*
X91441197Y-104230714D02*
X91477483Y-104303286D01*
X91477483Y-104303286D02*
X91513768Y-104339571D01*
X91513768Y-104339571D02*
X91586340Y-104375857D01*
X91586340Y-104375857D02*
X91767768Y-104375857D01*
X91767768Y-104375857D02*
X91840340Y-104339571D01*
X91840340Y-104339571D02*
X91876626Y-104303286D01*
X91876626Y-104303286D02*
X91912911Y-104230714D01*
X91912911Y-104230714D02*
X91912911Y-104013000D01*
X91912911Y-104013000D02*
X91876626Y-103940428D01*
X91876626Y-103940428D02*
X91840340Y-103904143D01*
X91404911Y-105029000D02*
X91912911Y-105029000D01*
X91114626Y-104847571D02*
X91658911Y-104666142D01*
X91658911Y-104666142D02*
X91658911Y-105137857D01*
%TO.C,C1*%
X91312999Y-66440340D02*
X91349285Y-66476626D01*
X91349285Y-66476626D02*
X91458142Y-66512911D01*
X91458142Y-66512911D02*
X91530714Y-66512911D01*
X91530714Y-66512911D02*
X91639571Y-66476626D01*
X91639571Y-66476626D02*
X91712142Y-66404054D01*
X91712142Y-66404054D02*
X91748428Y-66331483D01*
X91748428Y-66331483D02*
X91784714Y-66186340D01*
X91784714Y-66186340D02*
X91784714Y-66077483D01*
X91784714Y-66077483D02*
X91748428Y-65932340D01*
X91748428Y-65932340D02*
X91712142Y-65859768D01*
X91712142Y-65859768D02*
X91639571Y-65787197D01*
X91639571Y-65787197D02*
X91530714Y-65750911D01*
X91530714Y-65750911D02*
X91458142Y-65750911D01*
X91458142Y-65750911D02*
X91349285Y-65787197D01*
X91349285Y-65787197D02*
X91312999Y-65823483D01*
X90587285Y-66512911D02*
X91022714Y-66512911D01*
X90804999Y-66512911D02*
X90804999Y-65750911D01*
X90804999Y-65750911D02*
X90877571Y-65859768D01*
X90877571Y-65859768D02*
X90950142Y-65932340D01*
X90950142Y-65932340D02*
X91022714Y-65968626D01*
%TO.C,Q1*%
X70141483Y-56315428D02*
X70105197Y-56242857D01*
X70105197Y-56242857D02*
X70032626Y-56170285D01*
X70032626Y-56170285D02*
X69923768Y-56061428D01*
X69923768Y-56061428D02*
X69887483Y-55988857D01*
X69887483Y-55988857D02*
X69887483Y-55916285D01*
X70068911Y-55952571D02*
X70032626Y-55880000D01*
X70032626Y-55880000D02*
X69960054Y-55807428D01*
X69960054Y-55807428D02*
X69814911Y-55771142D01*
X69814911Y-55771142D02*
X69560911Y-55771142D01*
X69560911Y-55771142D02*
X69415768Y-55807428D01*
X69415768Y-55807428D02*
X69343197Y-55880000D01*
X69343197Y-55880000D02*
X69306911Y-55952571D01*
X69306911Y-55952571D02*
X69306911Y-56097714D01*
X69306911Y-56097714D02*
X69343197Y-56170285D01*
X69343197Y-56170285D02*
X69415768Y-56242857D01*
X69415768Y-56242857D02*
X69560911Y-56279142D01*
X69560911Y-56279142D02*
X69814911Y-56279142D01*
X69814911Y-56279142D02*
X69960054Y-56242857D01*
X69960054Y-56242857D02*
X70032626Y-56170285D01*
X70032626Y-56170285D02*
X70068911Y-56097714D01*
X70068911Y-56097714D02*
X70068911Y-55952571D01*
X70068911Y-57004857D02*
X70068911Y-56569428D01*
X70068911Y-56787143D02*
X69306911Y-56787143D01*
X69306911Y-56787143D02*
X69415768Y-56714571D01*
X69415768Y-56714571D02*
X69488340Y-56642000D01*
X69488340Y-56642000D02*
X69524626Y-56569428D01*
%TO.C,C24*%
X84347340Y-100602143D02*
X84383626Y-100565857D01*
X84383626Y-100565857D02*
X84419911Y-100457000D01*
X84419911Y-100457000D02*
X84419911Y-100384428D01*
X84419911Y-100384428D02*
X84383626Y-100275571D01*
X84383626Y-100275571D02*
X84311054Y-100203000D01*
X84311054Y-100203000D02*
X84238483Y-100166714D01*
X84238483Y-100166714D02*
X84093340Y-100130428D01*
X84093340Y-100130428D02*
X83984483Y-100130428D01*
X83984483Y-100130428D02*
X83839340Y-100166714D01*
X83839340Y-100166714D02*
X83766768Y-100203000D01*
X83766768Y-100203000D02*
X83694197Y-100275571D01*
X83694197Y-100275571D02*
X83657911Y-100384428D01*
X83657911Y-100384428D02*
X83657911Y-100457000D01*
X83657911Y-100457000D02*
X83694197Y-100565857D01*
X83694197Y-100565857D02*
X83730483Y-100602143D01*
X83730483Y-100892428D02*
X83694197Y-100928714D01*
X83694197Y-100928714D02*
X83657911Y-101001286D01*
X83657911Y-101001286D02*
X83657911Y-101182714D01*
X83657911Y-101182714D02*
X83694197Y-101255286D01*
X83694197Y-101255286D02*
X83730483Y-101291571D01*
X83730483Y-101291571D02*
X83803054Y-101327857D01*
X83803054Y-101327857D02*
X83875626Y-101327857D01*
X83875626Y-101327857D02*
X83984483Y-101291571D01*
X83984483Y-101291571D02*
X84419911Y-100856143D01*
X84419911Y-100856143D02*
X84419911Y-101327857D01*
X83911911Y-101981000D02*
X84419911Y-101981000D01*
X83621626Y-101799571D02*
X84165911Y-101618142D01*
X84165911Y-101618142D02*
X84165911Y-102089857D01*
%TO.C,C29*%
X134855856Y-104540340D02*
X134892142Y-104576626D01*
X134892142Y-104576626D02*
X135000999Y-104612911D01*
X135000999Y-104612911D02*
X135073571Y-104612911D01*
X135073571Y-104612911D02*
X135182428Y-104576626D01*
X135182428Y-104576626D02*
X135254999Y-104504054D01*
X135254999Y-104504054D02*
X135291285Y-104431483D01*
X135291285Y-104431483D02*
X135327571Y-104286340D01*
X135327571Y-104286340D02*
X135327571Y-104177483D01*
X135327571Y-104177483D02*
X135291285Y-104032340D01*
X135291285Y-104032340D02*
X135254999Y-103959768D01*
X135254999Y-103959768D02*
X135182428Y-103887197D01*
X135182428Y-103887197D02*
X135073571Y-103850911D01*
X135073571Y-103850911D02*
X135000999Y-103850911D01*
X135000999Y-103850911D02*
X134892142Y-103887197D01*
X134892142Y-103887197D02*
X134855856Y-103923483D01*
X134565571Y-103923483D02*
X134529285Y-103887197D01*
X134529285Y-103887197D02*
X134456714Y-103850911D01*
X134456714Y-103850911D02*
X134275285Y-103850911D01*
X134275285Y-103850911D02*
X134202714Y-103887197D01*
X134202714Y-103887197D02*
X134166428Y-103923483D01*
X134166428Y-103923483D02*
X134130142Y-103996054D01*
X134130142Y-103996054D02*
X134130142Y-104068626D01*
X134130142Y-104068626D02*
X134166428Y-104177483D01*
X134166428Y-104177483D02*
X134601856Y-104612911D01*
X134601856Y-104612911D02*
X134130142Y-104612911D01*
X133767285Y-104612911D02*
X133622142Y-104612911D01*
X133622142Y-104612911D02*
X133549571Y-104576626D01*
X133549571Y-104576626D02*
X133513285Y-104540340D01*
X133513285Y-104540340D02*
X133440714Y-104431483D01*
X133440714Y-104431483D02*
X133404428Y-104286340D01*
X133404428Y-104286340D02*
X133404428Y-103996054D01*
X133404428Y-103996054D02*
X133440714Y-103923483D01*
X133440714Y-103923483D02*
X133477000Y-103887197D01*
X133477000Y-103887197D02*
X133549571Y-103850911D01*
X133549571Y-103850911D02*
X133694714Y-103850911D01*
X133694714Y-103850911D02*
X133767285Y-103887197D01*
X133767285Y-103887197D02*
X133803571Y-103923483D01*
X133803571Y-103923483D02*
X133839857Y-103996054D01*
X133839857Y-103996054D02*
X133839857Y-104177483D01*
X133839857Y-104177483D02*
X133803571Y-104250054D01*
X133803571Y-104250054D02*
X133767285Y-104286340D01*
X133767285Y-104286340D02*
X133694714Y-104322626D01*
X133694714Y-104322626D02*
X133549571Y-104322626D01*
X133549571Y-104322626D02*
X133477000Y-104286340D01*
X133477000Y-104286340D02*
X133440714Y-104250054D01*
X133440714Y-104250054D02*
X133404428Y-104177483D01*
%TO.C,C23*%
X92691856Y-93999340D02*
X92728142Y-94035626D01*
X92728142Y-94035626D02*
X92836999Y-94071911D01*
X92836999Y-94071911D02*
X92909571Y-94071911D01*
X92909571Y-94071911D02*
X93018428Y-94035626D01*
X93018428Y-94035626D02*
X93090999Y-93963054D01*
X93090999Y-93963054D02*
X93127285Y-93890483D01*
X93127285Y-93890483D02*
X93163571Y-93745340D01*
X93163571Y-93745340D02*
X93163571Y-93636483D01*
X93163571Y-93636483D02*
X93127285Y-93491340D01*
X93127285Y-93491340D02*
X93090999Y-93418768D01*
X93090999Y-93418768D02*
X93018428Y-93346197D01*
X93018428Y-93346197D02*
X92909571Y-93309911D01*
X92909571Y-93309911D02*
X92836999Y-93309911D01*
X92836999Y-93309911D02*
X92728142Y-93346197D01*
X92728142Y-93346197D02*
X92691856Y-93382483D01*
X92401571Y-93382483D02*
X92365285Y-93346197D01*
X92365285Y-93346197D02*
X92292714Y-93309911D01*
X92292714Y-93309911D02*
X92111285Y-93309911D01*
X92111285Y-93309911D02*
X92038714Y-93346197D01*
X92038714Y-93346197D02*
X92002428Y-93382483D01*
X92002428Y-93382483D02*
X91966142Y-93455054D01*
X91966142Y-93455054D02*
X91966142Y-93527626D01*
X91966142Y-93527626D02*
X92002428Y-93636483D01*
X92002428Y-93636483D02*
X92437856Y-94071911D01*
X92437856Y-94071911D02*
X91966142Y-94071911D01*
X91712142Y-93309911D02*
X91240428Y-93309911D01*
X91240428Y-93309911D02*
X91494428Y-93600197D01*
X91494428Y-93600197D02*
X91385571Y-93600197D01*
X91385571Y-93600197D02*
X91313000Y-93636483D01*
X91313000Y-93636483D02*
X91276714Y-93672768D01*
X91276714Y-93672768D02*
X91240428Y-93745340D01*
X91240428Y-93745340D02*
X91240428Y-93926768D01*
X91240428Y-93926768D02*
X91276714Y-93999340D01*
X91276714Y-93999340D02*
X91313000Y-94035626D01*
X91313000Y-94035626D02*
X91385571Y-94071911D01*
X91385571Y-94071911D02*
X91603285Y-94071911D01*
X91603285Y-94071911D02*
X91675857Y-94035626D01*
X91675857Y-94035626D02*
X91712142Y-93999340D01*
%TO.C,C32*%
X135236856Y-123336340D02*
X135273142Y-123372626D01*
X135273142Y-123372626D02*
X135381999Y-123408911D01*
X135381999Y-123408911D02*
X135454571Y-123408911D01*
X135454571Y-123408911D02*
X135563428Y-123372626D01*
X135563428Y-123372626D02*
X135635999Y-123300054D01*
X135635999Y-123300054D02*
X135672285Y-123227483D01*
X135672285Y-123227483D02*
X135708571Y-123082340D01*
X135708571Y-123082340D02*
X135708571Y-122973483D01*
X135708571Y-122973483D02*
X135672285Y-122828340D01*
X135672285Y-122828340D02*
X135635999Y-122755768D01*
X135635999Y-122755768D02*
X135563428Y-122683197D01*
X135563428Y-122683197D02*
X135454571Y-122646911D01*
X135454571Y-122646911D02*
X135381999Y-122646911D01*
X135381999Y-122646911D02*
X135273142Y-122683197D01*
X135273142Y-122683197D02*
X135236856Y-122719483D01*
X134982856Y-122646911D02*
X134511142Y-122646911D01*
X134511142Y-122646911D02*
X134765142Y-122937197D01*
X134765142Y-122937197D02*
X134656285Y-122937197D01*
X134656285Y-122937197D02*
X134583714Y-122973483D01*
X134583714Y-122973483D02*
X134547428Y-123009768D01*
X134547428Y-123009768D02*
X134511142Y-123082340D01*
X134511142Y-123082340D02*
X134511142Y-123263768D01*
X134511142Y-123263768D02*
X134547428Y-123336340D01*
X134547428Y-123336340D02*
X134583714Y-123372626D01*
X134583714Y-123372626D02*
X134656285Y-123408911D01*
X134656285Y-123408911D02*
X134873999Y-123408911D01*
X134873999Y-123408911D02*
X134946571Y-123372626D01*
X134946571Y-123372626D02*
X134982856Y-123336340D01*
X134220857Y-122719483D02*
X134184571Y-122683197D01*
X134184571Y-122683197D02*
X134112000Y-122646911D01*
X134112000Y-122646911D02*
X133930571Y-122646911D01*
X133930571Y-122646911D02*
X133858000Y-122683197D01*
X133858000Y-122683197D02*
X133821714Y-122719483D01*
X133821714Y-122719483D02*
X133785428Y-122792054D01*
X133785428Y-122792054D02*
X133785428Y-122864626D01*
X133785428Y-122864626D02*
X133821714Y-122973483D01*
X133821714Y-122973483D02*
X134257142Y-123408911D01*
X134257142Y-123408911D02*
X133785428Y-123408911D01*
%TO.C,C72*%
X145523856Y-53486340D02*
X145560142Y-53522626D01*
X145560142Y-53522626D02*
X145668999Y-53558911D01*
X145668999Y-53558911D02*
X145741571Y-53558911D01*
X145741571Y-53558911D02*
X145850428Y-53522626D01*
X145850428Y-53522626D02*
X145922999Y-53450054D01*
X145922999Y-53450054D02*
X145959285Y-53377483D01*
X145959285Y-53377483D02*
X145995571Y-53232340D01*
X145995571Y-53232340D02*
X145995571Y-53123483D01*
X145995571Y-53123483D02*
X145959285Y-52978340D01*
X145959285Y-52978340D02*
X145922999Y-52905768D01*
X145922999Y-52905768D02*
X145850428Y-52833197D01*
X145850428Y-52833197D02*
X145741571Y-52796911D01*
X145741571Y-52796911D02*
X145668999Y-52796911D01*
X145668999Y-52796911D02*
X145560142Y-52833197D01*
X145560142Y-52833197D02*
X145523856Y-52869483D01*
X145269856Y-52796911D02*
X144761856Y-52796911D01*
X144761856Y-52796911D02*
X145088428Y-53558911D01*
X144507857Y-52869483D02*
X144471571Y-52833197D01*
X144471571Y-52833197D02*
X144399000Y-52796911D01*
X144399000Y-52796911D02*
X144217571Y-52796911D01*
X144217571Y-52796911D02*
X144145000Y-52833197D01*
X144145000Y-52833197D02*
X144108714Y-52869483D01*
X144108714Y-52869483D02*
X144072428Y-52942054D01*
X144072428Y-52942054D02*
X144072428Y-53014626D01*
X144072428Y-53014626D02*
X144108714Y-53123483D01*
X144108714Y-53123483D02*
X144544142Y-53558911D01*
X144544142Y-53558911D02*
X144072428Y-53558911D01*
%TO.C,U24*%
X142167428Y-52669911D02*
X142167428Y-53286768D01*
X142167428Y-53286768D02*
X142131142Y-53359340D01*
X142131142Y-53359340D02*
X142094857Y-53395626D01*
X142094857Y-53395626D02*
X142022285Y-53431911D01*
X142022285Y-53431911D02*
X141877142Y-53431911D01*
X141877142Y-53431911D02*
X141804571Y-53395626D01*
X141804571Y-53395626D02*
X141768285Y-53359340D01*
X141768285Y-53359340D02*
X141731999Y-53286768D01*
X141731999Y-53286768D02*
X141731999Y-52669911D01*
X141405428Y-52742483D02*
X141369142Y-52706197D01*
X141369142Y-52706197D02*
X141296571Y-52669911D01*
X141296571Y-52669911D02*
X141115142Y-52669911D01*
X141115142Y-52669911D02*
X141042571Y-52706197D01*
X141042571Y-52706197D02*
X141006285Y-52742483D01*
X141006285Y-52742483D02*
X140969999Y-52815054D01*
X140969999Y-52815054D02*
X140969999Y-52887626D01*
X140969999Y-52887626D02*
X141006285Y-52996483D01*
X141006285Y-52996483D02*
X141441713Y-53431911D01*
X141441713Y-53431911D02*
X140969999Y-53431911D01*
X140316857Y-52923911D02*
X140316857Y-53431911D01*
X140498285Y-52633626D02*
X140679714Y-53177911D01*
X140679714Y-53177911D02*
X140207999Y-53177911D01*
%TO.C,R86*%
X105882911Y-61359143D02*
X105520054Y-61105143D01*
X105882911Y-60923714D02*
X105120911Y-60923714D01*
X105120911Y-60923714D02*
X105120911Y-61214000D01*
X105120911Y-61214000D02*
X105157197Y-61286571D01*
X105157197Y-61286571D02*
X105193483Y-61322857D01*
X105193483Y-61322857D02*
X105266054Y-61359143D01*
X105266054Y-61359143D02*
X105374911Y-61359143D01*
X105374911Y-61359143D02*
X105447483Y-61322857D01*
X105447483Y-61322857D02*
X105483768Y-61286571D01*
X105483768Y-61286571D02*
X105520054Y-61214000D01*
X105520054Y-61214000D02*
X105520054Y-60923714D01*
X105447483Y-61794571D02*
X105411197Y-61722000D01*
X105411197Y-61722000D02*
X105374911Y-61685714D01*
X105374911Y-61685714D02*
X105302340Y-61649428D01*
X105302340Y-61649428D02*
X105266054Y-61649428D01*
X105266054Y-61649428D02*
X105193483Y-61685714D01*
X105193483Y-61685714D02*
X105157197Y-61722000D01*
X105157197Y-61722000D02*
X105120911Y-61794571D01*
X105120911Y-61794571D02*
X105120911Y-61939714D01*
X105120911Y-61939714D02*
X105157197Y-62012286D01*
X105157197Y-62012286D02*
X105193483Y-62048571D01*
X105193483Y-62048571D02*
X105266054Y-62084857D01*
X105266054Y-62084857D02*
X105302340Y-62084857D01*
X105302340Y-62084857D02*
X105374911Y-62048571D01*
X105374911Y-62048571D02*
X105411197Y-62012286D01*
X105411197Y-62012286D02*
X105447483Y-61939714D01*
X105447483Y-61939714D02*
X105447483Y-61794571D01*
X105447483Y-61794571D02*
X105483768Y-61722000D01*
X105483768Y-61722000D02*
X105520054Y-61685714D01*
X105520054Y-61685714D02*
X105592626Y-61649428D01*
X105592626Y-61649428D02*
X105737768Y-61649428D01*
X105737768Y-61649428D02*
X105810340Y-61685714D01*
X105810340Y-61685714D02*
X105846626Y-61722000D01*
X105846626Y-61722000D02*
X105882911Y-61794571D01*
X105882911Y-61794571D02*
X105882911Y-61939714D01*
X105882911Y-61939714D02*
X105846626Y-62012286D01*
X105846626Y-62012286D02*
X105810340Y-62048571D01*
X105810340Y-62048571D02*
X105737768Y-62084857D01*
X105737768Y-62084857D02*
X105592626Y-62084857D01*
X105592626Y-62084857D02*
X105520054Y-62048571D01*
X105520054Y-62048571D02*
X105483768Y-62012286D01*
X105483768Y-62012286D02*
X105447483Y-61939714D01*
X105120911Y-62738000D02*
X105120911Y-62592857D01*
X105120911Y-62592857D02*
X105157197Y-62520285D01*
X105157197Y-62520285D02*
X105193483Y-62484000D01*
X105193483Y-62484000D02*
X105302340Y-62411428D01*
X105302340Y-62411428D02*
X105447483Y-62375142D01*
X105447483Y-62375142D02*
X105737768Y-62375142D01*
X105737768Y-62375142D02*
X105810340Y-62411428D01*
X105810340Y-62411428D02*
X105846626Y-62447714D01*
X105846626Y-62447714D02*
X105882911Y-62520285D01*
X105882911Y-62520285D02*
X105882911Y-62665428D01*
X105882911Y-62665428D02*
X105846626Y-62738000D01*
X105846626Y-62738000D02*
X105810340Y-62774285D01*
X105810340Y-62774285D02*
X105737768Y-62810571D01*
X105737768Y-62810571D02*
X105556340Y-62810571D01*
X105556340Y-62810571D02*
X105483768Y-62774285D01*
X105483768Y-62774285D02*
X105447483Y-62738000D01*
X105447483Y-62738000D02*
X105411197Y-62665428D01*
X105411197Y-62665428D02*
X105411197Y-62520285D01*
X105411197Y-62520285D02*
X105447483Y-62447714D01*
X105447483Y-62447714D02*
X105483768Y-62411428D01*
X105483768Y-62411428D02*
X105556340Y-62375142D01*
%TO.C,R24*%
X73387856Y-55463911D02*
X73641856Y-55101054D01*
X73823285Y-55463911D02*
X73823285Y-54701911D01*
X73823285Y-54701911D02*
X73532999Y-54701911D01*
X73532999Y-54701911D02*
X73460428Y-54738197D01*
X73460428Y-54738197D02*
X73424142Y-54774483D01*
X73424142Y-54774483D02*
X73387856Y-54847054D01*
X73387856Y-54847054D02*
X73387856Y-54955911D01*
X73387856Y-54955911D02*
X73424142Y-55028483D01*
X73424142Y-55028483D02*
X73460428Y-55064768D01*
X73460428Y-55064768D02*
X73532999Y-55101054D01*
X73532999Y-55101054D02*
X73823285Y-55101054D01*
X73097571Y-54774483D02*
X73061285Y-54738197D01*
X73061285Y-54738197D02*
X72988714Y-54701911D01*
X72988714Y-54701911D02*
X72807285Y-54701911D01*
X72807285Y-54701911D02*
X72734714Y-54738197D01*
X72734714Y-54738197D02*
X72698428Y-54774483D01*
X72698428Y-54774483D02*
X72662142Y-54847054D01*
X72662142Y-54847054D02*
X72662142Y-54919626D01*
X72662142Y-54919626D02*
X72698428Y-55028483D01*
X72698428Y-55028483D02*
X73133856Y-55463911D01*
X73133856Y-55463911D02*
X72662142Y-55463911D01*
X72009000Y-54955911D02*
X72009000Y-55463911D01*
X72190428Y-54665626D02*
X72371857Y-55209911D01*
X72371857Y-55209911D02*
X71900142Y-55209911D01*
%TO.C,LED4*%
X80228911Y-53630285D02*
X80228911Y-53267428D01*
X80228911Y-53267428D02*
X79466911Y-53267428D01*
X79829768Y-53884285D02*
X79829768Y-54138285D01*
X80228911Y-54247142D02*
X80228911Y-53884285D01*
X80228911Y-53884285D02*
X79466911Y-53884285D01*
X79466911Y-53884285D02*
X79466911Y-54247142D01*
X80228911Y-54573714D02*
X79466911Y-54573714D01*
X79466911Y-54573714D02*
X79466911Y-54755143D01*
X79466911Y-54755143D02*
X79503197Y-54864000D01*
X79503197Y-54864000D02*
X79575768Y-54936571D01*
X79575768Y-54936571D02*
X79648340Y-54972857D01*
X79648340Y-54972857D02*
X79793483Y-55009143D01*
X79793483Y-55009143D02*
X79902340Y-55009143D01*
X79902340Y-55009143D02*
X80047483Y-54972857D01*
X80047483Y-54972857D02*
X80120054Y-54936571D01*
X80120054Y-54936571D02*
X80192626Y-54864000D01*
X80192626Y-54864000D02*
X80228911Y-54755143D01*
X80228911Y-54755143D02*
X80228911Y-54573714D01*
X79720911Y-55662286D02*
X80228911Y-55662286D01*
X79430626Y-55480857D02*
X79974911Y-55299428D01*
X79974911Y-55299428D02*
X79974911Y-55771143D01*
%TO.C,C73*%
X141459856Y-60344340D02*
X141496142Y-60380626D01*
X141496142Y-60380626D02*
X141604999Y-60416911D01*
X141604999Y-60416911D02*
X141677571Y-60416911D01*
X141677571Y-60416911D02*
X141786428Y-60380626D01*
X141786428Y-60380626D02*
X141858999Y-60308054D01*
X141858999Y-60308054D02*
X141895285Y-60235483D01*
X141895285Y-60235483D02*
X141931571Y-60090340D01*
X141931571Y-60090340D02*
X141931571Y-59981483D01*
X141931571Y-59981483D02*
X141895285Y-59836340D01*
X141895285Y-59836340D02*
X141858999Y-59763768D01*
X141858999Y-59763768D02*
X141786428Y-59691197D01*
X141786428Y-59691197D02*
X141677571Y-59654911D01*
X141677571Y-59654911D02*
X141604999Y-59654911D01*
X141604999Y-59654911D02*
X141496142Y-59691197D01*
X141496142Y-59691197D02*
X141459856Y-59727483D01*
X141205856Y-59654911D02*
X140697856Y-59654911D01*
X140697856Y-59654911D02*
X141024428Y-60416911D01*
X140480142Y-59654911D02*
X140008428Y-59654911D01*
X140008428Y-59654911D02*
X140262428Y-59945197D01*
X140262428Y-59945197D02*
X140153571Y-59945197D01*
X140153571Y-59945197D02*
X140081000Y-59981483D01*
X140081000Y-59981483D02*
X140044714Y-60017768D01*
X140044714Y-60017768D02*
X140008428Y-60090340D01*
X140008428Y-60090340D02*
X140008428Y-60271768D01*
X140008428Y-60271768D02*
X140044714Y-60344340D01*
X140044714Y-60344340D02*
X140081000Y-60380626D01*
X140081000Y-60380626D02*
X140153571Y-60416911D01*
X140153571Y-60416911D02*
X140371285Y-60416911D01*
X140371285Y-60416911D02*
X140443857Y-60380626D01*
X140443857Y-60380626D02*
X140480142Y-60344340D01*
%TO.C,C78*%
X124441856Y-141243340D02*
X124478142Y-141279626D01*
X124478142Y-141279626D02*
X124586999Y-141315911D01*
X124586999Y-141315911D02*
X124659571Y-141315911D01*
X124659571Y-141315911D02*
X124768428Y-141279626D01*
X124768428Y-141279626D02*
X124840999Y-141207054D01*
X124840999Y-141207054D02*
X124877285Y-141134483D01*
X124877285Y-141134483D02*
X124913571Y-140989340D01*
X124913571Y-140989340D02*
X124913571Y-140880483D01*
X124913571Y-140880483D02*
X124877285Y-140735340D01*
X124877285Y-140735340D02*
X124840999Y-140662768D01*
X124840999Y-140662768D02*
X124768428Y-140590197D01*
X124768428Y-140590197D02*
X124659571Y-140553911D01*
X124659571Y-140553911D02*
X124586999Y-140553911D01*
X124586999Y-140553911D02*
X124478142Y-140590197D01*
X124478142Y-140590197D02*
X124441856Y-140626483D01*
X124187856Y-140553911D02*
X123679856Y-140553911D01*
X123679856Y-140553911D02*
X124006428Y-141315911D01*
X123280714Y-140880483D02*
X123353285Y-140844197D01*
X123353285Y-140844197D02*
X123389571Y-140807911D01*
X123389571Y-140807911D02*
X123425857Y-140735340D01*
X123425857Y-140735340D02*
X123425857Y-140699054D01*
X123425857Y-140699054D02*
X123389571Y-140626483D01*
X123389571Y-140626483D02*
X123353285Y-140590197D01*
X123353285Y-140590197D02*
X123280714Y-140553911D01*
X123280714Y-140553911D02*
X123135571Y-140553911D01*
X123135571Y-140553911D02*
X123063000Y-140590197D01*
X123063000Y-140590197D02*
X123026714Y-140626483D01*
X123026714Y-140626483D02*
X122990428Y-140699054D01*
X122990428Y-140699054D02*
X122990428Y-140735340D01*
X122990428Y-140735340D02*
X123026714Y-140807911D01*
X123026714Y-140807911D02*
X123063000Y-140844197D01*
X123063000Y-140844197D02*
X123135571Y-140880483D01*
X123135571Y-140880483D02*
X123280714Y-140880483D01*
X123280714Y-140880483D02*
X123353285Y-140916768D01*
X123353285Y-140916768D02*
X123389571Y-140953054D01*
X123389571Y-140953054D02*
X123425857Y-141025626D01*
X123425857Y-141025626D02*
X123425857Y-141170768D01*
X123425857Y-141170768D02*
X123389571Y-141243340D01*
X123389571Y-141243340D02*
X123353285Y-141279626D01*
X123353285Y-141279626D02*
X123280714Y-141315911D01*
X123280714Y-141315911D02*
X123135571Y-141315911D01*
X123135571Y-141315911D02*
X123063000Y-141279626D01*
X123063000Y-141279626D02*
X123026714Y-141243340D01*
X123026714Y-141243340D02*
X122990428Y-141170768D01*
X122990428Y-141170768D02*
X122990428Y-141025626D01*
X122990428Y-141025626D02*
X123026714Y-140953054D01*
X123026714Y-140953054D02*
X123063000Y-140916768D01*
X123063000Y-140916768D02*
X123135571Y-140880483D01*
%TO.C,C84*%
X111115340Y-138956143D02*
X111151626Y-138919857D01*
X111151626Y-138919857D02*
X111187911Y-138811000D01*
X111187911Y-138811000D02*
X111187911Y-138738428D01*
X111187911Y-138738428D02*
X111151626Y-138629571D01*
X111151626Y-138629571D02*
X111079054Y-138557000D01*
X111079054Y-138557000D02*
X111006483Y-138520714D01*
X111006483Y-138520714D02*
X110861340Y-138484428D01*
X110861340Y-138484428D02*
X110752483Y-138484428D01*
X110752483Y-138484428D02*
X110607340Y-138520714D01*
X110607340Y-138520714D02*
X110534768Y-138557000D01*
X110534768Y-138557000D02*
X110462197Y-138629571D01*
X110462197Y-138629571D02*
X110425911Y-138738428D01*
X110425911Y-138738428D02*
X110425911Y-138811000D01*
X110425911Y-138811000D02*
X110462197Y-138919857D01*
X110462197Y-138919857D02*
X110498483Y-138956143D01*
X110752483Y-139391571D02*
X110716197Y-139319000D01*
X110716197Y-139319000D02*
X110679911Y-139282714D01*
X110679911Y-139282714D02*
X110607340Y-139246428D01*
X110607340Y-139246428D02*
X110571054Y-139246428D01*
X110571054Y-139246428D02*
X110498483Y-139282714D01*
X110498483Y-139282714D02*
X110462197Y-139319000D01*
X110462197Y-139319000D02*
X110425911Y-139391571D01*
X110425911Y-139391571D02*
X110425911Y-139536714D01*
X110425911Y-139536714D02*
X110462197Y-139609286D01*
X110462197Y-139609286D02*
X110498483Y-139645571D01*
X110498483Y-139645571D02*
X110571054Y-139681857D01*
X110571054Y-139681857D02*
X110607340Y-139681857D01*
X110607340Y-139681857D02*
X110679911Y-139645571D01*
X110679911Y-139645571D02*
X110716197Y-139609286D01*
X110716197Y-139609286D02*
X110752483Y-139536714D01*
X110752483Y-139536714D02*
X110752483Y-139391571D01*
X110752483Y-139391571D02*
X110788768Y-139319000D01*
X110788768Y-139319000D02*
X110825054Y-139282714D01*
X110825054Y-139282714D02*
X110897626Y-139246428D01*
X110897626Y-139246428D02*
X111042768Y-139246428D01*
X111042768Y-139246428D02*
X111115340Y-139282714D01*
X111115340Y-139282714D02*
X111151626Y-139319000D01*
X111151626Y-139319000D02*
X111187911Y-139391571D01*
X111187911Y-139391571D02*
X111187911Y-139536714D01*
X111187911Y-139536714D02*
X111151626Y-139609286D01*
X111151626Y-139609286D02*
X111115340Y-139645571D01*
X111115340Y-139645571D02*
X111042768Y-139681857D01*
X111042768Y-139681857D02*
X110897626Y-139681857D01*
X110897626Y-139681857D02*
X110825054Y-139645571D01*
X110825054Y-139645571D02*
X110788768Y-139609286D01*
X110788768Y-139609286D02*
X110752483Y-139536714D01*
X110679911Y-140335000D02*
X111187911Y-140335000D01*
X110389626Y-140153571D02*
X110933911Y-139972142D01*
X110933911Y-139972142D02*
X110933911Y-140443857D01*
%TO.C,C48*%
X114065340Y-93363143D02*
X114101626Y-93326857D01*
X114101626Y-93326857D02*
X114137911Y-93218000D01*
X114137911Y-93218000D02*
X114137911Y-93145428D01*
X114137911Y-93145428D02*
X114101626Y-93036571D01*
X114101626Y-93036571D02*
X114029054Y-92964000D01*
X114029054Y-92964000D02*
X113956483Y-92927714D01*
X113956483Y-92927714D02*
X113811340Y-92891428D01*
X113811340Y-92891428D02*
X113702483Y-92891428D01*
X113702483Y-92891428D02*
X113557340Y-92927714D01*
X113557340Y-92927714D02*
X113484768Y-92964000D01*
X113484768Y-92964000D02*
X113412197Y-93036571D01*
X113412197Y-93036571D02*
X113375911Y-93145428D01*
X113375911Y-93145428D02*
X113375911Y-93218000D01*
X113375911Y-93218000D02*
X113412197Y-93326857D01*
X113412197Y-93326857D02*
X113448483Y-93363143D01*
X113629911Y-94016286D02*
X114137911Y-94016286D01*
X113339626Y-93834857D02*
X113883911Y-93653428D01*
X113883911Y-93653428D02*
X113883911Y-94125143D01*
X113702483Y-94524285D02*
X113666197Y-94451714D01*
X113666197Y-94451714D02*
X113629911Y-94415428D01*
X113629911Y-94415428D02*
X113557340Y-94379142D01*
X113557340Y-94379142D02*
X113521054Y-94379142D01*
X113521054Y-94379142D02*
X113448483Y-94415428D01*
X113448483Y-94415428D02*
X113412197Y-94451714D01*
X113412197Y-94451714D02*
X113375911Y-94524285D01*
X113375911Y-94524285D02*
X113375911Y-94669428D01*
X113375911Y-94669428D02*
X113412197Y-94742000D01*
X113412197Y-94742000D02*
X113448483Y-94778285D01*
X113448483Y-94778285D02*
X113521054Y-94814571D01*
X113521054Y-94814571D02*
X113557340Y-94814571D01*
X113557340Y-94814571D02*
X113629911Y-94778285D01*
X113629911Y-94778285D02*
X113666197Y-94742000D01*
X113666197Y-94742000D02*
X113702483Y-94669428D01*
X113702483Y-94669428D02*
X113702483Y-94524285D01*
X113702483Y-94524285D02*
X113738768Y-94451714D01*
X113738768Y-94451714D02*
X113775054Y-94415428D01*
X113775054Y-94415428D02*
X113847626Y-94379142D01*
X113847626Y-94379142D02*
X113992768Y-94379142D01*
X113992768Y-94379142D02*
X114065340Y-94415428D01*
X114065340Y-94415428D02*
X114101626Y-94451714D01*
X114101626Y-94451714D02*
X114137911Y-94524285D01*
X114137911Y-94524285D02*
X114137911Y-94669428D01*
X114137911Y-94669428D02*
X114101626Y-94742000D01*
X114101626Y-94742000D02*
X114065340Y-94778285D01*
X114065340Y-94778285D02*
X113992768Y-94814571D01*
X113992768Y-94814571D02*
X113847626Y-94814571D01*
X113847626Y-94814571D02*
X113775054Y-94778285D01*
X113775054Y-94778285D02*
X113738768Y-94742000D01*
X113738768Y-94742000D02*
X113702483Y-94669428D01*
%TO.C,C41*%
X118726856Y-121939340D02*
X118763142Y-121975626D01*
X118763142Y-121975626D02*
X118871999Y-122011911D01*
X118871999Y-122011911D02*
X118944571Y-122011911D01*
X118944571Y-122011911D02*
X119053428Y-121975626D01*
X119053428Y-121975626D02*
X119125999Y-121903054D01*
X119125999Y-121903054D02*
X119162285Y-121830483D01*
X119162285Y-121830483D02*
X119198571Y-121685340D01*
X119198571Y-121685340D02*
X119198571Y-121576483D01*
X119198571Y-121576483D02*
X119162285Y-121431340D01*
X119162285Y-121431340D02*
X119125999Y-121358768D01*
X119125999Y-121358768D02*
X119053428Y-121286197D01*
X119053428Y-121286197D02*
X118944571Y-121249911D01*
X118944571Y-121249911D02*
X118871999Y-121249911D01*
X118871999Y-121249911D02*
X118763142Y-121286197D01*
X118763142Y-121286197D02*
X118726856Y-121322483D01*
X118073714Y-121503911D02*
X118073714Y-122011911D01*
X118255142Y-121213626D02*
X118436571Y-121757911D01*
X118436571Y-121757911D02*
X117964856Y-121757911D01*
X117275428Y-122011911D02*
X117710857Y-122011911D01*
X117493142Y-122011911D02*
X117493142Y-121249911D01*
X117493142Y-121249911D02*
X117565714Y-121358768D01*
X117565714Y-121358768D02*
X117638285Y-121431340D01*
X117638285Y-121431340D02*
X117710857Y-121467626D01*
%TO.C,C67*%
X125711856Y-83712340D02*
X125748142Y-83748626D01*
X125748142Y-83748626D02*
X125856999Y-83784911D01*
X125856999Y-83784911D02*
X125929571Y-83784911D01*
X125929571Y-83784911D02*
X126038428Y-83748626D01*
X126038428Y-83748626D02*
X126110999Y-83676054D01*
X126110999Y-83676054D02*
X126147285Y-83603483D01*
X126147285Y-83603483D02*
X126183571Y-83458340D01*
X126183571Y-83458340D02*
X126183571Y-83349483D01*
X126183571Y-83349483D02*
X126147285Y-83204340D01*
X126147285Y-83204340D02*
X126110999Y-83131768D01*
X126110999Y-83131768D02*
X126038428Y-83059197D01*
X126038428Y-83059197D02*
X125929571Y-83022911D01*
X125929571Y-83022911D02*
X125856999Y-83022911D01*
X125856999Y-83022911D02*
X125748142Y-83059197D01*
X125748142Y-83059197D02*
X125711856Y-83095483D01*
X125058714Y-83022911D02*
X125203856Y-83022911D01*
X125203856Y-83022911D02*
X125276428Y-83059197D01*
X125276428Y-83059197D02*
X125312714Y-83095483D01*
X125312714Y-83095483D02*
X125385285Y-83204340D01*
X125385285Y-83204340D02*
X125421571Y-83349483D01*
X125421571Y-83349483D02*
X125421571Y-83639768D01*
X125421571Y-83639768D02*
X125385285Y-83712340D01*
X125385285Y-83712340D02*
X125348999Y-83748626D01*
X125348999Y-83748626D02*
X125276428Y-83784911D01*
X125276428Y-83784911D02*
X125131285Y-83784911D01*
X125131285Y-83784911D02*
X125058714Y-83748626D01*
X125058714Y-83748626D02*
X125022428Y-83712340D01*
X125022428Y-83712340D02*
X124986142Y-83639768D01*
X124986142Y-83639768D02*
X124986142Y-83458340D01*
X124986142Y-83458340D02*
X125022428Y-83385768D01*
X125022428Y-83385768D02*
X125058714Y-83349483D01*
X125058714Y-83349483D02*
X125131285Y-83313197D01*
X125131285Y-83313197D02*
X125276428Y-83313197D01*
X125276428Y-83313197D02*
X125348999Y-83349483D01*
X125348999Y-83349483D02*
X125385285Y-83385768D01*
X125385285Y-83385768D02*
X125421571Y-83458340D01*
X124732142Y-83022911D02*
X124224142Y-83022911D01*
X124224142Y-83022911D02*
X124550714Y-83784911D01*
%TO.C,C62*%
X105264856Y-80537340D02*
X105301142Y-80573626D01*
X105301142Y-80573626D02*
X105409999Y-80609911D01*
X105409999Y-80609911D02*
X105482571Y-80609911D01*
X105482571Y-80609911D02*
X105591428Y-80573626D01*
X105591428Y-80573626D02*
X105663999Y-80501054D01*
X105663999Y-80501054D02*
X105700285Y-80428483D01*
X105700285Y-80428483D02*
X105736571Y-80283340D01*
X105736571Y-80283340D02*
X105736571Y-80174483D01*
X105736571Y-80174483D02*
X105700285Y-80029340D01*
X105700285Y-80029340D02*
X105663999Y-79956768D01*
X105663999Y-79956768D02*
X105591428Y-79884197D01*
X105591428Y-79884197D02*
X105482571Y-79847911D01*
X105482571Y-79847911D02*
X105409999Y-79847911D01*
X105409999Y-79847911D02*
X105301142Y-79884197D01*
X105301142Y-79884197D02*
X105264856Y-79920483D01*
X104611714Y-79847911D02*
X104756856Y-79847911D01*
X104756856Y-79847911D02*
X104829428Y-79884197D01*
X104829428Y-79884197D02*
X104865714Y-79920483D01*
X104865714Y-79920483D02*
X104938285Y-80029340D01*
X104938285Y-80029340D02*
X104974571Y-80174483D01*
X104974571Y-80174483D02*
X104974571Y-80464768D01*
X104974571Y-80464768D02*
X104938285Y-80537340D01*
X104938285Y-80537340D02*
X104901999Y-80573626D01*
X104901999Y-80573626D02*
X104829428Y-80609911D01*
X104829428Y-80609911D02*
X104684285Y-80609911D01*
X104684285Y-80609911D02*
X104611714Y-80573626D01*
X104611714Y-80573626D02*
X104575428Y-80537340D01*
X104575428Y-80537340D02*
X104539142Y-80464768D01*
X104539142Y-80464768D02*
X104539142Y-80283340D01*
X104539142Y-80283340D02*
X104575428Y-80210768D01*
X104575428Y-80210768D02*
X104611714Y-80174483D01*
X104611714Y-80174483D02*
X104684285Y-80138197D01*
X104684285Y-80138197D02*
X104829428Y-80138197D01*
X104829428Y-80138197D02*
X104901999Y-80174483D01*
X104901999Y-80174483D02*
X104938285Y-80210768D01*
X104938285Y-80210768D02*
X104974571Y-80283340D01*
X104248857Y-79920483D02*
X104212571Y-79884197D01*
X104212571Y-79884197D02*
X104140000Y-79847911D01*
X104140000Y-79847911D02*
X103958571Y-79847911D01*
X103958571Y-79847911D02*
X103886000Y-79884197D01*
X103886000Y-79884197D02*
X103849714Y-79920483D01*
X103849714Y-79920483D02*
X103813428Y-79993054D01*
X103813428Y-79993054D02*
X103813428Y-80065626D01*
X103813428Y-80065626D02*
X103849714Y-80174483D01*
X103849714Y-80174483D02*
X104285142Y-80609911D01*
X104285142Y-80609911D02*
X103813428Y-80609911D01*
%TO.C,R20*%
X76181856Y-55463911D02*
X76435856Y-55101054D01*
X76617285Y-55463911D02*
X76617285Y-54701911D01*
X76617285Y-54701911D02*
X76326999Y-54701911D01*
X76326999Y-54701911D02*
X76254428Y-54738197D01*
X76254428Y-54738197D02*
X76218142Y-54774483D01*
X76218142Y-54774483D02*
X76181856Y-54847054D01*
X76181856Y-54847054D02*
X76181856Y-54955911D01*
X76181856Y-54955911D02*
X76218142Y-55028483D01*
X76218142Y-55028483D02*
X76254428Y-55064768D01*
X76254428Y-55064768D02*
X76326999Y-55101054D01*
X76326999Y-55101054D02*
X76617285Y-55101054D01*
X75891571Y-54774483D02*
X75855285Y-54738197D01*
X75855285Y-54738197D02*
X75782714Y-54701911D01*
X75782714Y-54701911D02*
X75601285Y-54701911D01*
X75601285Y-54701911D02*
X75528714Y-54738197D01*
X75528714Y-54738197D02*
X75492428Y-54774483D01*
X75492428Y-54774483D02*
X75456142Y-54847054D01*
X75456142Y-54847054D02*
X75456142Y-54919626D01*
X75456142Y-54919626D02*
X75492428Y-55028483D01*
X75492428Y-55028483D02*
X75927856Y-55463911D01*
X75927856Y-55463911D02*
X75456142Y-55463911D01*
X74984428Y-54701911D02*
X74911857Y-54701911D01*
X74911857Y-54701911D02*
X74839285Y-54738197D01*
X74839285Y-54738197D02*
X74803000Y-54774483D01*
X74803000Y-54774483D02*
X74766714Y-54847054D01*
X74766714Y-54847054D02*
X74730428Y-54992197D01*
X74730428Y-54992197D02*
X74730428Y-55173626D01*
X74730428Y-55173626D02*
X74766714Y-55318768D01*
X74766714Y-55318768D02*
X74803000Y-55391340D01*
X74803000Y-55391340D02*
X74839285Y-55427626D01*
X74839285Y-55427626D02*
X74911857Y-55463911D01*
X74911857Y-55463911D02*
X74984428Y-55463911D01*
X74984428Y-55463911D02*
X75057000Y-55427626D01*
X75057000Y-55427626D02*
X75093285Y-55391340D01*
X75093285Y-55391340D02*
X75129571Y-55318768D01*
X75129571Y-55318768D02*
X75165857Y-55173626D01*
X75165857Y-55173626D02*
X75165857Y-54992197D01*
X75165857Y-54992197D02*
X75129571Y-54847054D01*
X75129571Y-54847054D02*
X75093285Y-54774483D01*
X75093285Y-54774483D02*
X75057000Y-54738197D01*
X75057000Y-54738197D02*
X74984428Y-54701911D01*
%TO.C,C71*%
X145777856Y-58312340D02*
X145814142Y-58348626D01*
X145814142Y-58348626D02*
X145922999Y-58384911D01*
X145922999Y-58384911D02*
X145995571Y-58384911D01*
X145995571Y-58384911D02*
X146104428Y-58348626D01*
X146104428Y-58348626D02*
X146176999Y-58276054D01*
X146176999Y-58276054D02*
X146213285Y-58203483D01*
X146213285Y-58203483D02*
X146249571Y-58058340D01*
X146249571Y-58058340D02*
X146249571Y-57949483D01*
X146249571Y-57949483D02*
X146213285Y-57804340D01*
X146213285Y-57804340D02*
X146176999Y-57731768D01*
X146176999Y-57731768D02*
X146104428Y-57659197D01*
X146104428Y-57659197D02*
X145995571Y-57622911D01*
X145995571Y-57622911D02*
X145922999Y-57622911D01*
X145922999Y-57622911D02*
X145814142Y-57659197D01*
X145814142Y-57659197D02*
X145777856Y-57695483D01*
X145523856Y-57622911D02*
X145015856Y-57622911D01*
X145015856Y-57622911D02*
X145342428Y-58384911D01*
X144326428Y-58384911D02*
X144761857Y-58384911D01*
X144544142Y-58384911D02*
X144544142Y-57622911D01*
X144544142Y-57622911D02*
X144616714Y-57731768D01*
X144616714Y-57731768D02*
X144689285Y-57804340D01*
X144689285Y-57804340D02*
X144761857Y-57840626D01*
%TO.C,R37*%
X124137911Y-115715143D02*
X123775054Y-115461143D01*
X124137911Y-115279714D02*
X123375911Y-115279714D01*
X123375911Y-115279714D02*
X123375911Y-115570000D01*
X123375911Y-115570000D02*
X123412197Y-115642571D01*
X123412197Y-115642571D02*
X123448483Y-115678857D01*
X123448483Y-115678857D02*
X123521054Y-115715143D01*
X123521054Y-115715143D02*
X123629911Y-115715143D01*
X123629911Y-115715143D02*
X123702483Y-115678857D01*
X123702483Y-115678857D02*
X123738768Y-115642571D01*
X123738768Y-115642571D02*
X123775054Y-115570000D01*
X123775054Y-115570000D02*
X123775054Y-115279714D01*
X123375911Y-115969143D02*
X123375911Y-116440857D01*
X123375911Y-116440857D02*
X123666197Y-116186857D01*
X123666197Y-116186857D02*
X123666197Y-116295714D01*
X123666197Y-116295714D02*
X123702483Y-116368286D01*
X123702483Y-116368286D02*
X123738768Y-116404571D01*
X123738768Y-116404571D02*
X123811340Y-116440857D01*
X123811340Y-116440857D02*
X123992768Y-116440857D01*
X123992768Y-116440857D02*
X124065340Y-116404571D01*
X124065340Y-116404571D02*
X124101626Y-116368286D01*
X124101626Y-116368286D02*
X124137911Y-116295714D01*
X124137911Y-116295714D02*
X124137911Y-116078000D01*
X124137911Y-116078000D02*
X124101626Y-116005428D01*
X124101626Y-116005428D02*
X124065340Y-115969143D01*
X123375911Y-116694857D02*
X123375911Y-117202857D01*
X123375911Y-117202857D02*
X124137911Y-116876285D01*
%TO.C,C17*%
X91807340Y-107206143D02*
X91843626Y-107169857D01*
X91843626Y-107169857D02*
X91879911Y-107061000D01*
X91879911Y-107061000D02*
X91879911Y-106988428D01*
X91879911Y-106988428D02*
X91843626Y-106879571D01*
X91843626Y-106879571D02*
X91771054Y-106807000D01*
X91771054Y-106807000D02*
X91698483Y-106770714D01*
X91698483Y-106770714D02*
X91553340Y-106734428D01*
X91553340Y-106734428D02*
X91444483Y-106734428D01*
X91444483Y-106734428D02*
X91299340Y-106770714D01*
X91299340Y-106770714D02*
X91226768Y-106807000D01*
X91226768Y-106807000D02*
X91154197Y-106879571D01*
X91154197Y-106879571D02*
X91117911Y-106988428D01*
X91117911Y-106988428D02*
X91117911Y-107061000D01*
X91117911Y-107061000D02*
X91154197Y-107169857D01*
X91154197Y-107169857D02*
X91190483Y-107206143D01*
X91879911Y-107931857D02*
X91879911Y-107496428D01*
X91879911Y-107714143D02*
X91117911Y-107714143D01*
X91117911Y-107714143D02*
X91226768Y-107641571D01*
X91226768Y-107641571D02*
X91299340Y-107569000D01*
X91299340Y-107569000D02*
X91335626Y-107496428D01*
X91117911Y-108185857D02*
X91117911Y-108693857D01*
X91117911Y-108693857D02*
X91879911Y-108367285D01*
%TO.C,C57*%
X134982856Y-97809340D02*
X135019142Y-97845626D01*
X135019142Y-97845626D02*
X135127999Y-97881911D01*
X135127999Y-97881911D02*
X135200571Y-97881911D01*
X135200571Y-97881911D02*
X135309428Y-97845626D01*
X135309428Y-97845626D02*
X135381999Y-97773054D01*
X135381999Y-97773054D02*
X135418285Y-97700483D01*
X135418285Y-97700483D02*
X135454571Y-97555340D01*
X135454571Y-97555340D02*
X135454571Y-97446483D01*
X135454571Y-97446483D02*
X135418285Y-97301340D01*
X135418285Y-97301340D02*
X135381999Y-97228768D01*
X135381999Y-97228768D02*
X135309428Y-97156197D01*
X135309428Y-97156197D02*
X135200571Y-97119911D01*
X135200571Y-97119911D02*
X135127999Y-97119911D01*
X135127999Y-97119911D02*
X135019142Y-97156197D01*
X135019142Y-97156197D02*
X134982856Y-97192483D01*
X134293428Y-97119911D02*
X134656285Y-97119911D01*
X134656285Y-97119911D02*
X134692571Y-97482768D01*
X134692571Y-97482768D02*
X134656285Y-97446483D01*
X134656285Y-97446483D02*
X134583714Y-97410197D01*
X134583714Y-97410197D02*
X134402285Y-97410197D01*
X134402285Y-97410197D02*
X134329714Y-97446483D01*
X134329714Y-97446483D02*
X134293428Y-97482768D01*
X134293428Y-97482768D02*
X134257142Y-97555340D01*
X134257142Y-97555340D02*
X134257142Y-97736768D01*
X134257142Y-97736768D02*
X134293428Y-97809340D01*
X134293428Y-97809340D02*
X134329714Y-97845626D01*
X134329714Y-97845626D02*
X134402285Y-97881911D01*
X134402285Y-97881911D02*
X134583714Y-97881911D01*
X134583714Y-97881911D02*
X134656285Y-97845626D01*
X134656285Y-97845626D02*
X134692571Y-97809340D01*
X134003142Y-97119911D02*
X133495142Y-97119911D01*
X133495142Y-97119911D02*
X133821714Y-97881911D01*
%TO.C,C46*%
X128670340Y-102380143D02*
X128706626Y-102343857D01*
X128706626Y-102343857D02*
X128742911Y-102235000D01*
X128742911Y-102235000D02*
X128742911Y-102162428D01*
X128742911Y-102162428D02*
X128706626Y-102053571D01*
X128706626Y-102053571D02*
X128634054Y-101981000D01*
X128634054Y-101981000D02*
X128561483Y-101944714D01*
X128561483Y-101944714D02*
X128416340Y-101908428D01*
X128416340Y-101908428D02*
X128307483Y-101908428D01*
X128307483Y-101908428D02*
X128162340Y-101944714D01*
X128162340Y-101944714D02*
X128089768Y-101981000D01*
X128089768Y-101981000D02*
X128017197Y-102053571D01*
X128017197Y-102053571D02*
X127980911Y-102162428D01*
X127980911Y-102162428D02*
X127980911Y-102235000D01*
X127980911Y-102235000D02*
X128017197Y-102343857D01*
X128017197Y-102343857D02*
X128053483Y-102380143D01*
X128234911Y-103033286D02*
X128742911Y-103033286D01*
X127944626Y-102851857D02*
X128488911Y-102670428D01*
X128488911Y-102670428D02*
X128488911Y-103142143D01*
X127980911Y-103759000D02*
X127980911Y-103613857D01*
X127980911Y-103613857D02*
X128017197Y-103541285D01*
X128017197Y-103541285D02*
X128053483Y-103505000D01*
X128053483Y-103505000D02*
X128162340Y-103432428D01*
X128162340Y-103432428D02*
X128307483Y-103396142D01*
X128307483Y-103396142D02*
X128597768Y-103396142D01*
X128597768Y-103396142D02*
X128670340Y-103432428D01*
X128670340Y-103432428D02*
X128706626Y-103468714D01*
X128706626Y-103468714D02*
X128742911Y-103541285D01*
X128742911Y-103541285D02*
X128742911Y-103686428D01*
X128742911Y-103686428D02*
X128706626Y-103759000D01*
X128706626Y-103759000D02*
X128670340Y-103795285D01*
X128670340Y-103795285D02*
X128597768Y-103831571D01*
X128597768Y-103831571D02*
X128416340Y-103831571D01*
X128416340Y-103831571D02*
X128343768Y-103795285D01*
X128343768Y-103795285D02*
X128307483Y-103759000D01*
X128307483Y-103759000D02*
X128271197Y-103686428D01*
X128271197Y-103686428D02*
X128271197Y-103541285D01*
X128271197Y-103541285D02*
X128307483Y-103468714D01*
X128307483Y-103468714D02*
X128343768Y-103432428D01*
X128343768Y-103432428D02*
X128416340Y-103396142D01*
%TO.C,C22*%
X92691856Y-96158340D02*
X92728142Y-96194626D01*
X92728142Y-96194626D02*
X92836999Y-96230911D01*
X92836999Y-96230911D02*
X92909571Y-96230911D01*
X92909571Y-96230911D02*
X93018428Y-96194626D01*
X93018428Y-96194626D02*
X93090999Y-96122054D01*
X93090999Y-96122054D02*
X93127285Y-96049483D01*
X93127285Y-96049483D02*
X93163571Y-95904340D01*
X93163571Y-95904340D02*
X93163571Y-95795483D01*
X93163571Y-95795483D02*
X93127285Y-95650340D01*
X93127285Y-95650340D02*
X93090999Y-95577768D01*
X93090999Y-95577768D02*
X93018428Y-95505197D01*
X93018428Y-95505197D02*
X92909571Y-95468911D01*
X92909571Y-95468911D02*
X92836999Y-95468911D01*
X92836999Y-95468911D02*
X92728142Y-95505197D01*
X92728142Y-95505197D02*
X92691856Y-95541483D01*
X92401571Y-95541483D02*
X92365285Y-95505197D01*
X92365285Y-95505197D02*
X92292714Y-95468911D01*
X92292714Y-95468911D02*
X92111285Y-95468911D01*
X92111285Y-95468911D02*
X92038714Y-95505197D01*
X92038714Y-95505197D02*
X92002428Y-95541483D01*
X92002428Y-95541483D02*
X91966142Y-95614054D01*
X91966142Y-95614054D02*
X91966142Y-95686626D01*
X91966142Y-95686626D02*
X92002428Y-95795483D01*
X92002428Y-95795483D02*
X92437856Y-96230911D01*
X92437856Y-96230911D02*
X91966142Y-96230911D01*
X91675857Y-95541483D02*
X91639571Y-95505197D01*
X91639571Y-95505197D02*
X91567000Y-95468911D01*
X91567000Y-95468911D02*
X91385571Y-95468911D01*
X91385571Y-95468911D02*
X91313000Y-95505197D01*
X91313000Y-95505197D02*
X91276714Y-95541483D01*
X91276714Y-95541483D02*
X91240428Y-95614054D01*
X91240428Y-95614054D02*
X91240428Y-95686626D01*
X91240428Y-95686626D02*
X91276714Y-95795483D01*
X91276714Y-95795483D02*
X91712142Y-96230911D01*
X91712142Y-96230911D02*
X91240428Y-96230911D01*
%TO.C,R15*%
X83784911Y-111905143D02*
X83422054Y-111651143D01*
X83784911Y-111469714D02*
X83022911Y-111469714D01*
X83022911Y-111469714D02*
X83022911Y-111760000D01*
X83022911Y-111760000D02*
X83059197Y-111832571D01*
X83059197Y-111832571D02*
X83095483Y-111868857D01*
X83095483Y-111868857D02*
X83168054Y-111905143D01*
X83168054Y-111905143D02*
X83276911Y-111905143D01*
X83276911Y-111905143D02*
X83349483Y-111868857D01*
X83349483Y-111868857D02*
X83385768Y-111832571D01*
X83385768Y-111832571D02*
X83422054Y-111760000D01*
X83422054Y-111760000D02*
X83422054Y-111469714D01*
X83784911Y-112630857D02*
X83784911Y-112195428D01*
X83784911Y-112413143D02*
X83022911Y-112413143D01*
X83022911Y-112413143D02*
X83131768Y-112340571D01*
X83131768Y-112340571D02*
X83204340Y-112268000D01*
X83204340Y-112268000D02*
X83240626Y-112195428D01*
X83022911Y-113320285D02*
X83022911Y-112957428D01*
X83022911Y-112957428D02*
X83385768Y-112921142D01*
X83385768Y-112921142D02*
X83349483Y-112957428D01*
X83349483Y-112957428D02*
X83313197Y-113030000D01*
X83313197Y-113030000D02*
X83313197Y-113211428D01*
X83313197Y-113211428D02*
X83349483Y-113284000D01*
X83349483Y-113284000D02*
X83385768Y-113320285D01*
X83385768Y-113320285D02*
X83458340Y-113356571D01*
X83458340Y-113356571D02*
X83639768Y-113356571D01*
X83639768Y-113356571D02*
X83712340Y-113320285D01*
X83712340Y-113320285D02*
X83748626Y-113284000D01*
X83748626Y-113284000D02*
X83784911Y-113211428D01*
X83784911Y-113211428D02*
X83784911Y-113030000D01*
X83784911Y-113030000D02*
X83748626Y-112957428D01*
X83748626Y-112957428D02*
X83712340Y-112921142D01*
%TO.C,C49*%
X116097340Y-93617143D02*
X116133626Y-93580857D01*
X116133626Y-93580857D02*
X116169911Y-93472000D01*
X116169911Y-93472000D02*
X116169911Y-93399428D01*
X116169911Y-93399428D02*
X116133626Y-93290571D01*
X116133626Y-93290571D02*
X116061054Y-93218000D01*
X116061054Y-93218000D02*
X115988483Y-93181714D01*
X115988483Y-93181714D02*
X115843340Y-93145428D01*
X115843340Y-93145428D02*
X115734483Y-93145428D01*
X115734483Y-93145428D02*
X115589340Y-93181714D01*
X115589340Y-93181714D02*
X115516768Y-93218000D01*
X115516768Y-93218000D02*
X115444197Y-93290571D01*
X115444197Y-93290571D02*
X115407911Y-93399428D01*
X115407911Y-93399428D02*
X115407911Y-93472000D01*
X115407911Y-93472000D02*
X115444197Y-93580857D01*
X115444197Y-93580857D02*
X115480483Y-93617143D01*
X115661911Y-94270286D02*
X116169911Y-94270286D01*
X115371626Y-94088857D02*
X115915911Y-93907428D01*
X115915911Y-93907428D02*
X115915911Y-94379143D01*
X116169911Y-94705714D02*
X116169911Y-94850857D01*
X116169911Y-94850857D02*
X116133626Y-94923428D01*
X116133626Y-94923428D02*
X116097340Y-94959714D01*
X116097340Y-94959714D02*
X115988483Y-95032285D01*
X115988483Y-95032285D02*
X115843340Y-95068571D01*
X115843340Y-95068571D02*
X115553054Y-95068571D01*
X115553054Y-95068571D02*
X115480483Y-95032285D01*
X115480483Y-95032285D02*
X115444197Y-94996000D01*
X115444197Y-94996000D02*
X115407911Y-94923428D01*
X115407911Y-94923428D02*
X115407911Y-94778285D01*
X115407911Y-94778285D02*
X115444197Y-94705714D01*
X115444197Y-94705714D02*
X115480483Y-94669428D01*
X115480483Y-94669428D02*
X115553054Y-94633142D01*
X115553054Y-94633142D02*
X115734483Y-94633142D01*
X115734483Y-94633142D02*
X115807054Y-94669428D01*
X115807054Y-94669428D02*
X115843340Y-94705714D01*
X115843340Y-94705714D02*
X115879626Y-94778285D01*
X115879626Y-94778285D02*
X115879626Y-94923428D01*
X115879626Y-94923428D02*
X115843340Y-94996000D01*
X115843340Y-94996000D02*
X115807054Y-95032285D01*
X115807054Y-95032285D02*
X115734483Y-95068571D01*
%TO.C,C25*%
X86252340Y-100221143D02*
X86288626Y-100184857D01*
X86288626Y-100184857D02*
X86324911Y-100076000D01*
X86324911Y-100076000D02*
X86324911Y-100003428D01*
X86324911Y-100003428D02*
X86288626Y-99894571D01*
X86288626Y-99894571D02*
X86216054Y-99822000D01*
X86216054Y-99822000D02*
X86143483Y-99785714D01*
X86143483Y-99785714D02*
X85998340Y-99749428D01*
X85998340Y-99749428D02*
X85889483Y-99749428D01*
X85889483Y-99749428D02*
X85744340Y-99785714D01*
X85744340Y-99785714D02*
X85671768Y-99822000D01*
X85671768Y-99822000D02*
X85599197Y-99894571D01*
X85599197Y-99894571D02*
X85562911Y-100003428D01*
X85562911Y-100003428D02*
X85562911Y-100076000D01*
X85562911Y-100076000D02*
X85599197Y-100184857D01*
X85599197Y-100184857D02*
X85635483Y-100221143D01*
X85635483Y-100511428D02*
X85599197Y-100547714D01*
X85599197Y-100547714D02*
X85562911Y-100620286D01*
X85562911Y-100620286D02*
X85562911Y-100801714D01*
X85562911Y-100801714D02*
X85599197Y-100874286D01*
X85599197Y-100874286D02*
X85635483Y-100910571D01*
X85635483Y-100910571D02*
X85708054Y-100946857D01*
X85708054Y-100946857D02*
X85780626Y-100946857D01*
X85780626Y-100946857D02*
X85889483Y-100910571D01*
X85889483Y-100910571D02*
X86324911Y-100475143D01*
X86324911Y-100475143D02*
X86324911Y-100946857D01*
X85562911Y-101636285D02*
X85562911Y-101273428D01*
X85562911Y-101273428D02*
X85925768Y-101237142D01*
X85925768Y-101237142D02*
X85889483Y-101273428D01*
X85889483Y-101273428D02*
X85853197Y-101346000D01*
X85853197Y-101346000D02*
X85853197Y-101527428D01*
X85853197Y-101527428D02*
X85889483Y-101600000D01*
X85889483Y-101600000D02*
X85925768Y-101636285D01*
X85925768Y-101636285D02*
X85998340Y-101672571D01*
X85998340Y-101672571D02*
X86179768Y-101672571D01*
X86179768Y-101672571D02*
X86252340Y-101636285D01*
X86252340Y-101636285D02*
X86288626Y-101600000D01*
X86288626Y-101600000D02*
X86324911Y-101527428D01*
X86324911Y-101527428D02*
X86324911Y-101346000D01*
X86324911Y-101346000D02*
X86288626Y-101273428D01*
X86288626Y-101273428D02*
X86252340Y-101237142D01*
%TO.C,C77*%
X128797340Y-139972143D02*
X128833626Y-139935857D01*
X128833626Y-139935857D02*
X128869911Y-139827000D01*
X128869911Y-139827000D02*
X128869911Y-139754428D01*
X128869911Y-139754428D02*
X128833626Y-139645571D01*
X128833626Y-139645571D02*
X128761054Y-139573000D01*
X128761054Y-139573000D02*
X128688483Y-139536714D01*
X128688483Y-139536714D02*
X128543340Y-139500428D01*
X128543340Y-139500428D02*
X128434483Y-139500428D01*
X128434483Y-139500428D02*
X128289340Y-139536714D01*
X128289340Y-139536714D02*
X128216768Y-139573000D01*
X128216768Y-139573000D02*
X128144197Y-139645571D01*
X128144197Y-139645571D02*
X128107911Y-139754428D01*
X128107911Y-139754428D02*
X128107911Y-139827000D01*
X128107911Y-139827000D02*
X128144197Y-139935857D01*
X128144197Y-139935857D02*
X128180483Y-139972143D01*
X128107911Y-140226143D02*
X128107911Y-140734143D01*
X128107911Y-140734143D02*
X128869911Y-140407571D01*
X128107911Y-140951857D02*
X128107911Y-141459857D01*
X128107911Y-141459857D02*
X128869911Y-141133285D01*
%TO.C,C64*%
X115551856Y-80537340D02*
X115588142Y-80573626D01*
X115588142Y-80573626D02*
X115696999Y-80609911D01*
X115696999Y-80609911D02*
X115769571Y-80609911D01*
X115769571Y-80609911D02*
X115878428Y-80573626D01*
X115878428Y-80573626D02*
X115950999Y-80501054D01*
X115950999Y-80501054D02*
X115987285Y-80428483D01*
X115987285Y-80428483D02*
X116023571Y-80283340D01*
X116023571Y-80283340D02*
X116023571Y-80174483D01*
X116023571Y-80174483D02*
X115987285Y-80029340D01*
X115987285Y-80029340D02*
X115950999Y-79956768D01*
X115950999Y-79956768D02*
X115878428Y-79884197D01*
X115878428Y-79884197D02*
X115769571Y-79847911D01*
X115769571Y-79847911D02*
X115696999Y-79847911D01*
X115696999Y-79847911D02*
X115588142Y-79884197D01*
X115588142Y-79884197D02*
X115551856Y-79920483D01*
X114898714Y-79847911D02*
X115043856Y-79847911D01*
X115043856Y-79847911D02*
X115116428Y-79884197D01*
X115116428Y-79884197D02*
X115152714Y-79920483D01*
X115152714Y-79920483D02*
X115225285Y-80029340D01*
X115225285Y-80029340D02*
X115261571Y-80174483D01*
X115261571Y-80174483D02*
X115261571Y-80464768D01*
X115261571Y-80464768D02*
X115225285Y-80537340D01*
X115225285Y-80537340D02*
X115188999Y-80573626D01*
X115188999Y-80573626D02*
X115116428Y-80609911D01*
X115116428Y-80609911D02*
X114971285Y-80609911D01*
X114971285Y-80609911D02*
X114898714Y-80573626D01*
X114898714Y-80573626D02*
X114862428Y-80537340D01*
X114862428Y-80537340D02*
X114826142Y-80464768D01*
X114826142Y-80464768D02*
X114826142Y-80283340D01*
X114826142Y-80283340D02*
X114862428Y-80210768D01*
X114862428Y-80210768D02*
X114898714Y-80174483D01*
X114898714Y-80174483D02*
X114971285Y-80138197D01*
X114971285Y-80138197D02*
X115116428Y-80138197D01*
X115116428Y-80138197D02*
X115188999Y-80174483D01*
X115188999Y-80174483D02*
X115225285Y-80210768D01*
X115225285Y-80210768D02*
X115261571Y-80283340D01*
X114173000Y-80101911D02*
X114173000Y-80609911D01*
X114354428Y-79811626D02*
X114535857Y-80355911D01*
X114535857Y-80355911D02*
X114064142Y-80355911D01*
%TO.C,C16*%
X91807340Y-100094143D02*
X91843626Y-100057857D01*
X91843626Y-100057857D02*
X91879911Y-99949000D01*
X91879911Y-99949000D02*
X91879911Y-99876428D01*
X91879911Y-99876428D02*
X91843626Y-99767571D01*
X91843626Y-99767571D02*
X91771054Y-99695000D01*
X91771054Y-99695000D02*
X91698483Y-99658714D01*
X91698483Y-99658714D02*
X91553340Y-99622428D01*
X91553340Y-99622428D02*
X91444483Y-99622428D01*
X91444483Y-99622428D02*
X91299340Y-99658714D01*
X91299340Y-99658714D02*
X91226768Y-99695000D01*
X91226768Y-99695000D02*
X91154197Y-99767571D01*
X91154197Y-99767571D02*
X91117911Y-99876428D01*
X91117911Y-99876428D02*
X91117911Y-99949000D01*
X91117911Y-99949000D02*
X91154197Y-100057857D01*
X91154197Y-100057857D02*
X91190483Y-100094143D01*
X91879911Y-100819857D02*
X91879911Y-100384428D01*
X91879911Y-100602143D02*
X91117911Y-100602143D01*
X91117911Y-100602143D02*
X91226768Y-100529571D01*
X91226768Y-100529571D02*
X91299340Y-100457000D01*
X91299340Y-100457000D02*
X91335626Y-100384428D01*
X91117911Y-101473000D02*
X91117911Y-101327857D01*
X91117911Y-101327857D02*
X91154197Y-101255285D01*
X91154197Y-101255285D02*
X91190483Y-101219000D01*
X91190483Y-101219000D02*
X91299340Y-101146428D01*
X91299340Y-101146428D02*
X91444483Y-101110142D01*
X91444483Y-101110142D02*
X91734768Y-101110142D01*
X91734768Y-101110142D02*
X91807340Y-101146428D01*
X91807340Y-101146428D02*
X91843626Y-101182714D01*
X91843626Y-101182714D02*
X91879911Y-101255285D01*
X91879911Y-101255285D02*
X91879911Y-101400428D01*
X91879911Y-101400428D02*
X91843626Y-101473000D01*
X91843626Y-101473000D02*
X91807340Y-101509285D01*
X91807340Y-101509285D02*
X91734768Y-101545571D01*
X91734768Y-101545571D02*
X91553340Y-101545571D01*
X91553340Y-101545571D02*
X91480768Y-101509285D01*
X91480768Y-101509285D02*
X91444483Y-101473000D01*
X91444483Y-101473000D02*
X91408197Y-101400428D01*
X91408197Y-101400428D02*
X91408197Y-101255285D01*
X91408197Y-101255285D02*
X91444483Y-101182714D01*
X91444483Y-101182714D02*
X91480768Y-101146428D01*
X91480768Y-101146428D02*
X91553340Y-101110142D01*
%TO.C,R27*%
X77661911Y-59454143D02*
X77299054Y-59200143D01*
X77661911Y-59018714D02*
X76899911Y-59018714D01*
X76899911Y-59018714D02*
X76899911Y-59309000D01*
X76899911Y-59309000D02*
X76936197Y-59381571D01*
X76936197Y-59381571D02*
X76972483Y-59417857D01*
X76972483Y-59417857D02*
X77045054Y-59454143D01*
X77045054Y-59454143D02*
X77153911Y-59454143D01*
X77153911Y-59454143D02*
X77226483Y-59417857D01*
X77226483Y-59417857D02*
X77262768Y-59381571D01*
X77262768Y-59381571D02*
X77299054Y-59309000D01*
X77299054Y-59309000D02*
X77299054Y-59018714D01*
X76972483Y-59744428D02*
X76936197Y-59780714D01*
X76936197Y-59780714D02*
X76899911Y-59853286D01*
X76899911Y-59853286D02*
X76899911Y-60034714D01*
X76899911Y-60034714D02*
X76936197Y-60107286D01*
X76936197Y-60107286D02*
X76972483Y-60143571D01*
X76972483Y-60143571D02*
X77045054Y-60179857D01*
X77045054Y-60179857D02*
X77117626Y-60179857D01*
X77117626Y-60179857D02*
X77226483Y-60143571D01*
X77226483Y-60143571D02*
X77661911Y-59708143D01*
X77661911Y-59708143D02*
X77661911Y-60179857D01*
X76899911Y-60433857D02*
X76899911Y-60941857D01*
X76899911Y-60941857D02*
X77661911Y-60615285D01*
%TO.C,R31*%
X75419856Y-58638911D02*
X75673856Y-58276054D01*
X75855285Y-58638911D02*
X75855285Y-57876911D01*
X75855285Y-57876911D02*
X75564999Y-57876911D01*
X75564999Y-57876911D02*
X75492428Y-57913197D01*
X75492428Y-57913197D02*
X75456142Y-57949483D01*
X75456142Y-57949483D02*
X75419856Y-58022054D01*
X75419856Y-58022054D02*
X75419856Y-58130911D01*
X75419856Y-58130911D02*
X75456142Y-58203483D01*
X75456142Y-58203483D02*
X75492428Y-58239768D01*
X75492428Y-58239768D02*
X75564999Y-58276054D01*
X75564999Y-58276054D02*
X75855285Y-58276054D01*
X75165856Y-57876911D02*
X74694142Y-57876911D01*
X74694142Y-57876911D02*
X74948142Y-58167197D01*
X74948142Y-58167197D02*
X74839285Y-58167197D01*
X74839285Y-58167197D02*
X74766714Y-58203483D01*
X74766714Y-58203483D02*
X74730428Y-58239768D01*
X74730428Y-58239768D02*
X74694142Y-58312340D01*
X74694142Y-58312340D02*
X74694142Y-58493768D01*
X74694142Y-58493768D02*
X74730428Y-58566340D01*
X74730428Y-58566340D02*
X74766714Y-58602626D01*
X74766714Y-58602626D02*
X74839285Y-58638911D01*
X74839285Y-58638911D02*
X75056999Y-58638911D01*
X75056999Y-58638911D02*
X75129571Y-58602626D01*
X75129571Y-58602626D02*
X75165856Y-58566340D01*
X73968428Y-58638911D02*
X74403857Y-58638911D01*
X74186142Y-58638911D02*
X74186142Y-57876911D01*
X74186142Y-57876911D02*
X74258714Y-57985768D01*
X74258714Y-57985768D02*
X74331285Y-58058340D01*
X74331285Y-58058340D02*
X74403857Y-58094626D01*
%TO.C,Q7*%
X102942571Y-63283483D02*
X103015142Y-63247197D01*
X103015142Y-63247197D02*
X103087714Y-63174626D01*
X103087714Y-63174626D02*
X103196571Y-63065768D01*
X103196571Y-63065768D02*
X103269142Y-63029483D01*
X103269142Y-63029483D02*
X103341714Y-63029483D01*
X103305428Y-63210911D02*
X103378000Y-63174626D01*
X103378000Y-63174626D02*
X103450571Y-63102054D01*
X103450571Y-63102054D02*
X103486857Y-62956911D01*
X103486857Y-62956911D02*
X103486857Y-62702911D01*
X103486857Y-62702911D02*
X103450571Y-62557768D01*
X103450571Y-62557768D02*
X103378000Y-62485197D01*
X103378000Y-62485197D02*
X103305428Y-62448911D01*
X103305428Y-62448911D02*
X103160285Y-62448911D01*
X103160285Y-62448911D02*
X103087714Y-62485197D01*
X103087714Y-62485197D02*
X103015142Y-62557768D01*
X103015142Y-62557768D02*
X102978857Y-62702911D01*
X102978857Y-62702911D02*
X102978857Y-62956911D01*
X102978857Y-62956911D02*
X103015142Y-63102054D01*
X103015142Y-63102054D02*
X103087714Y-63174626D01*
X103087714Y-63174626D02*
X103160285Y-63210911D01*
X103160285Y-63210911D02*
X103305428Y-63210911D01*
X102724856Y-62448911D02*
X102216856Y-62448911D01*
X102216856Y-62448911D02*
X102543428Y-63210911D01*
%TO.C,R84*%
X110090856Y-71592911D02*
X110344856Y-71230054D01*
X110526285Y-71592911D02*
X110526285Y-70830911D01*
X110526285Y-70830911D02*
X110235999Y-70830911D01*
X110235999Y-70830911D02*
X110163428Y-70867197D01*
X110163428Y-70867197D02*
X110127142Y-70903483D01*
X110127142Y-70903483D02*
X110090856Y-70976054D01*
X110090856Y-70976054D02*
X110090856Y-71084911D01*
X110090856Y-71084911D02*
X110127142Y-71157483D01*
X110127142Y-71157483D02*
X110163428Y-71193768D01*
X110163428Y-71193768D02*
X110235999Y-71230054D01*
X110235999Y-71230054D02*
X110526285Y-71230054D01*
X109655428Y-71157483D02*
X109727999Y-71121197D01*
X109727999Y-71121197D02*
X109764285Y-71084911D01*
X109764285Y-71084911D02*
X109800571Y-71012340D01*
X109800571Y-71012340D02*
X109800571Y-70976054D01*
X109800571Y-70976054D02*
X109764285Y-70903483D01*
X109764285Y-70903483D02*
X109727999Y-70867197D01*
X109727999Y-70867197D02*
X109655428Y-70830911D01*
X109655428Y-70830911D02*
X109510285Y-70830911D01*
X109510285Y-70830911D02*
X109437714Y-70867197D01*
X109437714Y-70867197D02*
X109401428Y-70903483D01*
X109401428Y-70903483D02*
X109365142Y-70976054D01*
X109365142Y-70976054D02*
X109365142Y-71012340D01*
X109365142Y-71012340D02*
X109401428Y-71084911D01*
X109401428Y-71084911D02*
X109437714Y-71121197D01*
X109437714Y-71121197D02*
X109510285Y-71157483D01*
X109510285Y-71157483D02*
X109655428Y-71157483D01*
X109655428Y-71157483D02*
X109727999Y-71193768D01*
X109727999Y-71193768D02*
X109764285Y-71230054D01*
X109764285Y-71230054D02*
X109800571Y-71302626D01*
X109800571Y-71302626D02*
X109800571Y-71447768D01*
X109800571Y-71447768D02*
X109764285Y-71520340D01*
X109764285Y-71520340D02*
X109727999Y-71556626D01*
X109727999Y-71556626D02*
X109655428Y-71592911D01*
X109655428Y-71592911D02*
X109510285Y-71592911D01*
X109510285Y-71592911D02*
X109437714Y-71556626D01*
X109437714Y-71556626D02*
X109401428Y-71520340D01*
X109401428Y-71520340D02*
X109365142Y-71447768D01*
X109365142Y-71447768D02*
X109365142Y-71302626D01*
X109365142Y-71302626D02*
X109401428Y-71230054D01*
X109401428Y-71230054D02*
X109437714Y-71193768D01*
X109437714Y-71193768D02*
X109510285Y-71157483D01*
X108712000Y-71084911D02*
X108712000Y-71592911D01*
X108893428Y-70794626D02*
X109074857Y-71338911D01*
X109074857Y-71338911D02*
X108603142Y-71338911D01*
%TO.C,R93*%
X138665856Y-53431911D02*
X138919856Y-53069054D01*
X139101285Y-53431911D02*
X139101285Y-52669911D01*
X139101285Y-52669911D02*
X138810999Y-52669911D01*
X138810999Y-52669911D02*
X138738428Y-52706197D01*
X138738428Y-52706197D02*
X138702142Y-52742483D01*
X138702142Y-52742483D02*
X138665856Y-52815054D01*
X138665856Y-52815054D02*
X138665856Y-52923911D01*
X138665856Y-52923911D02*
X138702142Y-52996483D01*
X138702142Y-52996483D02*
X138738428Y-53032768D01*
X138738428Y-53032768D02*
X138810999Y-53069054D01*
X138810999Y-53069054D02*
X139101285Y-53069054D01*
X138302999Y-53431911D02*
X138157856Y-53431911D01*
X138157856Y-53431911D02*
X138085285Y-53395626D01*
X138085285Y-53395626D02*
X138048999Y-53359340D01*
X138048999Y-53359340D02*
X137976428Y-53250483D01*
X137976428Y-53250483D02*
X137940142Y-53105340D01*
X137940142Y-53105340D02*
X137940142Y-52815054D01*
X137940142Y-52815054D02*
X137976428Y-52742483D01*
X137976428Y-52742483D02*
X138012714Y-52706197D01*
X138012714Y-52706197D02*
X138085285Y-52669911D01*
X138085285Y-52669911D02*
X138230428Y-52669911D01*
X138230428Y-52669911D02*
X138302999Y-52706197D01*
X138302999Y-52706197D02*
X138339285Y-52742483D01*
X138339285Y-52742483D02*
X138375571Y-52815054D01*
X138375571Y-52815054D02*
X138375571Y-52996483D01*
X138375571Y-52996483D02*
X138339285Y-53069054D01*
X138339285Y-53069054D02*
X138302999Y-53105340D01*
X138302999Y-53105340D02*
X138230428Y-53141626D01*
X138230428Y-53141626D02*
X138085285Y-53141626D01*
X138085285Y-53141626D02*
X138012714Y-53105340D01*
X138012714Y-53105340D02*
X137976428Y-53069054D01*
X137976428Y-53069054D02*
X137940142Y-52996483D01*
X137686142Y-52669911D02*
X137214428Y-52669911D01*
X137214428Y-52669911D02*
X137468428Y-52960197D01*
X137468428Y-52960197D02*
X137359571Y-52960197D01*
X137359571Y-52960197D02*
X137287000Y-52996483D01*
X137287000Y-52996483D02*
X137250714Y-53032768D01*
X137250714Y-53032768D02*
X137214428Y-53105340D01*
X137214428Y-53105340D02*
X137214428Y-53286768D01*
X137214428Y-53286768D02*
X137250714Y-53359340D01*
X137250714Y-53359340D02*
X137287000Y-53395626D01*
X137287000Y-53395626D02*
X137359571Y-53431911D01*
X137359571Y-53431911D02*
X137577285Y-53431911D01*
X137577285Y-53431911D02*
X137649857Y-53395626D01*
X137649857Y-53395626D02*
X137686142Y-53359340D01*
%TO.C,C15*%
X89389856Y-100382340D02*
X89426142Y-100418626D01*
X89426142Y-100418626D02*
X89534999Y-100454911D01*
X89534999Y-100454911D02*
X89607571Y-100454911D01*
X89607571Y-100454911D02*
X89716428Y-100418626D01*
X89716428Y-100418626D02*
X89788999Y-100346054D01*
X89788999Y-100346054D02*
X89825285Y-100273483D01*
X89825285Y-100273483D02*
X89861571Y-100128340D01*
X89861571Y-100128340D02*
X89861571Y-100019483D01*
X89861571Y-100019483D02*
X89825285Y-99874340D01*
X89825285Y-99874340D02*
X89788999Y-99801768D01*
X89788999Y-99801768D02*
X89716428Y-99729197D01*
X89716428Y-99729197D02*
X89607571Y-99692911D01*
X89607571Y-99692911D02*
X89534999Y-99692911D01*
X89534999Y-99692911D02*
X89426142Y-99729197D01*
X89426142Y-99729197D02*
X89389856Y-99765483D01*
X88664142Y-100454911D02*
X89099571Y-100454911D01*
X88881856Y-100454911D02*
X88881856Y-99692911D01*
X88881856Y-99692911D02*
X88954428Y-99801768D01*
X88954428Y-99801768D02*
X89026999Y-99874340D01*
X89026999Y-99874340D02*
X89099571Y-99910626D01*
X87974714Y-99692911D02*
X88337571Y-99692911D01*
X88337571Y-99692911D02*
X88373857Y-100055768D01*
X88373857Y-100055768D02*
X88337571Y-100019483D01*
X88337571Y-100019483D02*
X88265000Y-99983197D01*
X88265000Y-99983197D02*
X88083571Y-99983197D01*
X88083571Y-99983197D02*
X88011000Y-100019483D01*
X88011000Y-100019483D02*
X87974714Y-100055768D01*
X87974714Y-100055768D02*
X87938428Y-100128340D01*
X87938428Y-100128340D02*
X87938428Y-100309768D01*
X87938428Y-100309768D02*
X87974714Y-100382340D01*
X87974714Y-100382340D02*
X88011000Y-100418626D01*
X88011000Y-100418626D02*
X88083571Y-100454911D01*
X88083571Y-100454911D02*
X88265000Y-100454911D01*
X88265000Y-100454911D02*
X88337571Y-100418626D01*
X88337571Y-100418626D02*
X88373857Y-100382340D01*
%TO.C,C11*%
X135236856Y-116605340D02*
X135273142Y-116641626D01*
X135273142Y-116641626D02*
X135381999Y-116677911D01*
X135381999Y-116677911D02*
X135454571Y-116677911D01*
X135454571Y-116677911D02*
X135563428Y-116641626D01*
X135563428Y-116641626D02*
X135635999Y-116569054D01*
X135635999Y-116569054D02*
X135672285Y-116496483D01*
X135672285Y-116496483D02*
X135708571Y-116351340D01*
X135708571Y-116351340D02*
X135708571Y-116242483D01*
X135708571Y-116242483D02*
X135672285Y-116097340D01*
X135672285Y-116097340D02*
X135635999Y-116024768D01*
X135635999Y-116024768D02*
X135563428Y-115952197D01*
X135563428Y-115952197D02*
X135454571Y-115915911D01*
X135454571Y-115915911D02*
X135381999Y-115915911D01*
X135381999Y-115915911D02*
X135273142Y-115952197D01*
X135273142Y-115952197D02*
X135236856Y-115988483D01*
X134511142Y-116677911D02*
X134946571Y-116677911D01*
X134728856Y-116677911D02*
X134728856Y-115915911D01*
X134728856Y-115915911D02*
X134801428Y-116024768D01*
X134801428Y-116024768D02*
X134873999Y-116097340D01*
X134873999Y-116097340D02*
X134946571Y-116133626D01*
X133785428Y-116677911D02*
X134220857Y-116677911D01*
X134003142Y-116677911D02*
X134003142Y-115915911D01*
X134003142Y-115915911D02*
X134075714Y-116024768D01*
X134075714Y-116024768D02*
X134148285Y-116097340D01*
X134148285Y-116097340D02*
X134220857Y-116133626D01*
%TO.C,C74*%
X140189856Y-63519340D02*
X140226142Y-63555626D01*
X140226142Y-63555626D02*
X140334999Y-63591911D01*
X140334999Y-63591911D02*
X140407571Y-63591911D01*
X140407571Y-63591911D02*
X140516428Y-63555626D01*
X140516428Y-63555626D02*
X140588999Y-63483054D01*
X140588999Y-63483054D02*
X140625285Y-63410483D01*
X140625285Y-63410483D02*
X140661571Y-63265340D01*
X140661571Y-63265340D02*
X140661571Y-63156483D01*
X140661571Y-63156483D02*
X140625285Y-63011340D01*
X140625285Y-63011340D02*
X140588999Y-62938768D01*
X140588999Y-62938768D02*
X140516428Y-62866197D01*
X140516428Y-62866197D02*
X140407571Y-62829911D01*
X140407571Y-62829911D02*
X140334999Y-62829911D01*
X140334999Y-62829911D02*
X140226142Y-62866197D01*
X140226142Y-62866197D02*
X140189856Y-62902483D01*
X139935856Y-62829911D02*
X139427856Y-62829911D01*
X139427856Y-62829911D02*
X139754428Y-63591911D01*
X138811000Y-63083911D02*
X138811000Y-63591911D01*
X138992428Y-62793626D02*
X139173857Y-63337911D01*
X139173857Y-63337911D02*
X138702142Y-63337911D01*
%TO.C,LED2*%
X70195911Y-52106285D02*
X70195911Y-51743428D01*
X70195911Y-51743428D02*
X69433911Y-51743428D01*
X69796768Y-52360285D02*
X69796768Y-52614285D01*
X70195911Y-52723142D02*
X70195911Y-52360285D01*
X70195911Y-52360285D02*
X69433911Y-52360285D01*
X69433911Y-52360285D02*
X69433911Y-52723142D01*
X70195911Y-53049714D02*
X69433911Y-53049714D01*
X69433911Y-53049714D02*
X69433911Y-53231143D01*
X69433911Y-53231143D02*
X69470197Y-53340000D01*
X69470197Y-53340000D02*
X69542768Y-53412571D01*
X69542768Y-53412571D02*
X69615340Y-53448857D01*
X69615340Y-53448857D02*
X69760483Y-53485143D01*
X69760483Y-53485143D02*
X69869340Y-53485143D01*
X69869340Y-53485143D02*
X70014483Y-53448857D01*
X70014483Y-53448857D02*
X70087054Y-53412571D01*
X70087054Y-53412571D02*
X70159626Y-53340000D01*
X70159626Y-53340000D02*
X70195911Y-53231143D01*
X70195911Y-53231143D02*
X70195911Y-53049714D01*
X69506483Y-53775428D02*
X69470197Y-53811714D01*
X69470197Y-53811714D02*
X69433911Y-53884286D01*
X69433911Y-53884286D02*
X69433911Y-54065714D01*
X69433911Y-54065714D02*
X69470197Y-54138286D01*
X69470197Y-54138286D02*
X69506483Y-54174571D01*
X69506483Y-54174571D02*
X69579054Y-54210857D01*
X69579054Y-54210857D02*
X69651626Y-54210857D01*
X69651626Y-54210857D02*
X69760483Y-54174571D01*
X69760483Y-54174571D02*
X70195911Y-53739143D01*
X70195911Y-53739143D02*
X70195911Y-54210857D01*
%TO.C,C7*%
X116097340Y-106553000D02*
X116133626Y-106516714D01*
X116133626Y-106516714D02*
X116169911Y-106407857D01*
X116169911Y-106407857D02*
X116169911Y-106335285D01*
X116169911Y-106335285D02*
X116133626Y-106226428D01*
X116133626Y-106226428D02*
X116061054Y-106153857D01*
X116061054Y-106153857D02*
X115988483Y-106117571D01*
X115988483Y-106117571D02*
X115843340Y-106081285D01*
X115843340Y-106081285D02*
X115734483Y-106081285D01*
X115734483Y-106081285D02*
X115589340Y-106117571D01*
X115589340Y-106117571D02*
X115516768Y-106153857D01*
X115516768Y-106153857D02*
X115444197Y-106226428D01*
X115444197Y-106226428D02*
X115407911Y-106335285D01*
X115407911Y-106335285D02*
X115407911Y-106407857D01*
X115407911Y-106407857D02*
X115444197Y-106516714D01*
X115444197Y-106516714D02*
X115480483Y-106553000D01*
X115407911Y-106807000D02*
X115407911Y-107315000D01*
X115407911Y-107315000D02*
X116169911Y-106988428D01*
%TO.C,C80*%
X116351340Y-131209143D02*
X116387626Y-131172857D01*
X116387626Y-131172857D02*
X116423911Y-131064000D01*
X116423911Y-131064000D02*
X116423911Y-130991428D01*
X116423911Y-130991428D02*
X116387626Y-130882571D01*
X116387626Y-130882571D02*
X116315054Y-130810000D01*
X116315054Y-130810000D02*
X116242483Y-130773714D01*
X116242483Y-130773714D02*
X116097340Y-130737428D01*
X116097340Y-130737428D02*
X115988483Y-130737428D01*
X115988483Y-130737428D02*
X115843340Y-130773714D01*
X115843340Y-130773714D02*
X115770768Y-130810000D01*
X115770768Y-130810000D02*
X115698197Y-130882571D01*
X115698197Y-130882571D02*
X115661911Y-130991428D01*
X115661911Y-130991428D02*
X115661911Y-131064000D01*
X115661911Y-131064000D02*
X115698197Y-131172857D01*
X115698197Y-131172857D02*
X115734483Y-131209143D01*
X115988483Y-131644571D02*
X115952197Y-131572000D01*
X115952197Y-131572000D02*
X115915911Y-131535714D01*
X115915911Y-131535714D02*
X115843340Y-131499428D01*
X115843340Y-131499428D02*
X115807054Y-131499428D01*
X115807054Y-131499428D02*
X115734483Y-131535714D01*
X115734483Y-131535714D02*
X115698197Y-131572000D01*
X115698197Y-131572000D02*
X115661911Y-131644571D01*
X115661911Y-131644571D02*
X115661911Y-131789714D01*
X115661911Y-131789714D02*
X115698197Y-131862286D01*
X115698197Y-131862286D02*
X115734483Y-131898571D01*
X115734483Y-131898571D02*
X115807054Y-131934857D01*
X115807054Y-131934857D02*
X115843340Y-131934857D01*
X115843340Y-131934857D02*
X115915911Y-131898571D01*
X115915911Y-131898571D02*
X115952197Y-131862286D01*
X115952197Y-131862286D02*
X115988483Y-131789714D01*
X115988483Y-131789714D02*
X115988483Y-131644571D01*
X115988483Y-131644571D02*
X116024768Y-131572000D01*
X116024768Y-131572000D02*
X116061054Y-131535714D01*
X116061054Y-131535714D02*
X116133626Y-131499428D01*
X116133626Y-131499428D02*
X116278768Y-131499428D01*
X116278768Y-131499428D02*
X116351340Y-131535714D01*
X116351340Y-131535714D02*
X116387626Y-131572000D01*
X116387626Y-131572000D02*
X116423911Y-131644571D01*
X116423911Y-131644571D02*
X116423911Y-131789714D01*
X116423911Y-131789714D02*
X116387626Y-131862286D01*
X116387626Y-131862286D02*
X116351340Y-131898571D01*
X116351340Y-131898571D02*
X116278768Y-131934857D01*
X116278768Y-131934857D02*
X116133626Y-131934857D01*
X116133626Y-131934857D02*
X116061054Y-131898571D01*
X116061054Y-131898571D02*
X116024768Y-131862286D01*
X116024768Y-131862286D02*
X115988483Y-131789714D01*
X115661911Y-132406571D02*
X115661911Y-132479142D01*
X115661911Y-132479142D02*
X115698197Y-132551714D01*
X115698197Y-132551714D02*
X115734483Y-132588000D01*
X115734483Y-132588000D02*
X115807054Y-132624285D01*
X115807054Y-132624285D02*
X115952197Y-132660571D01*
X115952197Y-132660571D02*
X116133626Y-132660571D01*
X116133626Y-132660571D02*
X116278768Y-132624285D01*
X116278768Y-132624285D02*
X116351340Y-132588000D01*
X116351340Y-132588000D02*
X116387626Y-132551714D01*
X116387626Y-132551714D02*
X116423911Y-132479142D01*
X116423911Y-132479142D02*
X116423911Y-132406571D01*
X116423911Y-132406571D02*
X116387626Y-132334000D01*
X116387626Y-132334000D02*
X116351340Y-132297714D01*
X116351340Y-132297714D02*
X116278768Y-132261428D01*
X116278768Y-132261428D02*
X116133626Y-132225142D01*
X116133626Y-132225142D02*
X115952197Y-132225142D01*
X115952197Y-132225142D02*
X115807054Y-132261428D01*
X115807054Y-132261428D02*
X115734483Y-132297714D01*
X115734483Y-132297714D02*
X115698197Y-132334000D01*
X115698197Y-132334000D02*
X115661911Y-132406571D01*
%TO.C,C66*%
X125711856Y-80537340D02*
X125748142Y-80573626D01*
X125748142Y-80573626D02*
X125856999Y-80609911D01*
X125856999Y-80609911D02*
X125929571Y-80609911D01*
X125929571Y-80609911D02*
X126038428Y-80573626D01*
X126038428Y-80573626D02*
X126110999Y-80501054D01*
X126110999Y-80501054D02*
X126147285Y-80428483D01*
X126147285Y-80428483D02*
X126183571Y-80283340D01*
X126183571Y-80283340D02*
X126183571Y-80174483D01*
X126183571Y-80174483D02*
X126147285Y-80029340D01*
X126147285Y-80029340D02*
X126110999Y-79956768D01*
X126110999Y-79956768D02*
X126038428Y-79884197D01*
X126038428Y-79884197D02*
X125929571Y-79847911D01*
X125929571Y-79847911D02*
X125856999Y-79847911D01*
X125856999Y-79847911D02*
X125748142Y-79884197D01*
X125748142Y-79884197D02*
X125711856Y-79920483D01*
X125058714Y-79847911D02*
X125203856Y-79847911D01*
X125203856Y-79847911D02*
X125276428Y-79884197D01*
X125276428Y-79884197D02*
X125312714Y-79920483D01*
X125312714Y-79920483D02*
X125385285Y-80029340D01*
X125385285Y-80029340D02*
X125421571Y-80174483D01*
X125421571Y-80174483D02*
X125421571Y-80464768D01*
X125421571Y-80464768D02*
X125385285Y-80537340D01*
X125385285Y-80537340D02*
X125348999Y-80573626D01*
X125348999Y-80573626D02*
X125276428Y-80609911D01*
X125276428Y-80609911D02*
X125131285Y-80609911D01*
X125131285Y-80609911D02*
X125058714Y-80573626D01*
X125058714Y-80573626D02*
X125022428Y-80537340D01*
X125022428Y-80537340D02*
X124986142Y-80464768D01*
X124986142Y-80464768D02*
X124986142Y-80283340D01*
X124986142Y-80283340D02*
X125022428Y-80210768D01*
X125022428Y-80210768D02*
X125058714Y-80174483D01*
X125058714Y-80174483D02*
X125131285Y-80138197D01*
X125131285Y-80138197D02*
X125276428Y-80138197D01*
X125276428Y-80138197D02*
X125348999Y-80174483D01*
X125348999Y-80174483D02*
X125385285Y-80210768D01*
X125385285Y-80210768D02*
X125421571Y-80283340D01*
X124333000Y-79847911D02*
X124478142Y-79847911D01*
X124478142Y-79847911D02*
X124550714Y-79884197D01*
X124550714Y-79884197D02*
X124587000Y-79920483D01*
X124587000Y-79920483D02*
X124659571Y-80029340D01*
X124659571Y-80029340D02*
X124695857Y-80174483D01*
X124695857Y-80174483D02*
X124695857Y-80464768D01*
X124695857Y-80464768D02*
X124659571Y-80537340D01*
X124659571Y-80537340D02*
X124623285Y-80573626D01*
X124623285Y-80573626D02*
X124550714Y-80609911D01*
X124550714Y-80609911D02*
X124405571Y-80609911D01*
X124405571Y-80609911D02*
X124333000Y-80573626D01*
X124333000Y-80573626D02*
X124296714Y-80537340D01*
X124296714Y-80537340D02*
X124260428Y-80464768D01*
X124260428Y-80464768D02*
X124260428Y-80283340D01*
X124260428Y-80283340D02*
X124296714Y-80210768D01*
X124296714Y-80210768D02*
X124333000Y-80174483D01*
X124333000Y-80174483D02*
X124405571Y-80138197D01*
X124405571Y-80138197D02*
X124550714Y-80138197D01*
X124550714Y-80138197D02*
X124623285Y-80174483D01*
X124623285Y-80174483D02*
X124659571Y-80210768D01*
X124659571Y-80210768D02*
X124695857Y-80283340D01*
%TO.C,C2*%
X95630999Y-65678340D02*
X95667285Y-65714626D01*
X95667285Y-65714626D02*
X95776142Y-65750911D01*
X95776142Y-65750911D02*
X95848714Y-65750911D01*
X95848714Y-65750911D02*
X95957571Y-65714626D01*
X95957571Y-65714626D02*
X96030142Y-65642054D01*
X96030142Y-65642054D02*
X96066428Y-65569483D01*
X96066428Y-65569483D02*
X96102714Y-65424340D01*
X96102714Y-65424340D02*
X96102714Y-65315483D01*
X96102714Y-65315483D02*
X96066428Y-65170340D01*
X96066428Y-65170340D02*
X96030142Y-65097768D01*
X96030142Y-65097768D02*
X95957571Y-65025197D01*
X95957571Y-65025197D02*
X95848714Y-64988911D01*
X95848714Y-64988911D02*
X95776142Y-64988911D01*
X95776142Y-64988911D02*
X95667285Y-65025197D01*
X95667285Y-65025197D02*
X95630999Y-65061483D01*
X95340714Y-65061483D02*
X95304428Y-65025197D01*
X95304428Y-65025197D02*
X95231857Y-64988911D01*
X95231857Y-64988911D02*
X95050428Y-64988911D01*
X95050428Y-64988911D02*
X94977857Y-65025197D01*
X94977857Y-65025197D02*
X94941571Y-65061483D01*
X94941571Y-65061483D02*
X94905285Y-65134054D01*
X94905285Y-65134054D02*
X94905285Y-65206626D01*
X94905285Y-65206626D02*
X94941571Y-65315483D01*
X94941571Y-65315483D02*
X95376999Y-65750911D01*
X95376999Y-65750911D02*
X94905285Y-65750911D01*
%TO.C,C55*%
X135490856Y-142137340D02*
X135527142Y-142173626D01*
X135527142Y-142173626D02*
X135635999Y-142209911D01*
X135635999Y-142209911D02*
X135708571Y-142209911D01*
X135708571Y-142209911D02*
X135817428Y-142173626D01*
X135817428Y-142173626D02*
X135889999Y-142101054D01*
X135889999Y-142101054D02*
X135926285Y-142028483D01*
X135926285Y-142028483D02*
X135962571Y-141883340D01*
X135962571Y-141883340D02*
X135962571Y-141774483D01*
X135962571Y-141774483D02*
X135926285Y-141629340D01*
X135926285Y-141629340D02*
X135889999Y-141556768D01*
X135889999Y-141556768D02*
X135817428Y-141484197D01*
X135817428Y-141484197D02*
X135708571Y-141447911D01*
X135708571Y-141447911D02*
X135635999Y-141447911D01*
X135635999Y-141447911D02*
X135527142Y-141484197D01*
X135527142Y-141484197D02*
X135490856Y-141520483D01*
X134801428Y-141447911D02*
X135164285Y-141447911D01*
X135164285Y-141447911D02*
X135200571Y-141810768D01*
X135200571Y-141810768D02*
X135164285Y-141774483D01*
X135164285Y-141774483D02*
X135091714Y-141738197D01*
X135091714Y-141738197D02*
X134910285Y-141738197D01*
X134910285Y-141738197D02*
X134837714Y-141774483D01*
X134837714Y-141774483D02*
X134801428Y-141810768D01*
X134801428Y-141810768D02*
X134765142Y-141883340D01*
X134765142Y-141883340D02*
X134765142Y-142064768D01*
X134765142Y-142064768D02*
X134801428Y-142137340D01*
X134801428Y-142137340D02*
X134837714Y-142173626D01*
X134837714Y-142173626D02*
X134910285Y-142209911D01*
X134910285Y-142209911D02*
X135091714Y-142209911D01*
X135091714Y-142209911D02*
X135164285Y-142173626D01*
X135164285Y-142173626D02*
X135200571Y-142137340D01*
X134075714Y-141447911D02*
X134438571Y-141447911D01*
X134438571Y-141447911D02*
X134474857Y-141810768D01*
X134474857Y-141810768D02*
X134438571Y-141774483D01*
X134438571Y-141774483D02*
X134366000Y-141738197D01*
X134366000Y-141738197D02*
X134184571Y-141738197D01*
X134184571Y-141738197D02*
X134112000Y-141774483D01*
X134112000Y-141774483D02*
X134075714Y-141810768D01*
X134075714Y-141810768D02*
X134039428Y-141883340D01*
X134039428Y-141883340D02*
X134039428Y-142064768D01*
X134039428Y-142064768D02*
X134075714Y-142137340D01*
X134075714Y-142137340D02*
X134112000Y-142173626D01*
X134112000Y-142173626D02*
X134184571Y-142209911D01*
X134184571Y-142209911D02*
X134366000Y-142209911D01*
X134366000Y-142209911D02*
X134438571Y-142173626D01*
X134438571Y-142173626D02*
X134474857Y-142137340D01*
%TO.C,R89*%
X99151911Y-69868143D02*
X98789054Y-69614143D01*
X99151911Y-69432714D02*
X98389911Y-69432714D01*
X98389911Y-69432714D02*
X98389911Y-69723000D01*
X98389911Y-69723000D02*
X98426197Y-69795571D01*
X98426197Y-69795571D02*
X98462483Y-69831857D01*
X98462483Y-69831857D02*
X98535054Y-69868143D01*
X98535054Y-69868143D02*
X98643911Y-69868143D01*
X98643911Y-69868143D02*
X98716483Y-69831857D01*
X98716483Y-69831857D02*
X98752768Y-69795571D01*
X98752768Y-69795571D02*
X98789054Y-69723000D01*
X98789054Y-69723000D02*
X98789054Y-69432714D01*
X98716483Y-70303571D02*
X98680197Y-70231000D01*
X98680197Y-70231000D02*
X98643911Y-70194714D01*
X98643911Y-70194714D02*
X98571340Y-70158428D01*
X98571340Y-70158428D02*
X98535054Y-70158428D01*
X98535054Y-70158428D02*
X98462483Y-70194714D01*
X98462483Y-70194714D02*
X98426197Y-70231000D01*
X98426197Y-70231000D02*
X98389911Y-70303571D01*
X98389911Y-70303571D02*
X98389911Y-70448714D01*
X98389911Y-70448714D02*
X98426197Y-70521286D01*
X98426197Y-70521286D02*
X98462483Y-70557571D01*
X98462483Y-70557571D02*
X98535054Y-70593857D01*
X98535054Y-70593857D02*
X98571340Y-70593857D01*
X98571340Y-70593857D02*
X98643911Y-70557571D01*
X98643911Y-70557571D02*
X98680197Y-70521286D01*
X98680197Y-70521286D02*
X98716483Y-70448714D01*
X98716483Y-70448714D02*
X98716483Y-70303571D01*
X98716483Y-70303571D02*
X98752768Y-70231000D01*
X98752768Y-70231000D02*
X98789054Y-70194714D01*
X98789054Y-70194714D02*
X98861626Y-70158428D01*
X98861626Y-70158428D02*
X99006768Y-70158428D01*
X99006768Y-70158428D02*
X99079340Y-70194714D01*
X99079340Y-70194714D02*
X99115626Y-70231000D01*
X99115626Y-70231000D02*
X99151911Y-70303571D01*
X99151911Y-70303571D02*
X99151911Y-70448714D01*
X99151911Y-70448714D02*
X99115626Y-70521286D01*
X99115626Y-70521286D02*
X99079340Y-70557571D01*
X99079340Y-70557571D02*
X99006768Y-70593857D01*
X99006768Y-70593857D02*
X98861626Y-70593857D01*
X98861626Y-70593857D02*
X98789054Y-70557571D01*
X98789054Y-70557571D02*
X98752768Y-70521286D01*
X98752768Y-70521286D02*
X98716483Y-70448714D01*
X99151911Y-70956714D02*
X99151911Y-71101857D01*
X99151911Y-71101857D02*
X99115626Y-71174428D01*
X99115626Y-71174428D02*
X99079340Y-71210714D01*
X99079340Y-71210714D02*
X98970483Y-71283285D01*
X98970483Y-71283285D02*
X98825340Y-71319571D01*
X98825340Y-71319571D02*
X98535054Y-71319571D01*
X98535054Y-71319571D02*
X98462483Y-71283285D01*
X98462483Y-71283285D02*
X98426197Y-71247000D01*
X98426197Y-71247000D02*
X98389911Y-71174428D01*
X98389911Y-71174428D02*
X98389911Y-71029285D01*
X98389911Y-71029285D02*
X98426197Y-70956714D01*
X98426197Y-70956714D02*
X98462483Y-70920428D01*
X98462483Y-70920428D02*
X98535054Y-70884142D01*
X98535054Y-70884142D02*
X98716483Y-70884142D01*
X98716483Y-70884142D02*
X98789054Y-70920428D01*
X98789054Y-70920428D02*
X98825340Y-70956714D01*
X98825340Y-70956714D02*
X98861626Y-71029285D01*
X98861626Y-71029285D02*
X98861626Y-71174428D01*
X98861626Y-71174428D02*
X98825340Y-71247000D01*
X98825340Y-71247000D02*
X98789054Y-71283285D01*
X98789054Y-71283285D02*
X98716483Y-71319571D01*
%TO.C,C28*%
X134855856Y-106445340D02*
X134892142Y-106481626D01*
X134892142Y-106481626D02*
X135000999Y-106517911D01*
X135000999Y-106517911D02*
X135073571Y-106517911D01*
X135073571Y-106517911D02*
X135182428Y-106481626D01*
X135182428Y-106481626D02*
X135254999Y-106409054D01*
X135254999Y-106409054D02*
X135291285Y-106336483D01*
X135291285Y-106336483D02*
X135327571Y-106191340D01*
X135327571Y-106191340D02*
X135327571Y-106082483D01*
X135327571Y-106082483D02*
X135291285Y-105937340D01*
X135291285Y-105937340D02*
X135254999Y-105864768D01*
X135254999Y-105864768D02*
X135182428Y-105792197D01*
X135182428Y-105792197D02*
X135073571Y-105755911D01*
X135073571Y-105755911D02*
X135000999Y-105755911D01*
X135000999Y-105755911D02*
X134892142Y-105792197D01*
X134892142Y-105792197D02*
X134855856Y-105828483D01*
X134565571Y-105828483D02*
X134529285Y-105792197D01*
X134529285Y-105792197D02*
X134456714Y-105755911D01*
X134456714Y-105755911D02*
X134275285Y-105755911D01*
X134275285Y-105755911D02*
X134202714Y-105792197D01*
X134202714Y-105792197D02*
X134166428Y-105828483D01*
X134166428Y-105828483D02*
X134130142Y-105901054D01*
X134130142Y-105901054D02*
X134130142Y-105973626D01*
X134130142Y-105973626D02*
X134166428Y-106082483D01*
X134166428Y-106082483D02*
X134601856Y-106517911D01*
X134601856Y-106517911D02*
X134130142Y-106517911D01*
X133694714Y-106082483D02*
X133767285Y-106046197D01*
X133767285Y-106046197D02*
X133803571Y-106009911D01*
X133803571Y-106009911D02*
X133839857Y-105937340D01*
X133839857Y-105937340D02*
X133839857Y-105901054D01*
X133839857Y-105901054D02*
X133803571Y-105828483D01*
X133803571Y-105828483D02*
X133767285Y-105792197D01*
X133767285Y-105792197D02*
X133694714Y-105755911D01*
X133694714Y-105755911D02*
X133549571Y-105755911D01*
X133549571Y-105755911D02*
X133477000Y-105792197D01*
X133477000Y-105792197D02*
X133440714Y-105828483D01*
X133440714Y-105828483D02*
X133404428Y-105901054D01*
X133404428Y-105901054D02*
X133404428Y-105937340D01*
X133404428Y-105937340D02*
X133440714Y-106009911D01*
X133440714Y-106009911D02*
X133477000Y-106046197D01*
X133477000Y-106046197D02*
X133549571Y-106082483D01*
X133549571Y-106082483D02*
X133694714Y-106082483D01*
X133694714Y-106082483D02*
X133767285Y-106118768D01*
X133767285Y-106118768D02*
X133803571Y-106155054D01*
X133803571Y-106155054D02*
X133839857Y-106227626D01*
X133839857Y-106227626D02*
X133839857Y-106372768D01*
X133839857Y-106372768D02*
X133803571Y-106445340D01*
X133803571Y-106445340D02*
X133767285Y-106481626D01*
X133767285Y-106481626D02*
X133694714Y-106517911D01*
X133694714Y-106517911D02*
X133549571Y-106517911D01*
X133549571Y-106517911D02*
X133477000Y-106481626D01*
X133477000Y-106481626D02*
X133440714Y-106445340D01*
X133440714Y-106445340D02*
X133404428Y-106372768D01*
X133404428Y-106372768D02*
X133404428Y-106227626D01*
X133404428Y-106227626D02*
X133440714Y-106155054D01*
X133440714Y-106155054D02*
X133477000Y-106118768D01*
X133477000Y-106118768D02*
X133549571Y-106082483D01*
%TO.C,R52*%
X124170911Y-96919143D02*
X123808054Y-96665143D01*
X124170911Y-96483714D02*
X123408911Y-96483714D01*
X123408911Y-96483714D02*
X123408911Y-96774000D01*
X123408911Y-96774000D02*
X123445197Y-96846571D01*
X123445197Y-96846571D02*
X123481483Y-96882857D01*
X123481483Y-96882857D02*
X123554054Y-96919143D01*
X123554054Y-96919143D02*
X123662911Y-96919143D01*
X123662911Y-96919143D02*
X123735483Y-96882857D01*
X123735483Y-96882857D02*
X123771768Y-96846571D01*
X123771768Y-96846571D02*
X123808054Y-96774000D01*
X123808054Y-96774000D02*
X123808054Y-96483714D01*
X123408911Y-97608571D02*
X123408911Y-97245714D01*
X123408911Y-97245714D02*
X123771768Y-97209428D01*
X123771768Y-97209428D02*
X123735483Y-97245714D01*
X123735483Y-97245714D02*
X123699197Y-97318286D01*
X123699197Y-97318286D02*
X123699197Y-97499714D01*
X123699197Y-97499714D02*
X123735483Y-97572286D01*
X123735483Y-97572286D02*
X123771768Y-97608571D01*
X123771768Y-97608571D02*
X123844340Y-97644857D01*
X123844340Y-97644857D02*
X124025768Y-97644857D01*
X124025768Y-97644857D02*
X124098340Y-97608571D01*
X124098340Y-97608571D02*
X124134626Y-97572286D01*
X124134626Y-97572286D02*
X124170911Y-97499714D01*
X124170911Y-97499714D02*
X124170911Y-97318286D01*
X124170911Y-97318286D02*
X124134626Y-97245714D01*
X124134626Y-97245714D02*
X124098340Y-97209428D01*
X123481483Y-97935142D02*
X123445197Y-97971428D01*
X123445197Y-97971428D02*
X123408911Y-98044000D01*
X123408911Y-98044000D02*
X123408911Y-98225428D01*
X123408911Y-98225428D02*
X123445197Y-98298000D01*
X123445197Y-98298000D02*
X123481483Y-98334285D01*
X123481483Y-98334285D02*
X123554054Y-98370571D01*
X123554054Y-98370571D02*
X123626626Y-98370571D01*
X123626626Y-98370571D02*
X123735483Y-98334285D01*
X123735483Y-98334285D02*
X124170911Y-97898857D01*
X124170911Y-97898857D02*
X124170911Y-98370571D01*
%TO.C,C38*%
X114065340Y-112286143D02*
X114101626Y-112249857D01*
X114101626Y-112249857D02*
X114137911Y-112141000D01*
X114137911Y-112141000D02*
X114137911Y-112068428D01*
X114137911Y-112068428D02*
X114101626Y-111959571D01*
X114101626Y-111959571D02*
X114029054Y-111887000D01*
X114029054Y-111887000D02*
X113956483Y-111850714D01*
X113956483Y-111850714D02*
X113811340Y-111814428D01*
X113811340Y-111814428D02*
X113702483Y-111814428D01*
X113702483Y-111814428D02*
X113557340Y-111850714D01*
X113557340Y-111850714D02*
X113484768Y-111887000D01*
X113484768Y-111887000D02*
X113412197Y-111959571D01*
X113412197Y-111959571D02*
X113375911Y-112068428D01*
X113375911Y-112068428D02*
X113375911Y-112141000D01*
X113375911Y-112141000D02*
X113412197Y-112249857D01*
X113412197Y-112249857D02*
X113448483Y-112286143D01*
X113375911Y-112540143D02*
X113375911Y-113011857D01*
X113375911Y-113011857D02*
X113666197Y-112757857D01*
X113666197Y-112757857D02*
X113666197Y-112866714D01*
X113666197Y-112866714D02*
X113702483Y-112939286D01*
X113702483Y-112939286D02*
X113738768Y-112975571D01*
X113738768Y-112975571D02*
X113811340Y-113011857D01*
X113811340Y-113011857D02*
X113992768Y-113011857D01*
X113992768Y-113011857D02*
X114065340Y-112975571D01*
X114065340Y-112975571D02*
X114101626Y-112939286D01*
X114101626Y-112939286D02*
X114137911Y-112866714D01*
X114137911Y-112866714D02*
X114137911Y-112649000D01*
X114137911Y-112649000D02*
X114101626Y-112576428D01*
X114101626Y-112576428D02*
X114065340Y-112540143D01*
X113702483Y-113447285D02*
X113666197Y-113374714D01*
X113666197Y-113374714D02*
X113629911Y-113338428D01*
X113629911Y-113338428D02*
X113557340Y-113302142D01*
X113557340Y-113302142D02*
X113521054Y-113302142D01*
X113521054Y-113302142D02*
X113448483Y-113338428D01*
X113448483Y-113338428D02*
X113412197Y-113374714D01*
X113412197Y-113374714D02*
X113375911Y-113447285D01*
X113375911Y-113447285D02*
X113375911Y-113592428D01*
X113375911Y-113592428D02*
X113412197Y-113665000D01*
X113412197Y-113665000D02*
X113448483Y-113701285D01*
X113448483Y-113701285D02*
X113521054Y-113737571D01*
X113521054Y-113737571D02*
X113557340Y-113737571D01*
X113557340Y-113737571D02*
X113629911Y-113701285D01*
X113629911Y-113701285D02*
X113666197Y-113665000D01*
X113666197Y-113665000D02*
X113702483Y-113592428D01*
X113702483Y-113592428D02*
X113702483Y-113447285D01*
X113702483Y-113447285D02*
X113738768Y-113374714D01*
X113738768Y-113374714D02*
X113775054Y-113338428D01*
X113775054Y-113338428D02*
X113847626Y-113302142D01*
X113847626Y-113302142D02*
X113992768Y-113302142D01*
X113992768Y-113302142D02*
X114065340Y-113338428D01*
X114065340Y-113338428D02*
X114101626Y-113374714D01*
X114101626Y-113374714D02*
X114137911Y-113447285D01*
X114137911Y-113447285D02*
X114137911Y-113592428D01*
X114137911Y-113592428D02*
X114101626Y-113665000D01*
X114101626Y-113665000D02*
X114065340Y-113701285D01*
X114065340Y-113701285D02*
X113992768Y-113737571D01*
X113992768Y-113737571D02*
X113847626Y-113737571D01*
X113847626Y-113737571D02*
X113775054Y-113701285D01*
X113775054Y-113701285D02*
X113738768Y-113665000D01*
X113738768Y-113665000D02*
X113702483Y-113592428D01*
%TO.C,Q9*%
X102942571Y-72776483D02*
X103015142Y-72740197D01*
X103015142Y-72740197D02*
X103087714Y-72667626D01*
X103087714Y-72667626D02*
X103196571Y-72558768D01*
X103196571Y-72558768D02*
X103269142Y-72522483D01*
X103269142Y-72522483D02*
X103341714Y-72522483D01*
X103305428Y-72703911D02*
X103378000Y-72667626D01*
X103378000Y-72667626D02*
X103450571Y-72595054D01*
X103450571Y-72595054D02*
X103486857Y-72449911D01*
X103486857Y-72449911D02*
X103486857Y-72195911D01*
X103486857Y-72195911D02*
X103450571Y-72050768D01*
X103450571Y-72050768D02*
X103378000Y-71978197D01*
X103378000Y-71978197D02*
X103305428Y-71941911D01*
X103305428Y-71941911D02*
X103160285Y-71941911D01*
X103160285Y-71941911D02*
X103087714Y-71978197D01*
X103087714Y-71978197D02*
X103015142Y-72050768D01*
X103015142Y-72050768D02*
X102978857Y-72195911D01*
X102978857Y-72195911D02*
X102978857Y-72449911D01*
X102978857Y-72449911D02*
X103015142Y-72595054D01*
X103015142Y-72595054D02*
X103087714Y-72667626D01*
X103087714Y-72667626D02*
X103160285Y-72703911D01*
X103160285Y-72703911D02*
X103305428Y-72703911D01*
X102615999Y-72703911D02*
X102470856Y-72703911D01*
X102470856Y-72703911D02*
X102398285Y-72667626D01*
X102398285Y-72667626D02*
X102361999Y-72631340D01*
X102361999Y-72631340D02*
X102289428Y-72522483D01*
X102289428Y-72522483D02*
X102253142Y-72377340D01*
X102253142Y-72377340D02*
X102253142Y-72087054D01*
X102253142Y-72087054D02*
X102289428Y-72014483D01*
X102289428Y-72014483D02*
X102325714Y-71978197D01*
X102325714Y-71978197D02*
X102398285Y-71941911D01*
X102398285Y-71941911D02*
X102543428Y-71941911D01*
X102543428Y-71941911D02*
X102615999Y-71978197D01*
X102615999Y-71978197D02*
X102652285Y-72014483D01*
X102652285Y-72014483D02*
X102688571Y-72087054D01*
X102688571Y-72087054D02*
X102688571Y-72268483D01*
X102688571Y-72268483D02*
X102652285Y-72341054D01*
X102652285Y-72341054D02*
X102615999Y-72377340D01*
X102615999Y-72377340D02*
X102543428Y-72413626D01*
X102543428Y-72413626D02*
X102398285Y-72413626D01*
X102398285Y-72413626D02*
X102325714Y-72377340D01*
X102325714Y-72377340D02*
X102289428Y-72341054D01*
X102289428Y-72341054D02*
X102253142Y-72268483D01*
%TO.C,R21*%
X72879856Y-58511911D02*
X73133856Y-58149054D01*
X73315285Y-58511911D02*
X73315285Y-57749911D01*
X73315285Y-57749911D02*
X73024999Y-57749911D01*
X73024999Y-57749911D02*
X72952428Y-57786197D01*
X72952428Y-57786197D02*
X72916142Y-57822483D01*
X72916142Y-57822483D02*
X72879856Y-57895054D01*
X72879856Y-57895054D02*
X72879856Y-58003911D01*
X72879856Y-58003911D02*
X72916142Y-58076483D01*
X72916142Y-58076483D02*
X72952428Y-58112768D01*
X72952428Y-58112768D02*
X73024999Y-58149054D01*
X73024999Y-58149054D02*
X73315285Y-58149054D01*
X72589571Y-57822483D02*
X72553285Y-57786197D01*
X72553285Y-57786197D02*
X72480714Y-57749911D01*
X72480714Y-57749911D02*
X72299285Y-57749911D01*
X72299285Y-57749911D02*
X72226714Y-57786197D01*
X72226714Y-57786197D02*
X72190428Y-57822483D01*
X72190428Y-57822483D02*
X72154142Y-57895054D01*
X72154142Y-57895054D02*
X72154142Y-57967626D01*
X72154142Y-57967626D02*
X72190428Y-58076483D01*
X72190428Y-58076483D02*
X72625856Y-58511911D01*
X72625856Y-58511911D02*
X72154142Y-58511911D01*
X71428428Y-58511911D02*
X71863857Y-58511911D01*
X71646142Y-58511911D02*
X71646142Y-57749911D01*
X71646142Y-57749911D02*
X71718714Y-57858768D01*
X71718714Y-57858768D02*
X71791285Y-57931340D01*
X71791285Y-57931340D02*
X71863857Y-57967626D01*
%TO.C,C42*%
X118218856Y-119907340D02*
X118255142Y-119943626D01*
X118255142Y-119943626D02*
X118363999Y-119979911D01*
X118363999Y-119979911D02*
X118436571Y-119979911D01*
X118436571Y-119979911D02*
X118545428Y-119943626D01*
X118545428Y-119943626D02*
X118617999Y-119871054D01*
X118617999Y-119871054D02*
X118654285Y-119798483D01*
X118654285Y-119798483D02*
X118690571Y-119653340D01*
X118690571Y-119653340D02*
X118690571Y-119544483D01*
X118690571Y-119544483D02*
X118654285Y-119399340D01*
X118654285Y-119399340D02*
X118617999Y-119326768D01*
X118617999Y-119326768D02*
X118545428Y-119254197D01*
X118545428Y-119254197D02*
X118436571Y-119217911D01*
X118436571Y-119217911D02*
X118363999Y-119217911D01*
X118363999Y-119217911D02*
X118255142Y-119254197D01*
X118255142Y-119254197D02*
X118218856Y-119290483D01*
X117565714Y-119471911D02*
X117565714Y-119979911D01*
X117747142Y-119181626D02*
X117928571Y-119725911D01*
X117928571Y-119725911D02*
X117456856Y-119725911D01*
X117202857Y-119290483D02*
X117166571Y-119254197D01*
X117166571Y-119254197D02*
X117094000Y-119217911D01*
X117094000Y-119217911D02*
X116912571Y-119217911D01*
X116912571Y-119217911D02*
X116840000Y-119254197D01*
X116840000Y-119254197D02*
X116803714Y-119290483D01*
X116803714Y-119290483D02*
X116767428Y-119363054D01*
X116767428Y-119363054D02*
X116767428Y-119435626D01*
X116767428Y-119435626D02*
X116803714Y-119544483D01*
X116803714Y-119544483D02*
X117239142Y-119979911D01*
X117239142Y-119979911D02*
X116767428Y-119979911D01*
%TO.C,Q2*%
X80047483Y-56823428D02*
X80011197Y-56750857D01*
X80011197Y-56750857D02*
X79938626Y-56678285D01*
X79938626Y-56678285D02*
X79829768Y-56569428D01*
X79829768Y-56569428D02*
X79793483Y-56496857D01*
X79793483Y-56496857D02*
X79793483Y-56424285D01*
X79974911Y-56460571D02*
X79938626Y-56388000D01*
X79938626Y-56388000D02*
X79866054Y-56315428D01*
X79866054Y-56315428D02*
X79720911Y-56279142D01*
X79720911Y-56279142D02*
X79466911Y-56279142D01*
X79466911Y-56279142D02*
X79321768Y-56315428D01*
X79321768Y-56315428D02*
X79249197Y-56388000D01*
X79249197Y-56388000D02*
X79212911Y-56460571D01*
X79212911Y-56460571D02*
X79212911Y-56605714D01*
X79212911Y-56605714D02*
X79249197Y-56678285D01*
X79249197Y-56678285D02*
X79321768Y-56750857D01*
X79321768Y-56750857D02*
X79466911Y-56787142D01*
X79466911Y-56787142D02*
X79720911Y-56787142D01*
X79720911Y-56787142D02*
X79866054Y-56750857D01*
X79866054Y-56750857D02*
X79938626Y-56678285D01*
X79938626Y-56678285D02*
X79974911Y-56605714D01*
X79974911Y-56605714D02*
X79974911Y-56460571D01*
X79285483Y-57077428D02*
X79249197Y-57113714D01*
X79249197Y-57113714D02*
X79212911Y-57186286D01*
X79212911Y-57186286D02*
X79212911Y-57367714D01*
X79212911Y-57367714D02*
X79249197Y-57440286D01*
X79249197Y-57440286D02*
X79285483Y-57476571D01*
X79285483Y-57476571D02*
X79358054Y-57512857D01*
X79358054Y-57512857D02*
X79430626Y-57512857D01*
X79430626Y-57512857D02*
X79539483Y-57476571D01*
X79539483Y-57476571D02*
X79974911Y-57041143D01*
X79974911Y-57041143D02*
X79974911Y-57512857D01*
%TO.C,C52*%
X118345856Y-101111340D02*
X118382142Y-101147626D01*
X118382142Y-101147626D02*
X118490999Y-101183911D01*
X118490999Y-101183911D02*
X118563571Y-101183911D01*
X118563571Y-101183911D02*
X118672428Y-101147626D01*
X118672428Y-101147626D02*
X118744999Y-101075054D01*
X118744999Y-101075054D02*
X118781285Y-101002483D01*
X118781285Y-101002483D02*
X118817571Y-100857340D01*
X118817571Y-100857340D02*
X118817571Y-100748483D01*
X118817571Y-100748483D02*
X118781285Y-100603340D01*
X118781285Y-100603340D02*
X118744999Y-100530768D01*
X118744999Y-100530768D02*
X118672428Y-100458197D01*
X118672428Y-100458197D02*
X118563571Y-100421911D01*
X118563571Y-100421911D02*
X118490999Y-100421911D01*
X118490999Y-100421911D02*
X118382142Y-100458197D01*
X118382142Y-100458197D02*
X118345856Y-100494483D01*
X117656428Y-100421911D02*
X118019285Y-100421911D01*
X118019285Y-100421911D02*
X118055571Y-100784768D01*
X118055571Y-100784768D02*
X118019285Y-100748483D01*
X118019285Y-100748483D02*
X117946714Y-100712197D01*
X117946714Y-100712197D02*
X117765285Y-100712197D01*
X117765285Y-100712197D02*
X117692714Y-100748483D01*
X117692714Y-100748483D02*
X117656428Y-100784768D01*
X117656428Y-100784768D02*
X117620142Y-100857340D01*
X117620142Y-100857340D02*
X117620142Y-101038768D01*
X117620142Y-101038768D02*
X117656428Y-101111340D01*
X117656428Y-101111340D02*
X117692714Y-101147626D01*
X117692714Y-101147626D02*
X117765285Y-101183911D01*
X117765285Y-101183911D02*
X117946714Y-101183911D01*
X117946714Y-101183911D02*
X118019285Y-101147626D01*
X118019285Y-101147626D02*
X118055571Y-101111340D01*
X117329857Y-100494483D02*
X117293571Y-100458197D01*
X117293571Y-100458197D02*
X117221000Y-100421911D01*
X117221000Y-100421911D02*
X117039571Y-100421911D01*
X117039571Y-100421911D02*
X116967000Y-100458197D01*
X116967000Y-100458197D02*
X116930714Y-100494483D01*
X116930714Y-100494483D02*
X116894428Y-100567054D01*
X116894428Y-100567054D02*
X116894428Y-100639626D01*
X116894428Y-100639626D02*
X116930714Y-100748483D01*
X116930714Y-100748483D02*
X117366142Y-101183911D01*
X117366142Y-101183911D02*
X116894428Y-101183911D01*
%TO.C,C83*%
X118599856Y-138703340D02*
X118636142Y-138739626D01*
X118636142Y-138739626D02*
X118744999Y-138775911D01*
X118744999Y-138775911D02*
X118817571Y-138775911D01*
X118817571Y-138775911D02*
X118926428Y-138739626D01*
X118926428Y-138739626D02*
X118998999Y-138667054D01*
X118998999Y-138667054D02*
X119035285Y-138594483D01*
X119035285Y-138594483D02*
X119071571Y-138449340D01*
X119071571Y-138449340D02*
X119071571Y-138340483D01*
X119071571Y-138340483D02*
X119035285Y-138195340D01*
X119035285Y-138195340D02*
X118998999Y-138122768D01*
X118998999Y-138122768D02*
X118926428Y-138050197D01*
X118926428Y-138050197D02*
X118817571Y-138013911D01*
X118817571Y-138013911D02*
X118744999Y-138013911D01*
X118744999Y-138013911D02*
X118636142Y-138050197D01*
X118636142Y-138050197D02*
X118599856Y-138086483D01*
X118164428Y-138340483D02*
X118236999Y-138304197D01*
X118236999Y-138304197D02*
X118273285Y-138267911D01*
X118273285Y-138267911D02*
X118309571Y-138195340D01*
X118309571Y-138195340D02*
X118309571Y-138159054D01*
X118309571Y-138159054D02*
X118273285Y-138086483D01*
X118273285Y-138086483D02*
X118236999Y-138050197D01*
X118236999Y-138050197D02*
X118164428Y-138013911D01*
X118164428Y-138013911D02*
X118019285Y-138013911D01*
X118019285Y-138013911D02*
X117946714Y-138050197D01*
X117946714Y-138050197D02*
X117910428Y-138086483D01*
X117910428Y-138086483D02*
X117874142Y-138159054D01*
X117874142Y-138159054D02*
X117874142Y-138195340D01*
X117874142Y-138195340D02*
X117910428Y-138267911D01*
X117910428Y-138267911D02*
X117946714Y-138304197D01*
X117946714Y-138304197D02*
X118019285Y-138340483D01*
X118019285Y-138340483D02*
X118164428Y-138340483D01*
X118164428Y-138340483D02*
X118236999Y-138376768D01*
X118236999Y-138376768D02*
X118273285Y-138413054D01*
X118273285Y-138413054D02*
X118309571Y-138485626D01*
X118309571Y-138485626D02*
X118309571Y-138630768D01*
X118309571Y-138630768D02*
X118273285Y-138703340D01*
X118273285Y-138703340D02*
X118236999Y-138739626D01*
X118236999Y-138739626D02*
X118164428Y-138775911D01*
X118164428Y-138775911D02*
X118019285Y-138775911D01*
X118019285Y-138775911D02*
X117946714Y-138739626D01*
X117946714Y-138739626D02*
X117910428Y-138703340D01*
X117910428Y-138703340D02*
X117874142Y-138630768D01*
X117874142Y-138630768D02*
X117874142Y-138485626D01*
X117874142Y-138485626D02*
X117910428Y-138413054D01*
X117910428Y-138413054D02*
X117946714Y-138376768D01*
X117946714Y-138376768D02*
X118019285Y-138340483D01*
X117620142Y-138013911D02*
X117148428Y-138013911D01*
X117148428Y-138013911D02*
X117402428Y-138304197D01*
X117402428Y-138304197D02*
X117293571Y-138304197D01*
X117293571Y-138304197D02*
X117221000Y-138340483D01*
X117221000Y-138340483D02*
X117184714Y-138376768D01*
X117184714Y-138376768D02*
X117148428Y-138449340D01*
X117148428Y-138449340D02*
X117148428Y-138630768D01*
X117148428Y-138630768D02*
X117184714Y-138703340D01*
X117184714Y-138703340D02*
X117221000Y-138739626D01*
X117221000Y-138739626D02*
X117293571Y-138775911D01*
X117293571Y-138775911D02*
X117511285Y-138775911D01*
X117511285Y-138775911D02*
X117583857Y-138739626D01*
X117583857Y-138739626D02*
X117620142Y-138703340D01*
%TO.C,C47*%
X123933856Y-103524340D02*
X123970142Y-103560626D01*
X123970142Y-103560626D02*
X124078999Y-103596911D01*
X124078999Y-103596911D02*
X124151571Y-103596911D01*
X124151571Y-103596911D02*
X124260428Y-103560626D01*
X124260428Y-103560626D02*
X124332999Y-103488054D01*
X124332999Y-103488054D02*
X124369285Y-103415483D01*
X124369285Y-103415483D02*
X124405571Y-103270340D01*
X124405571Y-103270340D02*
X124405571Y-103161483D01*
X124405571Y-103161483D02*
X124369285Y-103016340D01*
X124369285Y-103016340D02*
X124332999Y-102943768D01*
X124332999Y-102943768D02*
X124260428Y-102871197D01*
X124260428Y-102871197D02*
X124151571Y-102834911D01*
X124151571Y-102834911D02*
X124078999Y-102834911D01*
X124078999Y-102834911D02*
X123970142Y-102871197D01*
X123970142Y-102871197D02*
X123933856Y-102907483D01*
X123280714Y-103088911D02*
X123280714Y-103596911D01*
X123462142Y-102798626D02*
X123643571Y-103342911D01*
X123643571Y-103342911D02*
X123171856Y-103342911D01*
X122954142Y-102834911D02*
X122446142Y-102834911D01*
X122446142Y-102834911D02*
X122772714Y-103596911D01*
%TO.C,C70*%
X106153856Y-67837340D02*
X106190142Y-67873626D01*
X106190142Y-67873626D02*
X106298999Y-67909911D01*
X106298999Y-67909911D02*
X106371571Y-67909911D01*
X106371571Y-67909911D02*
X106480428Y-67873626D01*
X106480428Y-67873626D02*
X106552999Y-67801054D01*
X106552999Y-67801054D02*
X106589285Y-67728483D01*
X106589285Y-67728483D02*
X106625571Y-67583340D01*
X106625571Y-67583340D02*
X106625571Y-67474483D01*
X106625571Y-67474483D02*
X106589285Y-67329340D01*
X106589285Y-67329340D02*
X106552999Y-67256768D01*
X106552999Y-67256768D02*
X106480428Y-67184197D01*
X106480428Y-67184197D02*
X106371571Y-67147911D01*
X106371571Y-67147911D02*
X106298999Y-67147911D01*
X106298999Y-67147911D02*
X106190142Y-67184197D01*
X106190142Y-67184197D02*
X106153856Y-67220483D01*
X105899856Y-67147911D02*
X105391856Y-67147911D01*
X105391856Y-67147911D02*
X105718428Y-67909911D01*
X104956428Y-67147911D02*
X104883857Y-67147911D01*
X104883857Y-67147911D02*
X104811285Y-67184197D01*
X104811285Y-67184197D02*
X104775000Y-67220483D01*
X104775000Y-67220483D02*
X104738714Y-67293054D01*
X104738714Y-67293054D02*
X104702428Y-67438197D01*
X104702428Y-67438197D02*
X104702428Y-67619626D01*
X104702428Y-67619626D02*
X104738714Y-67764768D01*
X104738714Y-67764768D02*
X104775000Y-67837340D01*
X104775000Y-67837340D02*
X104811285Y-67873626D01*
X104811285Y-67873626D02*
X104883857Y-67909911D01*
X104883857Y-67909911D02*
X104956428Y-67909911D01*
X104956428Y-67909911D02*
X105029000Y-67873626D01*
X105029000Y-67873626D02*
X105065285Y-67837340D01*
X105065285Y-67837340D02*
X105101571Y-67764768D01*
X105101571Y-67764768D02*
X105137857Y-67619626D01*
X105137857Y-67619626D02*
X105137857Y-67438197D01*
X105137857Y-67438197D02*
X105101571Y-67293054D01*
X105101571Y-67293054D02*
X105065285Y-67220483D01*
X105065285Y-67220483D02*
X105029000Y-67184197D01*
X105029000Y-67184197D02*
X104956428Y-67147911D01*
%TO.C,LED1*%
X74005911Y-51979285D02*
X74005911Y-51616428D01*
X74005911Y-51616428D02*
X73243911Y-51616428D01*
X73606768Y-52233285D02*
X73606768Y-52487285D01*
X74005911Y-52596142D02*
X74005911Y-52233285D01*
X74005911Y-52233285D02*
X73243911Y-52233285D01*
X73243911Y-52233285D02*
X73243911Y-52596142D01*
X74005911Y-52922714D02*
X73243911Y-52922714D01*
X73243911Y-52922714D02*
X73243911Y-53104143D01*
X73243911Y-53104143D02*
X73280197Y-53213000D01*
X73280197Y-53213000D02*
X73352768Y-53285571D01*
X73352768Y-53285571D02*
X73425340Y-53321857D01*
X73425340Y-53321857D02*
X73570483Y-53358143D01*
X73570483Y-53358143D02*
X73679340Y-53358143D01*
X73679340Y-53358143D02*
X73824483Y-53321857D01*
X73824483Y-53321857D02*
X73897054Y-53285571D01*
X73897054Y-53285571D02*
X73969626Y-53213000D01*
X73969626Y-53213000D02*
X74005911Y-53104143D01*
X74005911Y-53104143D02*
X74005911Y-52922714D01*
X74005911Y-54083857D02*
X74005911Y-53648428D01*
X74005911Y-53866143D02*
X73243911Y-53866143D01*
X73243911Y-53866143D02*
X73352768Y-53793571D01*
X73352768Y-53793571D02*
X73425340Y-53721000D01*
X73425340Y-53721000D02*
X73461626Y-53648428D01*
%TO.C,C39*%
X116097340Y-112286143D02*
X116133626Y-112249857D01*
X116133626Y-112249857D02*
X116169911Y-112141000D01*
X116169911Y-112141000D02*
X116169911Y-112068428D01*
X116169911Y-112068428D02*
X116133626Y-111959571D01*
X116133626Y-111959571D02*
X116061054Y-111887000D01*
X116061054Y-111887000D02*
X115988483Y-111850714D01*
X115988483Y-111850714D02*
X115843340Y-111814428D01*
X115843340Y-111814428D02*
X115734483Y-111814428D01*
X115734483Y-111814428D02*
X115589340Y-111850714D01*
X115589340Y-111850714D02*
X115516768Y-111887000D01*
X115516768Y-111887000D02*
X115444197Y-111959571D01*
X115444197Y-111959571D02*
X115407911Y-112068428D01*
X115407911Y-112068428D02*
X115407911Y-112141000D01*
X115407911Y-112141000D02*
X115444197Y-112249857D01*
X115444197Y-112249857D02*
X115480483Y-112286143D01*
X115407911Y-112540143D02*
X115407911Y-113011857D01*
X115407911Y-113011857D02*
X115698197Y-112757857D01*
X115698197Y-112757857D02*
X115698197Y-112866714D01*
X115698197Y-112866714D02*
X115734483Y-112939286D01*
X115734483Y-112939286D02*
X115770768Y-112975571D01*
X115770768Y-112975571D02*
X115843340Y-113011857D01*
X115843340Y-113011857D02*
X116024768Y-113011857D01*
X116024768Y-113011857D02*
X116097340Y-112975571D01*
X116097340Y-112975571D02*
X116133626Y-112939286D01*
X116133626Y-112939286D02*
X116169911Y-112866714D01*
X116169911Y-112866714D02*
X116169911Y-112649000D01*
X116169911Y-112649000D02*
X116133626Y-112576428D01*
X116133626Y-112576428D02*
X116097340Y-112540143D01*
X116169911Y-113374714D02*
X116169911Y-113519857D01*
X116169911Y-113519857D02*
X116133626Y-113592428D01*
X116133626Y-113592428D02*
X116097340Y-113628714D01*
X116097340Y-113628714D02*
X115988483Y-113701285D01*
X115988483Y-113701285D02*
X115843340Y-113737571D01*
X115843340Y-113737571D02*
X115553054Y-113737571D01*
X115553054Y-113737571D02*
X115480483Y-113701285D01*
X115480483Y-113701285D02*
X115444197Y-113665000D01*
X115444197Y-113665000D02*
X115407911Y-113592428D01*
X115407911Y-113592428D02*
X115407911Y-113447285D01*
X115407911Y-113447285D02*
X115444197Y-113374714D01*
X115444197Y-113374714D02*
X115480483Y-113338428D01*
X115480483Y-113338428D02*
X115553054Y-113302142D01*
X115553054Y-113302142D02*
X115734483Y-113302142D01*
X115734483Y-113302142D02*
X115807054Y-113338428D01*
X115807054Y-113338428D02*
X115843340Y-113374714D01*
X115843340Y-113374714D02*
X115879626Y-113447285D01*
X115879626Y-113447285D02*
X115879626Y-113592428D01*
X115879626Y-113592428D02*
X115843340Y-113665000D01*
X115843340Y-113665000D02*
X115807054Y-113701285D01*
X115807054Y-113701285D02*
X115734483Y-113737571D01*
%TO.C,C18*%
X86595856Y-108731340D02*
X86632142Y-108767626D01*
X86632142Y-108767626D02*
X86740999Y-108803911D01*
X86740999Y-108803911D02*
X86813571Y-108803911D01*
X86813571Y-108803911D02*
X86922428Y-108767626D01*
X86922428Y-108767626D02*
X86994999Y-108695054D01*
X86994999Y-108695054D02*
X87031285Y-108622483D01*
X87031285Y-108622483D02*
X87067571Y-108477340D01*
X87067571Y-108477340D02*
X87067571Y-108368483D01*
X87067571Y-108368483D02*
X87031285Y-108223340D01*
X87031285Y-108223340D02*
X86994999Y-108150768D01*
X86994999Y-108150768D02*
X86922428Y-108078197D01*
X86922428Y-108078197D02*
X86813571Y-108041911D01*
X86813571Y-108041911D02*
X86740999Y-108041911D01*
X86740999Y-108041911D02*
X86632142Y-108078197D01*
X86632142Y-108078197D02*
X86595856Y-108114483D01*
X85870142Y-108803911D02*
X86305571Y-108803911D01*
X86087856Y-108803911D02*
X86087856Y-108041911D01*
X86087856Y-108041911D02*
X86160428Y-108150768D01*
X86160428Y-108150768D02*
X86232999Y-108223340D01*
X86232999Y-108223340D02*
X86305571Y-108259626D01*
X85434714Y-108368483D02*
X85507285Y-108332197D01*
X85507285Y-108332197D02*
X85543571Y-108295911D01*
X85543571Y-108295911D02*
X85579857Y-108223340D01*
X85579857Y-108223340D02*
X85579857Y-108187054D01*
X85579857Y-108187054D02*
X85543571Y-108114483D01*
X85543571Y-108114483D02*
X85507285Y-108078197D01*
X85507285Y-108078197D02*
X85434714Y-108041911D01*
X85434714Y-108041911D02*
X85289571Y-108041911D01*
X85289571Y-108041911D02*
X85217000Y-108078197D01*
X85217000Y-108078197D02*
X85180714Y-108114483D01*
X85180714Y-108114483D02*
X85144428Y-108187054D01*
X85144428Y-108187054D02*
X85144428Y-108223340D01*
X85144428Y-108223340D02*
X85180714Y-108295911D01*
X85180714Y-108295911D02*
X85217000Y-108332197D01*
X85217000Y-108332197D02*
X85289571Y-108368483D01*
X85289571Y-108368483D02*
X85434714Y-108368483D01*
X85434714Y-108368483D02*
X85507285Y-108404768D01*
X85507285Y-108404768D02*
X85543571Y-108441054D01*
X85543571Y-108441054D02*
X85579857Y-108513626D01*
X85579857Y-108513626D02*
X85579857Y-108658768D01*
X85579857Y-108658768D02*
X85543571Y-108731340D01*
X85543571Y-108731340D02*
X85507285Y-108767626D01*
X85507285Y-108767626D02*
X85434714Y-108803911D01*
X85434714Y-108803911D02*
X85289571Y-108803911D01*
X85289571Y-108803911D02*
X85217000Y-108767626D01*
X85217000Y-108767626D02*
X85180714Y-108731340D01*
X85180714Y-108731340D02*
X85144428Y-108658768D01*
X85144428Y-108658768D02*
X85144428Y-108513626D01*
X85144428Y-108513626D02*
X85180714Y-108441054D01*
X85180714Y-108441054D02*
X85217000Y-108404768D01*
X85217000Y-108404768D02*
X85289571Y-108368483D01*
%TO.C,C31*%
X135109856Y-125241340D02*
X135146142Y-125277626D01*
X135146142Y-125277626D02*
X135254999Y-125313911D01*
X135254999Y-125313911D02*
X135327571Y-125313911D01*
X135327571Y-125313911D02*
X135436428Y-125277626D01*
X135436428Y-125277626D02*
X135508999Y-125205054D01*
X135508999Y-125205054D02*
X135545285Y-125132483D01*
X135545285Y-125132483D02*
X135581571Y-124987340D01*
X135581571Y-124987340D02*
X135581571Y-124878483D01*
X135581571Y-124878483D02*
X135545285Y-124733340D01*
X135545285Y-124733340D02*
X135508999Y-124660768D01*
X135508999Y-124660768D02*
X135436428Y-124588197D01*
X135436428Y-124588197D02*
X135327571Y-124551911D01*
X135327571Y-124551911D02*
X135254999Y-124551911D01*
X135254999Y-124551911D02*
X135146142Y-124588197D01*
X135146142Y-124588197D02*
X135109856Y-124624483D01*
X134855856Y-124551911D02*
X134384142Y-124551911D01*
X134384142Y-124551911D02*
X134638142Y-124842197D01*
X134638142Y-124842197D02*
X134529285Y-124842197D01*
X134529285Y-124842197D02*
X134456714Y-124878483D01*
X134456714Y-124878483D02*
X134420428Y-124914768D01*
X134420428Y-124914768D02*
X134384142Y-124987340D01*
X134384142Y-124987340D02*
X134384142Y-125168768D01*
X134384142Y-125168768D02*
X134420428Y-125241340D01*
X134420428Y-125241340D02*
X134456714Y-125277626D01*
X134456714Y-125277626D02*
X134529285Y-125313911D01*
X134529285Y-125313911D02*
X134746999Y-125313911D01*
X134746999Y-125313911D02*
X134819571Y-125277626D01*
X134819571Y-125277626D02*
X134855856Y-125241340D01*
X133658428Y-125313911D02*
X134093857Y-125313911D01*
X133876142Y-125313911D02*
X133876142Y-124551911D01*
X133876142Y-124551911D02*
X133948714Y-124660768D01*
X133948714Y-124660768D02*
X134021285Y-124733340D01*
X134021285Y-124733340D02*
X134093857Y-124769626D01*
%TO.C,R90*%
X78721856Y-55463911D02*
X78975856Y-55101054D01*
X79157285Y-55463911D02*
X79157285Y-54701911D01*
X79157285Y-54701911D02*
X78866999Y-54701911D01*
X78866999Y-54701911D02*
X78794428Y-54738197D01*
X78794428Y-54738197D02*
X78758142Y-54774483D01*
X78758142Y-54774483D02*
X78721856Y-54847054D01*
X78721856Y-54847054D02*
X78721856Y-54955911D01*
X78721856Y-54955911D02*
X78758142Y-55028483D01*
X78758142Y-55028483D02*
X78794428Y-55064768D01*
X78794428Y-55064768D02*
X78866999Y-55101054D01*
X78866999Y-55101054D02*
X79157285Y-55101054D01*
X78358999Y-55463911D02*
X78213856Y-55463911D01*
X78213856Y-55463911D02*
X78141285Y-55427626D01*
X78141285Y-55427626D02*
X78104999Y-55391340D01*
X78104999Y-55391340D02*
X78032428Y-55282483D01*
X78032428Y-55282483D02*
X77996142Y-55137340D01*
X77996142Y-55137340D02*
X77996142Y-54847054D01*
X77996142Y-54847054D02*
X78032428Y-54774483D01*
X78032428Y-54774483D02*
X78068714Y-54738197D01*
X78068714Y-54738197D02*
X78141285Y-54701911D01*
X78141285Y-54701911D02*
X78286428Y-54701911D01*
X78286428Y-54701911D02*
X78358999Y-54738197D01*
X78358999Y-54738197D02*
X78395285Y-54774483D01*
X78395285Y-54774483D02*
X78431571Y-54847054D01*
X78431571Y-54847054D02*
X78431571Y-55028483D01*
X78431571Y-55028483D02*
X78395285Y-55101054D01*
X78395285Y-55101054D02*
X78358999Y-55137340D01*
X78358999Y-55137340D02*
X78286428Y-55173626D01*
X78286428Y-55173626D02*
X78141285Y-55173626D01*
X78141285Y-55173626D02*
X78068714Y-55137340D01*
X78068714Y-55137340D02*
X78032428Y-55101054D01*
X78032428Y-55101054D02*
X77996142Y-55028483D01*
X77524428Y-54701911D02*
X77451857Y-54701911D01*
X77451857Y-54701911D02*
X77379285Y-54738197D01*
X77379285Y-54738197D02*
X77343000Y-54774483D01*
X77343000Y-54774483D02*
X77306714Y-54847054D01*
X77306714Y-54847054D02*
X77270428Y-54992197D01*
X77270428Y-54992197D02*
X77270428Y-55173626D01*
X77270428Y-55173626D02*
X77306714Y-55318768D01*
X77306714Y-55318768D02*
X77343000Y-55391340D01*
X77343000Y-55391340D02*
X77379285Y-55427626D01*
X77379285Y-55427626D02*
X77451857Y-55463911D01*
X77451857Y-55463911D02*
X77524428Y-55463911D01*
X77524428Y-55463911D02*
X77597000Y-55427626D01*
X77597000Y-55427626D02*
X77633285Y-55391340D01*
X77633285Y-55391340D02*
X77669571Y-55318768D01*
X77669571Y-55318768D02*
X77705857Y-55173626D01*
X77705857Y-55173626D02*
X77705857Y-54992197D01*
X77705857Y-54992197D02*
X77669571Y-54847054D01*
X77669571Y-54847054D02*
X77633285Y-54774483D01*
X77633285Y-54774483D02*
X77597000Y-54738197D01*
X77597000Y-54738197D02*
X77524428Y-54701911D01*
%TO.C,R95*%
X124391911Y-134511143D02*
X124029054Y-134257143D01*
X124391911Y-134075714D02*
X123629911Y-134075714D01*
X123629911Y-134075714D02*
X123629911Y-134366000D01*
X123629911Y-134366000D02*
X123666197Y-134438571D01*
X123666197Y-134438571D02*
X123702483Y-134474857D01*
X123702483Y-134474857D02*
X123775054Y-134511143D01*
X123775054Y-134511143D02*
X123883911Y-134511143D01*
X123883911Y-134511143D02*
X123956483Y-134474857D01*
X123956483Y-134474857D02*
X123992768Y-134438571D01*
X123992768Y-134438571D02*
X124029054Y-134366000D01*
X124029054Y-134366000D02*
X124029054Y-134075714D01*
X124391911Y-134874000D02*
X124391911Y-135019143D01*
X124391911Y-135019143D02*
X124355626Y-135091714D01*
X124355626Y-135091714D02*
X124319340Y-135128000D01*
X124319340Y-135128000D02*
X124210483Y-135200571D01*
X124210483Y-135200571D02*
X124065340Y-135236857D01*
X124065340Y-135236857D02*
X123775054Y-135236857D01*
X123775054Y-135236857D02*
X123702483Y-135200571D01*
X123702483Y-135200571D02*
X123666197Y-135164286D01*
X123666197Y-135164286D02*
X123629911Y-135091714D01*
X123629911Y-135091714D02*
X123629911Y-134946571D01*
X123629911Y-134946571D02*
X123666197Y-134874000D01*
X123666197Y-134874000D02*
X123702483Y-134837714D01*
X123702483Y-134837714D02*
X123775054Y-134801428D01*
X123775054Y-134801428D02*
X123956483Y-134801428D01*
X123956483Y-134801428D02*
X124029054Y-134837714D01*
X124029054Y-134837714D02*
X124065340Y-134874000D01*
X124065340Y-134874000D02*
X124101626Y-134946571D01*
X124101626Y-134946571D02*
X124101626Y-135091714D01*
X124101626Y-135091714D02*
X124065340Y-135164286D01*
X124065340Y-135164286D02*
X124029054Y-135200571D01*
X124029054Y-135200571D02*
X123956483Y-135236857D01*
X123629911Y-135926285D02*
X123629911Y-135563428D01*
X123629911Y-135563428D02*
X123992768Y-135527142D01*
X123992768Y-135527142D02*
X123956483Y-135563428D01*
X123956483Y-135563428D02*
X123920197Y-135636000D01*
X123920197Y-135636000D02*
X123920197Y-135817428D01*
X123920197Y-135817428D02*
X123956483Y-135890000D01*
X123956483Y-135890000D02*
X123992768Y-135926285D01*
X123992768Y-135926285D02*
X124065340Y-135962571D01*
X124065340Y-135962571D02*
X124246768Y-135962571D01*
X124246768Y-135962571D02*
X124319340Y-135926285D01*
X124319340Y-135926285D02*
X124355626Y-135890000D01*
X124355626Y-135890000D02*
X124391911Y-135817428D01*
X124391911Y-135817428D02*
X124391911Y-135636000D01*
X124391911Y-135636000D02*
X124355626Y-135563428D01*
X124355626Y-135563428D02*
X124319340Y-135527142D01*
%TO.C,C53*%
X110890340Y-101364143D02*
X110926626Y-101327857D01*
X110926626Y-101327857D02*
X110962911Y-101219000D01*
X110962911Y-101219000D02*
X110962911Y-101146428D01*
X110962911Y-101146428D02*
X110926626Y-101037571D01*
X110926626Y-101037571D02*
X110854054Y-100965000D01*
X110854054Y-100965000D02*
X110781483Y-100928714D01*
X110781483Y-100928714D02*
X110636340Y-100892428D01*
X110636340Y-100892428D02*
X110527483Y-100892428D01*
X110527483Y-100892428D02*
X110382340Y-100928714D01*
X110382340Y-100928714D02*
X110309768Y-100965000D01*
X110309768Y-100965000D02*
X110237197Y-101037571D01*
X110237197Y-101037571D02*
X110200911Y-101146428D01*
X110200911Y-101146428D02*
X110200911Y-101219000D01*
X110200911Y-101219000D02*
X110237197Y-101327857D01*
X110237197Y-101327857D02*
X110273483Y-101364143D01*
X110200911Y-102053571D02*
X110200911Y-101690714D01*
X110200911Y-101690714D02*
X110563768Y-101654428D01*
X110563768Y-101654428D02*
X110527483Y-101690714D01*
X110527483Y-101690714D02*
X110491197Y-101763286D01*
X110491197Y-101763286D02*
X110491197Y-101944714D01*
X110491197Y-101944714D02*
X110527483Y-102017286D01*
X110527483Y-102017286D02*
X110563768Y-102053571D01*
X110563768Y-102053571D02*
X110636340Y-102089857D01*
X110636340Y-102089857D02*
X110817768Y-102089857D01*
X110817768Y-102089857D02*
X110890340Y-102053571D01*
X110890340Y-102053571D02*
X110926626Y-102017286D01*
X110926626Y-102017286D02*
X110962911Y-101944714D01*
X110962911Y-101944714D02*
X110962911Y-101763286D01*
X110962911Y-101763286D02*
X110926626Y-101690714D01*
X110926626Y-101690714D02*
X110890340Y-101654428D01*
X110200911Y-102343857D02*
X110200911Y-102815571D01*
X110200911Y-102815571D02*
X110491197Y-102561571D01*
X110491197Y-102561571D02*
X110491197Y-102670428D01*
X110491197Y-102670428D02*
X110527483Y-102743000D01*
X110527483Y-102743000D02*
X110563768Y-102779285D01*
X110563768Y-102779285D02*
X110636340Y-102815571D01*
X110636340Y-102815571D02*
X110817768Y-102815571D01*
X110817768Y-102815571D02*
X110890340Y-102779285D01*
X110890340Y-102779285D02*
X110926626Y-102743000D01*
X110926626Y-102743000D02*
X110962911Y-102670428D01*
X110962911Y-102670428D02*
X110962911Y-102452714D01*
X110962911Y-102452714D02*
X110926626Y-102380142D01*
X110926626Y-102380142D02*
X110890340Y-102343857D01*
%TO.C,C51*%
X118853856Y-103143340D02*
X118890142Y-103179626D01*
X118890142Y-103179626D02*
X118998999Y-103215911D01*
X118998999Y-103215911D02*
X119071571Y-103215911D01*
X119071571Y-103215911D02*
X119180428Y-103179626D01*
X119180428Y-103179626D02*
X119252999Y-103107054D01*
X119252999Y-103107054D02*
X119289285Y-103034483D01*
X119289285Y-103034483D02*
X119325571Y-102889340D01*
X119325571Y-102889340D02*
X119325571Y-102780483D01*
X119325571Y-102780483D02*
X119289285Y-102635340D01*
X119289285Y-102635340D02*
X119252999Y-102562768D01*
X119252999Y-102562768D02*
X119180428Y-102490197D01*
X119180428Y-102490197D02*
X119071571Y-102453911D01*
X119071571Y-102453911D02*
X118998999Y-102453911D01*
X118998999Y-102453911D02*
X118890142Y-102490197D01*
X118890142Y-102490197D02*
X118853856Y-102526483D01*
X118164428Y-102453911D02*
X118527285Y-102453911D01*
X118527285Y-102453911D02*
X118563571Y-102816768D01*
X118563571Y-102816768D02*
X118527285Y-102780483D01*
X118527285Y-102780483D02*
X118454714Y-102744197D01*
X118454714Y-102744197D02*
X118273285Y-102744197D01*
X118273285Y-102744197D02*
X118200714Y-102780483D01*
X118200714Y-102780483D02*
X118164428Y-102816768D01*
X118164428Y-102816768D02*
X118128142Y-102889340D01*
X118128142Y-102889340D02*
X118128142Y-103070768D01*
X118128142Y-103070768D02*
X118164428Y-103143340D01*
X118164428Y-103143340D02*
X118200714Y-103179626D01*
X118200714Y-103179626D02*
X118273285Y-103215911D01*
X118273285Y-103215911D02*
X118454714Y-103215911D01*
X118454714Y-103215911D02*
X118527285Y-103179626D01*
X118527285Y-103179626D02*
X118563571Y-103143340D01*
X117402428Y-103215911D02*
X117837857Y-103215911D01*
X117620142Y-103215911D02*
X117620142Y-102453911D01*
X117620142Y-102453911D02*
X117692714Y-102562768D01*
X117692714Y-102562768D02*
X117765285Y-102635340D01*
X117765285Y-102635340D02*
X117837857Y-102671626D01*
%TO.C,C58*%
X135490856Y-135401340D02*
X135527142Y-135437626D01*
X135527142Y-135437626D02*
X135635999Y-135473911D01*
X135635999Y-135473911D02*
X135708571Y-135473911D01*
X135708571Y-135473911D02*
X135817428Y-135437626D01*
X135817428Y-135437626D02*
X135889999Y-135365054D01*
X135889999Y-135365054D02*
X135926285Y-135292483D01*
X135926285Y-135292483D02*
X135962571Y-135147340D01*
X135962571Y-135147340D02*
X135962571Y-135038483D01*
X135962571Y-135038483D02*
X135926285Y-134893340D01*
X135926285Y-134893340D02*
X135889999Y-134820768D01*
X135889999Y-134820768D02*
X135817428Y-134748197D01*
X135817428Y-134748197D02*
X135708571Y-134711911D01*
X135708571Y-134711911D02*
X135635999Y-134711911D01*
X135635999Y-134711911D02*
X135527142Y-134748197D01*
X135527142Y-134748197D02*
X135490856Y-134784483D01*
X134801428Y-134711911D02*
X135164285Y-134711911D01*
X135164285Y-134711911D02*
X135200571Y-135074768D01*
X135200571Y-135074768D02*
X135164285Y-135038483D01*
X135164285Y-135038483D02*
X135091714Y-135002197D01*
X135091714Y-135002197D02*
X134910285Y-135002197D01*
X134910285Y-135002197D02*
X134837714Y-135038483D01*
X134837714Y-135038483D02*
X134801428Y-135074768D01*
X134801428Y-135074768D02*
X134765142Y-135147340D01*
X134765142Y-135147340D02*
X134765142Y-135328768D01*
X134765142Y-135328768D02*
X134801428Y-135401340D01*
X134801428Y-135401340D02*
X134837714Y-135437626D01*
X134837714Y-135437626D02*
X134910285Y-135473911D01*
X134910285Y-135473911D02*
X135091714Y-135473911D01*
X135091714Y-135473911D02*
X135164285Y-135437626D01*
X135164285Y-135437626D02*
X135200571Y-135401340D01*
X134329714Y-135038483D02*
X134402285Y-135002197D01*
X134402285Y-135002197D02*
X134438571Y-134965911D01*
X134438571Y-134965911D02*
X134474857Y-134893340D01*
X134474857Y-134893340D02*
X134474857Y-134857054D01*
X134474857Y-134857054D02*
X134438571Y-134784483D01*
X134438571Y-134784483D02*
X134402285Y-134748197D01*
X134402285Y-134748197D02*
X134329714Y-134711911D01*
X134329714Y-134711911D02*
X134184571Y-134711911D01*
X134184571Y-134711911D02*
X134112000Y-134748197D01*
X134112000Y-134748197D02*
X134075714Y-134784483D01*
X134075714Y-134784483D02*
X134039428Y-134857054D01*
X134039428Y-134857054D02*
X134039428Y-134893340D01*
X134039428Y-134893340D02*
X134075714Y-134965911D01*
X134075714Y-134965911D02*
X134112000Y-135002197D01*
X134112000Y-135002197D02*
X134184571Y-135038483D01*
X134184571Y-135038483D02*
X134329714Y-135038483D01*
X134329714Y-135038483D02*
X134402285Y-135074768D01*
X134402285Y-135074768D02*
X134438571Y-135111054D01*
X134438571Y-135111054D02*
X134474857Y-135183626D01*
X134474857Y-135183626D02*
X134474857Y-135328768D01*
X134474857Y-135328768D02*
X134438571Y-135401340D01*
X134438571Y-135401340D02*
X134402285Y-135437626D01*
X134402285Y-135437626D02*
X134329714Y-135473911D01*
X134329714Y-135473911D02*
X134184571Y-135473911D01*
X134184571Y-135473911D02*
X134112000Y-135437626D01*
X134112000Y-135437626D02*
X134075714Y-135401340D01*
X134075714Y-135401340D02*
X134039428Y-135328768D01*
X134039428Y-135328768D02*
X134039428Y-135183626D01*
X134039428Y-135183626D02*
X134075714Y-135111054D01*
X134075714Y-135111054D02*
X134112000Y-135074768D01*
X134112000Y-135074768D02*
X134184571Y-135038483D01*
%TO.C,R88*%
X110090856Y-69814911D02*
X110344856Y-69452054D01*
X110526285Y-69814911D02*
X110526285Y-69052911D01*
X110526285Y-69052911D02*
X110235999Y-69052911D01*
X110235999Y-69052911D02*
X110163428Y-69089197D01*
X110163428Y-69089197D02*
X110127142Y-69125483D01*
X110127142Y-69125483D02*
X110090856Y-69198054D01*
X110090856Y-69198054D02*
X110090856Y-69306911D01*
X110090856Y-69306911D02*
X110127142Y-69379483D01*
X110127142Y-69379483D02*
X110163428Y-69415768D01*
X110163428Y-69415768D02*
X110235999Y-69452054D01*
X110235999Y-69452054D02*
X110526285Y-69452054D01*
X109655428Y-69379483D02*
X109727999Y-69343197D01*
X109727999Y-69343197D02*
X109764285Y-69306911D01*
X109764285Y-69306911D02*
X109800571Y-69234340D01*
X109800571Y-69234340D02*
X109800571Y-69198054D01*
X109800571Y-69198054D02*
X109764285Y-69125483D01*
X109764285Y-69125483D02*
X109727999Y-69089197D01*
X109727999Y-69089197D02*
X109655428Y-69052911D01*
X109655428Y-69052911D02*
X109510285Y-69052911D01*
X109510285Y-69052911D02*
X109437714Y-69089197D01*
X109437714Y-69089197D02*
X109401428Y-69125483D01*
X109401428Y-69125483D02*
X109365142Y-69198054D01*
X109365142Y-69198054D02*
X109365142Y-69234340D01*
X109365142Y-69234340D02*
X109401428Y-69306911D01*
X109401428Y-69306911D02*
X109437714Y-69343197D01*
X109437714Y-69343197D02*
X109510285Y-69379483D01*
X109510285Y-69379483D02*
X109655428Y-69379483D01*
X109655428Y-69379483D02*
X109727999Y-69415768D01*
X109727999Y-69415768D02*
X109764285Y-69452054D01*
X109764285Y-69452054D02*
X109800571Y-69524626D01*
X109800571Y-69524626D02*
X109800571Y-69669768D01*
X109800571Y-69669768D02*
X109764285Y-69742340D01*
X109764285Y-69742340D02*
X109727999Y-69778626D01*
X109727999Y-69778626D02*
X109655428Y-69814911D01*
X109655428Y-69814911D02*
X109510285Y-69814911D01*
X109510285Y-69814911D02*
X109437714Y-69778626D01*
X109437714Y-69778626D02*
X109401428Y-69742340D01*
X109401428Y-69742340D02*
X109365142Y-69669768D01*
X109365142Y-69669768D02*
X109365142Y-69524626D01*
X109365142Y-69524626D02*
X109401428Y-69452054D01*
X109401428Y-69452054D02*
X109437714Y-69415768D01*
X109437714Y-69415768D02*
X109510285Y-69379483D01*
X108929714Y-69379483D02*
X109002285Y-69343197D01*
X109002285Y-69343197D02*
X109038571Y-69306911D01*
X109038571Y-69306911D02*
X109074857Y-69234340D01*
X109074857Y-69234340D02*
X109074857Y-69198054D01*
X109074857Y-69198054D02*
X109038571Y-69125483D01*
X109038571Y-69125483D02*
X109002285Y-69089197D01*
X109002285Y-69089197D02*
X108929714Y-69052911D01*
X108929714Y-69052911D02*
X108784571Y-69052911D01*
X108784571Y-69052911D02*
X108712000Y-69089197D01*
X108712000Y-69089197D02*
X108675714Y-69125483D01*
X108675714Y-69125483D02*
X108639428Y-69198054D01*
X108639428Y-69198054D02*
X108639428Y-69234340D01*
X108639428Y-69234340D02*
X108675714Y-69306911D01*
X108675714Y-69306911D02*
X108712000Y-69343197D01*
X108712000Y-69343197D02*
X108784571Y-69379483D01*
X108784571Y-69379483D02*
X108929714Y-69379483D01*
X108929714Y-69379483D02*
X109002285Y-69415768D01*
X109002285Y-69415768D02*
X109038571Y-69452054D01*
X109038571Y-69452054D02*
X109074857Y-69524626D01*
X109074857Y-69524626D02*
X109074857Y-69669768D01*
X109074857Y-69669768D02*
X109038571Y-69742340D01*
X109038571Y-69742340D02*
X109002285Y-69778626D01*
X109002285Y-69778626D02*
X108929714Y-69814911D01*
X108929714Y-69814911D02*
X108784571Y-69814911D01*
X108784571Y-69814911D02*
X108712000Y-69778626D01*
X108712000Y-69778626D02*
X108675714Y-69742340D01*
X108675714Y-69742340D02*
X108639428Y-69669768D01*
X108639428Y-69669768D02*
X108639428Y-69524626D01*
X108639428Y-69524626D02*
X108675714Y-69452054D01*
X108675714Y-69452054D02*
X108712000Y-69415768D01*
X108712000Y-69415768D02*
X108784571Y-69379483D01*
%TO.C,C37*%
X124187856Y-122066340D02*
X124224142Y-122102626D01*
X124224142Y-122102626D02*
X124332999Y-122138911D01*
X124332999Y-122138911D02*
X124405571Y-122138911D01*
X124405571Y-122138911D02*
X124514428Y-122102626D01*
X124514428Y-122102626D02*
X124586999Y-122030054D01*
X124586999Y-122030054D02*
X124623285Y-121957483D01*
X124623285Y-121957483D02*
X124659571Y-121812340D01*
X124659571Y-121812340D02*
X124659571Y-121703483D01*
X124659571Y-121703483D02*
X124623285Y-121558340D01*
X124623285Y-121558340D02*
X124586999Y-121485768D01*
X124586999Y-121485768D02*
X124514428Y-121413197D01*
X124514428Y-121413197D02*
X124405571Y-121376911D01*
X124405571Y-121376911D02*
X124332999Y-121376911D01*
X124332999Y-121376911D02*
X124224142Y-121413197D01*
X124224142Y-121413197D02*
X124187856Y-121449483D01*
X123933856Y-121376911D02*
X123462142Y-121376911D01*
X123462142Y-121376911D02*
X123716142Y-121667197D01*
X123716142Y-121667197D02*
X123607285Y-121667197D01*
X123607285Y-121667197D02*
X123534714Y-121703483D01*
X123534714Y-121703483D02*
X123498428Y-121739768D01*
X123498428Y-121739768D02*
X123462142Y-121812340D01*
X123462142Y-121812340D02*
X123462142Y-121993768D01*
X123462142Y-121993768D02*
X123498428Y-122066340D01*
X123498428Y-122066340D02*
X123534714Y-122102626D01*
X123534714Y-122102626D02*
X123607285Y-122138911D01*
X123607285Y-122138911D02*
X123824999Y-122138911D01*
X123824999Y-122138911D02*
X123897571Y-122102626D01*
X123897571Y-122102626D02*
X123933856Y-122066340D01*
X123208142Y-121376911D02*
X122700142Y-121376911D01*
X122700142Y-121376911D02*
X123026714Y-122138911D01*
%TO.C,C43*%
X110861340Y-120160143D02*
X110897626Y-120123857D01*
X110897626Y-120123857D02*
X110933911Y-120015000D01*
X110933911Y-120015000D02*
X110933911Y-119942428D01*
X110933911Y-119942428D02*
X110897626Y-119833571D01*
X110897626Y-119833571D02*
X110825054Y-119761000D01*
X110825054Y-119761000D02*
X110752483Y-119724714D01*
X110752483Y-119724714D02*
X110607340Y-119688428D01*
X110607340Y-119688428D02*
X110498483Y-119688428D01*
X110498483Y-119688428D02*
X110353340Y-119724714D01*
X110353340Y-119724714D02*
X110280768Y-119761000D01*
X110280768Y-119761000D02*
X110208197Y-119833571D01*
X110208197Y-119833571D02*
X110171911Y-119942428D01*
X110171911Y-119942428D02*
X110171911Y-120015000D01*
X110171911Y-120015000D02*
X110208197Y-120123857D01*
X110208197Y-120123857D02*
X110244483Y-120160143D01*
X110425911Y-120813286D02*
X110933911Y-120813286D01*
X110135626Y-120631857D02*
X110679911Y-120450428D01*
X110679911Y-120450428D02*
X110679911Y-120922143D01*
X110171911Y-121139857D02*
X110171911Y-121611571D01*
X110171911Y-121611571D02*
X110462197Y-121357571D01*
X110462197Y-121357571D02*
X110462197Y-121466428D01*
X110462197Y-121466428D02*
X110498483Y-121539000D01*
X110498483Y-121539000D02*
X110534768Y-121575285D01*
X110534768Y-121575285D02*
X110607340Y-121611571D01*
X110607340Y-121611571D02*
X110788768Y-121611571D01*
X110788768Y-121611571D02*
X110861340Y-121575285D01*
X110861340Y-121575285D02*
X110897626Y-121539000D01*
X110897626Y-121539000D02*
X110933911Y-121466428D01*
X110933911Y-121466428D02*
X110933911Y-121248714D01*
X110933911Y-121248714D02*
X110897626Y-121176142D01*
X110897626Y-121176142D02*
X110861340Y-121139857D01*
%TO.C,C36*%
X128543340Y-121176143D02*
X128579626Y-121139857D01*
X128579626Y-121139857D02*
X128615911Y-121031000D01*
X128615911Y-121031000D02*
X128615911Y-120958428D01*
X128615911Y-120958428D02*
X128579626Y-120849571D01*
X128579626Y-120849571D02*
X128507054Y-120777000D01*
X128507054Y-120777000D02*
X128434483Y-120740714D01*
X128434483Y-120740714D02*
X128289340Y-120704428D01*
X128289340Y-120704428D02*
X128180483Y-120704428D01*
X128180483Y-120704428D02*
X128035340Y-120740714D01*
X128035340Y-120740714D02*
X127962768Y-120777000D01*
X127962768Y-120777000D02*
X127890197Y-120849571D01*
X127890197Y-120849571D02*
X127853911Y-120958428D01*
X127853911Y-120958428D02*
X127853911Y-121031000D01*
X127853911Y-121031000D02*
X127890197Y-121139857D01*
X127890197Y-121139857D02*
X127926483Y-121176143D01*
X127853911Y-121430143D02*
X127853911Y-121901857D01*
X127853911Y-121901857D02*
X128144197Y-121647857D01*
X128144197Y-121647857D02*
X128144197Y-121756714D01*
X128144197Y-121756714D02*
X128180483Y-121829286D01*
X128180483Y-121829286D02*
X128216768Y-121865571D01*
X128216768Y-121865571D02*
X128289340Y-121901857D01*
X128289340Y-121901857D02*
X128470768Y-121901857D01*
X128470768Y-121901857D02*
X128543340Y-121865571D01*
X128543340Y-121865571D02*
X128579626Y-121829286D01*
X128579626Y-121829286D02*
X128615911Y-121756714D01*
X128615911Y-121756714D02*
X128615911Y-121539000D01*
X128615911Y-121539000D02*
X128579626Y-121466428D01*
X128579626Y-121466428D02*
X128543340Y-121430143D01*
X127853911Y-122555000D02*
X127853911Y-122409857D01*
X127853911Y-122409857D02*
X127890197Y-122337285D01*
X127890197Y-122337285D02*
X127926483Y-122301000D01*
X127926483Y-122301000D02*
X128035340Y-122228428D01*
X128035340Y-122228428D02*
X128180483Y-122192142D01*
X128180483Y-122192142D02*
X128470768Y-122192142D01*
X128470768Y-122192142D02*
X128543340Y-122228428D01*
X128543340Y-122228428D02*
X128579626Y-122264714D01*
X128579626Y-122264714D02*
X128615911Y-122337285D01*
X128615911Y-122337285D02*
X128615911Y-122482428D01*
X128615911Y-122482428D02*
X128579626Y-122555000D01*
X128579626Y-122555000D02*
X128543340Y-122591285D01*
X128543340Y-122591285D02*
X128470768Y-122627571D01*
X128470768Y-122627571D02*
X128289340Y-122627571D01*
X128289340Y-122627571D02*
X128216768Y-122591285D01*
X128216768Y-122591285D02*
X128180483Y-122555000D01*
X128180483Y-122555000D02*
X128144197Y-122482428D01*
X128144197Y-122482428D02*
X128144197Y-122337285D01*
X128144197Y-122337285D02*
X128180483Y-122264714D01*
X128180483Y-122264714D02*
X128216768Y-122228428D01*
X128216768Y-122228428D02*
X128289340Y-122192142D01*
%TO.C,C65*%
X115551856Y-83712340D02*
X115588142Y-83748626D01*
X115588142Y-83748626D02*
X115696999Y-83784911D01*
X115696999Y-83784911D02*
X115769571Y-83784911D01*
X115769571Y-83784911D02*
X115878428Y-83748626D01*
X115878428Y-83748626D02*
X115950999Y-83676054D01*
X115950999Y-83676054D02*
X115987285Y-83603483D01*
X115987285Y-83603483D02*
X116023571Y-83458340D01*
X116023571Y-83458340D02*
X116023571Y-83349483D01*
X116023571Y-83349483D02*
X115987285Y-83204340D01*
X115987285Y-83204340D02*
X115950999Y-83131768D01*
X115950999Y-83131768D02*
X115878428Y-83059197D01*
X115878428Y-83059197D02*
X115769571Y-83022911D01*
X115769571Y-83022911D02*
X115696999Y-83022911D01*
X115696999Y-83022911D02*
X115588142Y-83059197D01*
X115588142Y-83059197D02*
X115551856Y-83095483D01*
X114898714Y-83022911D02*
X115043856Y-83022911D01*
X115043856Y-83022911D02*
X115116428Y-83059197D01*
X115116428Y-83059197D02*
X115152714Y-83095483D01*
X115152714Y-83095483D02*
X115225285Y-83204340D01*
X115225285Y-83204340D02*
X115261571Y-83349483D01*
X115261571Y-83349483D02*
X115261571Y-83639768D01*
X115261571Y-83639768D02*
X115225285Y-83712340D01*
X115225285Y-83712340D02*
X115188999Y-83748626D01*
X115188999Y-83748626D02*
X115116428Y-83784911D01*
X115116428Y-83784911D02*
X114971285Y-83784911D01*
X114971285Y-83784911D02*
X114898714Y-83748626D01*
X114898714Y-83748626D02*
X114862428Y-83712340D01*
X114862428Y-83712340D02*
X114826142Y-83639768D01*
X114826142Y-83639768D02*
X114826142Y-83458340D01*
X114826142Y-83458340D02*
X114862428Y-83385768D01*
X114862428Y-83385768D02*
X114898714Y-83349483D01*
X114898714Y-83349483D02*
X114971285Y-83313197D01*
X114971285Y-83313197D02*
X115116428Y-83313197D01*
X115116428Y-83313197D02*
X115188999Y-83349483D01*
X115188999Y-83349483D02*
X115225285Y-83385768D01*
X115225285Y-83385768D02*
X115261571Y-83458340D01*
X114136714Y-83022911D02*
X114499571Y-83022911D01*
X114499571Y-83022911D02*
X114535857Y-83385768D01*
X114535857Y-83385768D02*
X114499571Y-83349483D01*
X114499571Y-83349483D02*
X114427000Y-83313197D01*
X114427000Y-83313197D02*
X114245571Y-83313197D01*
X114245571Y-83313197D02*
X114173000Y-83349483D01*
X114173000Y-83349483D02*
X114136714Y-83385768D01*
X114136714Y-83385768D02*
X114100428Y-83458340D01*
X114100428Y-83458340D02*
X114100428Y-83639768D01*
X114100428Y-83639768D02*
X114136714Y-83712340D01*
X114136714Y-83712340D02*
X114173000Y-83748626D01*
X114173000Y-83748626D02*
X114245571Y-83784911D01*
X114245571Y-83784911D02*
X114427000Y-83784911D01*
X114427000Y-83784911D02*
X114499571Y-83748626D01*
X114499571Y-83748626D02*
X114535857Y-83712340D01*
%TO.C,C63*%
X105264856Y-83712340D02*
X105301142Y-83748626D01*
X105301142Y-83748626D02*
X105409999Y-83784911D01*
X105409999Y-83784911D02*
X105482571Y-83784911D01*
X105482571Y-83784911D02*
X105591428Y-83748626D01*
X105591428Y-83748626D02*
X105663999Y-83676054D01*
X105663999Y-83676054D02*
X105700285Y-83603483D01*
X105700285Y-83603483D02*
X105736571Y-83458340D01*
X105736571Y-83458340D02*
X105736571Y-83349483D01*
X105736571Y-83349483D02*
X105700285Y-83204340D01*
X105700285Y-83204340D02*
X105663999Y-83131768D01*
X105663999Y-83131768D02*
X105591428Y-83059197D01*
X105591428Y-83059197D02*
X105482571Y-83022911D01*
X105482571Y-83022911D02*
X105409999Y-83022911D01*
X105409999Y-83022911D02*
X105301142Y-83059197D01*
X105301142Y-83059197D02*
X105264856Y-83095483D01*
X104611714Y-83022911D02*
X104756856Y-83022911D01*
X104756856Y-83022911D02*
X104829428Y-83059197D01*
X104829428Y-83059197D02*
X104865714Y-83095483D01*
X104865714Y-83095483D02*
X104938285Y-83204340D01*
X104938285Y-83204340D02*
X104974571Y-83349483D01*
X104974571Y-83349483D02*
X104974571Y-83639768D01*
X104974571Y-83639768D02*
X104938285Y-83712340D01*
X104938285Y-83712340D02*
X104901999Y-83748626D01*
X104901999Y-83748626D02*
X104829428Y-83784911D01*
X104829428Y-83784911D02*
X104684285Y-83784911D01*
X104684285Y-83784911D02*
X104611714Y-83748626D01*
X104611714Y-83748626D02*
X104575428Y-83712340D01*
X104575428Y-83712340D02*
X104539142Y-83639768D01*
X104539142Y-83639768D02*
X104539142Y-83458340D01*
X104539142Y-83458340D02*
X104575428Y-83385768D01*
X104575428Y-83385768D02*
X104611714Y-83349483D01*
X104611714Y-83349483D02*
X104684285Y-83313197D01*
X104684285Y-83313197D02*
X104829428Y-83313197D01*
X104829428Y-83313197D02*
X104901999Y-83349483D01*
X104901999Y-83349483D02*
X104938285Y-83385768D01*
X104938285Y-83385768D02*
X104974571Y-83458340D01*
X104285142Y-83022911D02*
X103813428Y-83022911D01*
X103813428Y-83022911D02*
X104067428Y-83313197D01*
X104067428Y-83313197D02*
X103958571Y-83313197D01*
X103958571Y-83313197D02*
X103886000Y-83349483D01*
X103886000Y-83349483D02*
X103849714Y-83385768D01*
X103849714Y-83385768D02*
X103813428Y-83458340D01*
X103813428Y-83458340D02*
X103813428Y-83639768D01*
X103813428Y-83639768D02*
X103849714Y-83712340D01*
X103849714Y-83712340D02*
X103886000Y-83748626D01*
X103886000Y-83748626D02*
X103958571Y-83784911D01*
X103958571Y-83784911D02*
X104176285Y-83784911D01*
X104176285Y-83784911D02*
X104248857Y-83748626D01*
X104248857Y-83748626D02*
X104285142Y-83712340D01*
%TO.C,C54*%
X135490856Y-144037340D02*
X135527142Y-144073626D01*
X135527142Y-144073626D02*
X135635999Y-144109911D01*
X135635999Y-144109911D02*
X135708571Y-144109911D01*
X135708571Y-144109911D02*
X135817428Y-144073626D01*
X135817428Y-144073626D02*
X135889999Y-144001054D01*
X135889999Y-144001054D02*
X135926285Y-143928483D01*
X135926285Y-143928483D02*
X135962571Y-143783340D01*
X135962571Y-143783340D02*
X135962571Y-143674483D01*
X135962571Y-143674483D02*
X135926285Y-143529340D01*
X135926285Y-143529340D02*
X135889999Y-143456768D01*
X135889999Y-143456768D02*
X135817428Y-143384197D01*
X135817428Y-143384197D02*
X135708571Y-143347911D01*
X135708571Y-143347911D02*
X135635999Y-143347911D01*
X135635999Y-143347911D02*
X135527142Y-143384197D01*
X135527142Y-143384197D02*
X135490856Y-143420483D01*
X134801428Y-143347911D02*
X135164285Y-143347911D01*
X135164285Y-143347911D02*
X135200571Y-143710768D01*
X135200571Y-143710768D02*
X135164285Y-143674483D01*
X135164285Y-143674483D02*
X135091714Y-143638197D01*
X135091714Y-143638197D02*
X134910285Y-143638197D01*
X134910285Y-143638197D02*
X134837714Y-143674483D01*
X134837714Y-143674483D02*
X134801428Y-143710768D01*
X134801428Y-143710768D02*
X134765142Y-143783340D01*
X134765142Y-143783340D02*
X134765142Y-143964768D01*
X134765142Y-143964768D02*
X134801428Y-144037340D01*
X134801428Y-144037340D02*
X134837714Y-144073626D01*
X134837714Y-144073626D02*
X134910285Y-144109911D01*
X134910285Y-144109911D02*
X135091714Y-144109911D01*
X135091714Y-144109911D02*
X135164285Y-144073626D01*
X135164285Y-144073626D02*
X135200571Y-144037340D01*
X134112000Y-143601911D02*
X134112000Y-144109911D01*
X134293428Y-143311626D02*
X134474857Y-143855911D01*
X134474857Y-143855911D02*
X134003142Y-143855911D01*
%TO.C,C5*%
X120796340Y-105537000D02*
X120832626Y-105500714D01*
X120832626Y-105500714D02*
X120868911Y-105391857D01*
X120868911Y-105391857D02*
X120868911Y-105319285D01*
X120868911Y-105319285D02*
X120832626Y-105210428D01*
X120832626Y-105210428D02*
X120760054Y-105137857D01*
X120760054Y-105137857D02*
X120687483Y-105101571D01*
X120687483Y-105101571D02*
X120542340Y-105065285D01*
X120542340Y-105065285D02*
X120433483Y-105065285D01*
X120433483Y-105065285D02*
X120288340Y-105101571D01*
X120288340Y-105101571D02*
X120215768Y-105137857D01*
X120215768Y-105137857D02*
X120143197Y-105210428D01*
X120143197Y-105210428D02*
X120106911Y-105319285D01*
X120106911Y-105319285D02*
X120106911Y-105391857D01*
X120106911Y-105391857D02*
X120143197Y-105500714D01*
X120143197Y-105500714D02*
X120179483Y-105537000D01*
X120106911Y-106226428D02*
X120106911Y-105863571D01*
X120106911Y-105863571D02*
X120469768Y-105827285D01*
X120469768Y-105827285D02*
X120433483Y-105863571D01*
X120433483Y-105863571D02*
X120397197Y-105936143D01*
X120397197Y-105936143D02*
X120397197Y-106117571D01*
X120397197Y-106117571D02*
X120433483Y-106190143D01*
X120433483Y-106190143D02*
X120469768Y-106226428D01*
X120469768Y-106226428D02*
X120542340Y-106262714D01*
X120542340Y-106262714D02*
X120723768Y-106262714D01*
X120723768Y-106262714D02*
X120796340Y-106226428D01*
X120796340Y-106226428D02*
X120832626Y-106190143D01*
X120832626Y-106190143D02*
X120868911Y-106117571D01*
X120868911Y-106117571D02*
X120868911Y-105936143D01*
X120868911Y-105936143D02*
X120832626Y-105863571D01*
X120832626Y-105863571D02*
X120796340Y-105827285D01*
%TO.C,C82*%
X119107856Y-140735340D02*
X119144142Y-140771626D01*
X119144142Y-140771626D02*
X119252999Y-140807911D01*
X119252999Y-140807911D02*
X119325571Y-140807911D01*
X119325571Y-140807911D02*
X119434428Y-140771626D01*
X119434428Y-140771626D02*
X119506999Y-140699054D01*
X119506999Y-140699054D02*
X119543285Y-140626483D01*
X119543285Y-140626483D02*
X119579571Y-140481340D01*
X119579571Y-140481340D02*
X119579571Y-140372483D01*
X119579571Y-140372483D02*
X119543285Y-140227340D01*
X119543285Y-140227340D02*
X119506999Y-140154768D01*
X119506999Y-140154768D02*
X119434428Y-140082197D01*
X119434428Y-140082197D02*
X119325571Y-140045911D01*
X119325571Y-140045911D02*
X119252999Y-140045911D01*
X119252999Y-140045911D02*
X119144142Y-140082197D01*
X119144142Y-140082197D02*
X119107856Y-140118483D01*
X118672428Y-140372483D02*
X118744999Y-140336197D01*
X118744999Y-140336197D02*
X118781285Y-140299911D01*
X118781285Y-140299911D02*
X118817571Y-140227340D01*
X118817571Y-140227340D02*
X118817571Y-140191054D01*
X118817571Y-140191054D02*
X118781285Y-140118483D01*
X118781285Y-140118483D02*
X118744999Y-140082197D01*
X118744999Y-140082197D02*
X118672428Y-140045911D01*
X118672428Y-140045911D02*
X118527285Y-140045911D01*
X118527285Y-140045911D02*
X118454714Y-140082197D01*
X118454714Y-140082197D02*
X118418428Y-140118483D01*
X118418428Y-140118483D02*
X118382142Y-140191054D01*
X118382142Y-140191054D02*
X118382142Y-140227340D01*
X118382142Y-140227340D02*
X118418428Y-140299911D01*
X118418428Y-140299911D02*
X118454714Y-140336197D01*
X118454714Y-140336197D02*
X118527285Y-140372483D01*
X118527285Y-140372483D02*
X118672428Y-140372483D01*
X118672428Y-140372483D02*
X118744999Y-140408768D01*
X118744999Y-140408768D02*
X118781285Y-140445054D01*
X118781285Y-140445054D02*
X118817571Y-140517626D01*
X118817571Y-140517626D02*
X118817571Y-140662768D01*
X118817571Y-140662768D02*
X118781285Y-140735340D01*
X118781285Y-140735340D02*
X118744999Y-140771626D01*
X118744999Y-140771626D02*
X118672428Y-140807911D01*
X118672428Y-140807911D02*
X118527285Y-140807911D01*
X118527285Y-140807911D02*
X118454714Y-140771626D01*
X118454714Y-140771626D02*
X118418428Y-140735340D01*
X118418428Y-140735340D02*
X118382142Y-140662768D01*
X118382142Y-140662768D02*
X118382142Y-140517626D01*
X118382142Y-140517626D02*
X118418428Y-140445054D01*
X118418428Y-140445054D02*
X118454714Y-140408768D01*
X118454714Y-140408768D02*
X118527285Y-140372483D01*
X118091857Y-140118483D02*
X118055571Y-140082197D01*
X118055571Y-140082197D02*
X117983000Y-140045911D01*
X117983000Y-140045911D02*
X117801571Y-140045911D01*
X117801571Y-140045911D02*
X117729000Y-140082197D01*
X117729000Y-140082197D02*
X117692714Y-140118483D01*
X117692714Y-140118483D02*
X117656428Y-140191054D01*
X117656428Y-140191054D02*
X117656428Y-140263626D01*
X117656428Y-140263626D02*
X117692714Y-140372483D01*
X117692714Y-140372483D02*
X118128142Y-140807911D01*
X118128142Y-140807911D02*
X117656428Y-140807911D01*
D11*
%TO.C,C14*%
X89802580Y-113794000D02*
X89521420Y-113794000D01*
X89802580Y-112774000D02*
X89521420Y-112774000D01*
%TO.C,C79*%
X114781000Y-134104748D02*
X114781000Y-134627252D01*
X113311000Y-134104748D02*
X113311000Y-134627252D01*
%TO.C,R92*%
X138698500Y-57928742D02*
X138698500Y-58403258D01*
X137653500Y-57928742D02*
X137653500Y-58403258D01*
%TO.C,R85*%
X107837500Y-64532742D02*
X107837500Y-65007258D01*
X106792500Y-64532742D02*
X106792500Y-65007258D01*
%TO.C,R82*%
X100598500Y-64532742D02*
X100598500Y-65007258D01*
X99553500Y-64532742D02*
X99553500Y-65007258D01*
%TO.C,R34*%
X92441500Y-104377258D02*
X92441500Y-103902742D01*
X93486500Y-104377258D02*
X93486500Y-103902742D01*
%TO.C,C1*%
X91326580Y-67947000D02*
X91045420Y-67947000D01*
X91326580Y-66927000D02*
X91045420Y-66927000D01*
%TO.C,Q1*%
X72274000Y-57388000D02*
X72274000Y-55738000D01*
X70474000Y-55738000D02*
X70474000Y-57038000D01*
%TO.C,C24*%
X83564000Y-103772580D02*
X83564000Y-103491420D01*
X84584000Y-103772580D02*
X84584000Y-103491420D01*
%TO.C,C29*%
X137554580Y-104782000D02*
X137273420Y-104782000D01*
X137554580Y-103762000D02*
X137273420Y-103762000D01*
%TO.C,C23*%
X88892748Y-92991000D02*
X89415252Y-92991000D01*
X88892748Y-94461000D02*
X89415252Y-94461000D01*
%TO.C,C32*%
X137554580Y-123578000D02*
X137273420Y-123578000D01*
X137554580Y-122558000D02*
X137273420Y-122558000D01*
%TO.C,C72*%
X144893420Y-53846000D02*
X145174580Y-53846000D01*
X144893420Y-54866000D02*
X145174580Y-54866000D01*
%TO.C,U24*%
X139664000Y-55626000D02*
X139664000Y-56426000D01*
X139664000Y-55626000D02*
X139664000Y-54826000D01*
X142784000Y-55626000D02*
X142784000Y-57426000D01*
X142784000Y-55626000D02*
X142784000Y-54826000D01*
%TO.C,R86*%
X106059500Y-64532742D02*
X106059500Y-65007258D01*
X105014500Y-64532742D02*
X105014500Y-65007258D01*
%TO.C,R24*%
X71474359Y-53722000D02*
X71781641Y-53722000D01*
X71474359Y-54482000D02*
X71781641Y-54482000D01*
D12*
%TO.C,LED4*%
X79140000Y-51624000D02*
X79240000Y-51724000D01*
X78340000Y-51624000D02*
X78440000Y-51724000D01*
X79040000Y-51724000D02*
X79140000Y-51624000D01*
X78240000Y-51724000D02*
X78340000Y-51624000D01*
X79140000Y-51824000D02*
X79140000Y-51624000D01*
X78340000Y-51824000D02*
X78340000Y-51624000D01*
D11*
X78940000Y-51924000D02*
X78940000Y-52724000D01*
X78540000Y-51924000D02*
X78540000Y-52724000D01*
X78940000Y-52324000D02*
X78540000Y-51924000D01*
X78940000Y-52324000D02*
X79140000Y-52324000D01*
X78540000Y-52324000D02*
X78340000Y-52324000D01*
X78540000Y-52724000D02*
X78940000Y-52324000D01*
%TO.C,C73*%
X141110580Y-59438000D02*
X140829420Y-59438000D01*
X141110580Y-58418000D02*
X140829420Y-58418000D01*
%TO.C,C78*%
X124213252Y-139927000D02*
X123690748Y-139927000D01*
X124213252Y-138457000D02*
X123690748Y-138457000D01*
%TO.C,C84*%
X113257000Y-139184748D02*
X113257000Y-139707252D01*
X111787000Y-139184748D02*
X111787000Y-139707252D01*
%TO.C,C48*%
X114527000Y-96512748D02*
X114527000Y-97035252D01*
X113057000Y-96512748D02*
X113057000Y-97035252D01*
%TO.C,C41*%
X115577252Y-122401000D02*
X115054748Y-122401000D01*
X115577252Y-120931000D02*
X115054748Y-120931000D01*
%TO.C,C67*%
X128531252Y-84174000D02*
X128008748Y-84174000D01*
X128531252Y-82704000D02*
X128008748Y-82704000D01*
%TO.C,C62*%
X108211252Y-80999000D02*
X107688748Y-80999000D01*
X108211252Y-79529000D02*
X107688748Y-79529000D01*
%TO.C,R20*%
X75845641Y-54482000D02*
X75538359Y-54482000D01*
X75845641Y-53722000D02*
X75538359Y-53722000D01*
%TO.C,C71*%
X145026748Y-55907000D02*
X145549252Y-55907000D01*
X145026748Y-57377000D02*
X145549252Y-57377000D01*
%TO.C,R37*%
X125744500Y-115967742D02*
X125744500Y-116442258D01*
X124699500Y-115967742D02*
X124699500Y-116442258D01*
%TO.C,C17*%
X93474000Y-107555420D02*
X93474000Y-107836580D01*
X92454000Y-107555420D02*
X92454000Y-107836580D01*
%TO.C,C57*%
X137400420Y-97026000D02*
X137681580Y-97026000D01*
X137400420Y-98046000D02*
X137681580Y-98046000D01*
%TO.C,C46*%
X127510000Y-102729420D02*
X127510000Y-103010580D01*
X126490000Y-102729420D02*
X126490000Y-103010580D01*
%TO.C,C22*%
X89415252Y-96620000D02*
X88892748Y-96620000D01*
X89415252Y-95150000D02*
X88892748Y-95150000D01*
%TO.C,R15*%
X84250500Y-112696258D02*
X84250500Y-112221742D01*
X85295500Y-112696258D02*
X85295500Y-112221742D01*
%TO.C,C49*%
X116334000Y-96633420D02*
X116334000Y-96914580D01*
X115314000Y-96633420D02*
X115314000Y-96914580D01*
%TO.C,C25*%
X85244000Y-103893252D02*
X85244000Y-103370748D01*
X86714000Y-103893252D02*
X86714000Y-103370748D01*
%TO.C,C77*%
X127510000Y-140321420D02*
X127510000Y-140602580D01*
X126490000Y-140321420D02*
X126490000Y-140602580D01*
%TO.C,C64*%
X118371252Y-80999000D02*
X117848748Y-80999000D01*
X118371252Y-79529000D02*
X117848748Y-79529000D01*
%TO.C,C16*%
X93474000Y-100443420D02*
X93474000Y-100724580D01*
X92454000Y-100443420D02*
X92454000Y-100724580D01*
%TO.C,R27*%
X78866000Y-59790359D02*
X78866000Y-60097641D01*
X78106000Y-59790359D02*
X78106000Y-60097641D01*
%TO.C,R31*%
X74550000Y-56795641D02*
X74550000Y-56488359D01*
X75310000Y-56795641D02*
X75310000Y-56488359D01*
%TO.C,Q7*%
X102170000Y-63610000D02*
X103570000Y-63610000D01*
X103570000Y-65930000D02*
X101670000Y-65930000D01*
%TO.C,R84*%
X106917258Y-71769500D02*
X106442742Y-71769500D01*
X106917258Y-70724500D02*
X106442742Y-70724500D01*
%TO.C,R93*%
X137653500Y-55101258D02*
X137653500Y-54626742D01*
X138698500Y-55101258D02*
X138698500Y-54626742D01*
%TO.C,C15*%
X88759420Y-98169000D02*
X89040580Y-98169000D01*
X88759420Y-99189000D02*
X89040580Y-99189000D01*
%TO.C,C11*%
X137400420Y-115822000D02*
X137681580Y-115822000D01*
X137400420Y-116842000D02*
X137681580Y-116842000D01*
%TO.C,C74*%
X140411252Y-62378000D02*
X138988748Y-62378000D01*
X140411252Y-60558000D02*
X138988748Y-60558000D01*
D12*
%TO.C,LED2*%
X72155000Y-51624000D02*
X72255000Y-51724000D01*
X71355000Y-51624000D02*
X71455000Y-51724000D01*
X72055000Y-51724000D02*
X72155000Y-51624000D01*
X71255000Y-51724000D02*
X71355000Y-51624000D01*
X72155000Y-51824000D02*
X72155000Y-51624000D01*
X71355000Y-51824000D02*
X71355000Y-51624000D01*
D11*
X71955000Y-51924000D02*
X71955000Y-52724000D01*
X71555000Y-51924000D02*
X71555000Y-52724000D01*
X71955000Y-52324000D02*
X71555000Y-51924000D01*
X71955000Y-52324000D02*
X72155000Y-52324000D01*
X71555000Y-52324000D02*
X71355000Y-52324000D01*
X71555000Y-52724000D02*
X71955000Y-52324000D01*
%TO.C,C7*%
X116711000Y-106820580D02*
X116711000Y-106539420D01*
X117731000Y-106820580D02*
X117731000Y-106539420D01*
%TO.C,C80*%
X116588000Y-134225420D02*
X116588000Y-134506580D01*
X115568000Y-134225420D02*
X115568000Y-134506580D01*
%TO.C,C66*%
X128531252Y-80999000D02*
X128008748Y-80999000D01*
X128531252Y-79529000D02*
X128008748Y-79529000D01*
%TO.C,C2*%
X95363420Y-66165000D02*
X95644580Y-66165000D01*
X95363420Y-67185000D02*
X95644580Y-67185000D01*
%TO.C,C55*%
X137808580Y-142374000D02*
X137527420Y-142374000D01*
X137808580Y-141354000D02*
X137527420Y-141354000D01*
%TO.C,R89*%
X99553500Y-70595258D02*
X99553500Y-70120742D01*
X100598500Y-70595258D02*
X100598500Y-70120742D01*
%TO.C,C28*%
X137554580Y-106682000D02*
X137273420Y-106682000D01*
X137554580Y-105662000D02*
X137273420Y-105662000D01*
%TO.C,R52*%
X125744500Y-97171742D02*
X125744500Y-97646258D01*
X124699500Y-97171742D02*
X124699500Y-97646258D01*
%TO.C,C38*%
X114527000Y-115308748D02*
X114527000Y-115831252D01*
X113057000Y-115308748D02*
X113057000Y-115831252D01*
%TO.C,Q9*%
X102170000Y-69198000D02*
X103570000Y-69198000D01*
X103570000Y-71518000D02*
X101670000Y-71518000D01*
%TO.C,R21*%
X73786000Y-56488359D02*
X73786000Y-56795641D01*
X73026000Y-56488359D02*
X73026000Y-56795641D01*
%TO.C,C42*%
X115202580Y-120144000D02*
X114921420Y-120144000D01*
X115202580Y-119124000D02*
X114921420Y-119124000D01*
%TO.C,Q2*%
X78170000Y-58056000D02*
X76770000Y-58056000D01*
X76770000Y-55736000D02*
X78670000Y-55736000D01*
%TO.C,C52*%
X115202580Y-101348000D02*
X114921420Y-101348000D01*
X115202580Y-100328000D02*
X114921420Y-100328000D01*
%TO.C,C83*%
X115456580Y-138940000D02*
X115175420Y-138940000D01*
X115456580Y-137920000D02*
X115175420Y-137920000D01*
%TO.C,C47*%
X123705252Y-102335000D02*
X123182748Y-102335000D01*
X123705252Y-100865000D02*
X123182748Y-100865000D01*
%TO.C,C70*%
X102608748Y-66829000D02*
X103131252Y-66829000D01*
X102608748Y-68299000D02*
X103131252Y-68299000D01*
D12*
%TO.C,LED1*%
X75965000Y-51624000D02*
X76065000Y-51724000D01*
X75165000Y-51624000D02*
X75265000Y-51724000D01*
X75865000Y-51724000D02*
X75965000Y-51624000D01*
X75065000Y-51724000D02*
X75165000Y-51624000D01*
X75965000Y-51824000D02*
X75965000Y-51624000D01*
X75165000Y-51824000D02*
X75165000Y-51624000D01*
D11*
X75765000Y-51924000D02*
X75765000Y-52724000D01*
X75365000Y-51924000D02*
X75365000Y-52724000D01*
X75765000Y-52324000D02*
X75365000Y-51924000D01*
X75765000Y-52324000D02*
X75965000Y-52324000D01*
X75365000Y-52324000D02*
X75165000Y-52324000D01*
X75365000Y-52724000D02*
X75765000Y-52324000D01*
%TO.C,C39*%
X116334000Y-115429420D02*
X116334000Y-115710580D01*
X115314000Y-115429420D02*
X115314000Y-115710580D01*
%TO.C,C18*%
X85965420Y-109218000D02*
X86246580Y-109218000D01*
X85965420Y-110238000D02*
X86246580Y-110238000D01*
%TO.C,C31*%
X137554580Y-125478000D02*
X137273420Y-125478000D01*
X137554580Y-124458000D02*
X137273420Y-124458000D01*
%TO.C,R90*%
X78893641Y-54482000D02*
X78586359Y-54482000D01*
X78893641Y-53722000D02*
X78586359Y-53722000D01*
%TO.C,R95*%
X125998500Y-134763742D02*
X125998500Y-135238258D01*
X124953500Y-134763742D02*
X124953500Y-135238258D01*
%TO.C,C53*%
X113003000Y-101592748D02*
X113003000Y-102115252D01*
X111533000Y-101592748D02*
X111533000Y-102115252D01*
%TO.C,C51*%
X115577252Y-103605000D02*
X115054748Y-103605000D01*
X115577252Y-102135000D02*
X115054748Y-102135000D01*
%TO.C,C58*%
X137654420Y-134618000D02*
X137935580Y-134618000D01*
X137654420Y-135638000D02*
X137935580Y-135638000D01*
%TO.C,R88*%
X106442742Y-68946500D02*
X106917258Y-68946500D01*
X106442742Y-69991500D02*
X106917258Y-69991500D01*
%TO.C,C37*%
X123959252Y-120877000D02*
X123436748Y-120877000D01*
X123959252Y-119407000D02*
X123436748Y-119407000D01*
%TO.C,C43*%
X113003000Y-120388748D02*
X113003000Y-120911252D01*
X111533000Y-120388748D02*
X111533000Y-120911252D01*
%TO.C,C36*%
X127510000Y-121525420D02*
X127510000Y-121806580D01*
X126490000Y-121525420D02*
X126490000Y-121806580D01*
%TO.C,C65*%
X118371252Y-84174000D02*
X117848748Y-84174000D01*
X118371252Y-82704000D02*
X117848748Y-82704000D01*
%TO.C,C63*%
X108211252Y-84174000D02*
X107688748Y-84174000D01*
X108211252Y-82704000D02*
X107688748Y-82704000D01*
%TO.C,C54*%
X137808580Y-144274000D02*
X137527420Y-144274000D01*
X137808580Y-143254000D02*
X137527420Y-143254000D01*
%TO.C,C5*%
X119788000Y-108531252D02*
X119788000Y-108008748D01*
X121258000Y-108531252D02*
X121258000Y-108008748D01*
%TO.C,C82*%
X115831252Y-141197000D02*
X115308748Y-141197000D01*
X115831252Y-139727000D02*
X115308748Y-139727000D01*
%TD*%
M02*
